<svg width="400" height="200" viewbox = "0 0 400 200"  xmlns="http://www.w3.org/2000/svg">
<!--<json>{
  "glyph": "0337,0337,0337,0337,0337,0321,0347,0300,0330,0332,0332,0332,0332,0330,0330,0330,0332,0330,0332,01141,01072,01330,01123,01072,01331,01144,01072,01332,01146,01072,01333,0331,0331,0332,0332,0332,0332,0332,0332,0332,0332,0332,0332,01147,01072,01334,01150,01072,01335,01152,01072,01336,01153,01072,01337,",
  "x0": 204.54545454545456,
  "y0": 220.939762250895,
  "unit": 28.223696502688867,
  "width": 400,
  "height": 200,
  "style": {
    "color0": "#00ff00",
    "fill0": "#00ff00",
    "line0": 1,
    "color1": "black",
    "fill1": "black",
    "line1": 5,
    "color2": "red",
    "fill2": "red",
    "line2": 4,
    "color3": "#FF7900",
    "fill3": "#FF7900",
    "line3": 4,
    "color4": "yellow",
    "fill4": "yellow",
    "line4": 4,
    "color5": "#00ff00",
    "fill5": "#00ff00",
    "line5": 4,
    "color6": "blue",
    "fill6": "blue",
    "line6": 4,
    "color7": "purple",
    "fill7": "purple",
    "line7": 4
  },
  "shapes": [
    "0220:0312,0306,0350,0330,0362,0335,0335,0335,0335,0335,0351,0351,0337,0203,0335,0203,0335,0203,0363,0350,0350,0334,0336,0331,0306,",
    "0221:0210,0210,0220,0211,0211,",
    "0222:0304,0322,0221,0335,0330,0323,0221,0335,0330,0324,0221,0335,0330,0325,0221,0335,0330,0326,0221,0335,0330,0327,0221,0335,0330,0330,0350,0335,0335,0335,0312,0337,0320,0362,0203,0335,0335,0203,0335,0335,0203,0335,0335,0203,0335,0335,0203,0335,0335,0203,0354,0334,0336,0331,0306,",
    "0223:0304,0312,0336,0334,0306,0350,0334,0334,0331,0222,0330,0335,0335,0350,0335,0306,0312,0337,0306,",
    "0224:0306,0333,0331,0223,0335,0335,0223,0335,0335,0223,0332,0334,0223,0332,0334,0223,0334,0334,0330,0330,0335,0223,0333,0330,0332,0334,0334,0334,0334,0334,0331,0331,0331,0223,0330,0333,0330,0332,0332,0331,0331,0223,0333,0333,0333,0335,0335,0335,0335,0333,",
    "0225:0224,0224,0224,0224,0224,0224,0224,",
    "0230:0304,0327,0336,0331,0336,0336,0330,0335,0362,0203,0203,0203,0203,0203,0335,0203,0203,0335,0203,0203,0203,0203,0203,0203,0203,0203,0203,0203,0335,0203,0203,0335,0203,0203,0203,0203,0203,0363,0334,0331,0320,0336,0333,0337,0334,0306,0335,0362,0203,0334,0334,0203,0334,0203,0334,0334,0203,0363,0333,0362,0203,0335,0335,0203,0335,0203,0335,0335,0203,0363,0331,0335,0330,0333,0362,0203,0335,0335,0203,0335,0203,0335,0335,0203,0363,0332,0332,0332,0332,0332,0362,0203,0334,0334,0203,0334,0203,0334,0334,0203,0363,0332,0331,0332,0331,0334,0362,0203,0334,0334,0203,0334,0203,0334,0334,0203,0363,0333,0333,0333,0333,0335,0304,0334,0313,0336,0332,0337,0337,0337,0330,0337,0306,",
    "0231:0210,0306,0335,0330,0335,0335,0350,0335,0312,0337,0362,0203,0335,0335,0335,0335,0203,0335,0335,0335,0335,0203,0363,0334,0336,0331,0334,0334,0306,0351,0211,",
    "0232:0231,0231,0231,0231,0231,0231,0231,0231,",
    "0233:0220,0336,0210,0232,",
    "0234:0330,0312,0306,0350,0335,0335,0335,0335,0335,0337,0362,0203,0335,0335,0335,0335,0203,0335,0335,0335,0335,0203,0363,0334,0336,0331,0306,0313,",
    "0235:0210,0210,0234,0211,0211,",
    "0236:0322,0235,0335,0330,0323,0235,0335,0330,0324,0235,0335,0330,0325,0235,0335,0330,0326,0235,0335,0330,0327,0235,0330,0335,0335,0350,0334,0312,0337,0320,0362,0203,0335,0335,0203,0335,0335,0203,0335,0335,0203,0335,0335,0203,0335,0335,0203,0354,0335,0335,0336,0335,0330,0334,0334,0313,0306,",
    "0237:0236,0332,0334,0334,0334,0236,0335,0335,0335,0335,0330,0330,0334,0334,0334,0236,0335,0335,0335,0330,0335,0330,0335,0335,0335,0335,0236,",
    "01220:0333,0200,0336,0330,0332,0220,0313,0304,0331,0333,0337,",
    "01221:0333,0200,0336,0330,0332,0221,0330,0335,0335,0350,0335,0312,0337,0201,0335,0335,0335,0335,0201,0335,0335,0335,0335,0201,0334,0336,0331,0313,0304,0331,0333,0337,0313,0304,",
    "01222:0333,0200,0336,0330,0332,0336,0336,0222,0313,0337,0304,0337,0331,0333,0337,",
    "01223:0333,0200,0336,0330,0332,0223,0313,0304,0331,0333,0337,0320,",
    "01224:0333,0200,0336,0330,0332,0336,0332,0224,0313,0304,0331,0333,0331,0333,0333,0337,0337,",
    "01225:0333,0200,0336,0330,0332,0336,0332,0225,0313,0304,0331,0331,0333,0333,0333,0337,0337,0320,",
    "01226:0333,0200,0336,0336,0330,0332,0226,0331,0333,0337,0337,",
    "01227:0333,0200,0336,0330,0332,0336,0331,0333,0337,0227,0336,0331,0333,0337,0337,",
    "01230:0333,0200,0336,0330,0332,0336,0331,0330,0230,0313,0304,0331,0333,0331,0333,0337,0337,",
    "01231:0333,0200,0336,0330,0332,0336,0231,0313,0304,0337,0331,0333,0337,",
    "01232:0333,0200,",
    "01233:0333,0200,",
    "01234:0333,0200,",
    "01235:0333,0200,",
    "01236:0333,0200,",
    "01237:0333,0200,",
    "0240:0220,0336,0331,0333,0336,0321,0335,0342,0335,0335,0342,0335,0330,0330,0332,0332,0337,0337,",
    "01240:0333,0200,0336,0330,0332,0210,0240,0211,0333,0331,0337,",
    "0241:0220,0336,0321,0343,0332,0350,0335,0336,0342,0334,0334,0342,0335,0304,0337,0333,0337,",
    "01241:0333,0200,0336,0332,0330,0210,0241,0211,0333,0331,0337,",
    "0242:0220,0321,0336,0343,0333,0336,0350,0335,0342,0334,0334,0342,0335,0337,0304,0332,0337,",
    "01242:0333,0200,0336,0330,0332,0210,0242,0211,0333,0331,0337,",
    "0243:0220,0336,0331,0332,0336,0321,0343,0332,0350,0334,0336,0342,0335,0335,0342,0337,0334,0334,0335,0304,0332,0330,0330,0337,0337,0333,",
    "01243:0333,0200,0336,0330,0332,0210,0243,0211,0333,0331,0337,",
    "0244:0220,0336,0331,0333,0336,0321,0343,0333,0350,0336,0335,0342,0334,0334,0342,0335,0337,0304,0333,0330,0330,0337,0337,0332,",
    "01244:0333,0200,0336,0330,0332,0210,0244,0211,0333,0331,0337,",
    "0245:0210,0332,0332,0362,0335,0203,0203,0203,0203,0334,0203,0363,0332,0332,0331,0211,",
    "01245:0333,0200,0336,0330,0332,0336,0245,0337,0333,0331,0337,",
    "0246:0210,0332,0332,0335,0306,0336,0330,0335,0335,0335,0321,0362,0203,0335,0335,0203,0364,0331,0350,0335,0337,0366,0333,0333,0333,0333,0334,0334,0334,0334,0367,0335,0336,0342,0334,0334,0342,0330,0330,0330,0330,0335,0335,0335,0304,0337,0211,",
    "01246:0333,0200,0336,0330,0332,0336,0246,",
    "0247:0330,0332,0336,0332,0336,0221,0333,0333,0333,0222,0333,0333,0333,0223,0333,0333,0333,0225,0333,0331,0331,0331,0332,0332,0332,0332,0332,0332,0332,0332,0332,0332,0332,0332,0333,0333,0226,0331,0331,0331,0333,0333,0333,0333,0333,0333,0333,0333,0333,0333,0333,0333,0333,0330,0333,0330,0330,0333,0330,0331,0332,0332,0332,0332,0332,0332,0332,0332,0332,0332,0332,0332,0227,0333,0333,0333,0230,0333,0331,0331,0331,0331,0332,0332,0332,0330,0332,0332,0332,0332,0332,0332,0333,0333,0231,0333,0333,0333,0232,0331,0333,0330,0333,0333,0233,0333,0333,0333,0234,0330,0330,0332,0330,0332,0332,0337,0337,",
    "01247:0333,0200,0336,0330,0332,0220,0336,0247,0337,0331,0333,0337,"
  ]
}</json>-->    <circle cx="205" cy = "221" r = "903.1582880860437" stroke = "#000000" stroke-width = "5" fill = "#000000" />
    <circle cx="39" cy = "76" r = "1.7639810314180542" stroke = "#00ff00" stroke-width = "1" fill = "#00ff00" />
    <circle cx="42" cy = "73" r = "1.7639810314180542" stroke = "#00ff00" stroke-width = "1" fill = "#00ff00" />
    <circle cx="46" cy = "73" r = "1.7639810314180542" stroke = "#00ff00" stroke-width = "1" fill = "#00ff00" />
    <circle cx="49" cy = "73" r = "1.7639810314180542" stroke = "#00ff00" stroke-width = "1" fill = "#00ff00" />
    <circle cx="53" cy = "73" r = "1.7639810314180542" stroke = "#00ff00" stroke-width = "1" fill = "#00ff00" />
    <circle cx="53" cy = "69" r = "1.7639810314180542" stroke = "#00ff00" stroke-width = "1" fill = "#00ff00" />
    <circle cx="49" cy = "66" r = "1.7639810314180542" stroke = "#00ff00" stroke-width = "1" fill = "#00ff00" />
    <circle cx="46" cy = "66" r = "1.7639810314180542" stroke = "#00ff00" stroke-width = "1" fill = "#00ff00" />
    <circle cx="42" cy = "66" r = "1.7639810314180542" stroke = "#00ff00" stroke-width = "1" fill = "#00ff00" />
    <circle cx="53" cy = "76" r = "1.7639810314180542" stroke = "#00ff00" stroke-width = "1" fill = "#00ff00" />
    <circle cx="53" cy = "80" r = "1.7639810314180542" stroke = "#00ff00" stroke-width = "1" fill = "#00ff00" />
    <circle cx="49" cy = "80" r = "1.7639810314180542" stroke = "#00ff00" stroke-width = "1" fill = "#00ff00" />
    <circle cx="46" cy = "80" r = "1.7639810314180542" stroke = "#00ff00" stroke-width = "1" fill = "#00ff00" />
    <circle cx="42" cy = "80" r = "1.7639810314180542" stroke = "#00ff00" stroke-width = "1" fill = "#00ff00" />
    <circle cx="67" cy = "76" r = "1.7639810314180542" stroke = "#00ff00" stroke-width = "1" fill = "#00ff00" />
    <circle cx="63" cy = "76" r = "1.7639810314180542" stroke = "#00ff00" stroke-width = "1" fill = "#00ff00" />
    <circle cx="63" cy = "73" r = "1.7639810314180542" stroke = "#00ff00" stroke-width = "1" fill = "#00ff00" />
    <circle cx="67" cy = "73" r = "1.7639810314180542" stroke = "#00ff00" stroke-width = "1" fill = "#00ff00" />
    <circle cx="67" cy = "66" r = "1.7639810314180542" stroke = "#00ff00" stroke-width = "1" fill = "#00ff00" />
    <circle cx="63" cy = "66" r = "1.7639810314180542" stroke = "#00ff00" stroke-width = "1" fill = "#00ff00" />
    <circle cx="63" cy = "62" r = "1.7639810314180542" stroke = "#00ff00" stroke-width = "1" fill = "#00ff00" />
    <circle cx="67" cy = "62" r = "1.7639810314180542" stroke = "#00ff00" stroke-width = "1" fill = "#00ff00" />
	<path d = "M106 80 L106 52 L78 52 L78 80 L106 80 Z" stroke = "#00ff00" stroke-width = "1" fill = "none" />	<path d = "M95 73 L88 73 L88 66 L85 66 L88 62 L92 59 L95 62 L99 66 L95 66 L95 73 Z" stroke = "#00ff00" stroke-width = "1" fill = "none" />    <circle cx="109" cy = "76" r = "1.7639810314180544" stroke = "#00ff00" stroke-width = "1" fill = "#00ff00" />
    <circle cx="113" cy = "80" r = "1.7639810314180544" stroke = "#00ff00" stroke-width = "1" fill = "#00ff00" />
    <circle cx="116" cy = "80" r = "1.7639810314180544" stroke = "#00ff00" stroke-width = "1" fill = "#00ff00" />
    <circle cx="120" cy = "80" r = "1.7639810314180544" stroke = "#00ff00" stroke-width = "1" fill = "#00ff00" />
    <circle cx="123" cy = "76" r = "1.7639810314180544" stroke = "#00ff00" stroke-width = "1" fill = "#00ff00" />
    <circle cx="123" cy = "73" r = "1.7639810314180544" stroke = "#00ff00" stroke-width = "1" fill = "#00ff00" />
    <circle cx="120" cy = "69" r = "1.7639810314180544" stroke = "#00ff00" stroke-width = "1" fill = "#00ff00" />
    <circle cx="116" cy = "69" r = "1.7639810314180544" stroke = "#00ff00" stroke-width = "1" fill = "#00ff00" />
    <circle cx="113" cy = "69" r = "1.7639810314180544" stroke = "#00ff00" stroke-width = "1" fill = "#00ff00" />
    <circle cx="109" cy = "66" r = "1.7639810314180544" stroke = "#00ff00" stroke-width = "1" fill = "#00ff00" />
    <circle cx="109" cy = "62" r = "1.7639810314180544" stroke = "#00ff00" stroke-width = "1" fill = "#00ff00" />
    <circle cx="113" cy = "59" r = "1.7639810314180544" stroke = "#00ff00" stroke-width = "1" fill = "#00ff00" />
    <circle cx="116" cy = "59" r = "1.7639810314180544" stroke = "#00ff00" stroke-width = "1" fill = "#00ff00" />
    <circle cx="120" cy = "59" r = "1.7639810314180544" stroke = "#00ff00" stroke-width = "1" fill = "#00ff00" />
    <circle cx="123" cy = "62" r = "1.7639810314180544" stroke = "#00ff00" stroke-width = "1" fill = "#00ff00" />
    <circle cx="138" cy = "76" r = "1.7639810314180544" stroke = "#00ff00" stroke-width = "1" fill = "#00ff00" />
    <circle cx="134" cy = "76" r = "1.7639810314180544" stroke = "#00ff00" stroke-width = "1" fill = "#00ff00" />
    <circle cx="134" cy = "73" r = "1.7639810314180544" stroke = "#00ff00" stroke-width = "1" fill = "#00ff00" />
    <circle cx="138" cy = "73" r = "1.7639810314180544" stroke = "#00ff00" stroke-width = "1" fill = "#00ff00" />
    <circle cx="138" cy = "66" r = "1.7639810314180544" stroke = "#00ff00" stroke-width = "1" fill = "#00ff00" />
    <circle cx="134" cy = "66" r = "1.7639810314180544" stroke = "#00ff00" stroke-width = "1" fill = "#00ff00" />
    <circle cx="134" cy = "62" r = "1.7639810314180544" stroke = "#00ff00" stroke-width = "1" fill = "#00ff00" />
    <circle cx="138" cy = "62" r = "1.7639810314180544" stroke = "#00ff00" stroke-width = "1" fill = "#00ff00" />
	<path d = "M176 80 L176 52 L148 52 L148 80 L176 80 Z" stroke = "#00ff00" stroke-width = "1" fill = "none" />	<path d = "M159 59 L166 59 L166 66 L169 66 L166 69 L162 73 L159 69 L155 66 L159 66 L159 59 Z" stroke = "#00ff00" stroke-width = "1" fill = "none" />    <circle cx="180" cy = "76" r = "1.7639810314180546" stroke = "#00ff00" stroke-width = "1" fill = "#00ff00" />
    <circle cx="180" cy = "73" r = "1.7639810314180546" stroke = "#00ff00" stroke-width = "1" fill = "#00ff00" />
    <circle cx="180" cy = "69" r = "1.7639810314180546" stroke = "#00ff00" stroke-width = "1" fill = "#00ff00" />
    <circle cx="183" cy = "66" r = "1.7639810314180546" stroke = "#00ff00" stroke-width = "1" fill = "#00ff00" />
    <circle cx="187" cy = "66" r = "1.7639810314180546" stroke = "#00ff00" stroke-width = "1" fill = "#00ff00" />
    <circle cx="190" cy = "69" r = "1.7639810314180546" stroke = "#00ff00" stroke-width = "1" fill = "#00ff00" />
    <circle cx="194" cy = "69" r = "1.7639810314180546" stroke = "#00ff00" stroke-width = "1" fill = "#00ff00" />
    <circle cx="194" cy = "66" r = "1.7639810314180546" stroke = "#00ff00" stroke-width = "1" fill = "#00ff00" />
    <circle cx="194" cy = "62" r = "1.7639810314180546" stroke = "#00ff00" stroke-width = "1" fill = "#00ff00" />
    <circle cx="194" cy = "59" r = "1.7639810314180546" stroke = "#00ff00" stroke-width = "1" fill = "#00ff00" />
    <circle cx="194" cy = "73" r = "1.7639810314180546" stroke = "#00ff00" stroke-width = "1" fill = "#00ff00" />
    <circle cx="194" cy = "76" r = "1.7639810314180546" stroke = "#00ff00" stroke-width = "1" fill = "#00ff00" />
    <circle cx="194" cy = "80" r = "1.7639810314180546" stroke = "#00ff00" stroke-width = "1" fill = "#00ff00" />
    <circle cx="190" cy = "80" r = "1.7639810314180546" stroke = "#00ff00" stroke-width = "1" fill = "#00ff00" />
    <circle cx="187" cy = "80" r = "1.7639810314180546" stroke = "#00ff00" stroke-width = "1" fill = "#00ff00" />
    <circle cx="183" cy = "80" r = "1.7639810314180546" stroke = "#00ff00" stroke-width = "1" fill = "#00ff00" />
    <circle cx="208" cy = "76" r = "1.7639810314180546" stroke = "#00ff00" stroke-width = "1" fill = "#00ff00" />
    <circle cx="205" cy = "76" r = "1.7639810314180546" stroke = "#00ff00" stroke-width = "1" fill = "#00ff00" />
    <circle cx="205" cy = "73" r = "1.7639810314180546" stroke = "#00ff00" stroke-width = "1" fill = "#00ff00" />
    <circle cx="208" cy = "73" r = "1.7639810314180546" stroke = "#00ff00" stroke-width = "1" fill = "#00ff00" />
    <circle cx="208" cy = "66" r = "1.7639810314180546" stroke = "#00ff00" stroke-width = "1" fill = "#00ff00" />
    <circle cx="205" cy = "66" r = "1.7639810314180546" stroke = "#00ff00" stroke-width = "1" fill = "#00ff00" />
    <circle cx="205" cy = "62" r = "1.7639810314180546" stroke = "#00ff00" stroke-width = "1" fill = "#00ff00" />
    <circle cx="208" cy = "62" r = "1.7639810314180546" stroke = "#00ff00" stroke-width = "1" fill = "#00ff00" />
	<path d = "M247 80 L247 52 L219 52 L219 80 L247 80 Z" stroke = "#00ff00" stroke-width = "1" fill = "none" />	<path d = "M240 62 L240 69 L233 69 L233 73 L229 69 L226 66 L229 62 L233 59 L233 62 L240 62 Z" stroke = "#00ff00" stroke-width = "1" fill = "none" />    <circle cx="257" cy = "80" r = "1.7639810314180546" stroke = "#00ff00" stroke-width = "1" fill = "#00ff00" />
    <circle cx="257" cy = "76" r = "1.7639810314180546" stroke = "#00ff00" stroke-width = "1" fill = "#00ff00" />
    <circle cx="257" cy = "73" r = "1.7639810314180546" stroke = "#00ff00" stroke-width = "1" fill = "#00ff00" />
    <circle cx="257" cy = "69" r = "1.7639810314180546" stroke = "#00ff00" stroke-width = "1" fill = "#00ff00" />
    <circle cx="257" cy = "66" r = "1.7639810314180546" stroke = "#00ff00" stroke-width = "1" fill = "#00ff00" />
    <circle cx="257" cy = "62" r = "1.7639810314180546" stroke = "#00ff00" stroke-width = "1" fill = "#00ff00" />
    <circle cx="261" cy = "59" r = "1.7639810314180546" stroke = "#00ff00" stroke-width = "1" fill = "#00ff00" />
    <circle cx="265" cy = "59" r = "1.7639810314180546" stroke = "#00ff00" stroke-width = "1" fill = "#00ff00" />
    <circle cx="261" cy = "69" r = "1.7639810314180546" stroke = "#00ff00" stroke-width = "1" fill = "#00ff00" />
    <circle cx="254" cy = "69" r = "1.7639810314180546" stroke = "#00ff00" stroke-width = "1" fill = "#00ff00" />
    <circle cx="279" cy = "76" r = "1.7639810314180546" stroke = "#00ff00" stroke-width = "1" fill = "#00ff00" />
    <circle cx="275" cy = "76" r = "1.7639810314180546" stroke = "#00ff00" stroke-width = "1" fill = "#00ff00" />
    <circle cx="275" cy = "73" r = "1.7639810314180546" stroke = "#00ff00" stroke-width = "1" fill = "#00ff00" />
    <circle cx="279" cy = "73" r = "1.7639810314180546" stroke = "#00ff00" stroke-width = "1" fill = "#00ff00" />
    <circle cx="279" cy = "66" r = "1.7639810314180546" stroke = "#00ff00" stroke-width = "1" fill = "#00ff00" />
    <circle cx="275" cy = "66" r = "1.7639810314180546" stroke = "#00ff00" stroke-width = "1" fill = "#00ff00" />
    <circle cx="275" cy = "62" r = "1.7639810314180546" stroke = "#00ff00" stroke-width = "1" fill = "#00ff00" />
    <circle cx="279" cy = "62" r = "1.7639810314180546" stroke = "#00ff00" stroke-width = "1" fill = "#00ff00" />
	<path d = "M317 80 L317 52 L289 52 L289 80 L317 80 Z" stroke = "#00ff00" stroke-width = "1" fill = "none" />	<path d = "M296 69 L296 62 L303 62 L303 59 L307 62 L310 66 L307 69 L303 73 L303 69 L296 69 Z" stroke = "#00ff00" stroke-width = "1" fill = "none" />    <circle cx="42" cy = "136" r = "1.7639810314180546" stroke = "#00ff00" stroke-width = "1" fill = "#00ff00" />
    <circle cx="46" cy = "136" r = "1.7639810314180546" stroke = "#00ff00" stroke-width = "1" fill = "#00ff00" />
    <circle cx="49" cy = "136" r = "1.7639810314180546" stroke = "#00ff00" stroke-width = "1" fill = "#00ff00" />
    <circle cx="53" cy = "133" r = "1.7639810314180546" stroke = "#00ff00" stroke-width = "1" fill = "#00ff00" />
    <circle cx="53" cy = "129" r = "1.7639810314180546" stroke = "#00ff00" stroke-width = "1" fill = "#00ff00" />
    <circle cx="53" cy = "126" r = "1.7639810314180546" stroke = "#00ff00" stroke-width = "1" fill = "#00ff00" />
    <circle cx="53" cy = "122" r = "1.7639810314180546" stroke = "#00ff00" stroke-width = "1" fill = "#00ff00" />
    <circle cx="49" cy = "122" r = "1.7639810314180546" stroke = "#00ff00" stroke-width = "1" fill = "#00ff00" />
    <circle cx="46" cy = "122" r = "1.7639810314180546" stroke = "#00ff00" stroke-width = "1" fill = "#00ff00" />
    <circle cx="42" cy = "122" r = "1.7639810314180546" stroke = "#00ff00" stroke-width = "1" fill = "#00ff00" />
    <circle cx="39" cy = "126" r = "1.7639810314180546" stroke = "#00ff00" stroke-width = "1" fill = "#00ff00" />
    <circle cx="42" cy = "129" r = "1.7639810314180546" stroke = "#00ff00" stroke-width = "1" fill = "#00ff00" />
    <circle cx="46" cy = "129" r = "1.7639810314180546" stroke = "#00ff00" stroke-width = "1" fill = "#00ff00" />
    <circle cx="49" cy = "129" r = "1.7639810314180546" stroke = "#00ff00" stroke-width = "1" fill = "#00ff00" />
    <circle cx="67" cy = "133" r = "1.7639810314180546" stroke = "#00ff00" stroke-width = "1" fill = "#00ff00" />
    <circle cx="63" cy = "133" r = "1.7639810314180546" stroke = "#00ff00" stroke-width = "1" fill = "#00ff00" />
    <circle cx="63" cy = "129" r = "1.7639810314180546" stroke = "#00ff00" stroke-width = "1" fill = "#00ff00" />
    <circle cx="67" cy = "129" r = "1.7639810314180546" stroke = "#00ff00" stroke-width = "1" fill = "#00ff00" />
    <circle cx="67" cy = "122" r = "1.7639810314180546" stroke = "#00ff00" stroke-width = "1" fill = "#00ff00" />
    <circle cx="63" cy = "122" r = "1.7639810314180546" stroke = "#00ff00" stroke-width = "1" fill = "#00ff00" />
    <circle cx="63" cy = "119" r = "1.7639810314180546" stroke = "#00ff00" stroke-width = "1" fill = "#00ff00" />
    <circle cx="67" cy = "119" r = "1.7639810314180546" stroke = "#00ff00" stroke-width = "1" fill = "#00ff00" />
	<path d = "M106 136 L106 108 L78 108 L78 136 L106 136 Z" stroke = "#00ff00" stroke-width = "1" fill = "none" />  <path d="M86.66137673789781 117.16753269468391           A7.0559241256722185 7.0559241256722185 0 0 1 96.639960331499 117.16753269468389" fill = "none" stroke = "#00ff00" stroke-width = "1" />
  <path d="M86.66137673789785 127.1461162882851           A7.0559241256722185 7.0559241256722185 0 0 1 86.66137673789781 117.16753269468391" fill = "none" stroke = "#00ff00" stroke-width = "1" />
  <path d="M96.63996033149903 127.14611628828504           A7.0559241256722185 7.0559241256722185 0 0 1 86.66137673789785 127.1461162882851" fill = "none" stroke = "#00ff00" stroke-width = "1" />
	<path d = "M94 134 L97 127 L90 124 " stroke = "#00ff00" stroke-width = "1" fill = "none" />    <circle cx="109" cy = "136" r = "1.7639810314180546" stroke = "#00ff00" stroke-width = "1" fill = "#00ff00" />
    <circle cx="109" cy = "133" r = "1.7639810314180546" stroke = "#00ff00" stroke-width = "1" fill = "#00ff00" />
    <circle cx="109" cy = "129" r = "1.7639810314180546" stroke = "#00ff00" stroke-width = "1" fill = "#00ff00" />
    <circle cx="109" cy = "126" r = "1.7639810314180546" stroke = "#00ff00" stroke-width = "1" fill = "#00ff00" />
    <circle cx="109" cy = "122" r = "1.7639810314180546" stroke = "#00ff00" stroke-width = "1" fill = "#00ff00" />
    <circle cx="109" cy = "119" r = "1.7639810314180546" stroke = "#00ff00" stroke-width = "1" fill = "#00ff00" />
    <circle cx="109" cy = "115" r = "1.7639810314180546" stroke = "#00ff00" stroke-width = "1" fill = "#00ff00" />
    <circle cx="109" cy = "112" r = "1.7639810314180546" stroke = "#00ff00" stroke-width = "1" fill = "#00ff00" />
    <circle cx="113" cy = "126" r = "1.7639810314180546" stroke = "#00ff00" stroke-width = "1" fill = "#00ff00" />
    <circle cx="116" cy = "122" r = "1.7639810314180546" stroke = "#00ff00" stroke-width = "1" fill = "#00ff00" />
    <circle cx="120" cy = "122" r = "1.7639810314180546" stroke = "#00ff00" stroke-width = "1" fill = "#00ff00" />
    <circle cx="123" cy = "126" r = "1.7639810314180546" stroke = "#00ff00" stroke-width = "1" fill = "#00ff00" />
    <circle cx="123" cy = "129" r = "1.7639810314180546" stroke = "#00ff00" stroke-width = "1" fill = "#00ff00" />
    <circle cx="123" cy = "133" r = "1.7639810314180546" stroke = "#00ff00" stroke-width = "1" fill = "#00ff00" />
    <circle cx="123" cy = "136" r = "1.7639810314180546" stroke = "#00ff00" stroke-width = "1" fill = "#00ff00" />
    <circle cx="138" cy = "133" r = "1.7639810314180546" stroke = "#00ff00" stroke-width = "1" fill = "#00ff00" />
    <circle cx="134" cy = "133" r = "1.7639810314180546" stroke = "#00ff00" stroke-width = "1" fill = "#00ff00" />
    <circle cx="134" cy = "129" r = "1.7639810314180546" stroke = "#00ff00" stroke-width = "1" fill = "#00ff00" />
    <circle cx="138" cy = "129" r = "1.7639810314180546" stroke = "#00ff00" stroke-width = "1" fill = "#00ff00" />
    <circle cx="138" cy = "122" r = "1.7639810314180546" stroke = "#00ff00" stroke-width = "1" fill = "#00ff00" />
    <circle cx="134" cy = "122" r = "1.7639810314180546" stroke = "#00ff00" stroke-width = "1" fill = "#00ff00" />
    <circle cx="134" cy = "119" r = "1.7639810314180546" stroke = "#00ff00" stroke-width = "1" fill = "#00ff00" />
    <circle cx="138" cy = "119" r = "1.7639810314180546" stroke = "#00ff00" stroke-width = "1" fill = "#00ff00" />
	<path d = "M176 136 L176 108 L148 108 L148 136 L176 136 Z" stroke = "#00ff00" stroke-width = "1" fill = "none" />  <path d="M167.19920158822106 127.14611628828504           A7.0559241256722185 7.0559241256722185 0 0 1 157.2206179946199 127.14611628828504" fill = "none" stroke = "#00ff00" stroke-width = "1" />
  <path d="M157.2206179946199 127.14611628828504           A7.0559241256722185 7.0559241256722185 0 0 1 157.2206179946199 117.16753269468387" fill = "none" stroke = "#00ff00" stroke-width = "1" />
  <path d="M157.2206179946199 117.16753269468387           A7.0559241256722185 7.0559241256722185 0 0 1 167.19920158822106 117.16753269468389" fill = "none" stroke = "#00ff00" stroke-width = "1" />
	<path d = "M161 120 L167 117 L164 111 " stroke = "#00ff00" stroke-width = "1" fill = "none" />    <circle cx="187" cy = "136" r = "1.7639810314180546" stroke = "#00ff00" stroke-width = "1" fill = "#00ff00" />
    <circle cx="190" cy = "136" r = "1.7639810314180546" stroke = "#00ff00" stroke-width = "1" fill = "#00ff00" />
    <circle cx="194" cy = "133" r = "1.7639810314180546" stroke = "#00ff00" stroke-width = "1" fill = "#00ff00" />
    <circle cx="194" cy = "129" r = "1.7639810314180546" stroke = "#00ff00" stroke-width = "1" fill = "#00ff00" />
    <circle cx="194" cy = "126" r = "1.7639810314180546" stroke = "#00ff00" stroke-width = "1" fill = "#00ff00" />
    <circle cx="194" cy = "122" r = "1.7639810314180546" stroke = "#00ff00" stroke-width = "1" fill = "#00ff00" />
    <circle cx="190" cy = "122" r = "1.7639810314180546" stroke = "#00ff00" stroke-width = "1" fill = "#00ff00" />
    <circle cx="194" cy = "115" r = "1.7639810314180546" stroke = "#00ff00" stroke-width = "1" fill = "#00ff00" />
    <circle cx="208" cy = "133" r = "1.7639810314180546" stroke = "#00ff00" stroke-width = "1" fill = "#00ff00" />
    <circle cx="205" cy = "133" r = "1.7639810314180546" stroke = "#00ff00" stroke-width = "1" fill = "#00ff00" />
    <circle cx="205" cy = "129" r = "1.7639810314180546" stroke = "#00ff00" stroke-width = "1" fill = "#00ff00" />
    <circle cx="208" cy = "129" r = "1.7639810314180546" stroke = "#00ff00" stroke-width = "1" fill = "#00ff00" />
    <circle cx="208" cy = "122" r = "1.7639810314180546" stroke = "#00ff00" stroke-width = "1" fill = "#00ff00" />
    <circle cx="205" cy = "122" r = "1.7639810314180546" stroke = "#00ff00" stroke-width = "1" fill = "#00ff00" />
    <circle cx="205" cy = "119" r = "1.7639810314180546" stroke = "#00ff00" stroke-width = "1" fill = "#00ff00" />
    <circle cx="208" cy = "119" r = "1.7639810314180546" stroke = "#00ff00" stroke-width = "1" fill = "#00ff00" />
	<path d = "M247 136 L247 108 L219 108 L219 136 L247 136 Z" stroke = "#00ff00" stroke-width = "1" fill = "none" />    <line x1="240" y1="122" x2="226" y2="122" style="stroke:#00ff00;stroke-width:1" />
    <circle cx="254" cy = "136" r = "1.7639810314180546" stroke = "#00ff00" stroke-width = "1" fill = "#00ff00" />
    <circle cx="254" cy = "133" r = "1.7639810314180546" stroke = "#00ff00" stroke-width = "1" fill = "#00ff00" />
    <circle cx="254" cy = "129" r = "1.7639810314180546" stroke = "#00ff00" stroke-width = "1" fill = "#00ff00" />
    <circle cx="254" cy = "126" r = "1.7639810314180546" stroke = "#00ff00" stroke-width = "1" fill = "#00ff00" />
    <circle cx="254" cy = "122" r = "1.7639810314180546" stroke = "#00ff00" stroke-width = "1" fill = "#00ff00" />
    <circle cx="254" cy = "119" r = "1.7639810314180546" stroke = "#00ff00" stroke-width = "1" fill = "#00ff00" />
    <circle cx="254" cy = "115" r = "1.7639810314180546" stroke = "#00ff00" stroke-width = "1" fill = "#00ff00" />
    <circle cx="257" cy = "129" r = "1.7639810314180546" stroke = "#00ff00" stroke-width = "1" fill = "#00ff00" />
    <circle cx="261" cy = "126" r = "1.7639810314180546" stroke = "#00ff00" stroke-width = "1" fill = "#00ff00" />
    <circle cx="265" cy = "122" r = "1.7639810314180546" stroke = "#00ff00" stroke-width = "1" fill = "#00ff00" />
    <circle cx="261" cy = "133" r = "1.7639810314180546" stroke = "#00ff00" stroke-width = "1" fill = "#00ff00" />
    <circle cx="265" cy = "136" r = "1.7639810314180546" stroke = "#00ff00" stroke-width = "1" fill = "#00ff00" />
    <circle cx="279" cy = "133" r = "1.7639810314180546" stroke = "#00ff00" stroke-width = "1" fill = "#00ff00" />
    <circle cx="275" cy = "133" r = "1.7639810314180546" stroke = "#00ff00" stroke-width = "1" fill = "#00ff00" />
    <circle cx="275" cy = "129" r = "1.7639810314180546" stroke = "#00ff00" stroke-width = "1" fill = "#00ff00" />
    <circle cx="279" cy = "129" r = "1.7639810314180546" stroke = "#00ff00" stroke-width = "1" fill = "#00ff00" />
    <circle cx="279" cy = "122" r = "1.7639810314180546" stroke = "#00ff00" stroke-width = "1" fill = "#00ff00" />
    <circle cx="275" cy = "122" r = "1.7639810314180546" stroke = "#00ff00" stroke-width = "1" fill = "#00ff00" />
    <circle cx="275" cy = "119" r = "1.7639810314180546" stroke = "#00ff00" stroke-width = "1" fill = "#00ff00" />
    <circle cx="279" cy = "119" r = "1.7639810314180546" stroke = "#00ff00" stroke-width = "1" fill = "#00ff00" />
	<path d = "M317 136 L317 108 L289 108 L289 136 L317 136 Z" stroke = "#00ff00" stroke-width = "1" fill = "none" />    <line x1="303" y1="122" x2="303" y2="115" style="stroke:#00ff00;stroke-width:1" />
    <line x1="303" y1="122" x2="296" y2="122" style="stroke:#00ff00;stroke-width:1" />
    <line x1="303" y1="122" x2="303" y2="129" style="stroke:#00ff00;stroke-width:1" />
    <line x1="303" y1="122" x2="310" y2="122" style="stroke:#00ff00;stroke-width:1" />
</svg>