<svg width="400" height="500" viewbox = "0 0 400 500"  xmlns="http://www.w3.org/2000/svg">
<!--<json>{
  "glyph": "0331,0332,0332,0336,0332,0332,0332,0337,01312,01306,01350,01362,01203,01335,01335,0331,0332,0332,0332,0332,0332,0332,0332,0336,0331,0337,01335,01335,01335,01337,01203,01335,01335,0331,0332,0332,0332,0332,0332,0332,0332,0336,0331,0337,01335,01335,01335,01336,01203,01363,0336,0330,0333,0336,0341,0337,0331,0333,0337,0330,0330,0330,0330,0330,0332,0332,0332,0336,0332,0337,0330,0330,0337,0211,0211,0211,0211,0321,0362,0203,0306,0312,0350,0335,0335,0335,0335,0335,0337,0203,0335,0335,0335,0335,0335,0336,0203,0363,0335,0335,0320,0330,0335,0335,0335,0335,0335,0337,0201,0335,0335,0335,0335,0201,0335,0335,0335,0335,0201,",
  "x0": 200,
  "y0": 310.5,
  "unit": 45.45454545454546,
  "width": 400,
  "height": 500,
  "style": {
    "color0": "black",
    "fill0": "black",
    "line0": 1,
    "color1": "black",
    "fill1": "#00000080",
    "line1": 5,
    "color2": "red",
    "fill2": "red",
    "line2": 4,
    "color3": "#FF7900",
    "fill3": "#FF7900",
    "line3": 4,
    "color4": "yellow",
    "fill4": "yellow",
    "line4": 4,
    "color5": "green",
    "fill5": "green",
    "line5": 4,
    "color6": "blue",
    "fill6": "blue",
    "line6": 4,
    "color7": "purple",
    "fill7": "purple",
    "line7": 4
  },
  "shapes": [
    "0220:0210,0210,0306,0330,0335,0335,0350,0335,0312,0337,0306,0362,0203,0335,0335,0203,0335,0335,0203,0363,0350,0334,0336,0331,0306,0313,0211,0211,",
    "0221:0320,0220,0210,0210,0210,0210,0327,0330,0335,0335,0350,0335,0312,0337,0313,0336,0362,0203,0335,0335,0203,0335,0335,0335,0335,0203,0335,0335,0203,0363,0326,0336,0336,0306,0331,0331,0333,0335,0335,0362,0203,0203,0335,0203,0203,0335,0335,0203,0203,0335,0203,0203,0363,0333,0332,0332,0331,0331,0331,0331,0331,0331,0331,0331,0335,0325,0362,0203,0334,0334,0203,0335,0203,0335,0335,0203,0203,0334,0203,0334,0334,0203,0203,0203,0364,0331,0331,0331,0335,0335,0330,0330,0330,0330,0330,0334,0334,0334,0362,0203,0335,0335,0203,0334,0203,0334,0334,0203,0203,0335,0203,0335,0335,0203,0203,0203,0364,0332,0332,0332,0332,0332,0350,0334,0337,0337,0337,0334,0335,0312,0336,0331,0211,0211,0211,0211,0306,0320,",
    "0222:0320,0220,0327,0336,0336,0350,0335,0306,0362,0203,0334,0203,0334,0334,0203,0334,0203,0363,0331,0334,0334,0320,0336,0336,0330,0333,0330,0335,0335,0362,0203,0335,0203,0335,0335,0203,0335,0203,0363,0330,0332,0337,0337,0331,0334,0331,0350,0335,0351,0337,0337,",
    "0223:0220,0324,0336,064,0365,0337,",
    "0224:0220,0333,0335,0220,0333,0335,0220,0333,0335,0220,0333,0335,0220,0333,0335,0220,0335,0330,",
    "0225:0221,0333,0335,0222,0333,0335,0222,0333,0335,0223,0333,0335,0222,0333,0335,0221,0333,0335,0330,0335,0320,0350,0335,0312,0337,0306,0362,0203,0335,0203,0335,0203,0335,0203,0335,0203,0335,0203,0354,0336,0313,0350,0334,0331,0306,",
    "0230:0304,0327,0336,0331,0336,0336,0330,0335,0362,0203,0203,0203,0203,0203,0335,0203,0203,0335,0203,0203,0203,0203,0203,0203,0203,0203,0203,0203,0335,0203,0203,0335,0203,0203,0203,0203,0203,0363,0334,0331,0320,0336,0333,0337,0334,0306,0335,0362,0203,0334,0334,0203,0334,0203,0334,0334,0203,0363,0333,0362,0203,0335,0335,0203,0335,0203,0335,0335,0203,0363,0331,0335,0330,0333,0362,0203,0335,0335,0203,0335,0203,0335,0335,0203,0363,0332,0332,0332,0332,0332,0362,0203,0334,0334,0203,0334,0203,0334,0334,0203,0363,0332,0331,0332,0331,0334,0362,0203,0334,0334,0203,0334,0203,0334,0334,0203,0363,0333,0333,0333,0333,0335,0304,0334,0313,0336,0332,0337,0337,0337,0330,0337,0306,",
    "0231:0210,0306,0335,0330,0335,0335,0350,0335,0312,0337,0362,0203,0335,0335,0335,0335,0203,0335,0335,0335,0335,0203,0363,0334,0336,0331,0334,0334,0306,0351,0211,",
    "0232:0231,0231,0231,0231,0231,0231,0231,0231,",
    "0233:0220,0336,0210,0232,",
    "0234:0220,0336,0335,0335,0331,0335,0331,0337,0321,0342,0332,0342,0336,0333,0337,0342,0330,0336,0336,0336,0330,0337,0366,0332,0332,0332,0367,0350,0335,0306,0350,0320,0335,0362,0203,0334,0334,0334,0334,0203,0334,0334,0334,0334,0203,0363,0335,0304,0350,0335,0304,0335,0335,0331,0331,0332,01015,0145,0154,0145,0155,0145,0156,0164,040,0144,0157,0167,0156,0365,0330,0330,0330,0330,0330,0333,0333,0333,0336,0332,0337,0333,0337,0337,",
    "0235:0220,0321,0336,0342,0335,0342,0335,0342,0335,0342,0335,0337,",
    "0236:0321,0220,0335,0336,0321,0342,0335,0335,0342,0335,0337,",
    "0237:0220,0336,0331,0332,0336,0321,0342,0335,0342,0335,0342,0335,0342,0335,0330,0330,0333,0333,0337,0337,",
    "01220:0333,0200,0336,0330,0332,0220,0313,0304,0331,0333,0337,",
    "01221:0333,0200,0336,0330,0332,0221,0313,0304,0331,0333,0337,0320,",
    "01222:0333,0200,0336,0330,0332,0222,0313,0304,0331,0333,0337,0320,",
    "01223:0333,0200,0336,0330,0332,0223,0313,0304,0331,0333,0337,0320,",
    "01224:0333,0200,0336,0330,0332,0336,0332,0224,0313,0304,0331,0333,0331,0333,0333,0337,0337,",
    "01225:0333,0200,0336,0330,0332,0336,0332,0225,0313,0304,0331,0331,0333,0333,0333,0337,0337,0320,",
    "01226:0333,0200,0336,0336,0330,0332,0226,0331,0333,0337,0337,",
    "01227:0333,0200,0336,0330,0332,0336,0331,0333,0337,0227,0336,0331,0333,0337,0337,",
    "01230:0333,0200,0336,0330,0332,0336,0331,0330,0230,0313,0304,0331,0333,0331,0333,0337,0337,",
    "01231:0333,0200,0336,0330,0332,0336,0231,0313,0304,0337,0331,0333,0337,",
    "01232:0333,0200,",
    "01233:0333,0200,",
    "01234:0333,0200,",
    "01235:0333,0200,",
    "01236:0333,0200,",
    "01237:0333,0200,",
    "0240:0220,0336,0331,0333,0336,0321,0335,0342,0335,0335,0342,0335,0330,0330,0332,0332,0337,0337,",
    "01240:0333,0200,0336,0330,0332,0210,0240,0211,0333,0331,0337,",
    "0241:0220,0336,0321,0343,0332,0350,0335,0336,0342,0334,0334,0342,0335,0304,0337,0333,0337,",
    "01241:0333,0200,0336,0332,0330,0210,0241,0211,0333,0331,0337,",
    "0242:0220,0321,0336,0343,0333,0336,0350,0335,0342,0334,0334,0342,0335,0337,0304,0332,0337,",
    "01242:0333,0200,0336,0330,0332,0210,0242,0211,0333,0331,0337,",
    "0243:0220,0336,0331,0332,0336,0321,0343,0332,0350,0334,0336,0342,0335,0335,0342,0337,0334,0334,0335,0304,0332,0330,0330,0337,0337,0333,",
    "01243:0333,0200,0336,0330,0332,0210,0243,0211,0333,0331,0337,",
    "0244:0220,0336,0331,0333,0336,0321,0343,0333,0350,0336,0335,0342,0334,0334,0342,0335,0337,0304,0333,0330,0330,0337,0337,0332,",
    "01244:0333,0200,0336,0330,0332,0210,0244,0211,0333,0331,0337,",
    "0245:0210,0332,0332,0362,0335,0203,0203,0203,0203,0334,0203,0363,0332,0332,0331,0211,",
    "01245:0333,0200,0336,0330,0332,0336,0245,0337,0333,0331,0337,",
    "0246:0210,0332,0332,0335,0306,0336,0330,0335,0335,0335,0321,0362,0203,0335,0335,0203,0364,0331,0350,0335,0337,0366,0333,0333,0333,0333,0334,0334,0334,0334,0367,0335,0336,0342,0334,0334,0342,0330,0330,0330,0330,0335,0335,0335,0304,0337,0211,",
    "01246:0333,0200,0336,0330,0332,0336,0246,",
    "0247:0330,0332,0336,0332,0336,0221,0333,0333,0333,0222,0333,0333,0333,0223,0333,0333,0333,0225,0333,0331,0331,0331,0332,0332,0332,0332,0332,0332,0332,0332,0332,0332,0332,0332,0333,0333,0226,0331,0331,0331,0333,0333,0333,0333,0333,0333,0333,0333,0333,0333,0333,0333,0333,0330,0333,0330,0330,0333,0330,0331,0332,0332,0332,0332,0332,0332,0332,0332,0332,0332,0332,0332,0227,0333,0333,0333,0230,0333,0331,0331,0331,0331,0332,0332,0332,0330,0332,0332,0332,0332,0332,0332,0333,0333,0231,0333,0333,0333,0232,0331,0333,0330,0333,0333,0233,0333,0333,0333,0234,0330,0330,0332,0330,0332,0332,0337,0337,",
    "01247:0333,0200,0336,0330,0332,0220,0336,0247,0337,0331,0333,0337,"
  ]
}</json>-->	<path d = "M86 356 L86 311 L41 311 L41 356 L86 356 Z" stroke = "#000000" stroke-width = "1" fill = "none" />	<path d = "M86 356 L64 317 L41 356 " stroke = "#000000" stroke-width = "1" fill = "none" />    <line x1="64" y1="343" x2="64" y2="317" style="stroke:#000000;stroke-width:1" />
    <line x1="64" y1="343" x2="86" y2="356" style="stroke:#000000;stroke-width:1" />
    <line x1="64" y1="343" x2="41" y2="356" style="stroke:#000000;stroke-width:1" />
	<path d = "M132 356 L132 311 L86 311 L86 356 L132 356 Z" stroke = "#000000" stroke-width = "1" fill = "none" />    <line x1="109" y1="333" x2="109" y2="311" style="stroke:#000000;stroke-width:1" />
    <line x1="109" y1="333" x2="129" y2="322" style="stroke:#000000;stroke-width:1" />
    <line x1="109" y1="333" x2="129" y2="345" style="stroke:#000000;stroke-width:1" />
    <line x1="109" y1="333" x2="109" y2="356" style="stroke:#000000;stroke-width:1" />
    <line x1="109" y1="333" x2="89" y2="345" style="stroke:#000000;stroke-width:1" />
<circle cx="109" cy = "333" r = "22.72727272727273" stroke = "#000000" stroke-width = "1" fill = "none" />
<circle cx="103" cy = "323" r = "2.8409090909090913" stroke = "#000000" stroke-width = "1" fill = "none" />
<circle cx="115" cy = "323" r = "2.8409090909090913" stroke = "#000000" stroke-width = "1" fill = "none" />
<circle cx="120" cy = "333" r = "2.8409090909090913" stroke = "#000000" stroke-width = "1" fill = "none" />
<circle cx="115" cy = "343" r = "2.8409090909090913" stroke = "#000000" stroke-width = "1" fill = "none" />
<circle cx="103" cy = "343" r = "2.8409090909090913" stroke = "#000000" stroke-width = "1" fill = "none" />
    <line x1="109" y1="333" x2="89" y2="322" style="stroke:#000000;stroke-width:1" />
<circle cx="98" cy = "333" r = "2.8409090909090913" stroke = "#000000" stroke-width = "1" fill = "none" />
	<path d = "M177 356 L177 311 L132 311 L132 356 L177 356 Z" stroke = "#000000" stroke-width = "1" fill = "none" />	<path d = "M171 317 L155 333 L171 349 " stroke = "#000000" stroke-width = "1" fill = "none" />    <line x1="155" y1="333" x2="160" y2="333" style="stroke:#000000;stroke-width:1" />
    <line x1="166" y1="333" x2="172" y2="333" style="stroke:#000000;stroke-width:1" />
	<path d = "M223 356 L223 311 L177 311 L177 356 L223 356 Z" stroke = "#000000" stroke-width = "1" fill = "none" /><circle cx="189" cy = "345" r = "1" stroke = "#000000" stroke-width = "1" fill = "#000000" />
	<path d = "M189 345 L189 322 L211 322 " stroke = "#000000" stroke-width = "1" fill = "none" />	<path d = "M203 314 L211 322 L203 330 " stroke = "#000000" stroke-width = "1" fill = "none" />    <line x1="223" y1="356" x2="231" y2="348" style="stroke:#000000;stroke-width:1" />
    <line x1="234" y1="356" x2="242" y2="348" style="stroke:#000000;stroke-width:1" />
    <line x1="245" y1="356" x2="253" y2="348" style="stroke:#000000;stroke-width:1" />
    <line x1="257" y1="356" x2="265" y2="348" style="stroke:#000000;stroke-width:1" />
	<path d = "M268 356 L268 311 L223 311 L223 356 L268 356 Z" stroke = "#000000" stroke-width = "1" fill = "none" />    <line x1="234" y1="333" x2="257" y2="333" style="stroke:#000000;stroke-width:1" />
    <line x1="257" y1="333" x2="253" y2="337" style="stroke:#000000;stroke-width:1" />
    <line x1="257" y1="333" x2="253" y2="329" style="stroke:#000000;stroke-width:1" />
	<path d = "M314 356 L314 311 L268 311 L268 356 L314 356 Z" stroke = "#000000" stroke-width = "1" fill = "none" />  <path d="M298.9443952407562 341.2625770589381           A11.363636363636365 11.363636363636365 0 0 1 282.87378657742556 341.2625770589381" fill = "none" stroke = "#000000" stroke-width = "1" />
  <path d="M282.87378657742556 341.2625770589381           A11.363636363636365 11.363636363636365 0 0 1 282.87378657742556 325.1919683956075" fill = "none" stroke = "#000000" stroke-width = "1" />
  <path d="M282.87378657742556 325.1919683956075           A11.363636363636365 11.363636363636365 0 0 1 298.9443952407562 325.1919683956075" fill = "none" stroke = "#000000" stroke-width = "1" />
	<path d = "M288 330 L299 325 L295 315 " stroke = "#000000" stroke-width = "1" fill = "none" />	<path d = "M359 356 L359 311 L314 311 L314 356 L359 356 Z" stroke = "#000000" stroke-width = "1" fill = "none" />  <path d="M344.39894069530163 341.2625770589382           A11.363636363636365 11.363636363636365 0 0 1 328.328332031971 341.2625770589382" fill = "none" stroke = "#000000" stroke-width = "1" />
  <path d="M328.328332031971 341.2625770589382           A11.363636363636365 11.363636363636365 0 0 1 328.328332031971 325.19196839560755" fill = "none" stroke = "#000000" stroke-width = "1" />
  <path d="M328.328332031971 325.19196839560755           A11.363636363636365 11.363636363636365 0 0 1 344.39894069530163 325.19196839560755" fill = "none" stroke = "#000000" stroke-width = "1" />
	<path d = "M334 330 L344 325 L340 315 " stroke = "#000000" stroke-width = "1" fill = "none" />	<path d = "M86 424 L86 379 L41 379 L41 424 L86 424 Z" stroke = "#000000" stroke-width = "1" fill = "none" />  <path d="M71.67166796802883 409.444395240756           A11.363636363636365 11.363636363636365 0 0 1 55.601059304698204 409.444395240756" fill = "none" stroke = "#000000" stroke-width = "1" />
  <path d="M55.601059304698204 409.444395240756           A11.363636363636365 11.363636363636365 0 0 1 55.601059304698225 393.3737865774254" fill = "none" stroke = "#000000" stroke-width = "1" />
  <path d="M55.601059304698225 393.3737865774254           A11.363636363636365 11.363636363636365 0 0 1 71.67166796802886 393.3737865774254" fill = "none" stroke = "#000000" stroke-width = "1" />
	<path d = "M61 398 L72 393 L67 383 " stroke = "#000000" stroke-width = "1" fill = "none" />	<path d = "M132 424 L132 379 L86 379 L86 424 L132 424 Z" stroke = "#000000" stroke-width = "1" fill = "none" />  <path d="M117.1262134225743 409.4443952407561           A11.363636363636365 11.363636363636365 0 0 1 101.05560475924366 409.4443952407561" fill = "none" stroke = "#000000" stroke-width = "1" />
  <path d="M101.05560475924366 409.4443952407561           A11.363636363636365 11.363636363636365 0 0 1 101.05560475924369 393.37378657742545" fill = "none" stroke = "#000000" stroke-width = "1" />
  <path d="M101.05560475924369 393.37378657742545           A11.363636363636365 11.363636363636365 0 0 1 117.12621342257432 393.37378657742545" fill = "none" stroke = "#000000" stroke-width = "1" />
	<path d = "M107 398 L117 393 L113 383 " stroke = "#000000" stroke-width = "1" fill = "none" />	<path d = "M177 424 L177 379 L132 379 L132 424 L177 424 Z" stroke = "#000000" stroke-width = "1" fill = "none" />  <path d="M162.5807588771198 409.44439524075614           A11.363636363636365 11.363636363636365 0 0 1 146.51015021378916 409.44439524075614" fill = "none" stroke = "#000000" stroke-width = "1" />
  <path d="M146.51015021378916 409.44439524075614           A11.363636363636365 11.363636363636365 0 0 1 146.51015021378916 393.3737865774255" fill = "none" stroke = "#000000" stroke-width = "1" />
  <path d="M146.51015021378916 393.3737865774255           A11.363636363636365 11.363636363636365 0 0 1 162.5807588771198 393.3737865774255" fill = "none" stroke = "#000000" stroke-width = "1" />
	<path d = "M152 398 L163 393 L158 383 " stroke = "#000000" stroke-width = "1" fill = "none" />	<path d = "M223 424 L223 379 L177 379 L177 424 L223 424 Z" stroke = "#000000" stroke-width = "1" fill = "none" />    <line x1="200" y1="401" x2="200" y2="390" style="stroke:#000000;stroke-width:1" />
    <line x1="200" y1="401" x2="189" y2="401" style="stroke:#000000;stroke-width:1" />
    <line x1="200" y1="401" x2="200" y2="413" style="stroke:#000000;stroke-width:1" />
    <line x1="200" y1="401" x2="211" y2="401" style="stroke:#000000;stroke-width:1" />
    <line x1="223" y1="424" x2="231" y2="416" style="stroke:#000000;stroke-width:1" />
    <line x1="234" y1="424" x2="242" y2="416" style="stroke:#000000;stroke-width:1" />
    <line x1="245" y1="424" x2="253" y2="416" style="stroke:#000000;stroke-width:1" />
    <line x1="257" y1="424" x2="265" y2="416" style="stroke:#000000;stroke-width:1" />
	<path d = "M268 424 L268 379 L223 379 L223 424 L268 424 Z" stroke = "#000000" stroke-width = "1" fill = "none" />    <line x1="234" y1="401" x2="257" y2="401" style="stroke:#000000;stroke-width:1" />
    <line x1="257" y1="401" x2="253" y2="405" style="stroke:#000000;stroke-width:1" />
    <line x1="257" y1="401" x2="253" y2="397" style="stroke:#000000;stroke-width:1" />
	<path d = "M314 424 L314 379 L268 379 L268 424 L314 424 Z" stroke = "#000000" stroke-width = "1" fill = "none" />  <path d="M298.94439524075614 409.4443952407568           A11.363636363636365 11.363636363636365 0 0 1 282.8737865774255 409.44439524075665" fill = "none" stroke = "#000000" stroke-width = "1" />
  <path d="M282.8737865774255 409.44439524075665           A11.363636363636365 11.363636363636365 0 0 1 282.8737865774257 393.373786577426" fill = "none" stroke = "#000000" stroke-width = "1" />
  <path d="M282.8737865774257 393.373786577426           A11.363636363636365 11.363636363636365 0 0 1 298.9443952407563 393.37378657742624" fill = "none" stroke = "#000000" stroke-width = "1" />
	<path d = "M288 398 L299 393 L295 383 " stroke = "#000000" stroke-width = "1" fill = "none" />	<path d = "M359 424 L359 379 L314 379 L314 424 L359 424 Z" stroke = "#000000" stroke-width = "1" fill = "none" />  <path d="M344.3989406953014 409.4443952407576           A11.363636363636365 11.363636363636365 0 0 1 328.3283320319708 409.44439524075733" fill = "none" stroke = "#000000" stroke-width = "1" />
  <path d="M328.3283320319708 409.44439524075733           A11.363636363636365 11.363636363636365 0 0 1 328.32833203197106 393.3737865774267" fill = "none" stroke = "#000000" stroke-width = "1" />
  <path d="M328.32833203197106 393.3737865774267           A11.363636363636365 11.363636363636365 0 0 1 344.3989406953017 393.37378657742704" fill = "none" stroke = "#000000" stroke-width = "1" />
	<path d = "M334 398 L344 393 L340 383 " stroke = "#000000" stroke-width = "1" fill = "none" />	<path d = "M86 492 L86 447 L41 447 L41 492 L86 492 Z" stroke = "#000000" stroke-width = "1" fill = "none" />  <path d="M71.67166796802701 477.6262134225698           A11.363636363636365 11.363636363636365 0 0 1 55.60105930469636 477.62621342256944" fill = "none" stroke = "#000000" stroke-width = "1" />
  <path d="M55.60105930469636 477.62621342256944           A11.363636363636365 11.363636363636365 0 0 1 55.601059304696776 461.55560475923875" fill = "none" stroke = "#000000" stroke-width = "1" />
  <path d="M55.601059304696776 461.55560475923875           A11.363636363636365 11.363636363636365 0 0 1 71.67166796802742 461.5556047592392" fill = "none" stroke = "#000000" stroke-width = "1" />
	<path d = "M61 466 L72 462 L67 451 " stroke = "#000000" stroke-width = "1" fill = "none" />	<path d = "M132 492 L132 447 L86 447 L86 492 L132 492 Z" stroke = "#000000" stroke-width = "1" fill = "none" />  <path d="M117.12621342257225 477.62621342257125           A11.363636363636365 11.363636363636365 0 0 1 101.0556047592416 477.62621342257074" fill = "none" stroke = "#000000" stroke-width = "1" />
  <path d="M101.0556047592416 477.62621342257074           A11.363636363636365 11.363636363636365 0 0 1 101.05560475924213 461.5556047592401" fill = "none" stroke = "#000000" stroke-width = "1" />
  <path d="M101.05560475924213 461.5556047592401           A11.363636363636365 11.363636363636365 0 0 1 117.12621342257277 461.5556047592407" fill = "none" stroke = "#000000" stroke-width = "1" />
	<path d = "M107 466 L117 462 L113 451 " stroke = "#000000" stroke-width = "1" fill = "none" />	<path d = "M177 492 L177 447 L132 447 L132 492 L177 492 Z" stroke = "#000000" stroke-width = "1" fill = "none" />  <path d="M162.58075887711752 477.626213422573           A11.363636363636365 11.363636363636365 0 0 1 146.5101502137869 477.6262134225724" fill = "none" stroke = "#000000" stroke-width = "1" />
  <path d="M146.5101502137869 477.6262134225724           A11.363636363636365 11.363636363636365 0 0 1 146.51015021378754 461.55560475924176" fill = "none" stroke = "#000000" stroke-width = "1" />
  <path d="M146.51015021378754 461.55560475924176           A11.363636363636365 11.363636363636365 0 0 1 162.58075887711817 461.55560475924244" fill = "none" stroke = "#000000" stroke-width = "1" />
	<path d = "M152 466 L163 462 L158 451 " stroke = "#000000" stroke-width = "1" fill = "none" />	<path d = "M223 492 L223 447 L177 447 L177 492 L223 492 Z" stroke = "#000000" stroke-width = "1" fill = "none" />    <line x1="211" y1="470" x2="189" y2="470" style="stroke:#000000;stroke-width:1" />
    <line x1="223" y1="492" x2="231" y2="484" style="stroke:#000000;stroke-width:1" />
    <line x1="234" y1="492" x2="242" y2="484" style="stroke:#000000;stroke-width:1" />
    <line x1="245" y1="492" x2="253" y2="484" style="stroke:#000000;stroke-width:1" />
    <line x1="257" y1="492" x2="265" y2="484" style="stroke:#000000;stroke-width:1" />
	<path d = "M268 492 L268 447 L223 447 L223 492 L268 492 Z" stroke = "#000000" stroke-width = "1" fill = "none" />    <line x1="234" y1="470" x2="257" y2="470" style="stroke:#000000;stroke-width:1" />
    <line x1="257" y1="470" x2="253" y2="474" style="stroke:#000000;stroke-width:1" />
    <line x1="257" y1="470" x2="253" y2="466" style="stroke:#000000;stroke-width:1" />
    <line x1="268" y1="492" x2="276" y2="484" style="stroke:#000000;stroke-width:1" />
    <line x1="280" y1="492" x2="288" y2="484" style="stroke:#000000;stroke-width:1" />
    <line x1="291" y1="492" x2="299" y2="484" style="stroke:#000000;stroke-width:1" />
    <line x1="302" y1="492" x2="310" y2="484" style="stroke:#000000;stroke-width:1" />
	<path d = "M314 492 L314 447 L268 447 L268 492 L314 492 Z" stroke = "#000000" stroke-width = "1" fill = "none" />	<path d = "M280 458 L302 458 L302 481 " stroke = "#000000" stroke-width = "1" fill = "none" />	<path d = "M294 473 L302 481 L310 473 " stroke = "#000000" stroke-width = "1" fill = "none" /><circle cx="302" cy = "481" r = "1" stroke = "#000000" stroke-width = "1" fill = "#000000" />
<circle cx="336" cy = "470" r = "11.363636363636365" stroke = "#000000" stroke-width = "1" fill = "none" />
	<path d = "M200 174 L200 18 L335 252 L200 174 Z" stroke = "#000000" stroke-width = "5" fill = "rgba(0, 0, 0, 0.5)" />    <line x1="200" y1="18" x2="335" y2="252" style="stroke:#000000;stroke-width:1" />
    <line x1="335" y1="252" x2="65" y2="252" style="stroke:#000000;stroke-width:1" />
    <line x1="65" y1="252" x2="200" y2="18" style="stroke:#000000;stroke-width:1" />
</svg>