<svg width="400" height="200" viewbox = "0 0 400 200"  xmlns="http://www.w3.org/2000/svg">
<!--<json>{
  "glyph": "0337,0337,0337,0337,0337,0337,0337,0337,0321,0347,0300,0330,0332,0330,0330,0330,0330,0332,0332,0332,0332,0332,0332,01176,01072,01320,01041,01072,01321,01100,01072,01322,01043,01072,01323,01044,01072,01324,0331,0331,0332,0332,0332,0332,0332,0332,0332,0332,0332,0332,0332,0332,01045,01072,01325,01136,01072,01326,01046,01072,01327,",
  "x0": 204.54545454545456,
  "y0": 220.939762250895,
  "unit": 28.223696502688867,
  "width": 400,
  "height": 200,
  "style": {
    "color0": "#00ff00",
    "fill0": "#00ff00",
    "line0": 1,
    "color1": "black",
    "fill1": "black",
    "line1": 5,
    "color2": "red",
    "fill2": "red",
    "line2": 4,
    "color3": "#FF7900",
    "fill3": "#FF7900",
    "line3": 4,
    "color4": "yellow",
    "fill4": "yellow",
    "line4": 4,
    "color5": "#00ff00",
    "fill5": "#00ff00",
    "line5": 4,
    "color6": "blue",
    "fill6": "blue",
    "line6": 4,
    "color7": "purple",
    "fill7": "purple",
    "line7": 4
  },
  "shapes": [
    "0220:0312,0306,0350,0330,0362,0335,0335,0335,0335,0335,0351,0351,0337,0203,0335,0203,0335,0203,0363,0350,0350,0334,0336,0331,0306,",
    "0221:0210,0210,0220,0211,0211,",
    "0222:0304,0322,0221,0335,0330,0323,0221,0335,0330,0324,0221,0335,0330,0325,0221,0335,0330,0326,0221,0335,0330,0327,0221,0335,0330,0330,0350,0335,0335,0335,0312,0337,0320,0362,0203,0335,0335,0203,0335,0335,0203,0335,0335,0203,0335,0335,0203,0335,0335,0203,0354,0334,0336,0331,0306,",
    "0223:0304,0312,0336,0334,0306,0350,0334,0334,0331,0222,0330,0335,0335,0350,0335,0306,0312,0337,0306,",
    "0224:0306,0333,0331,0223,0335,0335,0223,0335,0335,0223,0332,0334,0223,0332,0334,0223,0334,0334,0330,0330,0335,0223,0333,0330,0332,0334,0334,0334,0334,0334,0331,0331,0331,0223,0330,0333,0330,0332,0332,0331,0331,0223,0333,0333,0333,0335,0335,0335,0335,0333,",
    "0225:0224,0224,0224,0224,0224,0224,0224,",
    "0230:0304,0327,0336,0331,0336,0336,0330,0335,0362,0203,0203,0203,0203,0203,0335,0203,0203,0335,0203,0203,0203,0203,0203,0203,0203,0203,0203,0203,0335,0203,0203,0335,0203,0203,0203,0203,0203,0363,0334,0331,0320,0336,0333,0337,0334,0306,0335,0362,0203,0334,0334,0203,0334,0203,0334,0334,0203,0363,0333,0362,0203,0335,0335,0203,0335,0203,0335,0335,0203,0363,0331,0335,0330,0333,0362,0203,0335,0335,0203,0335,0203,0335,0335,0203,0363,0332,0332,0332,0332,0332,0362,0203,0334,0334,0203,0334,0203,0334,0334,0203,0363,0332,0331,0332,0331,0334,0362,0203,0334,0334,0203,0334,0203,0334,0334,0203,0363,0333,0333,0333,0333,0335,0304,0334,0313,0336,0332,0337,0337,0337,0330,0337,0306,",
    "0231:0210,0306,0335,0330,0335,0335,0350,0335,0312,0337,0362,0203,0335,0335,0335,0335,0203,0335,0335,0335,0335,0203,0363,0334,0336,0331,0334,0334,0306,0351,0211,",
    "0232:0231,0231,0231,0231,0231,0231,0231,0231,",
    "0233:0220,0336,0210,0232,",
    "0234:0330,0312,0306,0350,0335,0335,0335,0335,0335,0337,0362,0203,0335,0335,0335,0335,0203,0335,0335,0335,0335,0203,0363,0334,0336,0331,0306,0313,",
    "0235:0210,0210,0234,0211,0211,",
    "0236:0322,0235,0335,0330,0323,0235,0335,0330,0324,0235,0335,0330,0325,0235,0335,0330,0326,0235,0335,0330,0327,0235,0330,0335,0335,0350,0334,0312,0337,0320,0362,0203,0335,0335,0203,0335,0335,0203,0335,0335,0203,0335,0335,0203,0335,0335,0203,0354,0335,0335,0336,0335,0330,0334,0334,0313,0306,",
    "0237:0236,0332,0334,0334,0334,0236,0335,0335,0335,0335,0330,0330,0334,0334,0334,0236,0335,0335,0335,0330,0335,0330,0335,0335,0335,0335,0236,",
    "01220:0333,0200,0336,0330,0332,0220,0313,0304,0331,0333,0337,",
    "01221:0333,0200,0336,0330,0332,0221,0330,0335,0335,0350,0335,0312,0337,0201,0335,0335,0335,0335,0201,0335,0335,0335,0335,0201,0334,0336,0331,0313,0304,0331,0333,0337,0313,0304,",
    "01222:0333,0200,0336,0330,0332,0336,0336,0222,0313,0337,0304,0337,0331,0333,0337,",
    "01223:0333,0200,0336,0330,0332,0223,0313,0304,0331,0333,0337,0320,",
    "01224:0333,0200,0336,0330,0332,0336,0332,0224,0313,0304,0331,0333,0331,0333,0333,0337,0337,",
    "01225:0333,0200,0336,0330,0332,0336,0332,0225,0313,0304,0331,0331,0333,0333,0333,0337,0337,0320,",
    "01226:0333,0200,0336,0336,0330,0332,0226,0331,0333,0337,0337,",
    "01227:0333,0200,0336,0330,0332,0336,0331,0333,0337,0227,0336,0331,0333,0337,0337,",
    "01230:0333,0200,0336,0330,0332,0336,0331,0330,0230,0313,0304,0331,0333,0331,0333,0337,0337,",
    "01231:0333,0200,0336,0330,0332,0336,0231,0313,0304,0337,0331,0333,0337,",
    "01232:0333,0200,",
    "01233:0333,0200,",
    "01234:0333,0200,",
    "01235:0333,0200,",
    "01236:0333,0200,",
    "01237:0333,0200,",
    "0240:0220,0336,0331,0333,0336,0321,0335,0342,0335,0335,0342,0335,0330,0330,0332,0332,0337,0337,",
    "01240:0333,0200,0336,0330,0332,0210,0240,0211,0333,0331,0337,",
    "0241:0220,0336,0321,0343,0332,0350,0335,0336,0342,0334,0334,0342,0335,0304,0337,0333,0337,",
    "01241:0333,0200,0336,0332,0330,0210,0241,0211,0333,0331,0337,",
    "0242:0220,0321,0336,0343,0333,0336,0350,0335,0342,0334,0334,0342,0335,0337,0304,0332,0337,",
    "01242:0333,0200,0336,0330,0332,0210,0242,0211,0333,0331,0337,",
    "0243:0220,0336,0331,0332,0336,0321,0343,0332,0350,0334,0336,0342,0335,0335,0342,0337,0334,0334,0335,0304,0332,0330,0330,0337,0337,0333,",
    "01243:0333,0200,0336,0330,0332,0210,0243,0211,0333,0331,0337,",
    "0244:0220,0336,0331,0333,0336,0321,0343,0333,0350,0336,0335,0342,0334,0334,0342,0335,0337,0304,0333,0330,0330,0337,0337,0332,",
    "01244:0333,0200,0336,0330,0332,0210,0244,0211,0333,0331,0337,",
    "0245:0210,0332,0332,0362,0335,0203,0203,0203,0203,0334,0203,0363,0332,0332,0331,0211,",
    "01245:0333,0200,0336,0330,0332,0336,0245,0337,0333,0331,0337,",
    "0246:0210,0332,0332,0335,0306,0336,0330,0335,0335,0335,0321,0362,0203,0335,0335,0203,0364,0331,0350,0335,0337,0366,0333,0333,0333,0333,0334,0334,0334,0334,0367,0335,0336,0342,0334,0334,0342,0330,0330,0330,0330,0335,0335,0335,0304,0337,0211,",
    "01246:0333,0200,0336,0330,0332,0336,0246,",
    "0247:0330,0332,0336,0332,0336,0221,0333,0333,0333,0222,0333,0333,0333,0223,0333,0333,0333,0225,0333,0331,0331,0331,0332,0332,0332,0332,0332,0332,0332,0332,0332,0332,0332,0332,0333,0333,0226,0331,0331,0331,0333,0333,0333,0333,0333,0333,0333,0333,0333,0333,0333,0333,0333,0330,0333,0330,0330,0333,0330,0331,0332,0332,0332,0332,0332,0332,0332,0332,0332,0332,0332,0332,0227,0333,0333,0333,0230,0333,0331,0331,0331,0331,0332,0332,0332,0330,0332,0332,0332,0332,0332,0332,0333,0333,0231,0333,0333,0333,0232,0331,0333,0330,0333,0333,0233,0333,0333,0333,0234,0330,0330,0332,0330,0332,0332,0337,0337,",
    "01247:0333,0200,0336,0330,0332,0220,0336,0247,0337,0331,0333,0337,"
  ]
}</json>-->    <circle cx="205" cy = "221" r = "7225.26630468835" stroke = "#000000" stroke-width = "5" fill = "#000000" />
    <circle cx="14" cy = "62" r = "1.7639810314180542" stroke = "#00ff00" stroke-width = "1" fill = "#00ff00" />
    <circle cx="18" cy = "59" r = "1.7639810314180542" stroke = "#00ff00" stroke-width = "1" fill = "#00ff00" />
    <circle cx="21" cy = "62" r = "1.7639810314180542" stroke = "#00ff00" stroke-width = "1" fill = "#00ff00" />
    <circle cx="25" cy = "59" r = "1.7639810314180542" stroke = "#00ff00" stroke-width = "1" fill = "#00ff00" />
    <circle cx="39" cy = "76" r = "1.7639810314180542" stroke = "#00ff00" stroke-width = "1" fill = "#00ff00" />
    <circle cx="35" cy = "76" r = "1.7639810314180542" stroke = "#00ff00" stroke-width = "1" fill = "#00ff00" />
    <circle cx="35" cy = "73" r = "1.7639810314180542" stroke = "#00ff00" stroke-width = "1" fill = "#00ff00" />
    <circle cx="39" cy = "73" r = "1.7639810314180542" stroke = "#00ff00" stroke-width = "1" fill = "#00ff00" />
    <circle cx="39" cy = "66" r = "1.7639810314180542" stroke = "#00ff00" stroke-width = "1" fill = "#00ff00" />
    <circle cx="35" cy = "66" r = "1.7639810314180542" stroke = "#00ff00" stroke-width = "1" fill = "#00ff00" />
    <circle cx="35" cy = "62" r = "1.7639810314180542" stroke = "#00ff00" stroke-width = "1" fill = "#00ff00" />
    <circle cx="39" cy = "62" r = "1.7639810314180542" stroke = "#00ff00" stroke-width = "1" fill = "#00ff00" />
	<path d = "M78 80 L78 52 L49 52 L49 80 L78 80 Z" stroke = "#00ff00" stroke-width = "1" fill = "none" />	<path d = "M70 73 L70 59 L56 59 L56 73 L70 73 Z" stroke = "#00ff00" stroke-width = "1" fill = "#00ff00" />    <line x1="70" y1="76" x2="56" y2="76" style="stroke:#00ff00;stroke-width:1" />
    <circle cx="88" cy = "80" r = "1.7639810314180542" stroke = "#00ff00" stroke-width = "1" fill = "#00ff00" />
    <circle cx="92" cy = "80" r = "1.7639810314180542" stroke = "#00ff00" stroke-width = "1" fill = "#00ff00" />
    <circle cx="92" cy = "76" r = "1.7639810314180542" stroke = "#00ff00" stroke-width = "1" fill = "#00ff00" />
    <circle cx="88" cy = "76" r = "1.7639810314180542" stroke = "#00ff00" stroke-width = "1" fill = "#00ff00" />
    <circle cx="88" cy = "69" r = "1.7639810314180542" stroke = "#00ff00" stroke-width = "1" fill = "#00ff00" />
    <circle cx="92" cy = "69" r = "1.7639810314180542" stroke = "#00ff00" stroke-width = "1" fill = "#00ff00" />
    <circle cx="92" cy = "66" r = "1.7639810314180542" stroke = "#00ff00" stroke-width = "1" fill = "#00ff00" />
    <circle cx="88" cy = "66" r = "1.7639810314180542" stroke = "#00ff00" stroke-width = "1" fill = "#00ff00" />
    <circle cx="88" cy = "62" r = "1.7639810314180542" stroke = "#00ff00" stroke-width = "1" fill = "#00ff00" />
    <circle cx="92" cy = "62" r = "1.7639810314180542" stroke = "#00ff00" stroke-width = "1" fill = "#00ff00" />
    <circle cx="92" cy = "59" r = "1.7639810314180542" stroke = "#00ff00" stroke-width = "1" fill = "#00ff00" />
    <circle cx="88" cy = "59" r = "1.7639810314180542" stroke = "#00ff00" stroke-width = "1" fill = "#00ff00" />
    <circle cx="88" cy = "55" r = "1.7639810314180542" stroke = "#00ff00" stroke-width = "1" fill = "#00ff00" />
    <circle cx="92" cy = "55" r = "1.7639810314180542" stroke = "#00ff00" stroke-width = "1" fill = "#00ff00" />
    <circle cx="109" cy = "76" r = "1.7639810314180542" stroke = "#00ff00" stroke-width = "1" fill = "#00ff00" />
    <circle cx="106" cy = "76" r = "1.7639810314180542" stroke = "#00ff00" stroke-width = "1" fill = "#00ff00" />
    <circle cx="106" cy = "73" r = "1.7639810314180542" stroke = "#00ff00" stroke-width = "1" fill = "#00ff00" />
    <circle cx="109" cy = "73" r = "1.7639810314180542" stroke = "#00ff00" stroke-width = "1" fill = "#00ff00" />
    <circle cx="109" cy = "66" r = "1.7639810314180542" stroke = "#00ff00" stroke-width = "1" fill = "#00ff00" />
    <circle cx="106" cy = "66" r = "1.7639810314180542" stroke = "#00ff00" stroke-width = "1" fill = "#00ff00" />
    <circle cx="106" cy = "62" r = "1.7639810314180542" stroke = "#00ff00" stroke-width = "1" fill = "#00ff00" />
    <circle cx="109" cy = "62" r = "1.7639810314180542" stroke = "#00ff00" stroke-width = "1" fill = "#00ff00" />
	<path d = "M148 80 L148 52 L120 52 L120 80 L148 80 Z" stroke = "#00ff00" stroke-width = "1" fill = "none" />	<path d = "M141 73 L141 59 L127 59 L127 73 L141 73 Z" stroke = "#000000" stroke-width = "5" fill = "#000000" />    <line x1="141" y1="76" x2="127" y2="76" style="stroke:#000000;stroke-width:5" />
    <line x1="123" y1="52" x2="123" y2="55" style="stroke:#00ff00;stroke-width:1" />
    <circle cx="155" cy = "80" r = "1.7639810314180542" stroke = "#00ff00" stroke-width = "1" fill = "#00ff00" />
    <circle cx="159" cy = "80" r = "1.7639810314180542" stroke = "#00ff00" stroke-width = "1" fill = "#00ff00" />
    <circle cx="162" cy = "80" r = "1.7639810314180542" stroke = "#00ff00" stroke-width = "1" fill = "#00ff00" />
    <circle cx="166" cy = "80" r = "1.7639810314180542" stroke = "#00ff00" stroke-width = "1" fill = "#00ff00" />
    <circle cx="152" cy = "76" r = "1.7639810314180542" stroke = "#00ff00" stroke-width = "1" fill = "#00ff00" />
    <circle cx="152" cy = "73" r = "1.7639810314180542" stroke = "#00ff00" stroke-width = "1" fill = "#00ff00" />
    <circle cx="152" cy = "69" r = "1.7639810314180542" stroke = "#00ff00" stroke-width = "1" fill = "#00ff00" />
    <circle cx="152" cy = "66" r = "1.7639810314180542" stroke = "#00ff00" stroke-width = "1" fill = "#00ff00" />
    <circle cx="152" cy = "62" r = "1.7639810314180542" stroke = "#00ff00" stroke-width = "1" fill = "#00ff00" />
    <circle cx="155" cy = "59" r = "1.7639810314180542" stroke = "#00ff00" stroke-width = "1" fill = "#00ff00" />
    <circle cx="159" cy = "59" r = "1.7639810314180542" stroke = "#00ff00" stroke-width = "1" fill = "#00ff00" />
    <circle cx="162" cy = "59" r = "1.7639810314180542" stroke = "#00ff00" stroke-width = "1" fill = "#00ff00" />
    <circle cx="166" cy = "62" r = "1.7639810314180542" stroke = "#00ff00" stroke-width = "1" fill = "#00ff00" />
    <circle cx="166" cy = "66" r = "1.7639810314180542" stroke = "#00ff00" stroke-width = "1" fill = "#00ff00" />
    <circle cx="162" cy = "66" r = "1.7639810314180542" stroke = "#00ff00" stroke-width = "1" fill = "#00ff00" />
    <circle cx="159" cy = "66" r = "1.7639810314180542" stroke = "#00ff00" stroke-width = "1" fill = "#00ff00" />
    <circle cx="159" cy = "69" r = "1.7639810314180542" stroke = "#00ff00" stroke-width = "1" fill = "#00ff00" />
    <circle cx="159" cy = "73" r = "1.7639810314180542" stroke = "#00ff00" stroke-width = "1" fill = "#00ff00" />
    <circle cx="162" cy = "73" r = "1.7639810314180542" stroke = "#00ff00" stroke-width = "1" fill = "#00ff00" />
    <circle cx="166" cy = "69" r = "1.7639810314180542" stroke = "#00ff00" stroke-width = "1" fill = "#00ff00" />
    <circle cx="180" cy = "76" r = "1.7639810314180542" stroke = "#00ff00" stroke-width = "1" fill = "#00ff00" />
    <circle cx="176" cy = "76" r = "1.7639810314180542" stroke = "#00ff00" stroke-width = "1" fill = "#00ff00" />
    <circle cx="176" cy = "73" r = "1.7639810314180542" stroke = "#00ff00" stroke-width = "1" fill = "#00ff00" />
    <circle cx="180" cy = "73" r = "1.7639810314180542" stroke = "#00ff00" stroke-width = "1" fill = "#00ff00" />
    <circle cx="180" cy = "66" r = "1.7639810314180542" stroke = "#00ff00" stroke-width = "1" fill = "#00ff00" />
    <circle cx="176" cy = "66" r = "1.7639810314180542" stroke = "#00ff00" stroke-width = "1" fill = "#00ff00" />
    <circle cx="176" cy = "62" r = "1.7639810314180542" stroke = "#00ff00" stroke-width = "1" fill = "#00ff00" />
    <circle cx="180" cy = "62" r = "1.7639810314180542" stroke = "#00ff00" stroke-width = "1" fill = "#00ff00" />
	<path d = "M219 80 L219 52 L190 52 L190 80 L219 80 Z" stroke = "#00ff00" stroke-width = "1" fill = "none" />	<path d = "M212 73 L212 59 L197 59 L197 73 L212 73 Z" stroke = "#ff0000" stroke-width = "4" fill = "#ff0000" />    <line x1="212" y1="76" x2="197" y2="76" style="stroke:#ff0000;stroke-width:4" />
    <line x1="194" y1="52" x2="194" y2="55" style="stroke:#00ff00;stroke-width:1" />
    <line x1="197" y1="52" x2="197" y2="55" style="stroke:#00ff00;stroke-width:1" />
    <circle cx="226" cy = "80" r = "1.7639810314180542" stroke = "#00ff00" stroke-width = "1" fill = "#00ff00" />
    <circle cx="226" cy = "76" r = "1.7639810314180542" stroke = "#00ff00" stroke-width = "1" fill = "#00ff00" />
    <circle cx="226" cy = "73" r = "1.7639810314180542" stroke = "#00ff00" stroke-width = "1" fill = "#00ff00" />
    <circle cx="226" cy = "69" r = "1.7639810314180542" stroke = "#00ff00" stroke-width = "1" fill = "#00ff00" />
    <circle cx="226" cy = "66" r = "1.7639810314180542" stroke = "#00ff00" stroke-width = "1" fill = "#00ff00" />
    <circle cx="226" cy = "62" r = "1.7639810314180542" stroke = "#00ff00" stroke-width = "1" fill = "#00ff00" />
    <circle cx="226" cy = "59" r = "1.7639810314180542" stroke = "#00ff00" stroke-width = "1" fill = "#00ff00" />
    <circle cx="222" cy = "66" r = "1.7639810314180542" stroke = "#00ff00" stroke-width = "1" fill = "#00ff00" />
    <circle cx="222" cy = "73" r = "1.7639810314180542" stroke = "#00ff00" stroke-width = "1" fill = "#00ff00" />
    <circle cx="226" cy = "73" r = "1.7639810314180542" stroke = "#00ff00" stroke-width = "1" fill = "#00ff00" />
    <circle cx="229" cy = "73" r = "1.7639810314180542" stroke = "#00ff00" stroke-width = "1" fill = "#00ff00" />
    <circle cx="233" cy = "73" r = "1.7639810314180542" stroke = "#00ff00" stroke-width = "1" fill = "#00ff00" />
    <circle cx="233" cy = "69" r = "1.7639810314180542" stroke = "#00ff00" stroke-width = "1" fill = "#00ff00" />
    <circle cx="233" cy = "66" r = "1.7639810314180542" stroke = "#00ff00" stroke-width = "1" fill = "#00ff00" />
    <circle cx="229" cy = "66" r = "1.7639810314180542" stroke = "#00ff00" stroke-width = "1" fill = "#00ff00" />
    <circle cx="233" cy = "62" r = "1.7639810314180542" stroke = "#00ff00" stroke-width = "1" fill = "#00ff00" />
    <circle cx="233" cy = "59" r = "1.7639810314180542" stroke = "#00ff00" stroke-width = "1" fill = "#00ff00" />
    <circle cx="236" cy = "66" r = "1.7639810314180542" stroke = "#00ff00" stroke-width = "1" fill = "#00ff00" />
    <circle cx="236" cy = "73" r = "1.7639810314180542" stroke = "#00ff00" stroke-width = "1" fill = "#00ff00" />
    <circle cx="233" cy = "73" r = "1.7639810314180542" stroke = "#00ff00" stroke-width = "1" fill = "#00ff00" />
    <circle cx="233" cy = "76" r = "1.7639810314180542" stroke = "#00ff00" stroke-width = "1" fill = "#00ff00" />
    <circle cx="233" cy = "80" r = "1.7639810314180542" stroke = "#00ff00" stroke-width = "1" fill = "#00ff00" />
    <circle cx="250" cy = "76" r = "1.7639810314180542" stroke = "#00ff00" stroke-width = "1" fill = "#00ff00" />
    <circle cx="247" cy = "76" r = "1.7639810314180542" stroke = "#00ff00" stroke-width = "1" fill = "#00ff00" />
    <circle cx="247" cy = "73" r = "1.7639810314180542" stroke = "#00ff00" stroke-width = "1" fill = "#00ff00" />
    <circle cx="250" cy = "73" r = "1.7639810314180542" stroke = "#00ff00" stroke-width = "1" fill = "#00ff00" />
    <circle cx="250" cy = "66" r = "1.7639810314180542" stroke = "#00ff00" stroke-width = "1" fill = "#00ff00" />
    <circle cx="247" cy = "66" r = "1.7639810314180542" stroke = "#00ff00" stroke-width = "1" fill = "#00ff00" />
    <circle cx="247" cy = "62" r = "1.7639810314180542" stroke = "#00ff00" stroke-width = "1" fill = "#00ff00" />
    <circle cx="250" cy = "62" r = "1.7639810314180542" stroke = "#00ff00" stroke-width = "1" fill = "#00ff00" />
	<path d = "M289 80 L289 52 L261 52 L261 80 L289 80 Z" stroke = "#00ff00" stroke-width = "1" fill = "none" />	<path d = "M282 73 L282 59 L268 59 L268 73 L282 73 Z" stroke = "#ff7900" stroke-width = "4" fill = "#ff7900" />    <line x1="282" y1="76" x2="268" y2="76" style="stroke:#ff7900;stroke-width:4" />
    <line x1="265" y1="52" x2="265" y2="55" style="stroke:#00ff00;stroke-width:1" />
    <line x1="268" y1="52" x2="268" y2="55" style="stroke:#00ff00;stroke-width:1" />
    <line x1="272" y1="52" x2="272" y2="55" style="stroke:#00ff00;stroke-width:1" />
    <circle cx="293" cy = "76" r = "1.7639810314180542" stroke = "#00ff00" stroke-width = "1" fill = "#00ff00" />
    <circle cx="296" cy = "76" r = "1.7639810314180542" stroke = "#00ff00" stroke-width = "1" fill = "#00ff00" />
    <circle cx="300" cy = "76" r = "1.7639810314180542" stroke = "#00ff00" stroke-width = "1" fill = "#00ff00" />
    <circle cx="303" cy = "76" r = "1.7639810314180542" stroke = "#00ff00" stroke-width = "1" fill = "#00ff00" />
    <circle cx="300" cy = "73" r = "1.7639810314180542" stroke = "#00ff00" stroke-width = "1" fill = "#00ff00" />
    <circle cx="300" cy = "69" r = "1.7639810314180542" stroke = "#00ff00" stroke-width = "1" fill = "#00ff00" />
    <circle cx="300" cy = "66" r = "1.7639810314180542" stroke = "#00ff00" stroke-width = "1" fill = "#00ff00" />
    <circle cx="300" cy = "62" r = "1.7639810314180542" stroke = "#00ff00" stroke-width = "1" fill = "#00ff00" />
    <circle cx="300" cy = "59" r = "1.7639810314180542" stroke = "#00ff00" stroke-width = "1" fill = "#00ff00" />
    <circle cx="296" cy = "62" r = "1.7639810314180542" stroke = "#00ff00" stroke-width = "1" fill = "#00ff00" />
    <circle cx="293" cy = "66" r = "1.7639810314180542" stroke = "#00ff00" stroke-width = "1" fill = "#00ff00" />
    <circle cx="293" cy = "69" r = "1.7639810314180542" stroke = "#00ff00" stroke-width = "1" fill = "#00ff00" />
    <circle cx="296" cy = "69" r = "1.7639810314180542" stroke = "#00ff00" stroke-width = "1" fill = "#00ff00" />
    <circle cx="303" cy = "62" r = "1.7639810314180542" stroke = "#00ff00" stroke-width = "1" fill = "#00ff00" />
    <circle cx="307" cy = "62" r = "1.7639810314180542" stroke = "#00ff00" stroke-width = "1" fill = "#00ff00" />
    <circle cx="303" cy = "69" r = "1.7639810314180542" stroke = "#00ff00" stroke-width = "1" fill = "#00ff00" />
    <circle cx="307" cy = "69" r = "1.7639810314180542" stroke = "#00ff00" stroke-width = "1" fill = "#00ff00" />
    <circle cx="307" cy = "73" r = "1.7639810314180542" stroke = "#00ff00" stroke-width = "1" fill = "#00ff00" />
    <circle cx="300" cy = "80" r = "1.7639810314180542" stroke = "#00ff00" stroke-width = "1" fill = "#00ff00" />
    <circle cx="321" cy = "76" r = "1.7639810314180542" stroke = "#00ff00" stroke-width = "1" fill = "#00ff00" />
    <circle cx="317" cy = "76" r = "1.7639810314180542" stroke = "#00ff00" stroke-width = "1" fill = "#00ff00" />
    <circle cx="317" cy = "73" r = "1.7639810314180542" stroke = "#00ff00" stroke-width = "1" fill = "#00ff00" />
    <circle cx="321" cy = "73" r = "1.7639810314180542" stroke = "#00ff00" stroke-width = "1" fill = "#00ff00" />
    <circle cx="321" cy = "66" r = "1.7639810314180542" stroke = "#00ff00" stroke-width = "1" fill = "#00ff00" />
    <circle cx="317" cy = "66" r = "1.7639810314180542" stroke = "#00ff00" stroke-width = "1" fill = "#00ff00" />
    <circle cx="317" cy = "62" r = "1.7639810314180542" stroke = "#00ff00" stroke-width = "1" fill = "#00ff00" />
    <circle cx="321" cy = "62" r = "1.7639810314180542" stroke = "#00ff00" stroke-width = "1" fill = "#00ff00" />
	<path d = "M360 80 L360 52 L332 52 L332 80 L360 80 Z" stroke = "#00ff00" stroke-width = "1" fill = "none" />	<path d = "M353 73 L353 59 L339 59 L339 73 L353 73 Z" stroke = "#ffff00" stroke-width = "4" fill = "#ffff00" />    <line x1="353" y1="76" x2="339" y2="76" style="stroke:#ffff00;stroke-width:4" />
    <line x1="335" y1="52" x2="335" y2="55" style="stroke:#00ff00;stroke-width:1" />
    <line x1="339" y1="52" x2="339" y2="55" style="stroke:#00ff00;stroke-width:1" />
    <line x1="342" y1="52" x2="342" y2="55" style="stroke:#00ff00;stroke-width:1" />
    <line x1="346" y1="52" x2="346" y2="55" style="stroke:#00ff00;stroke-width:1" />
    <circle cx="25" cy = "136" r = "1.7639810314180542" stroke = "#00ff00" stroke-width = "1" fill = "#00ff00" />
    <circle cx="25" cy = "133" r = "1.7639810314180542" stroke = "#00ff00" stroke-width = "1" fill = "#00ff00" />
    <circle cx="28" cy = "129" r = "1.7639810314180542" stroke = "#00ff00" stroke-width = "1" fill = "#00ff00" />
    <circle cx="32" cy = "129" r = "1.7639810314180542" stroke = "#00ff00" stroke-width = "1" fill = "#00ff00" />
    <circle cx="32" cy = "126" r = "1.7639810314180542" stroke = "#00ff00" stroke-width = "1" fill = "#00ff00" />
    <circle cx="32" cy = "122" r = "1.7639810314180542" stroke = "#00ff00" stroke-width = "1" fill = "#00ff00" />
    <circle cx="32" cy = "119" r = "1.7639810314180542" stroke = "#00ff00" stroke-width = "1" fill = "#00ff00" />
    <circle cx="32" cy = "115" r = "1.7639810314180542" stroke = "#00ff00" stroke-width = "1" fill = "#00ff00" />
    <circle cx="28" cy = "115" r = "1.7639810314180542" stroke = "#00ff00" stroke-width = "1" fill = "#00ff00" />
    <circle cx="25" cy = "115" r = "1.7639810314180542" stroke = "#00ff00" stroke-width = "1" fill = "#00ff00" />
    <circle cx="25" cy = "119" r = "1.7639810314180542" stroke = "#00ff00" stroke-width = "1" fill = "#00ff00" />
    <circle cx="25" cy = "122" r = "1.7639810314180542" stroke = "#00ff00" stroke-width = "1" fill = "#00ff00" />
    <circle cx="28" cy = "122" r = "1.7639810314180542" stroke = "#00ff00" stroke-width = "1" fill = "#00ff00" />
    <circle cx="35" cy = "122" r = "1.7639810314180542" stroke = "#00ff00" stroke-width = "1" fill = "#00ff00" />
    <circle cx="39" cy = "119" r = "1.7639810314180542" stroke = "#00ff00" stroke-width = "1" fill = "#00ff00" />
    <circle cx="39" cy = "115" r = "1.7639810314180542" stroke = "#00ff00" stroke-width = "1" fill = "#00ff00" />
    <circle cx="32" cy = "133" r = "1.7639810314180542" stroke = "#00ff00" stroke-width = "1" fill = "#00ff00" />
    <circle cx="32" cy = "136" r = "1.7639810314180542" stroke = "#00ff00" stroke-width = "1" fill = "#00ff00" />
    <circle cx="35" cy = "136" r = "1.7639810314180542" stroke = "#00ff00" stroke-width = "1" fill = "#00ff00" />
    <circle cx="39" cy = "136" r = "1.7639810314180542" stroke = "#00ff00" stroke-width = "1" fill = "#00ff00" />
    <circle cx="39" cy = "133" r = "1.7639810314180542" stroke = "#00ff00" stroke-width = "1" fill = "#00ff00" />
    <circle cx="39" cy = "129" r = "1.7639810314180542" stroke = "#00ff00" stroke-width = "1" fill = "#00ff00" />
    <circle cx="35" cy = "129" r = "1.7639810314180542" stroke = "#00ff00" stroke-width = "1" fill = "#00ff00" />
    <circle cx="53" cy = "133" r = "1.7639810314180542" stroke = "#00ff00" stroke-width = "1" fill = "#00ff00" />
    <circle cx="49" cy = "133" r = "1.7639810314180542" stroke = "#00ff00" stroke-width = "1" fill = "#00ff00" />
    <circle cx="49" cy = "129" r = "1.7639810314180542" stroke = "#00ff00" stroke-width = "1" fill = "#00ff00" />
    <circle cx="53" cy = "129" r = "1.7639810314180542" stroke = "#00ff00" stroke-width = "1" fill = "#00ff00" />
    <circle cx="53" cy = "122" r = "1.7639810314180542" stroke = "#00ff00" stroke-width = "1" fill = "#00ff00" />
    <circle cx="49" cy = "122" r = "1.7639810314180542" stroke = "#00ff00" stroke-width = "1" fill = "#00ff00" />
    <circle cx="49" cy = "119" r = "1.7639810314180542" stroke = "#00ff00" stroke-width = "1" fill = "#00ff00" />
    <circle cx="53" cy = "119" r = "1.7639810314180542" stroke = "#00ff00" stroke-width = "1" fill = "#00ff00" />
	<path d = "M92 136 L92 108 L63 108 L63 136 L92 136 Z" stroke = "#00ff00" stroke-width = "1" fill = "none" />	<path d = "M85 129 L85 115 L70 115 L70 129 L85 129 Z" stroke = "#00ff00" stroke-width = "4" fill = "#00ff00" />    <line x1="85" y1="133" x2="70" y2="133" style="stroke:#00ff00;stroke-width:4" />
    <line x1="67" y1="108" x2="67" y2="112" style="stroke:#00ff00;stroke-width:1" />
    <line x1="70" y1="108" x2="70" y2="112" style="stroke:#00ff00;stroke-width:1" />
    <line x1="74" y1="108" x2="74" y2="112" style="stroke:#00ff00;stroke-width:1" />
    <line x1="78" y1="108" x2="78" y2="112" style="stroke:#00ff00;stroke-width:1" />
    <line x1="81" y1="108" x2="81" y2="112" style="stroke:#00ff00;stroke-width:1" />
    <circle cx="95" cy = "119" r = "1.7639810314180542" stroke = "#00ff00" stroke-width = "1" fill = "#00ff00" />
    <circle cx="99" cy = "115" r = "1.7639810314180542" stroke = "#00ff00" stroke-width = "1" fill = "#00ff00" />
    <circle cx="102" cy = "112" r = "1.7639810314180542" stroke = "#00ff00" stroke-width = "1" fill = "#00ff00" />
    <circle cx="106" cy = "115" r = "1.7639810314180542" stroke = "#00ff00" stroke-width = "1" fill = "#00ff00" />
    <circle cx="109" cy = "119" r = "1.7639810314180542" stroke = "#00ff00" stroke-width = "1" fill = "#00ff00" />
    <circle cx="123" cy = "133" r = "1.7639810314180542" stroke = "#00ff00" stroke-width = "1" fill = "#00ff00" />
    <circle cx="120" cy = "133" r = "1.7639810314180542" stroke = "#00ff00" stroke-width = "1" fill = "#00ff00" />
    <circle cx="120" cy = "129" r = "1.7639810314180542" stroke = "#00ff00" stroke-width = "1" fill = "#00ff00" />
    <circle cx="123" cy = "129" r = "1.7639810314180542" stroke = "#00ff00" stroke-width = "1" fill = "#00ff00" />
    <circle cx="123" cy = "122" r = "1.7639810314180542" stroke = "#00ff00" stroke-width = "1" fill = "#00ff00" />
    <circle cx="120" cy = "122" r = "1.7639810314180542" stroke = "#00ff00" stroke-width = "1" fill = "#00ff00" />
    <circle cx="120" cy = "119" r = "1.7639810314180542" stroke = "#00ff00" stroke-width = "1" fill = "#00ff00" />
    <circle cx="123" cy = "119" r = "1.7639810314180542" stroke = "#00ff00" stroke-width = "1" fill = "#00ff00" />
	<path d = "M162 136 L162 108 L134 108 L134 136 L162 136 Z" stroke = "#00ff00" stroke-width = "1" fill = "none" />	<path d = "M155 129 L155 115 L141 115 L141 129 L155 129 Z" stroke = "#0000ff" stroke-width = "4" fill = "#0000ff" />    <line x1="155" y1="133" x2="141" y2="133" style="stroke:#0000ff;stroke-width:4" />
    <line x1="138" y1="108" x2="138" y2="112" style="stroke:#00ff00;stroke-width:1" />
    <line x1="141" y1="108" x2="141" y2="112" style="stroke:#00ff00;stroke-width:1" />
    <line x1="145" y1="108" x2="145" y2="112" style="stroke:#00ff00;stroke-width:1" />
    <line x1="148" y1="108" x2="148" y2="112" style="stroke:#00ff00;stroke-width:1" />
    <line x1="152" y1="108" x2="152" y2="112" style="stroke:#00ff00;stroke-width:1" />
    <line x1="155" y1="108" x2="155" y2="112" style="stroke:#00ff00;stroke-width:1" />
    <circle cx="166" cy = "136" r = "1.7639810314180542" stroke = "#00ff00" stroke-width = "1" fill = "#00ff00" />
    <circle cx="166" cy = "133" r = "1.7639810314180542" stroke = "#00ff00" stroke-width = "1" fill = "#00ff00" />
    <circle cx="166" cy = "129" r = "1.7639810314180542" stroke = "#00ff00" stroke-width = "1" fill = "#00ff00" />
    <circle cx="169" cy = "126" r = "1.7639810314180542" stroke = "#00ff00" stroke-width = "1" fill = "#00ff00" />
    <circle cx="166" cy = "122" r = "1.7639810314180542" stroke = "#00ff00" stroke-width = "1" fill = "#00ff00" />
    <circle cx="166" cy = "119" r = "1.7639810314180542" stroke = "#00ff00" stroke-width = "1" fill = "#00ff00" />
    <circle cx="169" cy = "115" r = "1.7639810314180542" stroke = "#00ff00" stroke-width = "1" fill = "#00ff00" />
    <circle cx="173" cy = "119" r = "1.7639810314180542" stroke = "#00ff00" stroke-width = "1" fill = "#00ff00" />
    <circle cx="173" cy = "122" r = "1.7639810314180542" stroke = "#00ff00" stroke-width = "1" fill = "#00ff00" />
    <circle cx="173" cy = "129" r = "1.7639810314180542" stroke = "#00ff00" stroke-width = "1" fill = "#00ff00" />
    <circle cx="176" cy = "133" r = "1.7639810314180542" stroke = "#00ff00" stroke-width = "1" fill = "#00ff00" />
    <circle cx="173" cy = "136" r = "1.7639810314180542" stroke = "#00ff00" stroke-width = "1" fill = "#00ff00" />
    <circle cx="169" cy = "136" r = "1.7639810314180542" stroke = "#00ff00" stroke-width = "1" fill = "#00ff00" />
    <circle cx="180" cy = "129" r = "1.7639810314180542" stroke = "#00ff00" stroke-width = "1" fill = "#00ff00" />
    <circle cx="180" cy = "136" r = "1.7639810314180542" stroke = "#00ff00" stroke-width = "1" fill = "#00ff00" />
    <circle cx="194" cy = "133" r = "1.7639810314180542" stroke = "#00ff00" stroke-width = "1" fill = "#00ff00" />
    <circle cx="190" cy = "133" r = "1.7639810314180542" stroke = "#00ff00" stroke-width = "1" fill = "#00ff00" />
    <circle cx="190" cy = "129" r = "1.7639810314180542" stroke = "#00ff00" stroke-width = "1" fill = "#00ff00" />
    <circle cx="194" cy = "129" r = "1.7639810314180542" stroke = "#00ff00" stroke-width = "1" fill = "#00ff00" />
    <circle cx="194" cy = "122" r = "1.7639810314180542" stroke = "#00ff00" stroke-width = "1" fill = "#00ff00" />
    <circle cx="190" cy = "122" r = "1.7639810314180542" stroke = "#00ff00" stroke-width = "1" fill = "#00ff00" />
    <circle cx="190" cy = "119" r = "1.7639810314180542" stroke = "#00ff00" stroke-width = "1" fill = "#00ff00" />
    <circle cx="194" cy = "119" r = "1.7639810314180542" stroke = "#00ff00" stroke-width = "1" fill = "#00ff00" />
	<path d = "M233 136 L233 108 L205 108 L205 136 L233 136 Z" stroke = "#00ff00" stroke-width = "1" fill = "none" />	<path d = "M226 129 L226 115 L212 115 L212 129 L226 129 Z" stroke = "#800080" stroke-width = "4" fill = "#800080" />    <line x1="226" y1="133" x2="212" y2="133" style="stroke:#800080;stroke-width:4" />
    <line x1="208" y1="108" x2="208" y2="112" style="stroke:#00ff00;stroke-width:1" />
    <line x1="212" y1="108" x2="212" y2="112" style="stroke:#00ff00;stroke-width:1" />
    <line x1="215" y1="108" x2="215" y2="112" style="stroke:#00ff00;stroke-width:1" />
    <line x1="219" y1="108" x2="219" y2="112" style="stroke:#00ff00;stroke-width:1" />
    <line x1="222" y1="108" x2="222" y2="112" style="stroke:#00ff00;stroke-width:1" />
    <line x1="226" y1="108" x2="226" y2="112" style="stroke:#00ff00;stroke-width:1" />
    <line x1="229" y1="108" x2="229" y2="112" style="stroke:#00ff00;stroke-width:1" />
</svg>