<svg width="400" height="400" viewbox = "0 0 400 400"  xmlns="http://www.w3.org/2000/svg">
<!--<json>{
  "glyph": "0332,0332,0336,0336,0332,0337,01306,01351,01362,01203,01335,01203,01335,01203,01363,0335,0335,0321,0336,0330,0337,0337,0366,0336,0333,0333,0333,0333,0336,0333,0337,0335,0335,0331,0331,0337,0367,0366,0330,0332,0332,0336,0336,0332,0335,0335,0337,0337,0367,0335,0335,0331,0333,0333,0336,0320,0331,0332,0332,0336,0146,0151,0154,0154,0145,0144,040,0145,0161,0165,0151,0154,0154,0141,0164,0145,0162,0141,0154,040,0164,0162,0151,0141,0156,0147,0154,0145,0365,0330,0330,0330,0330,0330,0330,0330,0330,0330,0332,0332,0332,0332,0330,0366,0333,0333,0330,0335,0335,0367,0366,0335,0335,0331,0333,0333,0367,0330,0332,0332,0332,0336,0330,0332,0332,0332,0332,0337,061,062,060,040,0144,0145,0147,0162,0145,0145,0163,0365,",
  "x0": 200,
  "y0": 200,
  "unit": 73.20500000000004,
  "width": 400,
  "height": 400,
  "style": {
    "color0": "black",
    "fill0": "black",
    "line0": 1,
    "color1": "black",
    "fill1": "#00000080",
    "line1": 5,
    "color2": "red",
    "fill2": "red",
    "line2": 4,
    "color3": "#FF7900",
    "fill3": "#FF7900",
    "line3": 4,
    "color4": "yellow",
    "fill4": "yellow",
    "line4": 4,
    "color5": "green",
    "fill5": "green",
    "line5": 4,
    "color6": "blue",
    "fill6": "blue",
    "line6": 4,
    "color7": "purple",
    "fill7": "purple",
    "line7": 4
  },
  "shapes": [
    "0220:0210,0210,0306,0330,0335,0335,0350,0335,0312,0337,0306,0362,0203,0335,0335,0203,0335,0335,0203,0363,0350,0334,0336,0331,0306,0313,0211,0211,",
    "0221:0320,0220,0210,0210,0210,0210,0327,0330,0335,0335,0350,0335,0312,0337,0313,0336,0362,0203,0335,0335,0203,0335,0335,0335,0335,0203,0335,0335,0203,0363,0326,0336,0336,0306,0331,0331,0333,0335,0335,0362,0203,0203,0335,0203,0203,0335,0335,0203,0203,0335,0203,0203,0363,0333,0332,0332,0331,0331,0331,0331,0331,0331,0331,0331,0335,0325,0362,0203,0334,0334,0203,0335,0203,0335,0335,0203,0203,0334,0203,0334,0334,0203,0203,0203,0364,0331,0331,0331,0335,0335,0330,0330,0330,0330,0330,0334,0334,0334,0362,0203,0335,0335,0203,0334,0203,0334,0334,0203,0203,0335,0203,0335,0335,0203,0203,0203,0364,0332,0332,0332,0332,0332,0350,0334,0337,0337,0337,0334,0335,0312,0336,0331,0211,0211,0211,0211,0306,0320,",
    "0222:0320,0220,0327,0336,0336,0350,0335,0306,0362,0203,0334,0203,0334,0334,0203,0334,0203,0363,0331,0334,0334,0320,0336,0336,0330,0333,0330,0335,0335,0362,0203,0335,0203,0335,0335,0203,0335,0203,0363,0330,0332,0337,0337,0331,0334,0331,0350,0335,0351,0337,0337,",
    "0223:0220,0324,0336,064,0365,0337,",
    "0224:0220,0333,0335,0220,0333,0335,0220,0333,0335,0220,0333,0335,0220,0333,0335,0220,0335,0330,",
    "0225:0221,0333,0335,0222,0333,0335,0222,0333,0335,0223,0333,0335,0222,0333,0335,0221,0333,0335,0330,0335,0320,0350,0335,0312,0337,0306,0362,0203,0335,0203,0335,0203,0335,0203,0335,0203,0335,0203,0354,0336,0313,0350,0334,0331,0306,",
    "0230:0304,0327,0336,0331,0336,0336,0330,0335,0362,0203,0203,0203,0203,0203,0335,0203,0203,0335,0203,0203,0203,0203,0203,0203,0203,0203,0203,0203,0335,0203,0203,0335,0203,0203,0203,0203,0203,0363,0334,0331,0320,0336,0333,0337,0334,0306,0335,0362,0203,0334,0334,0203,0334,0203,0334,0334,0203,0363,0333,0362,0203,0335,0335,0203,0335,0203,0335,0335,0203,0363,0331,0335,0330,0333,0362,0203,0335,0335,0203,0335,0203,0335,0335,0203,0363,0332,0332,0332,0332,0332,0362,0203,0334,0334,0203,0334,0203,0334,0334,0203,0363,0332,0331,0332,0331,0334,0362,0203,0334,0334,0203,0334,0203,0334,0334,0203,0363,0333,0333,0333,0333,0335,0304,0334,0313,0336,0332,0337,0337,0337,0330,0337,0306,",
    "0231:0210,0306,0335,0330,0335,0335,0350,0335,0312,0337,0362,0203,0335,0335,0335,0335,0203,0335,0335,0335,0335,0203,0363,0334,0336,0331,0334,0334,0306,0351,0211,",
    "0232:0231,0231,0231,0231,0231,0231,0231,0231,",
    "0233:0220,0336,0210,0232,",
    "0234:0220,0336,0335,0335,0331,0335,0331,0337,0321,0342,0332,0342,0336,0333,0337,0342,0330,0336,0336,0336,0330,0337,0366,0332,0332,0332,0367,0350,0335,0306,0350,0320,0335,0362,0203,0334,0334,0334,0334,0203,0334,0334,0334,0334,0203,0363,0335,0304,0350,0335,0304,0335,0335,0331,0331,0332,01015,0145,0154,0145,0155,0145,0156,0164,040,0144,0157,0167,0156,0365,0330,0330,0330,0330,0330,0333,0333,0333,0336,0332,0337,0333,0337,0337,",
    "0235:0220,0321,0336,0342,0335,0342,0335,0342,0335,0342,0335,0337,",
    "0236:0321,0220,0335,0336,0321,0342,0335,0335,0342,0335,0337,",
    "0237:0220,0336,0331,0332,0336,0321,0342,0335,0342,0335,0342,0335,0342,0335,0330,0330,0333,0333,0337,0337,",
    "01220:0333,0200,0336,0330,0332,0220,0313,0304,0331,0333,0337,",
    "01221:0333,0200,0336,0330,0332,0221,0313,0304,0331,0333,0337,0320,",
    "01222:0333,0200,0336,0330,0332,0222,0313,0304,0331,0333,0337,0320,",
    "01223:0333,0200,0336,0330,0332,0223,0313,0304,0331,0333,0337,0320,",
    "01224:0333,0200,0336,0330,0332,0336,0332,0224,0313,0304,0331,0333,0331,0333,0333,0337,0337,",
    "01225:0333,0200,0336,0330,0332,0336,0332,0225,0313,0304,0331,0331,0333,0333,0333,0337,0337,0320,",
    "01226:0333,0200,0336,0336,0330,0332,0226,0331,0333,0337,0337,",
    "01227:0333,0200,0336,0330,0332,0336,0331,0333,0337,0227,0336,0331,0333,0337,0337,",
    "01230:0333,0200,0336,0330,0332,0336,0331,0330,0230,0313,0304,0331,0333,0331,0333,0337,0337,",
    "01231:0333,0200,0336,0330,0332,0336,0231,0313,0304,0337,0331,0333,0337,",
    "01232:0333,0200,",
    "01233:0333,0200,",
    "01234:0333,0200,",
    "01235:0333,0200,",
    "01236:0333,0200,",
    "01237:0333,0200,",
    "0240:0220,0336,0331,0333,0336,0321,0335,0342,0335,0335,0342,0335,0330,0330,0332,0332,0337,0337,",
    "01240:0333,0200,0336,0330,0332,0210,0240,0211,0333,0331,0337,",
    "0241:0220,0336,0321,0343,0332,0350,0335,0336,0342,0334,0334,0342,0335,0304,0337,0333,0337,",
    "01241:0333,0200,0336,0332,0330,0210,0241,0211,0333,0331,0337,",
    "0242:0220,0321,0336,0343,0333,0336,0350,0335,0342,0334,0334,0342,0335,0337,0304,0332,0337,",
    "01242:0333,0200,0336,0330,0332,0210,0242,0211,0333,0331,0337,",
    "0243:0220,0336,0331,0332,0336,0321,0343,0332,0350,0334,0336,0342,0335,0335,0342,0337,0334,0334,0335,0304,0332,0330,0330,0337,0337,0333,",
    "01243:0333,0200,0336,0330,0332,0210,0243,0211,0333,0331,0337,",
    "0244:0220,0336,0331,0333,0336,0321,0343,0333,0350,0336,0335,0342,0334,0334,0342,0335,0337,0304,0333,0330,0330,0337,0337,0332,",
    "01244:0333,0200,0336,0330,0332,0210,0244,0211,0333,0331,0337,",
    "0245:0210,0332,0332,0362,0335,0203,0203,0203,0203,0334,0203,0363,0332,0332,0331,0211,",
    "01245:0333,0200,0336,0330,0332,0336,0245,0337,0333,0331,0337,",
    "0246:0210,0332,0332,0335,0306,0336,0330,0335,0335,0335,0321,0362,0203,0335,0335,0203,0364,0331,0350,0335,0337,0366,0333,0333,0333,0333,0334,0334,0334,0334,0367,0335,0336,0342,0334,0334,0342,0330,0330,0330,0330,0335,0335,0335,0304,0337,0211,",
    "01246:0333,0200,0336,0330,0332,0336,0246,",
    "0247:0330,0332,0336,0332,0336,0221,0333,0333,0333,0222,0333,0333,0333,0223,0333,0333,0333,0225,0333,0331,0331,0331,0332,0332,0332,0332,0332,0332,0332,0332,0332,0332,0332,0332,0333,0333,0226,0331,0331,0331,0333,0333,0333,0333,0333,0333,0333,0333,0333,0333,0333,0333,0333,0330,0333,0330,0330,0333,0330,0331,0332,0332,0332,0332,0332,0332,0332,0332,0332,0332,0332,0332,0227,0333,0333,0333,0230,0333,0331,0331,0331,0331,0332,0332,0332,0330,0332,0332,0332,0332,0332,0332,0333,0333,0231,0333,0333,0333,0232,0331,0333,0330,0333,0333,0233,0333,0333,0333,0234,0330,0330,0332,0330,0332,0332,0337,0337,",
    "01247:0333,0200,0336,0330,0332,0220,0336,0247,0337,0331,0333,0337,"
  ]
}</json>-->	<path d = "M72 200 L72 163 L35 163 L35 200 L72 200 Z" stroke = "#000000" stroke-width = "1" fill = "none" />    <line x1="54" y1="182" x2="54" y2="163" style="stroke:#000000;stroke-width:1" />
    <line x1="54" y1="182" x2="69" y2="173" style="stroke:#000000;stroke-width:1" />
    <line x1="54" y1="182" x2="69" y2="191" style="stroke:#000000;stroke-width:1" />
    <line x1="54" y1="182" x2="54" y2="200" style="stroke:#000000;stroke-width:1" />
    <line x1="54" y1="182" x2="38" y2="191" style="stroke:#000000;stroke-width:1" />
<circle cx="54" cy = "182" r = "18.30125000000001" stroke = "#000000" stroke-width = "1" fill = "none" />
<circle cx="49" cy = "174" r = "2.2876562500000013" stroke = "#000000" stroke-width = "1" fill = "none" />
<circle cx="58" cy = "174" r = "2.2876562500000013" stroke = "#000000" stroke-width = "1" fill = "none" />
<circle cx="63" cy = "182" r = "2.2876562500000013" stroke = "#000000" stroke-width = "1" fill = "none" />
<circle cx="58" cy = "190" r = "2.2876562500000013" stroke = "#000000" stroke-width = "1" fill = "none" />
<circle cx="49" cy = "190" r = "2.2876562500000013" stroke = "#000000" stroke-width = "1" fill = "none" />
    <line x1="54" y1="182" x2="38" y2="173" style="stroke:#000000;stroke-width:1" />
<circle cx="44" cy = "182" r = "2.2876562500000013" stroke = "#000000" stroke-width = "1" fill = "none" />
	<path d = "M108 200 L108 163 L72 163 L72 200 L108 200 Z" stroke = "#000000" stroke-width = "1" fill = "none" />	<path d = "M103 195 L90 182 L93 178 " stroke = "#000000" stroke-width = "1" fill = "none" />    <line x1="97" y1="175" x2="100" y2="172" style="stroke:#000000;stroke-width:1" />
    <line x1="103" y1="169" x2="106" y2="166" style="stroke:#000000;stroke-width:1" />
    <line x1="90" y1="182" x2="108" y2="182" style="stroke:#000000;stroke-width:1" />
	<path d = "M145 200 L145 163 L108 163 L108 200 L145 200 Z" stroke = "#000000" stroke-width = "1" fill = "none" /><circle cx="118" cy = "191" r = "1" stroke = "#000000" stroke-width = "1" fill = "#000000" />
	<path d = "M118 191 L118 173 L136 173 " stroke = "#000000" stroke-width = "1" fill = "none" />	<path d = "M129 166 L136 173 L129 179 " stroke = "#000000" stroke-width = "1" fill = "none" />    <line x1="145" y1="200" x2="152" y2="194" style="stroke:#000000;stroke-width:1" />
    <line x1="154" y1="200" x2="161" y2="194" style="stroke:#000000;stroke-width:1" />
    <line x1="163" y1="200" x2="170" y2="194" style="stroke:#000000;stroke-width:1" />
    <line x1="173" y1="200" x2="179" y2="194" style="stroke:#000000;stroke-width:1" />
	<path d = "M182 200 L182 163 L145 163 L145 200 L182 200 Z" stroke = "#000000" stroke-width = "1" fill = "none" />    <line x1="154" y1="182" x2="173" y2="182" style="stroke:#000000;stroke-width:1" />
    <line x1="173" y1="182" x2="169" y2="185" style="stroke:#000000;stroke-width:1" />
    <line x1="173" y1="182" x2="169" y2="178" style="stroke:#000000;stroke-width:1" />
	<path d = "M218 200 L218 163 L182 163 L182 200 L218 200 Z" stroke = "#000000" stroke-width = "1" fill = "none" />  <path d="M206.47046898959508 188.16921898959475           A9.150625000000005 9.150625000000005 0 0 1 193.52953101040478 188.16921898959478" fill = "none" stroke = "#000000" stroke-width = "1" />
  <path d="M193.52953101040478 188.16921898959478           A9.150625000000005 9.150625000000005 0 0 1 193.52953101040475 175.2282810104045" fill = "none" stroke = "#000000" stroke-width = "1" />
  <path d="M193.52953101040475 175.2282810104045           A9.150625000000005 9.150625000000005 0 0 1 206.47046898959505 175.22828101040446" fill = "none" stroke = "#000000" stroke-width = "1" />
	<path d = "M198 179 L206 175 L203 167 " stroke = "#000000" stroke-width = "1" fill = "none" />    <line x1="218" y1="200" x2="225" y2="194" style="stroke:#000000;stroke-width:1" />
    <line x1="227" y1="200" x2="234" y2="194" style="stroke:#000000;stroke-width:1" />
    <line x1="237" y1="200" x2="243" y2="194" style="stroke:#000000;stroke-width:1" />
    <line x1="246" y1="200" x2="252" y2="194" style="stroke:#000000;stroke-width:1" />
	<path d = "M255 200 L255 163 L218 163 L218 200 L255 200 Z" stroke = "#000000" stroke-width = "1" fill = "none" />    <line x1="227" y1="182" x2="246" y2="182" style="stroke:#000000;stroke-width:1" />
    <line x1="246" y1="182" x2="243" y2="185" style="stroke:#000000;stroke-width:1" />
    <line x1="246" y1="182" x2="243" y2="178" style="stroke:#000000;stroke-width:1" />
	<path d = "M292 200 L292 163 L255 163 L255 200 L292 200 Z" stroke = "#000000" stroke-width = "1" fill = "none" />  <path d="M279.6754689895951 188.1692189895945           A9.150625000000005 9.150625000000005 0 0 1 266.7345310104048 188.16921898959455" fill = "none" stroke = "#000000" stroke-width = "1" />
  <path d="M266.7345310104048 188.16921898959455           A9.150625000000005 9.150625000000005 0 0 1 266.73453101040474 175.22828101040423" fill = "none" stroke = "#000000" stroke-width = "1" />
  <path d="M266.73453101040474 175.22828101040423           A9.150625000000005 9.150625000000005 0 0 1 279.67546898959506 175.22828101040417" fill = "none" stroke = "#000000" stroke-width = "1" />
	<path d = "M271 179 L280 175 L276 167 " stroke = "#000000" stroke-width = "1" fill = "none" />    <line x1="292" y1="200" x2="298" y2="194" style="stroke:#000000;stroke-width:1" />
    <line x1="301" y1="200" x2="307" y2="194" style="stroke:#000000;stroke-width:1" />
    <line x1="310" y1="200" x2="316" y2="194" style="stroke:#000000;stroke-width:1" />
    <line x1="319" y1="200" x2="325" y2="194" style="stroke:#000000;stroke-width:1" />
	<path d = "M328 200 L328 163 L292 163 L292 200 L328 200 Z" stroke = "#000000" stroke-width = "1" fill = "none" />    <line x1="301" y1="182" x2="319" y2="182" style="stroke:#000000;stroke-width:1" />
    <line x1="319" y1="182" x2="316" y2="185" style="stroke:#000000;stroke-width:1" />
    <line x1="319" y1="182" x2="316" y2="178" style="stroke:#000000;stroke-width:1" />
    <line x1="328" y1="200" x2="335" y2="194" style="stroke:#000000;stroke-width:1" />
    <line x1="337" y1="200" x2="344" y2="194" style="stroke:#000000;stroke-width:1" />
    <line x1="346" y1="200" x2="353" y2="194" style="stroke:#000000;stroke-width:1" />
    <line x1="356" y1="200" x2="362" y2="194" style="stroke:#000000;stroke-width:1" />
	<path d = "M365 200 L365 163 L328 163 L328 200 L365 200 Z" stroke = "#000000" stroke-width = "1" fill = "none" />	<path d = "M337 173 L356 173 L356 191 " stroke = "#000000" stroke-width = "1" fill = "none" />	<path d = "M349 184 L356 191 L362 184 " stroke = "#000000" stroke-width = "1" fill = "none" /><circle cx="356" cy = "191" r = "1" stroke = "#000000" stroke-width = "1" fill = "#000000" />
<path    d = "M365,218 C365,292 200,218 200,292" fill = "none" stroke-width = "5" stroke = "#000000" /><path    d = "M200,292 C200,218 35,292 35,218" fill = "none" stroke-width = "5" stroke = "#000000" />    <text x="108" y = "328" fill = "#000000" font-size = "18.30125000000001px" font-family = "Arial">filled equillateral triangle</text>
<path    d = "M35,145 C35,127 72,145 72,127" fill = "none" stroke-width = "1" stroke = "#000000" /><path    d = "M72,127 C72,145 108,127 108,145" fill = "none" stroke-width = "1" stroke = "#000000" />    <text x="17" y = "118" fill = "#000000" font-size = "18.30125000000001px" font-family = "Arial">120 degrees</text>
</svg>