<svg width="400" height="400" viewbox = "0 0 400 400"  xmlns="http://www.w3.org/2000/svg">
<!--<json>{
  "glyph": "0337,0337,0337,0337,0337,0321,0347,0300,0331,0332,0332,0332,0332,0332,0332,01306,01333,01331,01223,01335,01335,01223,01335,01335,01223,01332,01334,01223,01332,01334,0331,0332,0332,0332,0332,0332,0332,0332,0332,0332,0332,0332,0332,0332,0332,0332,0331,01223,01334,01334,01330,01330,01335,01223,01333,01330,01332,01334,01334,01334,01334,01334,0331,0332,0332,0332,0332,0332,0332,0332,0332,0332,0332,0332,0332,0332,0332,0332,0331,01331,01331,01331,01223,01330,01333,01330,01332,01332,01331,01331,01223,0331,0332,0332,0332,0332,0332,0332,0332,0332,0332,0332,0332,0332,0331,01333,01333,01333,01335,01335,01335,01335,01333,0336,0330,0333,0336,0341,0337,0331,0333,0337,0330,0330,0330,0330,0330,0330,0330,0330,0330,0330,0330,0331,0331,0332,0332,0332,0332,0332,0332,0332,0332,0332,0331,01224,01072,0330,0333,0330,0333,0330,0333,0330,0332,0332,0333,0333,0333,0224,",
  "x0": 162.43425995492112,
  "y0": 217.30558863710328,
  "unit": 23.32536901048666,
  "width": 400,
  "height": 400,
  "style": {
    "color0": "#00ff00",
    "fill0": "#00ff00",
    "line0": 1,
    "color1": "black",
    "fill1": "black",
    "line1": 5,
    "color2": "red",
    "fill2": "red",
    "line2": 4,
    "color3": "#FF7900",
    "fill3": "#FF7900",
    "line3": 4,
    "color4": "yellow",
    "fill4": "yellow",
    "line4": 4,
    "color5": "#00ff00",
    "fill5": "#00ff00",
    "line5": 4,
    "color6": "blue",
    "fill6": "blue",
    "line6": 4,
    "color7": "purple",
    "fill7": "purple",
    "line7": 4
  },
  "shapes": [
    "0220:0312,0306,0350,0330,0362,0335,0335,0335,0335,0335,0351,0351,0337,0203,0335,0203,0335,0203,0363,0350,0350,0334,0336,0331,0306,",
    "0221:0210,0210,0220,0211,0211,",
    "0222:0304,0322,0221,0335,0330,0323,0221,0335,0330,0324,0221,0335,0330,0325,0221,0335,0330,0326,0221,0335,0330,0327,0221,0335,0330,0330,0350,0335,0335,0335,0312,0337,0320,0362,0203,0335,0335,0203,0335,0335,0203,0335,0335,0203,0335,0335,0203,0335,0335,0203,0354,0334,0336,0331,0306,",
    "0223:0304,0312,0336,0334,0306,0350,0334,0334,0331,0222,0330,0335,0335,0350,0335,0306,0312,0337,0306,",
    "0224:0306,0333,0331,0223,0335,0335,0223,0335,0335,0223,0332,0334,0223,0332,0334,0223,0334,0334,0330,0330,0335,0223,0333,0330,0332,0334,0334,0334,0334,0334,0331,0331,0331,0223,0330,0333,0330,0332,0332,0331,0331,0223,0333,0333,0333,0335,0335,0335,0335,0333,",
    "0225:0224,0224,0224,0224,0224,0224,0224,",
    "0230:0304,0327,0336,0331,0336,0336,0330,0335,0362,0203,0203,0203,0203,0203,0335,0203,0203,0335,0203,0203,0203,0203,0203,0203,0203,0203,0203,0203,0335,0203,0203,0335,0203,0203,0203,0203,0203,0363,0334,0331,0320,0336,0333,0337,0334,0306,0335,0362,0203,0334,0334,0203,0334,0203,0334,0334,0203,0363,0333,0362,0203,0335,0335,0203,0335,0203,0335,0335,0203,0363,0331,0335,0330,0333,0362,0203,0335,0335,0203,0335,0203,0335,0335,0203,0363,0332,0332,0332,0332,0332,0362,0203,0334,0334,0203,0334,0203,0334,0334,0203,0363,0332,0331,0332,0331,0334,0362,0203,0334,0334,0203,0334,0203,0334,0334,0203,0363,0333,0333,0333,0333,0335,0304,0334,0313,0336,0332,0337,0337,0337,0330,0337,0306,",
    "0231:0210,0306,0335,0330,0335,0335,0350,0335,0312,0337,0362,0203,0335,0335,0335,0335,0203,0335,0335,0335,0335,0203,0363,0334,0336,0331,0334,0334,0306,0351,0211,",
    "0232:0231,0231,0231,0231,0231,0231,0231,0231,",
    "0233:0220,0336,0210,0232,",
    "0234:0330,0312,0306,0350,0335,0335,0335,0335,0335,0337,0362,0203,0335,0335,0335,0335,0203,0335,0335,0335,0335,0203,0363,0334,0336,0331,0306,0313,",
    "0235:0210,0210,0234,0211,0211,",
    "0236:0322,0235,0335,0330,0323,0235,0335,0330,0324,0235,0335,0330,0325,0235,0335,0330,0326,0235,0335,0330,0327,0235,0330,0335,0335,0350,0334,0312,0337,0320,0362,0203,0335,0335,0203,0335,0335,0203,0335,0335,0203,0335,0335,0203,0335,0335,0203,0354,0335,0335,0336,0335,0330,0334,0334,0313,0306,",
    "0237:0236,0332,0334,0334,0334,0236,0335,0335,0335,0335,0330,0330,0334,0334,0334,0236,0335,0335,0335,0330,0335,0330,0335,0335,0335,0335,0236,",
    "01220:0333,0200,0336,0330,0332,0220,0313,0304,0331,0333,0337,",
    "01221:0333,0200,0336,0330,0332,0221,0330,0335,0335,0350,0335,0312,0337,0201,0335,0335,0335,0335,0201,0335,0335,0335,0335,0201,0334,0336,0331,0313,0304,0331,0333,0337,0313,0304,",
    "01222:0333,0200,0336,0330,0332,0336,0336,0222,0313,0337,0304,0337,0331,0333,0337,",
    "01223:0333,0200,0336,0330,0332,0223,0313,0304,0331,0333,0337,0320,",
    "01224:0333,0200,0336,0330,0332,0336,0332,0224,0313,0304,0331,0333,0331,0333,0333,0337,0337,",
    "01225:0333,0200,0336,0330,0332,0336,0332,0225,0313,0304,0331,0331,0333,0333,0333,0337,0337,0320,",
    "01226:0333,0200,0336,0336,0330,0332,0226,0331,0333,0337,0337,",
    "01227:0333,0200,0336,0330,0332,0336,0331,0333,0337,0227,0336,0331,0333,0337,0337,",
    "01230:0333,0200,0336,0330,0332,0336,0331,0330,0230,0313,0304,0331,0333,0331,0333,0337,0337,",
    "01231:0333,0200,0336,0330,0332,0336,0231,0313,0304,0337,0331,0333,0337,",
    "01232:0333,0200,",
    "01233:0333,0200,",
    "01234:0333,0200,",
    "01235:0333,0200,",
    "01236:0333,0200,",
    "01237:0333,0200,",
    "0240:0220,0336,0331,0333,0336,0321,0335,0342,0335,0335,0342,0335,0330,0330,0332,0332,0337,0337,",
    "01240:0333,0200,0336,0330,0332,0210,0240,0211,0333,0331,0337,",
    "0241:0220,0336,0321,0343,0332,0350,0335,0336,0342,0334,0334,0342,0335,0304,0337,0333,0337,",
    "01241:0333,0200,0336,0332,0330,0210,0241,0211,0333,0331,0337,",
    "0242:0220,0321,0336,0343,0333,0336,0350,0335,0342,0334,0334,0342,0335,0337,0304,0332,0337,",
    "01242:0333,0200,0336,0330,0332,0210,0242,0211,0333,0331,0337,",
    "0243:0220,0336,0331,0332,0336,0321,0343,0332,0350,0334,0336,0342,0335,0335,0342,0337,0334,0334,0335,0304,0332,0330,0330,0337,0337,0333,",
    "01243:0333,0200,0336,0330,0332,0210,0243,0211,0333,0331,0337,",
    "0244:0220,0336,0331,0333,0336,0321,0343,0333,0350,0336,0335,0342,0334,0334,0342,0335,0337,0304,0333,0330,0330,0337,0337,0332,",
    "01244:0333,0200,0336,0330,0332,0210,0244,0211,0333,0331,0337,",
    "0245:0210,0332,0332,0362,0335,0203,0203,0203,0203,0334,0203,0363,0332,0332,0331,0211,",
    "01245:0333,0200,0336,0330,0332,0336,0245,0337,0333,0331,0337,",
    "0246:0210,0332,0332,0335,0306,0336,0330,0335,0335,0335,0321,0362,0203,0335,0335,0203,0364,0331,0350,0335,0337,0366,0333,0333,0333,0333,0334,0334,0334,0334,0367,0335,0336,0342,0334,0334,0342,0330,0330,0330,0330,0335,0335,0335,0304,0337,0211,",
    "01246:0333,0200,0336,0330,0332,0336,0246,",
    "0247:0330,0332,0336,0332,0336,0221,0333,0333,0333,0222,0333,0333,0333,0223,0333,0333,0333,0225,0333,0331,0331,0331,0332,0332,0332,0332,0332,0332,0332,0332,0332,0332,0332,0332,0333,0333,0226,0331,0331,0331,0333,0333,0333,0333,0333,0333,0333,0333,0333,0333,0333,0333,0333,0330,0333,0330,0330,0333,0330,0331,0332,0332,0332,0332,0332,0332,0332,0332,0332,0332,0332,0332,0227,0333,0333,0333,0230,0333,0331,0331,0331,0331,0332,0332,0332,0330,0332,0332,0332,0332,0332,0332,0333,0333,0231,0333,0333,0333,0232,0331,0333,0330,0333,0333,0233,0333,0333,0333,0234,0330,0330,0332,0330,0332,0332,0337,0337,",
    "01247:0333,0200,0336,0330,0332,0220,0336,0247,0337,0331,0333,0337,"
  ]
}</json>-->    <circle cx="162" cy = "217" r = "746.4118083355731" stroke = "#000000" stroke-width = "5" fill = "#000000" />
	<path d = "M46 241 L46 217 L22 217 L22 241 L46 241 Z" stroke = "#00ff00" stroke-width = "1" fill = "none" />    <line x1="34" y1="229" x2="34" y2="217" style="stroke:#00ff00;stroke-width:1" />
    <line x1="34" y1="229" x2="44" y2="223" style="stroke:#00ff00;stroke-width:1" />
    <line x1="34" y1="229" x2="44" y2="235" style="stroke:#00ff00;stroke-width:1" />
    <line x1="34" y1="229" x2="34" y2="241" style="stroke:#00ff00;stroke-width:1" />
    <line x1="34" y1="229" x2="24" y2="235" style="stroke:#00ff00;stroke-width:1" />
<circle cx="34" cy = "229" r = "11.66268450524333" stroke = "#00ff00" stroke-width = "1" fill = "none" />
<circle cx="31" cy = "224" r = "1.4578355631554163" stroke = "#00ff00" stroke-width = "1" fill = "none" />
<circle cx="37" cy = "224" r = "1.4578355631554163" stroke = "#00ff00" stroke-width = "1" fill = "none" />
<circle cx="40" cy = "229" r = "1.4578355631554163" stroke = "#00ff00" stroke-width = "1" fill = "none" />
<circle cx="37" cy = "234" r = "1.4578355631554163" stroke = "#00ff00" stroke-width = "1" fill = "none" />
<circle cx="31" cy = "234" r = "1.4578355631554163" stroke = "#00ff00" stroke-width = "1" fill = "none" />
    <line x1="34" y1="229" x2="24" y2="223" style="stroke:#00ff00;stroke-width:1" />
<circle cx="28" cy = "229" r = "1.4578355631554163" stroke = "#00ff00" stroke-width = "1" fill = "none" />
	<path d = "M69 241 L69 217 L46 217 L46 241 L69 241 Z" stroke = "#00ff00" stroke-width = "1" fill = "none" />	<path d = "M52 232 L52 226 L57 226 L57 223 L60 226 L63 229 L60 232 L57 235 L57 232 L52 232 Z" stroke = "#00ff00" stroke-width = "1" fill = "none" />	<path d = "M92 241 L92 217 L69 217 L69 241 L92 241 Z" stroke = "#00ff00" stroke-width = "1" fill = "none" />	<path d = "M78 223 L84 223 L84 229 L87 229 L84 232 L81 235 L78 232 L75 229 L78 229 L78 223 Z" stroke = "#00ff00" stroke-width = "1" fill = "none" />	<path d = "M116 241 L116 217 L92 217 L92 241 L116 241 Z" stroke = "#00ff00" stroke-width = "1" fill = "none" />	<path d = "M105 228 L105 219 L113 223 L105 228 Z" stroke = "#ff0000" stroke-width = "4" fill = "#ff0000" />	<path d = "M96 223 L103 219 L103 228 L96 223 Z" stroke = "#ff7900" stroke-width = "4" fill = "#ff7900" />	<path d = "M95 213 L103 217 L95 222 L95 213 Z" stroke = "#ffff00" stroke-width = "4" fill = "#ffff00" />	<path d = "M103 207 L103 216 L96 211 L103 207 Z" stroke = "#00ff00" stroke-width = "4" fill = "#00ff00" />	<path d = "M113 211 L105 216 L105 207 L113 211 Z" stroke = "#0000ff" stroke-width = "4" fill = "#0000ff" />	<path d = "M113 222 L106 217 L113 213 L113 222 Z" stroke = "#800080" stroke-width = "4" fill = "#800080" />	<path d = "M104 229 L94 223 L94 211 L104 206 L114 211 L114 223 L104 229 Z" stroke = "#00ff00" stroke-width = "1" fill = "none" />	<path d = "M139 241 L139 217 L116 217 L116 241 L139 241 Z" stroke = "#00ff00" stroke-width = "1" fill = "none" />  <path d="M131.569588089439 233.09165479259562           A5.831342252621666 5.831342252621666 0 0 1 123.3228247889422 233.0916547925954" fill = "none" stroke = "#00ff00" stroke-width = "1" />
  <path d="M123.3228247889422 233.0916547925954           A5.831342252621666 5.831342252621666 0 0 1 123.32282478894238 224.84489149209858" fill = "none" stroke = "#00ff00" stroke-width = "1" />
  <path d="M123.32282478894238 224.84489149209858           A5.831342252621666 5.831342252621666 0 0 1 131.5695880894392 224.84489149209872" fill = "none" stroke = "#00ff00" stroke-width = "1" />
	<path d = "M126 227 L132 225 L129 219 " stroke = "#00ff00" stroke-width = "1" fill = "none" />	<path d = "M162 241 L162 217 L139 217 L139 241 L162 241 Z" stroke = "#00ff00" stroke-width = "1" fill = "none" />  <path d="M154.89495709992576 233.091654792596           A5.831342252621666 5.831342252621666 0 0 1 146.64819379942895 233.09165479259593" fill = "none" stroke = "#00ff00" stroke-width = "1" />
  <path d="M146.64819379942895 233.09165479259593           A5.831342252621666 5.831342252621666 0 0 1 146.64819379942895 224.84489149209912" fill = "none" stroke = "#00ff00" stroke-width = "1" />
  <path d="M146.64819379942895 224.84489149209912           A5.831342252621666 5.831342252621666 0 0 1 154.89495709992576 224.8448914920991" fill = "none" stroke = "#00ff00" stroke-width = "1" />
	<path d = "M150 227 L155 225 L153 219 " stroke = "#00ff00" stroke-width = "1" fill = "none" />	<path d = "M186 241 L186 217 L162 217 L162 241 L186 241 Z" stroke = "#00ff00" stroke-width = "1" fill = "none" />	<path d = "M175 228 L175 219 L183 223 L175 228 Z" stroke = "#ff0000" stroke-width = "4" fill = "#ff0000" />	<path d = "M166 223 L173 219 L173 228 L166 223 Z" stroke = "#ff7900" stroke-width = "4" fill = "#ff7900" />	<path d = "M165 213 L173 217 L165 222 L165 213 Z" stroke = "#ffff00" stroke-width = "4" fill = "#ffff00" />	<path d = "M173 207 L173 216 L166 211 L173 207 Z" stroke = "#00ff00" stroke-width = "4" fill = "#00ff00" />	<path d = "M183 211 L175 216 L175 207 L183 211 Z" stroke = "#0000ff" stroke-width = "4" fill = "#0000ff" />	<path d = "M183 222 L176 217 L183 213 L183 222 Z" stroke = "#800080" stroke-width = "4" fill = "#800080" />	<path d = "M174 229 L164 223 L164 211 L174 206 L184 211 L184 223 L174 229 Z" stroke = "#00ff00" stroke-width = "1" fill = "none" />	<path d = "M209 241 L209 217 L186 217 L186 241 L209 241 Z" stroke = "#00ff00" stroke-width = "1" fill = "none" />  <path d="M201.54569512089728 233.09165479259875           A5.831342252621666 5.831342252621666 0 0 1 193.29893182040047 233.09165479259778" fill = "none" stroke = "#00ff00" stroke-width = "1" />
  <path d="M193.29893182040047 233.09165479259778           A5.831342252621666 5.831342252621666 0 0 1 193.2989318204014 224.84489149210097" fill = "none" stroke = "#00ff00" stroke-width = "1" />
  <path d="M193.2989318204014 224.84489149210097           A5.831342252621666 5.831342252621666 0 0 1 201.54569512089822 224.84489149210185" fill = "none" stroke = "#00ff00" stroke-width = "1" />
	<path d = "M196 227 L202 225 L199 219 " stroke = "#00ff00" stroke-width = "1" fill = "none" />	<path d = "M232 241 L232 217 L209 217 L209 241 L232 241 Z" stroke = "#00ff00" stroke-width = "1" fill = "none" />  <path d="M224.87106413138395 233.09165479260102           A5.831342252621666 5.831342252621666 0 0 1 216.62430083088714 233.09165479260005" fill = "none" stroke = "#00ff00" stroke-width = "1" />
  <path d="M216.62430083088714 233.09165479260005           A5.831342252621666 5.831342252621666 0 0 1 216.62430083088807 224.84489149210324" fill = "none" stroke = "#00ff00" stroke-width = "1" />
  <path d="M216.62430083088807 224.84489149210324           A5.831342252621666 5.831342252621666 0 0 1 224.87106413138488 224.84489149210413" fill = "none" stroke = "#00ff00" stroke-width = "1" />
	<path d = "M219 227 L225 225 L223 219 " stroke = "#00ff00" stroke-width = "1" fill = "none" />	<path d = "M256 241 L256 217 L232 217 L232 241 L256 241 Z" stroke = "#00ff00" stroke-width = "1" fill = "none" />	<path d = "M245 228 L245 219 L253 223 L245 228 Z" stroke = "#ff0000" stroke-width = "4" fill = "#ff0000" />	<path d = "M236 223 L243 219 L243 228 L236 223 Z" stroke = "#ff7900" stroke-width = "4" fill = "#ff7900" />	<path d = "M235 213 L242 217 L235 222 L235 213 Z" stroke = "#ffff00" stroke-width = "4" fill = "#ffff00" />	<path d = "M243 207 L243 216 L236 211 L243 207 Z" stroke = "#00ff00" stroke-width = "4" fill = "#00ff00" />	<path d = "M253 211 L245 216 L245 207 L253 211 Z" stroke = "#0000ff" stroke-width = "4" fill = "#0000ff" />	<path d = "M253 222 L246 217 L253 213 L253 222 Z" stroke = "#800080" stroke-width = "4" fill = "#800080" />	<path d = "M244 229 L234 223 L234 211 L244 206 L254 211 L254 223 L244 229 Z" stroke = "#00ff00" stroke-width = "1" fill = "none" />	<path d = "M279 241 L279 217 L256 217 L256 241 L279 241 Z" stroke = "#00ff00" stroke-width = "1" fill = "none" />	<path d = "M273 226 L273 232 L267 232 L267 235 L264 232 L262 229 L264 226 L267 223 L267 226 L273 226 Z" stroke = "#00ff00" stroke-width = "1" fill = "none" />	<path d = "M302 241 L302 217 L279 217 L279 241 L302 241 Z" stroke = "#00ff00" stroke-width = "1" fill = "none" />  <path d="M286.6004078623478 224.84489149210881           A5.831342252621667 5.831342252621667 0 0 1 294.84717116284463 224.8448914921095" fill = "none" stroke = "#00ff00" stroke-width = "1" />
  <path d="M286.6004078623471 233.09165479260562           A5.831342252621667 5.831342252621667 0 0 1 286.6004078623478 224.84489149210881" fill = "none" stroke = "#00ff00" stroke-width = "1" />
  <path d="M294.8471711628439 233.09165479260642           A5.831342252621667 5.831342252621667 0 0 1 286.6004078623471 233.09165479260562" fill = "none" stroke = "#00ff00" stroke-width = "1" />
	<path d = "M293 238 L295 233 L289 231 " stroke = "#00ff00" stroke-width = "1" fill = "none" />	<path d = "M326 241 L326 217 L302 217 L302 241 L326 241 Z" stroke = "#00ff00" stroke-width = "1" fill = "none" />	<path d = "M315 228 L315 219 L323 223 L315 228 Z" stroke = "#ff0000" stroke-width = "4" fill = "#ff0000" />	<path d = "M306 223 L313 219 L313 228 L306 223 Z" stroke = "#ff7900" stroke-width = "4" fill = "#ff7900" />	<path d = "M305 213 L312 217 L305 222 L305 213 Z" stroke = "#ffff00" stroke-width = "4" fill = "#ffff00" />	<path d = "M313 207 L313 216 L306 211 L313 207 Z" stroke = "#00ff00" stroke-width = "4" fill = "#00ff00" />	<path d = "M323 211 L315 216 L315 207 L323 211 Z" stroke = "#0000ff" stroke-width = "4" fill = "#0000ff" />	<path d = "M323 222 L316 217 L323 213 L323 222 Z" stroke = "#800080" stroke-width = "4" fill = "#800080" />	<path d = "M314 229 L304 223 L304 211 L314 206 L324 211 L324 223 L314 229 Z" stroke = "#00ff00" stroke-width = "1" fill = "none" />	<path d = "M349 241 L349 217 L326 217 L326 241 L349 241 Z" stroke = "#00ff00" stroke-width = "1" fill = "none" />	<path d = "M343 226 L343 232 L337 232 L337 235 L334 232 L332 229 L334 226 L337 223 L337 226 L343 226 Z" stroke = "#00ff00" stroke-width = "1" fill = "none" />	<path d = "M372 241 L372 217 L349 217 L349 241 L372 241 Z" stroke = "#00ff00" stroke-width = "1" fill = "none" />  <path d="M356.57651489380964 224.84489149210955           A5.831342252621667 5.831342252621667 0 0 1 364.82327819430645 224.84489149210924" fill = "none" stroke = "#00ff00" stroke-width = "1" />
  <path d="M356.57651489380993 233.09165479260636           A5.831342252621667 5.831342252621667 0 0 1 356.57651489380964 224.84489149210955" fill = "none" stroke = "#00ff00" stroke-width = "1" />
  <path d="M364.82327819430674 233.09165479260614           A5.831342252621667 5.831342252621667 0 0 1 356.57651489380993 233.09165479260636" fill = "none" stroke = "#00ff00" stroke-width = "1" />
	<path d = "M363 238 L365 233 L359 231 " stroke = "#00ff00" stroke-width = "1" fill = "none" />	<path d = "M46 287 L46 264 L22 264 L22 287 L46 287 Z" stroke = "#00ff00" stroke-width = "1" fill = "none" />	<path d = "M35 274 L35 265 L43 270 L35 274 Z" stroke = "#ff0000" stroke-width = "4" fill = "#ff0000" />	<path d = "M26 270 L33 265 L33 274 L26 270 Z" stroke = "#ff7900" stroke-width = "4" fill = "#ff7900" />	<path d = "M25 260 L33 264 L25 268 L25 260 Z" stroke = "#ffff00" stroke-width = "4" fill = "#ffff00" />	<path d = "M33 254 L33 263 L26 258 L33 254 Z" stroke = "#00ff00" stroke-width = "4" fill = "#00ff00" />	<path d = "M43 258 L35 263 L35 254 L43 258 Z" stroke = "#0000ff" stroke-width = "4" fill = "#0000ff" />	<path d = "M43 268 L36 264 L43 260 L43 268 Z" stroke = "#800080" stroke-width = "4" fill = "#800080" />	<path d = "M34 276 L24 270 L24 258 L34 252 L44 258 L44 270 L34 276 Z" stroke = "#00ff00" stroke-width = "1" fill = "none" />	<path d = "M69 287 L69 264 L46 264 L46 287 L69 287 Z" stroke = "#00ff00" stroke-width = "1" fill = "none" />  <path d="M53.34671775748432 271.4956295130709           A5.831342252621666 5.831342252621666 0 0 1 61.59348105798114 271.4956295130698" fill = "none" stroke = "#00ff00" stroke-width = "1" />
  <path d="M53.34671775748542 279.74239281356773           A5.831342252621666 5.831342252621666 0 0 1 53.34671775748432 271.4956295130709" fill = "none" stroke = "#00ff00" stroke-width = "1" />
  <path d="M61.59348105798223 279.74239281356665           A5.831342252621666 5.831342252621666 0 0 1 53.34671775748542 279.74239281356773" fill = "none" stroke = "#00ff00" stroke-width = "1" />
	<path d = "M59 285 L62 280 L56 278 " stroke = "#00ff00" stroke-width = "1" fill = "none" />	<path d = "M92 287 L92 264 L69 264 L69 287 L92 287 Z" stroke = "#00ff00" stroke-width = "1" fill = "none" />  <path d="M76.67208676797134 271.49562951306825           A5.831342252621666 5.831342252621666 0 0 1 84.91885006846816 271.49562951306774" fill = "none" stroke = "#00ff00" stroke-width = "1" />
  <path d="M76.67208676797179 279.74239281356506           A5.831342252621666 5.831342252621666 0 0 1 76.67208676797134 271.49562951306825" fill = "none" stroke = "#00ff00" stroke-width = "1" />
  <path d="M84.9188500684686 279.74239281356466           A5.831342252621666 5.831342252621666 0 0 1 76.67208676797179 279.74239281356506" fill = "none" stroke = "#00ff00" stroke-width = "1" />
	<path d = "M83 285 L85 280 L80 278 " stroke = "#00ff00" stroke-width = "1" fill = "none" />	<path d = "M116 287 L116 264 L92 264 L92 287 L116 287 Z" stroke = "#00ff00" stroke-width = "1" fill = "none" />	<path d = "M107 281 L101 281 L101 276 L98 276 L101 273 L104 270 L107 273 L110 276 L107 276 L107 281 Z" stroke = "#00ff00" stroke-width = "1" fill = "none" />	<path d = "M139 287 L139 264 L116 264 L116 287 L139 287 Z" stroke = "#00ff00" stroke-width = "1" fill = "none" />	<path d = "M130 281 L125 281 L125 276 L122 276 L125 273 L127 270 L130 273 L133 276 L130 276 L130 281 Z" stroke = "#00ff00" stroke-width = "1" fill = "none" />	<path d = "M162 287 L162 264 L139 264 L139 287 L162 287 Z" stroke = "#00ff00" stroke-width = "1" fill = "none" />  <path d="M154.89495709992832 279.7423928135635           A5.831342252621669 5.831342252621669 0 0 1 146.6481937994315 279.74239281356347" fill = "none" stroke = "#00ff00" stroke-width = "1" />
  <path d="M146.6481937994315 279.74239281356347           A5.831342252621669 5.831342252621669 0 0 1 146.6481937994315 271.49562951306666" fill = "none" stroke = "#00ff00" stroke-width = "1" />
  <path d="M146.6481937994315 271.49562951306666           A5.831342252621669 5.831342252621669 0 0 1 154.89495709992835 271.4956295130666" fill = "none" stroke = "#00ff00" stroke-width = "1" />
	<path d = "M150 274 L155 271 L153 266 " stroke = "#00ff00" stroke-width = "1" fill = "none" />	<path d = "M186 287 L186 264 L162 264 L162 287 L186 287 Z" stroke = "#00ff00" stroke-width = "1" fill = "none" />	<path d = "M175 274 L175 265 L183 270 L175 274 Z" stroke = "#ff0000" stroke-width = "4" fill = "#ff0000" />	<path d = "M166 270 L173 265 L173 274 L166 270 Z" stroke = "#ff7900" stroke-width = "4" fill = "#ff7900" />	<path d = "M165 260 L173 264 L165 268 L165 260 Z" stroke = "#ffff00" stroke-width = "4" fill = "#ffff00" />	<path d = "M173 254 L173 263 L166 258 L173 254 Z" stroke = "#00ff00" stroke-width = "4" fill = "#00ff00" />	<path d = "M183 258 L175 263 L175 254 L183 258 Z" stroke = "#0000ff" stroke-width = "4" fill = "#0000ff" />	<path d = "M183 268 L176 264 L183 260 L183 268 Z" stroke = "#800080" stroke-width = "4" fill = "#800080" />	<path d = "M174 276 L164 270 L164 258 L174 252 L184 258 L184 270 L174 276 Z" stroke = "#00ff00" stroke-width = "1" fill = "none" />	<path d = "M209 287 L209 264 L186 264 L186 287 L209 287 Z" stroke = "#00ff00" stroke-width = "1" fill = "none" />	<path d = "M192 279 L192 273 L197 273 L197 270 L200 273 L203 276 L200 279 L197 281 L197 279 L192 279 Z" stroke = "#00ff00" stroke-width = "1" fill = "none" />	<path d = "M232 287 L232 264 L209 264 L209 287 L232 287 Z" stroke = "#00ff00" stroke-width = "1" fill = "none" />	<path d = "M224 281 L218 281 L218 276 L215 276 L218 273 L221 270 L224 273 L227 276 L224 276 L224 281 Z" stroke = "#00ff00" stroke-width = "1" fill = "none" />	<path d = "M256 287 L256 264 L232 264 L232 287 L256 287 Z" stroke = "#00ff00" stroke-width = "1" fill = "none" />	<path d = "M250 273 L250 279 L244 279 L244 281 L241 279 L238 276 L241 273 L244 270 L244 273 L250 273 Z" stroke = "#00ff00" stroke-width = "1" fill = "none" />	<path d = "M279 287 L279 264 L256 264 L256 287 L279 287 Z" stroke = "#00ff00" stroke-width = "1" fill = "none" />  <path d="M263.2750388518653 271.49562951308144           A5.8313422526216705 5.8313422526216705 0 0 1 271.5218021523624 271.49562951308445" fill = "none" stroke = "#00ff00" stroke-width = "1" />
  <path d="M263.27503885186275 279.7423928135785           A5.8313422526216705 5.8313422526216705 0 0 1 263.2750388518653 271.49562951308144" fill = "none" stroke = "#00ff00" stroke-width = "1" />
  <path d="M271.5218021523598 279.74239281358064           A5.8313422526216705 5.8313422526216705 0 0 1 263.27503885186275 279.7423928135785" fill = "none" stroke = "#00ff00" stroke-width = "1" />
	<path d = "M269 285 L272 280 L266 278 " stroke = "#00ff00" stroke-width = "1" fill = "none" />	<path d = "M302 287 L302 264 L279 264 L279 287 L302 287 Z" stroke = "#00ff00" stroke-width = "1" fill = "none" />  <path d="M286.6004078623524 271.4956295130874           A5.8313422526216705 5.8313422526216705 0 0 1 294.84717116284946 271.4956295130896" fill = "none" stroke = "#00ff00" stroke-width = "1" />
  <path d="M286.6004078623506 279.74239281358444           A5.8313422526216705 5.8313422526216705 0 0 1 286.6004078623524 271.4956295130874" fill = "none" stroke = "#00ff00" stroke-width = "1" />
  <path d="M294.84717116284764 279.74239281358587           A5.8313422526216705 5.8313422526216705 0 0 1 286.6004078623506 279.74239281358444" fill = "none" stroke = "#00ff00" stroke-width = "1" />
	<path d = "M293 285 L295 280 L289 278 " stroke = "#00ff00" stroke-width = "1" fill = "none" />	<path d = "M326 287 L326 264 L302 264 L302 287 L326 287 Z" stroke = "#00ff00" stroke-width = "1" fill = "none" />  <path d="M309.9257768728395 271.49562951309133           A5.8313422526216705 5.8313422526216705 0 0 1 318.17254017333653 271.4956295130928" fill = "none" stroke = "#00ff00" stroke-width = "1" />
  <path d="M309.9257768728384 279.74239281358837           A5.8313422526216705 5.8313422526216705 0 0 1 309.9257768728395 271.49562951309133" fill = "none" stroke = "#00ff00" stroke-width = "1" />
  <path d="M318.1725401733355 279.742392813589           A5.8313422526216705 5.8313422526216705 0 0 1 309.9257768728384 279.74239281358837" fill = "none" stroke = "#00ff00" stroke-width = "1" />
	<path d = "M316 285 L318 280 L313 278 " stroke = "#00ff00" stroke-width = "1" fill = "none" />	<path d = "M349 287 L349 264 L326 264 L326 287 L349 287 Z" stroke = "#00ff00" stroke-width = "1" fill = "none" />  <path d="M333.2511458833265 271.495629513093           A5.8313422526216705 5.8313422526216705 0 0 1 341.4979091838235 271.49562951309383" fill = "none" stroke = "#00ff00" stroke-width = "1" />
  <path d="M333.25114588332576 279.7423928135898           A5.8313422526216705 5.8313422526216705 0 0 1 333.2511458833265 271.495629513093" fill = "none" stroke = "#00ff00" stroke-width = "1" />
  <path d="M341.49790918382257 279.74239281359064           A5.8313422526216705 5.8313422526216705 0 0 1 333.25114588332576 279.7423928135898" fill = "none" stroke = "#00ff00" stroke-width = "1" />
	<path d = "M339 285 L341 280 L336 278 " stroke = "#00ff00" stroke-width = "1" fill = "none" />	<path d = "M372 287 L372 264 L349 264 L349 287 L372 287 Z" stroke = "#00ff00" stroke-width = "1" fill = "none" />  <path d="M356.57651489381374 271.49562951309565           A5.8313422526216705 5.8313422526216705 0 0 1 364.82327819431055 271.4956295130971" fill = "none" stroke = "#00ff00" stroke-width = "1" />
  <path d="M356.5765148938123 279.7423928135925           A5.8313422526216705 5.8313422526216705 0 0 1 356.57651489381374 271.49562951309565" fill = "none" stroke = "#00ff00" stroke-width = "1" />
  <path d="M364.8232781943091 279.74239281359394           A5.8313422526216705 5.8313422526216705 0 0 1 356.5765148938123 279.7423928135925" fill = "none" stroke = "#00ff00" stroke-width = "1" />
	<path d = "M363 285 L365 280 L359 278 " stroke = "#00ff00" stroke-width = "1" fill = "none" />	<path d = "M46 334 L46 311 L22 311 L22 334 L46 334 Z" stroke = "#00ff00" stroke-width = "1" fill = "none" />	<path d = "M31 316 L37 316 L37 322 L40 322 L37 325 L34 328 L31 325 L28 322 L31 322 L31 316 Z" stroke = "#00ff00" stroke-width = "1" fill = "none" />	<path d = "M69 334 L69 311 L46 311 L46 334 L69 334 Z" stroke = "#00ff00" stroke-width = "1" fill = "none" />	<path d = "M55 316 L60 316 L60 322 L63 322 L60 325 L57 328 L55 325 L52 322 L55 322 L55 316 Z" stroke = "#00ff00" stroke-width = "1" fill = "none" />	<path d = "M92 334 L92 311 L69 311 L69 334 L92 334 Z" stroke = "#00ff00" stroke-width = "1" fill = "none" />	<path d = "M78 316 L84 316 L84 322 L87 322 L84 325 L81 328 L78 325 L75 322 L78 322 L78 316 Z" stroke = "#00ff00" stroke-width = "1" fill = "none" />	<path d = "M116 334 L116 311 L92 311 L92 334 L116 334 Z" stroke = "#00ff00" stroke-width = "1" fill = "none" />	<path d = "M105 321 L105 312 L113 316 L105 321 Z" stroke = "#ff0000" stroke-width = "4" fill = "#ff0000" />	<path d = "M96 316 L103 312 L103 321 L96 316 Z" stroke = "#ff7900" stroke-width = "4" fill = "#ff7900" />	<path d = "M95 306 L103 311 L95 315 L95 306 Z" stroke = "#ffff00" stroke-width = "4" fill = "#ffff00" />	<path d = "M103 300 L103 309 L96 305 L103 300 Z" stroke = "#00ff00" stroke-width = "4" fill = "#00ff00" />	<path d = "M113 305 L105 309 L105 300 L113 305 Z" stroke = "#0000ff" stroke-width = "4" fill = "#0000ff" />	<path d = "M113 315 L106 311 L113 306 L113 315 Z" stroke = "#800080" stroke-width = "4" fill = "#800080" />	<path d = "M104 322 L94 316 L94 305 L104 299 L114 305 L114 316 L104 322 Z" stroke = "#00ff00" stroke-width = "1" fill = "none" />	<path d = "M139 334 L139 311 L116 311 L116 334 L139 334 Z" stroke = "#00ff00" stroke-width = "1" fill = "none" />	<path d = "M130 328 L125 328 L125 322 L122 322 L125 319 L127 316 L130 319 L133 322 L130 322 L130 328 Z" stroke = "#00ff00" stroke-width = "1" fill = "none" />	<path d = "M162 334 L162 311 L139 311 L139 334 L162 334 Z" stroke = "#00ff00" stroke-width = "1" fill = "none" />	<path d = "M145 325 L145 319 L151 319 L151 316 L154 319 L157 322 L154 325 L151 328 L151 325 L145 325 Z" stroke = "#00ff00" stroke-width = "1" fill = "none" />	<path d = "M186 334 L186 311 L162 311 L162 334 L186 334 Z" stroke = "#00ff00" stroke-width = "1" fill = "none" />	<path d = "M177 328 L171 328 L171 322 L168 322 L171 319 L174 316 L177 319 L180 322 L177 322 L177 328 Z" stroke = "#00ff00" stroke-width = "1" fill = "none" />	<path d = "M209 334 L209 311 L186 311 L186 334 L209 334 Z" stroke = "#00ff00" stroke-width = "1" fill = "none" />	<path d = "M203 319 L203 325 L197 325 L197 328 L195 325 L192 322 L195 319 L197 316 L197 319 L203 319 Z" stroke = "#00ff00" stroke-width = "1" fill = "none" />	<path d = "M232 334 L232 311 L209 311 L209 334 L232 334 Z" stroke = "#00ff00" stroke-width = "1" fill = "none" />	<path d = "M227 319 L227 325 L221 325 L221 328 L218 325 L215 322 L218 319 L221 316 L221 319 L227 319 Z" stroke = "#00ff00" stroke-width = "1" fill = "none" />	<path d = "M256 334 L256 311 L232 311 L232 334 L256 334 Z" stroke = "#00ff00" stroke-width = "1" fill = "none" />	<path d = "M241 316 L247 316 L247 322 L250 322 L247 325 L244 328 L241 325 L238 322 L241 322 L241 316 Z" stroke = "#00ff00" stroke-width = "1" fill = "none" />	<path d = "M279 334 L279 311 L256 311 L256 334 L279 334 Z" stroke = "#00ff00" stroke-width = "1" fill = "none" />	<path d = "M264 316 L270 316 L270 322 L273 322 L270 325 L267 328 L264 325 L262 322 L264 322 L264 316 Z" stroke = "#00ff00" stroke-width = "1" fill = "none" />	<path d = "M302 334 L302 311 L279 311 L279 334 L302 334 Z" stroke = "#00ff00" stroke-width = "1" fill = "none" />	<path d = "M292 321 L292 312 L299 316 L292 321 Z" stroke = "#ff0000" stroke-width = "4" fill = "#ff0000" />	<path d = "M282 316 L290 312 L290 321 L282 316 Z" stroke = "#ff7900" stroke-width = "4" fill = "#ff7900" />	<path d = "M281 306 L289 311 L281 315 L281 306 Z" stroke = "#ffff00" stroke-width = "4" fill = "#ffff00" />	<path d = "M290 300 L290 309 L282 305 L290 300 Z" stroke = "#00ff00" stroke-width = "4" fill = "#00ff00" />	<path d = "M299 305 L292 309 L292 300 L299 305 Z" stroke = "#0000ff" stroke-width = "4" fill = "#0000ff" />	<path d = "M300 315 L292 311 L300 306 L300 315 Z" stroke = "#800080" stroke-width = "4" fill = "#800080" />	<path d = "M291 322 L281 316 L281 305 L291 299 L301 305 L301 316 L291 322 Z" stroke = "#00ff00" stroke-width = "1" fill = "none" />	<path d = "M46 381 L46 357 L22 357 L22 381 L46 381 Z" stroke = "#00ff00" stroke-width = "1" fill = "none" />	<path d = "M28 372 L28 366 L34 366 L34 363 L37 366 L40 369 L37 372 L34 375 L34 372 L28 372 Z" stroke = "#00ff00" stroke-width = "1" fill = "none" />	<path d = "M69 381 L69 357 L46 357 L46 381 L69 381 Z" stroke = "#00ff00" stroke-width = "1" fill = "none" />	<path d = "M52 372 L52 366 L57 366 L57 363 L60 366 L63 369 L60 372 L57 375 L57 372 L52 372 Z" stroke = "#00ff00" stroke-width = "1" fill = "none" />	<path d = "M92 381 L92 357 L69 357 L69 381 L92 381 Z" stroke = "#00ff00" stroke-width = "1" fill = "none" />	<path d = "M75 372 L75 366 L81 366 L81 363 L84 366 L87 369 L84 372 L81 375 L81 372 L75 372 Z" stroke = "#00ff00" stroke-width = "1" fill = "none" />	<path d = "M116 381 L116 357 L92 357 L92 381 L116 381 Z" stroke = "#00ff00" stroke-width = "1" fill = "none" />  <path d="M108.24421907882261 373.04386885532546           A5.8313422526216705 5.8313422526216705 0 0 1 99.99745577832556 373.04386885530505" fill = "none" stroke = "#00ff00" stroke-width = "1" />
  <path d="M99.99745577832556 373.04386885530505           A5.8313422526216705 5.8313422526216705 0 0 1 99.99745577834643 364.79710555480796" fill = "none" stroke = "#00ff00" stroke-width = "1" />
  <path d="M99.99745577834643 364.79710555480796           A5.8313422526216705 5.8313422526216705 0 0 1 108.24421907884349 364.7971055548293" fill = "none" stroke = "#00ff00" stroke-width = "1" />
	<path d = "M103 367 L108 365 L106 359 " stroke = "#00ff00" stroke-width = "1" fill = "none" />	<path d = "M139 381 L139 357 L116 357 L116 381 L139 381 Z" stroke = "#00ff00" stroke-width = "1" fill = "none" />  <path d="M131.5695880893083 373.0438688553878           A5.8313422526216705 5.8313422526216705 0 0 1 123.32282478881126 373.0438688553655" fill = "none" stroke = "#00ff00" stroke-width = "1" />
  <path d="M123.32282478881126 373.0438688553655           A5.8313422526216705 5.8313422526216705 0 0 1 123.32282478883401 364.79710555486844" fill = "none" stroke = "#00ff00" stroke-width = "1" />
  <path d="M123.32282478883401 364.79710555486844           A5.8313422526216705 5.8313422526216705 0 0 1 131.56958808933106 364.7971055548916" fill = "none" stroke = "#00ff00" stroke-width = "1" />
	<path d = "M126 367 L132 365 L129 359 " stroke = "#00ff00" stroke-width = "1" fill = "none" />	<path d = "M162 381 L162 357 L139 357 L139 381 L162 381 Z" stroke = "#00ff00" stroke-width = "1" fill = "none" />  <path d="M154.89495709979403 373.0438688554553           A5.8313422526216705 5.8313422526216705 0 0 1 146.64819379929696 373.0438688554311" fill = "none" stroke = "#00ff00" stroke-width = "1" />
  <path d="M146.64819379929696 373.0438688554311           A5.8313422526216705 5.8313422526216705 0 0 1 146.64819379932158 364.79710555493403" fill = "none" stroke = "#00ff00" stroke-width = "1" />
  <path d="M146.64819379932158 364.79710555493403           A5.8313422526216705 5.8313422526216705 0 0 1 154.89495709981864 364.7971055549591" fill = "none" stroke = "#00ff00" stroke-width = "1" />
	<path d = "M150 367 L155 365 L153 359 " stroke = "#00ff00" stroke-width = "1" fill = "none" />	<path d = "M186 381 L186 357 L162 357 L162 381 L186 381 Z" stroke = "#00ff00" stroke-width = "1" fill = "none" />  <path d="M178.2203261102798 373.0438688555282           A5.8313422526216705 5.8313422526216705 0 0 1 169.97356280978275 373.0438688555021" fill = "none" stroke = "#00ff00" stroke-width = "1" />
  <path d="M169.97356280978275 373.0438688555021           A5.8313422526216705 5.8313422526216705 0 0 1 169.97356280980924 364.7971055550051" fill = "none" stroke = "#00ff00" stroke-width = "1" />
  <path d="M169.97356280980924 364.7971055550051           A5.8313422526216705 5.8313422526216705 0 0 1 178.2203261103063 364.797105555032" fill = "none" stroke = "#00ff00" stroke-width = "1" />
	<path d = "M173 367 L178 365 L176 359 " stroke = "#00ff00" stroke-width = "1" fill = "none" />	<path d = "M209 381 L209 357 L186 357 L186 381 L209 381 Z" stroke = "#00ff00" stroke-width = "1" fill = "none" />	<path d = "M192 372 L192 366 L197 366 L197 363 L200 366 L203 369 L200 372 L197 375 L197 372 L192 372 Z" stroke = "#00ff00" stroke-width = "1" fill = "none" /><circle cx="221" cy = "369" r = "5.8313422526216705" stroke = "#00ff00" stroke-width = "1" fill = "none" />
	<path d = "M46 194 L46 171 L22 171 L22 194 L46 194 Z" stroke = "#00ff00" stroke-width = "1" fill = "none" />	<path d = "M34 185 L34 180 L38 182 L34 185 Z" stroke = "#ff0000" stroke-width = "4" fill = "#ff0000" />	<path d = "M29 182 L33 180 L33 185 L29 182 Z" stroke = "#ff7900" stroke-width = "4" fill = "#ff7900" />	<path d = "M29 177 L33 179 L29 182 L29 177 Z" stroke = "#ffff00" stroke-width = "4" fill = "#ffff00" />	<path d = "M33 174 L33 179 L29 176 L33 174 Z" stroke = "#00ff00" stroke-width = "4" fill = "#00ff00" />	<path d = "M38 176 L34 179 L34 174 L38 176 Z" stroke = "#0000ff" stroke-width = "4" fill = "#0000ff" />	<path d = "M38 182 L34 179 L38 177 L38 182 Z" stroke = "#800080" stroke-width = "4" fill = "#800080" />	<path d = "M33 185 L28 182 L28 176 L33 174 L38 176 L38 182 L33 185 Z" stroke = "#00ff00" stroke-width = "1" fill = "none" />	<path d = "M34 186 L38 188 L34 190 L34 186 Z" stroke = "#ff0000" stroke-width = "4" fill = "#ff0000" />	<path d = "M38 183 L38 187 L34 185 L38 183 Z" stroke = "#ff7900" stroke-width = "4" fill = "#ff7900" />	<path d = "M43 185 L39 187 L39 183 L43 185 Z" stroke = "#ffff00" stroke-width = "4" fill = "#ffff00" />	<path d = "M43 190 L39 188 L43 186 L43 190 Z" stroke = "#00ff00" stroke-width = "4" fill = "#00ff00" />	<path d = "M39 193 L39 189 L43 191 L39 193 Z" stroke = "#0000ff" stroke-width = "4" fill = "#0000ff" />	<path d = "M34 191 L38 189 L38 193 L34 191 Z" stroke = "#800080" stroke-width = "4" fill = "#800080" />	<path d = "M33 185 L38 182 L43 185 L43 191 L38 194 L33 191 L33 185 Z" stroke = "#00ff00" stroke-width = "1" fill = "none" />	<path d = "M33 185 L29 187 L29 183 L33 185 Z" stroke = "#ff0000" stroke-width = "4" fill = "#ff0000" />	<path d = "M33 190 L29 188 L33 186 L33 190 Z" stroke = "#ff7900" stroke-width = "4" fill = "#ff7900" />	<path d = "M29 193 L29 189 L33 191 L29 193 Z" stroke = "#ffff00" stroke-width = "4" fill = "#ffff00" />	<path d = "M24 191 L28 189 L28 193 L24 191 Z" stroke = "#00ff00" stroke-width = "4" fill = "#00ff00" />	<path d = "M24 186 L28 188 L24 190 L24 186 Z" stroke = "#0000ff" stroke-width = "4" fill = "#0000ff" />	<path d = "M28 183 L28 187 L24 185 L28 183 Z" stroke = "#800080" stroke-width = "4" fill = "#800080" />	<path d = "M33 185 L33 191 L28 194 L23 191 L23 185 L28 182 L33 185 Z" stroke = "#00ff00" stroke-width = "1" fill = "none" />	<path d = "M33 192 L33 196 L29 194 L33 192 Z" stroke = "#ff0000" stroke-width = "4" fill = "#ff0000" />	<path d = "M38 194 L34 196 L34 192 L38 194 Z" stroke = "#ff7900" stroke-width = "4" fill = "#ff7900" />	<path d = "M38 199 L34 197 L38 195 L38 199 Z" stroke = "#ffff00" stroke-width = "4" fill = "#ffff00" />	<path d = "M34 202 L34 198 L38 200 L34 202 Z" stroke = "#00ff00" stroke-width = "4" fill = "#00ff00" />	<path d = "M29 200 L33 198 L33 202 L29 200 Z" stroke = "#0000ff" stroke-width = "4" fill = "#0000ff" />	<path d = "M29 195 L33 197 L29 199 L29 195 Z" stroke = "#800080" stroke-width = "4" fill = "#800080" />	<path d = "M33 191 L38 194 L38 200 L33 203 L28 200 L28 194 L33 191 Z" stroke = "#00ff00" stroke-width = "1" fill = "none" />	<path d = "M39 195 L43 197 L39 199 L39 195 Z" stroke = "#ff0000" stroke-width = "4" fill = "#ff0000" />	<path d = "M43 192 L43 196 L39 194 L43 192 Z" stroke = "#ff7900" stroke-width = "4" fill = "#ff7900" />	<path d = "M48 194 L44 196 L44 192 L48 194 Z" stroke = "#ffff00" stroke-width = "4" fill = "#ffff00" />	<path d = "M48 199 L44 197 L48 195 L48 199 Z" stroke = "#00ff00" stroke-width = "4" fill = "#00ff00" />	<path d = "M44 202 L44 198 L48 200 L44 202 Z" stroke = "#0000ff" stroke-width = "4" fill = "#0000ff" />	<path d = "M39 200 L43 198 L43 202 L39 200 Z" stroke = "#800080" stroke-width = "4" fill = "#800080" />	<path d = "M38 194 L43 191 L49 194 L49 200 L43 203 L38 200 L38 194 Z" stroke = "#00ff00" stroke-width = "1" fill = "none" />	<path d = "M39 182 L43 180 L43 185 L39 182 Z" stroke = "#ff0000" stroke-width = "4" fill = "#ff0000" />	<path d = "M39 177 L43 179 L39 182 L39 177 Z" stroke = "#ff7900" stroke-width = "4" fill = "#ff7900" />	<path d = "M43 174 L43 179 L39 176 L43 174 Z" stroke = "#ffff00" stroke-width = "4" fill = "#ffff00" />	<path d = "M48 176 L44 179 L44 174 L48 176 Z" stroke = "#00ff00" stroke-width = "4" fill = "#00ff00" />	<path d = "M48 182 L44 179 L48 177 L48 182 Z" stroke = "#0000ff" stroke-width = "4" fill = "#0000ff" />	<path d = "M44 185 L44 180 L48 182 L44 185 Z" stroke = "#800080" stroke-width = "4" fill = "#800080" />	<path d = "M38 182 L38 176 L43 174 L49 176 L49 182 L43 185 L38 182 Z" stroke = "#00ff00" stroke-width = "1" fill = "none" />	<path d = "M34 168 L38 171 L34 173 L34 168 Z" stroke = "#ff0000" stroke-width = "4" fill = "#ff0000" />	<path d = "M38 166 L38 170 L34 168 L38 166 Z" stroke = "#ff7900" stroke-width = "4" fill = "#ff7900" />	<path d = "M43 168 L39 170 L39 166 L43 168 Z" stroke = "#ffff00" stroke-width = "4" fill = "#ffff00" />	<path d = "M43 173 L39 171 L43 168 L43 173 Z" stroke = "#00ff00" stroke-width = "4" fill = "#00ff00" />	<path d = "M39 176 L39 171 L43 174 L39 176 Z" stroke = "#0000ff" stroke-width = "4" fill = "#0000ff" />	<path d = "M34 174 L38 171 L38 176 L34 174 Z" stroke = "#800080" stroke-width = "4" fill = "#800080" />	<path d = "M33 168 L38 165 L43 168 L43 174 L38 176 L33 174 L33 168 Z" stroke = "#00ff00" stroke-width = "1" fill = "none" />	<path d = "M44 168 L48 171 L44 173 L44 168 Z" stroke = "#ff0000" stroke-width = "4" fill = "#ff0000" />	<path d = "M48 166 L48 170 L44 168 L48 166 Z" stroke = "#ff7900" stroke-width = "4" fill = "#ff7900" />	<path d = "M53 168 L49 170 L49 166 L53 168 Z" stroke = "#ffff00" stroke-width = "4" fill = "#ffff00" />	<path d = "M53 173 L49 171 L53 168 L53 173 Z" stroke = "#00ff00" stroke-width = "4" fill = "#00ff00" />	<path d = "M49 176 L49 171 L53 174 L49 176 Z" stroke = "#0000ff" stroke-width = "4" fill = "#0000ff" />	<path d = "M44 174 L48 171 L48 176 L44 174 Z" stroke = "#800080" stroke-width = "4" fill = "#800080" />	<path d = "M43 168 L49 165 L54 168 L54 174 L49 176 L43 174 L43 168 Z" stroke = "#00ff00" stroke-width = "1" fill = "none" />    <circle cx="75" cy = "191" r = "1.4578355631554176" stroke = "#00ff00" stroke-width = "1" fill = "#00ff00" />
    <circle cx="72" cy = "191" r = "1.4578355631554176" stroke = "#00ff00" stroke-width = "1" fill = "#00ff00" />
    <circle cx="72" cy = "188" r = "1.4578355631554176" stroke = "#00ff00" stroke-width = "1" fill = "#00ff00" />
    <circle cx="75" cy = "188" r = "1.4578355631554176" stroke = "#00ff00" stroke-width = "1" fill = "#00ff00" />
    <circle cx="75" cy = "182" r = "1.4578355631554176" stroke = "#00ff00" stroke-width = "1" fill = "#00ff00" />
    <circle cx="72" cy = "182" r = "1.4578355631554176" stroke = "#00ff00" stroke-width = "1" fill = "#00ff00" />
    <circle cx="72" cy = "179" r = "1.4578355631554176" stroke = "#00ff00" stroke-width = "1" fill = "#00ff00" />
    <circle cx="75" cy = "179" r = "1.4578355631554176" stroke = "#00ff00" stroke-width = "1" fill = "#00ff00" />
	<path d = "M199 110 L199 92 L214 101 L199 110 Z" stroke = "#ff0000" stroke-width = "4" fill = "#ff0000" />	<path d = "M180 101 L195 92 L195 110 L180 101 Z" stroke = "#ff7900" stroke-width = "4" fill = "#ff7900" />	<path d = "M178 80 L194 89 L178 98 L178 80 Z" stroke = "#ffff00" stroke-width = "4" fill = "#ffff00" />	<path d = "M195 68 L195 86 L180 77 L195 68 Z" stroke = "#00ff00" stroke-width = "4" fill = "#00ff00" />	<path d = "M214 77 L199 86 L199 68 L214 77 Z" stroke = "#0000ff" stroke-width = "4" fill = "#0000ff" />	<path d = "M216 98 L200 89 L216 80 L216 98 Z" stroke = "#800080" stroke-width = "4" fill = "#800080" />	<path d = "M197 112 L177 101 L177 77 L197 66 L217 77 L217 101 L197 112 Z" stroke = "#00ff00" stroke-width = "1" fill = "none" />	<path d = "M199 115 L214 124 L199 133 L199 115 Z" stroke = "#ff0000" stroke-width = "4" fill = "#ff0000" />	<path d = "M216 103 L216 121 L200 112 L216 103 Z" stroke = "#ff7900" stroke-width = "4" fill = "#ff7900" />	<path d = "M234 112 L219 121 L219 103 L234 112 Z" stroke = "#ffff00" stroke-width = "4" fill = "#ffff00" />	<path d = "M236 133 L220 124 L236 115 L236 133 Z" stroke = "#00ff00" stroke-width = "4" fill = "#00ff00" />	<path d = "M219 145 L219 127 L234 136 L219 145 Z" stroke = "#0000ff" stroke-width = "4" fill = "#0000ff" />	<path d = "M200 136 L216 127 L216 145 L200 136 Z" stroke = "#800080" stroke-width = "4" fill = "#800080" />	<path d = "M197 112 L217 101 L237 112 L237 136 L217 147 L197 136 L197 112 Z" stroke = "#00ff00" stroke-width = "1" fill = "none" />	<path d = "M194 112 L178 121 L178 103 L194 112 Z" stroke = "#ff0000" stroke-width = "4" fill = "#ff0000" />	<path d = "M195 133 L180 124 L195 115 L195 133 Z" stroke = "#ff7900" stroke-width = "4" fill = "#ff7900" />	<path d = "M178 145 L178 127 L194 136 L178 145 Z" stroke = "#ffff00" stroke-width = "4" fill = "#ffff00" />	<path d = "M160 136 L175 127 L175 145 L160 136 Z" stroke = "#00ff00" stroke-width = "4" fill = "#00ff00" />	<path d = "M158 115 L174 124 L158 133 L158 115 Z" stroke = "#0000ff" stroke-width = "4" fill = "#0000ff" />	<path d = "M175 103 L175 121 L160 112 L175 103 Z" stroke = "#800080" stroke-width = "4" fill = "#800080" />	<path d = "M197 112 L197 136 L177 147 L157 136 L157 112 L177 101 L197 112 Z" stroke = "#00ff00" stroke-width = "1" fill = "none" />	<path d = "M195 138 L195 156 L180 147 L195 138 Z" stroke = "#ff0000" stroke-width = "4" fill = "#ff0000" />	<path d = "M214 147 L199 156 L199 138 L214 147 Z" stroke = "#ff7900" stroke-width = "4" fill = "#ff7900" />	<path d = "M216 168 L200 159 L216 150 L216 168 Z" stroke = "#ffff00" stroke-width = "4" fill = "#ffff00" />	<path d = "M199 180 L199 162 L214 171 L199 180 Z" stroke = "#00ff00" stroke-width = "4" fill = "#00ff00" />	<path d = "M180 171 L195 162 L195 180 L180 171 Z" stroke = "#0000ff" stroke-width = "4" fill = "#0000ff" />	<path d = "M178 150 L194 159 L178 168 L178 150 Z" stroke = "#800080" stroke-width = "4" fill = "#800080" />	<path d = "M197 136 L217 147 L217 171 L197 182 L177 171 L177 147 L197 136 Z" stroke = "#00ff00" stroke-width = "1" fill = "none" />	<path d = "M219 150 L234 159 L219 168 L219 150 Z" stroke = "#ff0000" stroke-width = "4" fill = "#ff0000" />	<path d = "M236 138 L236 156 L220 147 L236 138 Z" stroke = "#ff7900" stroke-width = "4" fill = "#ff7900" />	<path d = "M254 147 L239 156 L239 138 L254 147 Z" stroke = "#ffff00" stroke-width = "4" fill = "#ffff00" />	<path d = "M256 168 L241 159 L256 150 L256 168 Z" stroke = "#00ff00" stroke-width = "4" fill = "#00ff00" />	<path d = "M239 180 L239 162 L254 171 L239 180 Z" stroke = "#0000ff" stroke-width = "4" fill = "#0000ff" />	<path d = "M220 171 L236 162 L236 180 L220 171 Z" stroke = "#800080" stroke-width = "4" fill = "#800080" />	<path d = "M217 147 L237 136 L258 147 L258 171 L237 182 L217 171 L217 147 Z" stroke = "#00ff00" stroke-width = "1" fill = "none" />	<path d = "M220 101 L236 92 L236 110 L220 101 Z" stroke = "#ff0000" stroke-width = "4" fill = "#ff0000" />	<path d = "M219 80 L234 89 L219 98 L219 80 Z" stroke = "#ff7900" stroke-width = "4" fill = "#ff7900" />	<path d = "M236 68 L236 86 L220 77 L236 68 Z" stroke = "#ffff00" stroke-width = "4" fill = "#ffff00" />	<path d = "M254 77 L239 86 L239 68 L254 77 Z" stroke = "#00ff00" stroke-width = "4" fill = "#00ff00" />	<path d = "M256 98 L241 89 L256 80 L256 98 Z" stroke = "#0000ff" stroke-width = "4" fill = "#0000ff" />	<path d = "M239 110 L239 92 L254 101 L239 110 Z" stroke = "#800080" stroke-width = "4" fill = "#800080" />	<path d = "M217 101 L217 77 L237 66 L258 77 L258 101 L237 112 L217 101 Z" stroke = "#00ff00" stroke-width = "1" fill = "none" />	<path d = "M199 45 L214 54 L199 63 L199 45 Z" stroke = "#ff0000" stroke-width = "4" fill = "#ff0000" />	<path d = "M216 33 L216 51 L200 42 L216 33 Z" stroke = "#ff7900" stroke-width = "4" fill = "#ff7900" />	<path d = "M234 42 L219 51 L219 33 L234 42 Z" stroke = "#ffff00" stroke-width = "4" fill = "#ffff00" />	<path d = "M236 63 L220 54 L236 45 L236 63 Z" stroke = "#00ff00" stroke-width = "4" fill = "#00ff00" />	<path d = "M219 75 L219 57 L234 66 L219 75 Z" stroke = "#0000ff" stroke-width = "4" fill = "#0000ff" />	<path d = "M200 66 L216 57 L216 75 L200 66 Z" stroke = "#800080" stroke-width = "4" fill = "#800080" />	<path d = "M197 42 L217 31 L237 42 L237 66 L217 77 L197 66 L197 42 Z" stroke = "#00ff00" stroke-width = "1" fill = "none" />	<path d = "M239 45 L254 54 L239 63 L239 45 Z" stroke = "#ff0000" stroke-width = "4" fill = "#ff0000" />	<path d = "M256 33 L256 51 L241 42 L256 33 Z" stroke = "#ff7900" stroke-width = "4" fill = "#ff7900" />	<path d = "M275 42 L259 51 L259 33 L275 42 Z" stroke = "#ffff00" stroke-width = "4" fill = "#ffff00" />	<path d = "M276 63 L261 54 L276 45 L276 63 Z" stroke = "#00ff00" stroke-width = "4" fill = "#00ff00" />	<path d = "M259 75 L259 57 L275 66 L259 75 Z" stroke = "#0000ff" stroke-width = "4" fill = "#0000ff" />	<path d = "M241 66 L256 57 L256 75 L241 66 Z" stroke = "#800080" stroke-width = "4" fill = "#800080" />	<path d = "M237 42 L258 31 L278 42 L278 66 L258 77 L237 66 L237 42 Z" stroke = "#00ff00" stroke-width = "1" fill = "none" /></svg>