<svg width="400" height="400" viewbox = "0 0 400 400"  xmlns="http://www.w3.org/2000/svg">
<!--<json>{
  "glyph": "0321,0337,0337,0337,0337,0347,0300,0331,0332,0332,0332,0332,01222,01072,01304,01322,01221,01335,01330,01323,01221,01335,01330,01324,0331,0332,0332,0332,0332,0332,0332,0332,0332,0332,0332,0332,0332,0336,0331,0337,01221,01335,01330,01325,01221,01335,01330,01326,01221,01335,01330,01327,0331,0332,0332,0332,0332,0332,0332,0332,0332,0332,0332,0332,0332,0336,0331,0337,01221,01335,01330,01330,01350,01335,01335,01335,01312,01337,01320,01362,0331,0332,0332,0332,0332,0332,0332,0332,0332,0332,0332,0332,0332,0336,0331,0337,01203,01335,01335,01203,01335,01335,01203,01335,01335,01203,01335,01335,0331,0332,0332,0332,0332,0332,0332,0332,0332,0332,0332,0332,0332,0336,0331,0337,01203,01335,01335,01203,01354,01334,01336,01331,01306,0336,0330,0333,0336,0341,0337,0331,0332,0337,0330,0330,0330,0330,0330,0330,0330,0330,0330,0330,0330,0332,0332,0332,0330,0330,0332,0337,0222,",
  "x0": 162.43425995492112,
  "y0": 217.30558863710328,
  "unit": 23.32536901048666,
  "width": 400,
  "height": 400,
  "style": {
    "color0": "#00ff00",
    "fill0": "#00ff00",
    "line0": 1,
    "color1": "black",
    "fill1": "black",
    "line1": 5,
    "color2": "red",
    "fill2": "red",
    "line2": 4,
    "color3": "#FF7900",
    "fill3": "#FF7900",
    "line3": 4,
    "color4": "yellow",
    "fill4": "yellow",
    "line4": 4,
    "color5": "#00ff00",
    "fill5": "#00ff00",
    "line5": 4,
    "color6": "blue",
    "fill6": "blue",
    "line6": 4,
    "color7": "purple",
    "fill7": "purple",
    "line7": 4
  },
  "shapes": [
    "0220:0312,0306,0350,0330,0362,0335,0335,0335,0335,0335,0351,0351,0337,0203,0335,0203,0335,0203,0363,0350,0350,0334,0336,0331,0306,",
    "0221:0210,0210,0220,0211,0211,",
    "0222:0304,0322,0221,0335,0330,0323,0221,0335,0330,0324,0221,0335,0330,0325,0221,0335,0330,0326,0221,0335,0330,0327,0221,0335,0330,0330,0350,0335,0335,0335,0312,0337,0320,0362,0203,0335,0335,0203,0335,0335,0203,0335,0335,0203,0335,0335,0203,0335,0335,0203,0354,0334,0336,0331,0306,",
    "0223:0304,0312,0336,0334,0306,0350,0334,0334,0331,0222,0330,0335,0335,0350,0335,0306,0312,0337,0306,",
    "0224:0306,0333,0331,0223,0335,0335,0223,0335,0335,0223,0332,0334,0223,0332,0334,0223,0334,0334,0330,0330,0335,0223,0333,0330,0332,0334,0334,0334,0334,0334,0331,0331,0331,0223,0330,0333,0330,0332,0332,0331,0331,0223,0333,0333,0333,0335,0335,0335,0335,0333,",
    "0225:0224,0224,0224,0224,0224,0224,0224,",
    "0230:0304,0327,0336,0331,0336,0336,0330,0335,0362,0203,0203,0203,0203,0203,0335,0203,0203,0335,0203,0203,0203,0203,0203,0203,0203,0203,0203,0203,0335,0203,0203,0335,0203,0203,0203,0203,0203,0363,0334,0331,0320,0336,0333,0337,0334,0306,0335,0362,0203,0334,0334,0203,0334,0203,0334,0334,0203,0363,0333,0362,0203,0335,0335,0203,0335,0203,0335,0335,0203,0363,0331,0335,0330,0333,0362,0203,0335,0335,0203,0335,0203,0335,0335,0203,0363,0332,0332,0332,0332,0332,0362,0203,0334,0334,0203,0334,0203,0334,0334,0203,0363,0332,0331,0332,0331,0334,0362,0203,0334,0334,0203,0334,0203,0334,0334,0203,0363,0333,0333,0333,0333,0335,0304,0334,0313,0336,0332,0337,0337,0337,0330,0337,0306,",
    "0231:0210,0306,0335,0330,0335,0335,0350,0335,0312,0337,0362,0203,0335,0335,0335,0335,0203,0335,0335,0335,0335,0203,0363,0334,0336,0331,0334,0334,0306,0351,0211,",
    "0232:0231,0231,0231,0231,0231,0231,0231,0231,",
    "0233:0220,0336,0210,0232,",
    "0234:0330,0312,0306,0350,0335,0335,0335,0335,0335,0337,0362,0203,0335,0335,0335,0335,0203,0335,0335,0335,0335,0203,0363,0334,0336,0331,0306,0313,",
    "0235:0210,0210,0234,0211,0211,",
    "0236:0322,0235,0335,0330,0323,0235,0335,0330,0324,0235,0335,0330,0325,0235,0335,0330,0326,0235,0335,0330,0327,0235,0330,0335,0335,0350,0334,0312,0337,0320,0362,0203,0335,0335,0203,0335,0335,0203,0335,0335,0203,0335,0335,0203,0335,0335,0203,0354,0335,0335,0336,0335,0330,0334,0334,0313,0306,",
    "0237:0236,0332,0334,0334,0334,0236,0335,0335,0335,0335,0330,0330,0334,0334,0334,0236,0335,0335,0335,0330,0335,0330,0335,0335,0335,0335,0236,",
    "01220:0333,0200,0336,0330,0332,0220,0313,0304,0331,0333,0337,",
    "01221:0333,0200,0336,0330,0332,0221,0330,0335,0335,0350,0335,0312,0337,0201,0335,0335,0335,0335,0201,0335,0335,0335,0335,0201,0334,0336,0331,0313,0304,0331,0333,0337,0313,0304,",
    "01222:0333,0200,0336,0330,0332,0336,0336,0222,0313,0337,0304,0337,0331,0333,0337,",
    "01223:0333,0200,0336,0330,0332,0223,0313,0304,0331,0333,0337,0320,",
    "01224:0333,0200,0336,0330,0332,0336,0332,0224,0313,0304,0331,0333,0331,0333,0333,0337,0337,",
    "01225:0333,0200,0336,0330,0332,0336,0332,0225,0313,0304,0331,0331,0333,0333,0333,0337,0337,0320,",
    "01226:0333,0200,0336,0336,0330,0332,0226,0331,0333,0337,0337,",
    "01227:0333,0200,0336,0330,0332,0336,0331,0333,0337,0227,0336,0331,0333,0337,0337,",
    "01230:0333,0200,0336,0330,0332,0336,0331,0330,0230,0313,0304,0331,0333,0331,0333,0337,0337,",
    "01231:0333,0200,0336,0330,0332,0336,0231,0313,0304,0337,0331,0333,0337,",
    "01232:0333,0200,",
    "01233:0333,0200,",
    "01234:0333,0200,",
    "01235:0333,0200,",
    "01236:0333,0200,",
    "01237:0333,0200,",
    "0240:0220,0336,0331,0333,0336,0321,0335,0342,0335,0335,0342,0335,0330,0330,0332,0332,0337,0337,",
    "01240:0333,0200,0336,0330,0332,0210,0240,0211,0333,0331,0337,",
    "0241:0220,0336,0321,0343,0332,0350,0335,0336,0342,0334,0334,0342,0335,0304,0337,0333,0337,",
    "01241:0333,0200,0336,0332,0330,0210,0241,0211,0333,0331,0337,",
    "0242:0220,0321,0336,0343,0333,0336,0350,0335,0342,0334,0334,0342,0335,0337,0304,0332,0337,",
    "01242:0333,0200,0336,0330,0332,0210,0242,0211,0333,0331,0337,",
    "0243:0220,0336,0331,0332,0336,0321,0343,0332,0350,0334,0336,0342,0335,0335,0342,0337,0334,0334,0335,0304,0332,0330,0330,0337,0337,0333,",
    "01243:0333,0200,0336,0330,0332,0210,0243,0211,0333,0331,0337,",
    "0244:0220,0336,0331,0333,0336,0321,0343,0333,0350,0336,0335,0342,0334,0334,0342,0335,0337,0304,0333,0330,0330,0337,0337,0332,",
    "01244:0333,0200,0336,0330,0332,0210,0244,0211,0333,0331,0337,",
    "0245:0210,0332,0332,0362,0335,0203,0203,0203,0203,0334,0203,0363,0332,0332,0331,0211,",
    "01245:0333,0200,0336,0330,0332,0336,0245,0337,0333,0331,0337,",
    "0246:0210,0332,0332,0335,0306,0336,0330,0335,0335,0335,0321,0362,0203,0335,0335,0203,0364,0331,0350,0335,0337,0366,0333,0333,0333,0333,0334,0334,0334,0334,0367,0335,0336,0342,0334,0334,0342,0330,0330,0330,0330,0335,0335,0335,0304,0337,0211,",
    "01246:0333,0200,0336,0330,0332,0336,0246,",
    "0247:0330,0332,0336,0332,0336,0221,0333,0333,0333,0222,0333,0333,0333,0223,0333,0333,0333,0225,0333,0331,0331,0331,0332,0332,0332,0332,0332,0332,0332,0332,0332,0332,0332,0332,0333,0333,0226,0331,0331,0331,0333,0333,0333,0333,0333,0333,0333,0333,0333,0333,0333,0333,0333,0330,0333,0330,0330,0333,0330,0331,0332,0332,0332,0332,0332,0332,0332,0332,0332,0332,0332,0332,0227,0333,0333,0333,0230,0333,0331,0331,0331,0331,0332,0332,0332,0330,0332,0332,0332,0332,0332,0332,0333,0333,0231,0333,0333,0333,0232,0331,0333,0330,0333,0333,0233,0333,0333,0333,0234,0330,0330,0332,0330,0332,0332,0337,0337,",
    "01247:0333,0200,0336,0330,0332,0220,0336,0247,0337,0331,0333,0337,"
  ]
}</json>-->    <circle cx="162" cy = "217" r = "373.20590416778657" stroke = "#000000" stroke-width = "5" fill = "#000000" />
	<path d = "M92 241 L92 217 L69 217 L69 241 L92 241 Z" stroke = "#00ff00" stroke-width = "1" fill = "none" />	<path d = "M81 227 L83 230 L79 230 L81 227 Z" stroke = "#ff0000" stroke-width = "4" fill = "#ff0000" />	<path d = "M85 226 L83 230 L81 226 L85 226 Z" stroke = "#ff7900" stroke-width = "4" fill = "#ff7900" />	<path d = "M88 230 L84 230 L86 227 L88 230 Z" stroke = "#ffff00" stroke-width = "4" fill = "#ffff00" />	<path d = "M86 234 L84 231 L88 231 L86 234 Z" stroke = "#00ff00" stroke-width = "4" fill = "#00ff00" />	<path d = "M81 234 L83 231 L85 234 L81 234 Z" stroke = "#0000ff" stroke-width = "4" fill = "#0000ff" />	<path d = "M79 231 L83 231 L81 234 L79 231 Z" stroke = "#800080" stroke-width = "4" fill = "#800080" />	<path d = "M81 226 L86 226 L88 230 L86 235 L81 235 L78 230 L81 226 Z" stroke = "#00ff00" stroke-width = "1" fill = "none" />    <circle cx="101" cy = "238" r = "1.4578355631554163" stroke = "#00ff00" stroke-width = "1" fill = "#00ff00" />
    <circle cx="98" cy = "238" r = "1.4578355631554163" stroke = "#00ff00" stroke-width = "1" fill = "#00ff00" />
    <circle cx="98" cy = "235" r = "1.4578355631554163" stroke = "#00ff00" stroke-width = "1" fill = "#00ff00" />
    <circle cx="101" cy = "235" r = "1.4578355631554163" stroke = "#00ff00" stroke-width = "1" fill = "#00ff00" />
    <circle cx="101" cy = "229" r = "1.4578355631554163" stroke = "#00ff00" stroke-width = "1" fill = "#00ff00" />
    <circle cx="98" cy = "229" r = "1.4578355631554163" stroke = "#00ff00" stroke-width = "1" fill = "#00ff00" />
    <circle cx="98" cy = "226" r = "1.4578355631554163" stroke = "#00ff00" stroke-width = "1" fill = "#00ff00" />
    <circle cx="101" cy = "226" r = "1.4578355631554163" stroke = "#00ff00" stroke-width = "1" fill = "#00ff00" />
	<path d = "M133 241 L133 217 L110 217 L110 241 L133 241 Z" stroke = "#00ff00" stroke-width = "1" fill = "none" /><circle cx="122" cy = "229" r = "11.66268450524333" stroke = "#00ff00" stroke-width = "1" fill = "none" />
    <line x1="122" y1="229" x2="122" y2="217" style="stroke:#00ff00;stroke-width:1" />
    <line x1="122" y1="229" x2="133" y2="229" style="stroke:#00ff00;stroke-width:1" />
    <line x1="122" y1="229" x2="122" y2="241" style="stroke:#00ff00;stroke-width:1" />
    <line x1="122" y1="229" x2="110" y2="229" style="stroke:#00ff00;stroke-width:1" />
<circle cx="117" cy = "225" r = "2.9156711263108326" stroke = "#00ff00" stroke-width = "1" fill = "none" />
<circle cx="126" cy = "225" r = "2.9156711263108326" stroke = "#00ff00" stroke-width = "1" fill = "none" />
<circle cx="126" cy = "233" r = "2.9156711263108326" stroke = "#00ff00" stroke-width = "1" fill = "none" />
<circle cx="117" cy = "233" r = "2.9156711263108326" stroke = "#00ff00" stroke-width = "1" fill = "none" />
	<path d = "M157 241 L157 217 L133 217 L133 241 L157 241 Z" stroke = "#00ff00" stroke-width = "1" fill = "none" />	<path d = "M151 235 L151 223 L139 223 L139 235 L151 235 Z" stroke = "#ff0000" stroke-width = "4" fill = "#ff0000" />    <line x1="151" y1="238" x2="139" y2="238" style="stroke:#ff0000;stroke-width:4" />
    <line x1="136" y1="217" x2="136" y2="220" style="stroke:#00ff00;stroke-width:1" />
    <line x1="139" y1="217" x2="139" y2="220" style="stroke:#00ff00;stroke-width:1" />
	<path d = "M180 241 L180 217 L157 217 L157 241 L180 241 Z" stroke = "#00ff00" stroke-width = "1" fill = "none" />	<path d = "M168 220 L176 233 L161 233 L168 220 Z" stroke = "#00ff00" stroke-width = "1" fill = "#00ff00" />    <line x1="168" y1="217" x2="178" y2="235" style="stroke:#00ff00;stroke-width:1" />
    <line x1="178" y1="235" x2="158" y2="235" style="stroke:#00ff00;stroke-width:1" />
    <line x1="158" y1="235" x2="168" y2="217" style="stroke:#00ff00;stroke-width:1" />
	<path d = "M203 241 L203 217 L180 217 L180 241 L203 241 Z" stroke = "#00ff00" stroke-width = "1" fill = "none" />  <path d="M195.71435286827764 233.09165479259806           A5.831342252621665 5.831342252621665 0 0 1 187.46758956778083 233.09165479259784" fill = "none" stroke = "#00ff00" stroke-width = "1" />
  <path d="M187.46758956778083 233.09165479259784           A5.831342252621665 5.831342252621665 0 0 1 187.46758956778103 224.84489149210103" fill = "none" stroke = "#00ff00" stroke-width = "1" />
  <path d="M187.46758956778103 224.84489149210103           A5.831342252621665 5.831342252621665 0 0 1 195.71435286827784 224.84489149210117" fill = "none" stroke = "#00ff00" stroke-width = "1" />
	<path d = "M190 227 L196 225 L193 219 " stroke = "#00ff00" stroke-width = "1" fill = "none" />	<path d = "M227 241 L227 217 L203 217 L203 241 L227 241 Z" stroke = "#00ff00" stroke-width = "1" fill = "none" />	<path d = "M218 235 L212 235 L212 229 L209 229 L212 226 L215 223 L218 226 L221 229 L218 229 L218 235 Z" stroke = "#00ff00" stroke-width = "1" fill = "none" />	<path d = "M250 241 L250 217 L227 217 L227 241 L250 241 Z" stroke = "#00ff00" stroke-width = "1" fill = "none" />	<path d = "M244 235 L244 223 L232 223 L232 235 L244 235 Z" stroke = "#ff7900" stroke-width = "4" fill = "#ff7900" />    <line x1="244" y1="238" x2="232" y2="238" style="stroke:#ff7900;stroke-width:4" />
    <line x1="229" y1="217" x2="229" y2="220" style="stroke:#00ff00;stroke-width:1" />
    <line x1="232" y1="217" x2="232" y2="220" style="stroke:#00ff00;stroke-width:1" />
    <line x1="235" y1="217" x2="235" y2="220" style="stroke:#00ff00;stroke-width:1" />
	<path d = "M273 241 L273 217 L250 217 L250 241 L273 241 Z" stroke = "#00ff00" stroke-width = "1" fill = "none" />	<path d = "M262 220 L269 233 L254 233 L262 220 Z" stroke = "#00ff00" stroke-width = "1" fill = "#00ff00" />    <line x1="262" y1="217" x2="272" y2="235" style="stroke:#00ff00;stroke-width:1" />
    <line x1="272" y1="235" x2="251" y2="235" style="stroke:#00ff00;stroke-width:1" />
    <line x1="251" y1="235" x2="262" y2="217" style="stroke:#00ff00;stroke-width:1" />
	<path d = "M297 241 L297 217 L273 217 L273 241 L297 241 Z" stroke = "#00ff00" stroke-width = "1" fill = "none" />  <path d="M289.0158289102245 233.09165479259934           A5.831342252621666 5.831342252621666 0 0 1 280.76906560972765 233.0916547925993" fill = "none" stroke = "#00ff00" stroke-width = "1" />
  <path d="M280.76906560972765 233.0916547925993           A5.831342252621666 5.831342252621666 0 0 1 280.7690656097277 224.84489149210248" fill = "none" stroke = "#00ff00" stroke-width = "1" />
  <path d="M280.7690656097277 224.84489149210248           A5.831342252621666 5.831342252621666 0 0 1 289.0158289102245 224.84489149210245" fill = "none" stroke = "#00ff00" stroke-width = "1" />
	<path d = "M284 227 L289 225 L287 219 " stroke = "#00ff00" stroke-width = "1" fill = "none" />	<path d = "M320 241 L320 217 L297 217 L297 241 L320 241 Z" stroke = "#00ff00" stroke-width = "1" fill = "none" />	<path d = "M311 235 L305 235 L305 229 L302 229 L305 226 L308 223 L311 226 L314 229 L311 229 L311 235 Z" stroke = "#00ff00" stroke-width = "1" fill = "none" />	<path d = "M343 241 L343 217 L320 217 L320 241 L343 241 Z" stroke = "#00ff00" stroke-width = "1" fill = "none" />	<path d = "M337 235 L337 223 L326 223 L326 235 L337 235 Z" stroke = "#ffff00" stroke-width = "4" fill = "#ffff00" />    <line x1="337" y1="238" x2="326" y2="238" style="stroke:#ffff00;stroke-width:4" />
    <line x1="323" y1="217" x2="323" y2="220" style="stroke:#00ff00;stroke-width:1" />
    <line x1="326" y1="217" x2="326" y2="220" style="stroke:#00ff00;stroke-width:1" />
    <line x1="329" y1="217" x2="329" y2="220" style="stroke:#00ff00;stroke-width:1" />
    <line x1="332" y1="217" x2="332" y2="220" style="stroke:#00ff00;stroke-width:1" />
	<path d = "M87 276 L87 252 L63 252 L63 276 L87 276 Z" stroke = "#00ff00" stroke-width = "1" fill = "none" />	<path d = "M75 255 L83 268 L67 268 L75 255 Z" stroke = "#00ff00" stroke-width = "1" fill = "#00ff00" />    <line x1="75" y1="252" x2="85" y2="270" style="stroke:#00ff00;stroke-width:1" />
    <line x1="85" y1="270" x2="65" y2="270" style="stroke:#00ff00;stroke-width:1" />
    <line x1="65" y1="270" x2="75" y2="252" style="stroke:#00ff00;stroke-width:1" />
	<path d = "M110 276 L110 252 L87 252 L87 276 L110 276 Z" stroke = "#00ff00" stroke-width = "1" fill = "none" />  <path d="M102.41287682633215 268.0797083083361           A5.831342252621669 5.831342252621669 0 0 1 94.16611352583534 268.0797083083362" fill = "none" stroke = "#00ff00" stroke-width = "1" />
  <path d="M94.16611352583534 268.0797083083362           A5.831342252621669 5.831342252621669 0 0 1 94.16611352583519 259.8329450078394" fill = "none" stroke = "#00ff00" stroke-width = "1" />
  <path d="M94.16611352583519 259.8329450078394           A5.831342252621669 5.831342252621669 0 0 1 102.412876826332 259.8329450078392" fill = "none" stroke = "#00ff00" stroke-width = "1" />
	<path d = "M97 262 L102 260 L100 254 " stroke = "#00ff00" stroke-width = "1" fill = "none" />	<path d = "M133 276 L133 252 L110 252 L110 276 L133 276 Z" stroke = "#00ff00" stroke-width = "1" fill = "none" />	<path d = "M125 270 L119 270 L119 264 L116 264 L119 261 L122 258 L125 261 L127 264 L125 264 L125 270 Z" stroke = "#00ff00" stroke-width = "1" fill = "none" />	<path d = "M157 276 L157 252 L133 252 L133 276 L157 276 Z" stroke = "#00ff00" stroke-width = "1" fill = "none" />	<path d = "M151 270 L151 258 L139 258 L139 270 L151 270 Z" stroke = "#00ff00" stroke-width = "4" fill = "#00ff00" />    <line x1="151" y1="273" x2="139" y2="273" style="stroke:#00ff00;stroke-width:4" />
    <line x1="136" y1="252" x2="136" y2="255" style="stroke:#00ff00;stroke-width:1" />
    <line x1="139" y1="252" x2="139" y2="255" style="stroke:#00ff00;stroke-width:1" />
    <line x1="142" y1="252" x2="142" y2="255" style="stroke:#00ff00;stroke-width:1" />
    <line x1="145" y1="252" x2="145" y2="255" style="stroke:#00ff00;stroke-width:1" />
    <line x1="148" y1="252" x2="148" y2="255" style="stroke:#00ff00;stroke-width:1" />
	<path d = "M180 276 L180 252 L157 252 L157 276 L180 276 Z" stroke = "#00ff00" stroke-width = "1" fill = "none" />	<path d = "M168 255 L176 268 L161 268 L168 255 Z" stroke = "#00ff00" stroke-width = "1" fill = "#00ff00" />    <line x1="168" y1="252" x2="178" y2="270" style="stroke:#00ff00;stroke-width:1" />
    <line x1="178" y1="270" x2="158" y2="270" style="stroke:#00ff00;stroke-width:1" />
    <line x1="158" y1="270" x2="168" y2="252" style="stroke:#00ff00;stroke-width:1" />
	<path d = "M203 276 L203 252 L180 252 L180 276 L203 276 Z" stroke = "#00ff00" stroke-width = "1" fill = "none" />  <path d="M195.7143528682789 268.0797083083333           A5.83134225262167 5.83134225262167 0 0 1 187.46758956778208 268.0797083083336" fill = "none" stroke = "#00ff00" stroke-width = "1" />
  <path d="M187.46758956778208 268.0797083083336           A5.83134225262167 5.83134225262167 0 0 1 187.46758956778174 259.83294500783677" fill = "none" stroke = "#00ff00" stroke-width = "1" />
  <path d="M187.46758956778174 259.83294500783677           A5.83134225262167 5.83134225262167 0 0 1 195.71435286827855 259.8329450078364" fill = "none" stroke = "#00ff00" stroke-width = "1" />
	<path d = "M190 262 L196 260 L193 254 " stroke = "#00ff00" stroke-width = "1" fill = "none" />	<path d = "M227 276 L227 252 L203 252 L203 276 L227 276 Z" stroke = "#00ff00" stroke-width = "1" fill = "none" />	<path d = "M218 270 L212 270 L212 264 L209 264 L212 261 L215 258 L218 261 L221 264 L218 264 L218 270 Z" stroke = "#00ff00" stroke-width = "1" fill = "none" />	<path d = "M250 276 L250 252 L227 252 L227 276 L250 276 Z" stroke = "#00ff00" stroke-width = "1" fill = "none" />	<path d = "M244 270 L244 258 L232 258 L232 270 L244 270 Z" stroke = "#0000ff" stroke-width = "4" fill = "#0000ff" />    <line x1="244" y1="273" x2="232" y2="273" style="stroke:#0000ff;stroke-width:4" />
    <line x1="229" y1="252" x2="229" y2="255" style="stroke:#00ff00;stroke-width:1" />
    <line x1="232" y1="252" x2="232" y2="255" style="stroke:#00ff00;stroke-width:1" />
    <line x1="235" y1="252" x2="235" y2="255" style="stroke:#00ff00;stroke-width:1" />
    <line x1="238" y1="252" x2="238" y2="255" style="stroke:#00ff00;stroke-width:1" />
    <line x1="241" y1="252" x2="241" y2="255" style="stroke:#00ff00;stroke-width:1" />
    <line x1="244" y1="252" x2="244" y2="255" style="stroke:#00ff00;stroke-width:1" />
	<path d = "M273 276 L273 252 L250 252 L250 276 L273 276 Z" stroke = "#00ff00" stroke-width = "1" fill = "none" />	<path d = "M262 255 L269 268 L254 268 L262 255 Z" stroke = "#00ff00" stroke-width = "1" fill = "#00ff00" />    <line x1="262" y1="252" x2="272" y2="270" style="stroke:#00ff00;stroke-width:1" />
    <line x1="272" y1="270" x2="251" y2="270" style="stroke:#00ff00;stroke-width:1" />
    <line x1="251" y1="270" x2="262" y2="252" style="stroke:#00ff00;stroke-width:1" />
	<path d = "M297 276 L297 252 L273 252 L273 276 L297 276 Z" stroke = "#00ff00" stroke-width = "1" fill = "none" />  <path d="M289.0158289102257 268.0797083083287           A5.83134225262167 5.83134225262167 0 0 1 280.7690656097289 268.0797083083292" fill = "none" stroke = "#00ff00" stroke-width = "1" />
  <path d="M280.7690656097289 268.0797083083292           A5.83134225262167 5.83134225262167 0 0 1 280.7690656097284 259.83294500783234" fill = "none" stroke = "#00ff00" stroke-width = "1" />
  <path d="M280.7690656097284 259.83294500783234           A5.83134225262167 5.83134225262167 0 0 1 289.0158289102252 259.8329450078318" fill = "none" stroke = "#00ff00" stroke-width = "1" />
	<path d = "M284 262 L289 260 L287 254 " stroke = "#00ff00" stroke-width = "1" fill = "none" />	<path d = "M320 276 L320 252 L297 252 L297 276 L320 276 Z" stroke = "#00ff00" stroke-width = "1" fill = "none" />	<path d = "M311 270 L305 270 L305 264 L302 264 L305 261 L308 258 L311 261 L314 264 L311 264 L311 270 Z" stroke = "#00ff00" stroke-width = "1" fill = "none" />	<path d = "M343 276 L343 252 L320 252 L320 276 L343 276 Z" stroke = "#00ff00" stroke-width = "1" fill = "none" />	<path d = "M337 270 L337 258 L326 258 L326 270 L337 270 Z" stroke = "#800080" stroke-width = "4" fill = "#800080" />    <line x1="337" y1="273" x2="326" y2="273" style="stroke:#800080;stroke-width:4" />
    <line x1="323" y1="252" x2="323" y2="255" style="stroke:#00ff00;stroke-width:1" />
    <line x1="326" y1="252" x2="326" y2="255" style="stroke:#00ff00;stroke-width:1" />
    <line x1="329" y1="252" x2="329" y2="255" style="stroke:#00ff00;stroke-width:1" />
    <line x1="332" y1="252" x2="332" y2="255" style="stroke:#00ff00;stroke-width:1" />
    <line x1="334" y1="252" x2="334" y2="255" style="stroke:#00ff00;stroke-width:1" />
    <line x1="337" y1="252" x2="337" y2="255" style="stroke:#00ff00;stroke-width:1" />
    <line x1="340" y1="252" x2="340" y2="255" style="stroke:#00ff00;stroke-width:1" />
	<path d = "M87 311 L87 287 L63 287 L63 311 L87 311 Z" stroke = "#00ff00" stroke-width = "1" fill = "none" />	<path d = "M75 290 L83 303 L67 303 L75 290 Z" stroke = "#00ff00" stroke-width = "1" fill = "#00ff00" />    <line x1="75" y1="287" x2="85" y2="305" style="stroke:#00ff00;stroke-width:1" />
    <line x1="85" y1="305" x2="65" y2="305" style="stroke:#00ff00;stroke-width:1" />
    <line x1="65" y1="305" x2="75" y2="287" style="stroke:#00ff00;stroke-width:1" />
	<path d = "M110 311 L110 287 L87 287 L87 311 L110 311 Z" stroke = "#00ff00" stroke-width = "1" fill = "none" />  <path d="M102.41287682633553 303.0677618240772           A5.83134225262167 5.83134225262167 0 0 1 94.16611352583871 303.0677618240778" fill = "none" stroke = "#00ff00" stroke-width = "1" />
  <path d="M94.16611352583871 303.0677618240778           A5.83134225262167 5.83134225262167 0 0 1 94.16611352583803 294.820998523581" fill = "none" stroke = "#00ff00" stroke-width = "1" />
  <path d="M94.16611352583803 294.820998523581           A5.83134225262167 5.83134225262167 0 0 1 102.41287682633484 294.8209985235803" fill = "none" stroke = "#00ff00" stroke-width = "1" />
	<path d = "M97 297 L102 295 L100 289 " stroke = "#00ff00" stroke-width = "1" fill = "none" />	<path d = "M133 311 L133 287 L110 287 L110 311 L133 311 Z" stroke = "#00ff00" stroke-width = "1" fill = "none" />	<path d = "M125 305 L119 305 L119 299 L116 299 L119 296 L122 293 L125 296 L127 299 L125 299 L125 305 Z" stroke = "#00ff00" stroke-width = "1" fill = "none" />	<path d = "M157 311 L157 287 L133 287 L133 311 L157 311 Z" stroke = "#00ff00" stroke-width = "1" fill = "none" />	<path d = "M148 305 L142 305 L142 299 L139 299 L142 296 L145 293 L148 296 L151 299 L148 299 L148 305 Z" stroke = "#00ff00" stroke-width = "1" fill = "none" />	<path d = "M180 311 L180 287 L157 287 L157 311 L180 311 Z" stroke = "#00ff00" stroke-width = "1" fill = "none" />	<path d = "M177 291 L168 299 L177 307 " stroke = "#00ff00" stroke-width = "1" fill = "none" />    <line x1="168" y1="299" x2="171" y2="299" style="stroke:#00ff00;stroke-width:1" />
    <line x1="174" y1="299" x2="177" y2="299" style="stroke:#00ff00;stroke-width:1" />
	<path d = "M203 311 L203 287 L180 287 L180 311 L203 311 Z" stroke = "#00ff00" stroke-width = "1" fill = "none" />  <path d="M195.7143528682827 303.06776182406736           A5.8313422526216705 5.8313422526216705 0 0 1 187.46758956778586 303.06776182406844" fill = "none" stroke = "#00ff00" stroke-width = "1" />
  <path d="M187.46758956778586 303.06776182406844           A5.8313422526216705 5.8313422526216705 0 0 1 187.46758956778473 294.82099852357163" fill = "none" stroke = "#00ff00" stroke-width = "1" />
  <path d="M187.46758956778473 294.82099852357163           A5.8313422526216705 5.8313422526216705 0 0 1 195.71435286828154 294.82099852357044" fill = "none" stroke = "#00ff00" stroke-width = "1" />
	<path d = "M190 297 L196 295 L193 289 " stroke = "#00ff00" stroke-width = "1" fill = "none" />	<path d = "M227 311 L227 287 L203 287 L203 311 L227 311 Z" stroke = "#00ff00" stroke-width = "1" fill = "none" />  <path d="M219.03972187876943 303.0677618240639           A5.8313422526216705 5.8313422526216705 0 0 1 210.7929585782726 303.0677618240652" fill = "none" stroke = "#00ff00" stroke-width = "1" />
  <path d="M210.7929585782726 303.0677618240652           A5.8313422526216705 5.8313422526216705 0 0 1 210.79295857827128 294.8209985235684" fill = "none" stroke = "#00ff00" stroke-width = "1" />
  <path d="M210.79295857827128 294.8209985235684           A5.8313422526216705 5.8313422526216705 0 0 1 219.0397218787681 294.82099852356697" fill = "none" stroke = "#00ff00" stroke-width = "1" />
	<path d = "M214 297 L219 295 L217 289 " stroke = "#00ff00" stroke-width = "1" fill = "none" />	<path d = "M250 311 L250 287 L227 287 L227 311 L250 311 Z" stroke = "#00ff00" stroke-width = "1" fill = "none" />  <path d="M242.36509088925618 303.06776182405997           A5.8313422526216705 5.8313422526216705 0 0 1 234.11832758875937 303.0677618240614" fill = "none" stroke = "#00ff00" stroke-width = "1" />
  <path d="M234.11832758875937 303.0677618240614           A5.8313422526216705 5.8313422526216705 0 0 1 234.11832758875786 294.8209985235646" fill = "none" stroke = "#00ff00" stroke-width = "1" />
  <path d="M234.11832758875786 294.8209985235646           A5.8313422526216705 5.8313422526216705 0 0 1 242.36509088925467 294.82099852356305" fill = "none" stroke = "#00ff00" stroke-width = "1" />
	<path d = "M237 297 L242 295 L240 289 " stroke = "#00ff00" stroke-width = "1" fill = "none" />	<path d = "M273 311 L273 287 L250 287 L250 311 L273 311 Z" stroke = "#00ff00" stroke-width = "1" fill = "none" />	<path d = "M273 311 L262 290 L250 311 " stroke = "#00ff00" stroke-width = "1" fill = "none" />    <line x1="262" y1="304" x2="262" y2="290" style="stroke:#00ff00;stroke-width:1" />
    <line x1="262" y1="304" x2="273" y2="311" style="stroke:#00ff00;stroke-width:1" />
    <line x1="262" y1="304" x2="250" y2="311" style="stroke:#00ff00;stroke-width:1" />
	<path d = "M297 311 L297 287 L273 287 L273 311 L297 311 Z" stroke = "#00ff00" stroke-width = "1" fill = "none" />    <line x1="285" y1="299" x2="285" y2="293" style="stroke:#00ff00;stroke-width:1" />
    <line x1="285" y1="299" x2="279" y2="299" style="stroke:#00ff00;stroke-width:1" />
    <line x1="285" y1="299" x2="285" y2="305" style="stroke:#00ff00;stroke-width:1" />
    <line x1="285" y1="299" x2="291" y2="299" style="stroke:#00ff00;stroke-width:1" />
	<path d = "M320 311 L320 287 L297 287 L297 311 L320 311 Z" stroke = "#00ff00" stroke-width = "1" fill = "none" />	<path d = "M314 305 L314 293 L302 293 L302 305 L314 305 Z" stroke = "#00ff00" stroke-width = "1" fill = "#00ff00" />    <line x1="314" y1="308" x2="302" y2="308" style="stroke:#00ff00;stroke-width:1" />
	<path d = "M343 311 L343 287 L320 287 L320 311 L343 311 Z" stroke = "#00ff00" stroke-width = "1" fill = "none" /><circle cx="326" cy = "305" r = "1" stroke = "#00ff00" stroke-width = "1" fill = "#00ff00" />
	<path d = "M326 305 L326 293 L337 293 " stroke = "#00ff00" stroke-width = "1" fill = "none" />	<path d = "M333 289 L337 293 L333 297 " stroke = "#00ff00" stroke-width = "1" fill = "none" />    <line x1="63" y1="346" x2="67" y2="341" style="stroke:#00ff00;stroke-width:1" />
    <line x1="69" y1="346" x2="73" y2="341" style="stroke:#00ff00;stroke-width:1" />
    <line x1="75" y1="346" x2="79" y2="341" style="stroke:#00ff00;stroke-width:1" />
    <line x1="81" y1="346" x2="85" y2="341" style="stroke:#00ff00;stroke-width:1" />
	<path d = "M87 346 L87 322 L63 322 L63 346 L87 346 Z" stroke = "#00ff00" stroke-width = "1" fill = "none" />    <line x1="69" y1="334" x2="81" y2="334" style="stroke:#00ff00;stroke-width:1" />
    <line x1="81" y1="334" x2="79" y2="336" style="stroke:#00ff00;stroke-width:1" />
    <line x1="81" y1="334" x2="79" y2="332" style="stroke:#00ff00;stroke-width:1" />
	<path d = "M110 346 L110 322 L87 322 L87 346 L110 346 Z" stroke = "#00ff00" stroke-width = "1" fill = "none" />  <path d="M102.4128768263431 338.05581533981973           A5.8313422526216705 5.8313422526216705 0 0 1 94.16611352584624 338.0558153398214" fill = "none" stroke = "#00ff00" stroke-width = "1" />
  <path d="M94.16611352584624 338.0558153398214           A5.8313422526216705 5.8313422526216705 0 0 1 94.16611352584462 329.8090520393245" fill = "none" stroke = "#00ff00" stroke-width = "1" />
  <path d="M94.16611352584462 329.8090520393245           A5.8313422526216705 5.8313422526216705 0 0 1 102.41287682634147 329.8090520393229" fill = "none" stroke = "#00ff00" stroke-width = "1" />
	<path d = "M97 332 L102 330 L100 324 " stroke = "#00ff00" stroke-width = "1" fill = "none" />	<path d = "M133 346 L133 322 L110 322 L110 346 L133 346 Z" stroke = "#00ff00" stroke-width = "1" fill = "none" />  <path d="M125.7382458368297 338.0558153398152           A5.8313422526216705 5.8313422526216705 0 0 1 117.49148253633285 338.0558153398168" fill = "none" stroke = "#00ff00" stroke-width = "1" />
  <path d="M117.49148253633285 338.0558153398168           A5.8313422526216705 5.8313422526216705 0 0 1 117.49148253633129 329.8090520393199" fill = "none" stroke = "#00ff00" stroke-width = "1" />
  <path d="M117.49148253633129 329.8090520393199           A5.8313422526216705 5.8313422526216705 0 0 1 125.73824583682814 329.8090520393184" fill = "none" stroke = "#00ff00" stroke-width = "1" />
	<path d = "M120 332 L126 330 L124 324 " stroke = "#00ff00" stroke-width = "1" fill = "none" />    <line x1="133" y1="346" x2="137" y2="341" style="stroke:#00ff00;stroke-width:1" />
    <line x1="139" y1="346" x2="143" y2="341" style="stroke:#00ff00;stroke-width:1" />
    <line x1="145" y1="346" x2="149" y2="341" style="stroke:#00ff00;stroke-width:1" />
    <line x1="151" y1="346" x2="155" y2="341" style="stroke:#00ff00;stroke-width:1" />
	<path d = "M157 346 L157 322 L133 322 L133 346 L157 346 Z" stroke = "#00ff00" stroke-width = "1" fill = "none" />    <line x1="139" y1="334" x2="151" y2="334" style="stroke:#00ff00;stroke-width:1" />
    <line x1="151" y1="334" x2="149" y2="336" style="stroke:#00ff00;stroke-width:1" />
    <line x1="151" y1="334" x2="149" y2="332" style="stroke:#00ff00;stroke-width:1" />
	<path d = "M180 346 L180 322 L157 322 L157 346 L180 346 Z" stroke = "#00ff00" stroke-width = "1" fill = "none" />  <path d="M172.38898385780308 338.0558153398067           A5.8313422526216705 5.8313422526216705 0 0 1 164.14222055730625 338.05581533980825" fill = "none" stroke = "#00ff00" stroke-width = "1" />
  <path d="M164.14222055730625 338.05581533980825           A5.8313422526216705 5.8313422526216705 0 0 1 164.14222055730474 329.8090520393114" fill = "none" stroke = "#00ff00" stroke-width = "1" />
  <path d="M164.14222055730474 329.8090520393114           A5.8313422526216705 5.8313422526216705 0 0 1 172.3889838578016 329.8090520393099" fill = "none" stroke = "#00ff00" stroke-width = "1" />
	<path d = "M167 332 L172 330 L170 324 " stroke = "#00ff00" stroke-width = "1" fill = "none" />	<path d = "M203 346 L203 322 L180 322 L180 346 L203 346 Z" stroke = "#00ff00" stroke-width = "1" fill = "none" />  <path d="M195.7143528682897 338.0558153398025           A5.8313422526216705 5.8313422526216705 0 0 1 187.46758956779286 338.055815339804" fill = "none" stroke = "#00ff00" stroke-width = "1" />
  <path d="M187.46758956779286 338.055815339804           A5.8313422526216705 5.8313422526216705 0 0 1 187.4675895677914 329.8090520393071" fill = "none" stroke = "#00ff00" stroke-width = "1" />
  <path d="M187.4675895677914 329.8090520393071           A5.8313422526216705 5.8313422526216705 0 0 1 195.71435286828827 329.8090520393057" fill = "none" stroke = "#00ff00" stroke-width = "1" />
	<path d = "M190 332 L196 330 L193 324 " stroke = "#00ff00" stroke-width = "1" fill = "none" />    <line x1="203" y1="346" x2="207" y2="341" style="stroke:#00ff00;stroke-width:1" />
    <line x1="209" y1="346" x2="213" y2="341" style="stroke:#00ff00;stroke-width:1" />
    <line x1="215" y1="346" x2="219" y2="341" style="stroke:#00ff00;stroke-width:1" />
    <line x1="221" y1="346" x2="225" y2="341" style="stroke:#00ff00;stroke-width:1" />
	<path d = "M227 346 L227 322 L203 322 L203 346 L227 346 Z" stroke = "#00ff00" stroke-width = "1" fill = "none" />    <line x1="209" y1="334" x2="221" y2="334" style="stroke:#00ff00;stroke-width:1" />
    <line x1="221" y1="334" x2="219" y2="336" style="stroke:#00ff00;stroke-width:1" />
    <line x1="221" y1="334" x2="219" y2="332" style="stroke:#00ff00;stroke-width:1" />
	<path d = "M250 346 L250 322 L227 322 L227 346 L250 346 Z" stroke = "#00ff00" stroke-width = "1" fill = "none" />  <path d="M242.3650908892631 338.05581533979483           A5.8313422526216705 5.8313422526216705 0 0 1 234.11832758876625 338.05581533979625" fill = "none" stroke = "#00ff00" stroke-width = "1" />
  <path d="M234.11832758876625 338.05581533979625           A5.8313422526216705 5.8313422526216705 0 0 1 234.11832758876486 329.8090520392994" fill = "none" stroke = "#00ff00" stroke-width = "1" />
  <path d="M234.11832758876486 329.8090520392994           A5.8313422526216705 5.8313422526216705 0 0 1 242.36509088926172 329.809052039298" fill = "none" stroke = "#00ff00" stroke-width = "1" />
	<path d = "M237 332 L242 330 L240 324 " stroke = "#00ff00" stroke-width = "1" fill = "none" />	<path d = "M273 346 L273 322 L250 322 L250 346 L273 346 Z" stroke = "#00ff00" stroke-width = "1" fill = "none" />  <path d="M265.69045989974967 338.05581533979097           A5.8313422526216705 5.8313422526216705 0 0 1 257.4436965992528 338.05581533979233" fill = "none" stroke = "#00ff00" stroke-width = "1" />
  <path d="M257.4436965992528 338.05581533979233           A5.8313422526216705 5.8313422526216705 0 0 1 257.4436965992515 329.80905203929547" fill = "none" stroke = "#00ff00" stroke-width = "1" />
  <path d="M257.4436965992515 329.80905203929547           A5.8313422526216705 5.8313422526216705 0 0 1 265.69045989974836 329.80905203929416" fill = "none" stroke = "#00ff00" stroke-width = "1" />
	<path d = "M260 332 L266 330 L263 324 " stroke = "#00ff00" stroke-width = "1" fill = "none" />    <line x1="273" y1="346" x2="277" y2="341" style="stroke:#00ff00;stroke-width:1" />
    <line x1="279" y1="346" x2="283" y2="341" style="stroke:#00ff00;stroke-width:1" />
    <line x1="285" y1="346" x2="289" y2="341" style="stroke:#00ff00;stroke-width:1" />
    <line x1="291" y1="346" x2="295" y2="341" style="stroke:#00ff00;stroke-width:1" />
	<path d = "M297 346 L297 322 L273 322 L273 346 L297 346 Z" stroke = "#00ff00" stroke-width = "1" fill = "none" />    <line x1="279" y1="334" x2="291" y2="334" style="stroke:#00ff00;stroke-width:1" />
    <line x1="291" y1="334" x2="289" y2="336" style="stroke:#00ff00;stroke-width:1" />
    <line x1="291" y1="334" x2="289" y2="332" style="stroke:#00ff00;stroke-width:1" />
	<path d = "M320 346 L320 322 L297 322 L297 346 L320 346 Z" stroke = "#00ff00" stroke-width = "1" fill = "none" />  <path d="M312.34119792072306 338.05581533978375           A5.8313422526216705 5.8313422526216705 0 0 1 304.0944346202262 338.055815339785" fill = "none" stroke = "#00ff00" stroke-width = "1" />
  <path d="M304.0944346202262 338.055815339785           A5.8313422526216705 5.8313422526216705 0 0 1 304.09443462022494 329.8090520392882" fill = "none" stroke = "#00ff00" stroke-width = "1" />
  <path d="M304.09443462022494 329.8090520392882           A5.8313422526216705 5.8313422526216705 0 0 1 312.34119792072175 329.80905203928694" fill = "none" stroke = "#00ff00" stroke-width = "1" />
	<path d = "M307 332 L312 330 L310 324 " stroke = "#00ff00" stroke-width = "1" fill = "none" />	<path d = "M343 346 L343 322 L320 322 L320 346 L343 346 Z" stroke = "#00ff00" stroke-width = "1" fill = "none" />  <path d="M335.6665669312096 338.0558153397801           A5.8313422526216705 5.8313422526216705 0 0 1 327.41980363071275 338.05581533978136" fill = "none" stroke = "#00ff00" stroke-width = "1" />
  <path d="M327.41980363071275 338.05581533978136           A5.8313422526216705 5.8313422526216705 0 0 1 327.41980363071156 329.8090520392845" fill = "none" stroke = "#00ff00" stroke-width = "1" />
  <path d="M327.41980363071156 329.8090520392845           A5.8313422526216705 5.8313422526216705 0 0 1 335.6665669312084 329.8090520392833" fill = "none" stroke = "#00ff00" stroke-width = "1" />
	<path d = "M330 332 L336 330 L333 324 " stroke = "#00ff00" stroke-width = "1" fill = "none" />    <line x1="63" y1="381" x2="67" y2="376" style="stroke:#00ff00;stroke-width:1" />
    <line x1="69" y1="381" x2="73" y2="376" style="stroke:#00ff00;stroke-width:1" />
    <line x1="75" y1="381" x2="79" y2="376" style="stroke:#00ff00;stroke-width:1" />
    <line x1="81" y1="381" x2="85" y2="376" style="stroke:#00ff00;stroke-width:1" />
	<path d = "M87 381 L87 357 L63 357 L63 381 L87 381 Z" stroke = "#00ff00" stroke-width = "1" fill = "none" />    <line x1="69" y1="369" x2="81" y2="369" style="stroke:#00ff00;stroke-width:1" />
    <line x1="81" y1="369" x2="79" y2="371" style="stroke:#00ff00;stroke-width:1" />
    <line x1="81" y1="369" x2="79" y2="367" style="stroke:#00ff00;stroke-width:1" />
	<path d = "M110 381 L110 357 L87 357 L87 381 L110 381 Z" stroke = "#00ff00" stroke-width = "1" fill = "none" />  <path d="M102.41287682634783 373.04386885554254           A5.8313422526216705 5.8313422526216705 0 0 1 94.16611352585099 373.0438688555437" fill = "none" stroke = "#00ff00" stroke-width = "1" />
  <path d="M94.16611352585099 373.0438688555437           A5.8313422526216705 5.8313422526216705 0 0 1 94.16611352584984 364.79710555504687" fill = "none" stroke = "#00ff00" stroke-width = "1" />
  <path d="M94.16611352584984 364.79710555504687           A5.8313422526216705 5.8313422526216705 0 0 1 102.41287682634668 364.79710555504573" fill = "none" stroke = "#00ff00" stroke-width = "1" />
	<path d = "M97 367 L102 365 L100 359 " stroke = "#00ff00" stroke-width = "1" fill = "none" />	<path d = "M133 381 L133 357 L110 357 L110 381 L133 381 Z" stroke = "#00ff00" stroke-width = "1" fill = "none" />  <path d="M125.73824583683447 373.04386885553924           A5.8313422526216705 5.8313422526216705 0 0 1 117.49148253633763 373.0438688555404" fill = "none" stroke = "#00ff00" stroke-width = "1" />
  <path d="M117.49148253633763 373.0438688555404           A5.8313422526216705 5.8313422526216705 0 0 1 117.49148253633653 364.7971055550435" fill = "none" stroke = "#00ff00" stroke-width = "1" />
  <path d="M117.49148253633653 364.7971055550435           A5.8313422526216705 5.8313422526216705 0 0 1 125.73824583683339 364.79710555504244" fill = "none" stroke = "#00ff00" stroke-width = "1" />
	<path d = "M120 367 L126 365 L124 359 " stroke = "#00ff00" stroke-width = "1" fill = "none" />    <line x1="133" y1="381" x2="137" y2="376" style="stroke:#00ff00;stroke-width:1" />
    <line x1="139" y1="381" x2="143" y2="376" style="stroke:#00ff00;stroke-width:1" />
    <line x1="145" y1="381" x2="149" y2="376" style="stroke:#00ff00;stroke-width:1" />
    <line x1="151" y1="381" x2="155" y2="376" style="stroke:#00ff00;stroke-width:1" />
	<path d = "M157 381 L157 357 L133 357 L133 381 L157 381 Z" stroke = "#00ff00" stroke-width = "1" fill = "none" />    <line x1="139" y1="369" x2="151" y2="369" style="stroke:#00ff00;stroke-width:1" />
    <line x1="151" y1="369" x2="149" y2="371" style="stroke:#00ff00;stroke-width:1" />
    <line x1="151" y1="369" x2="149" y2="367" style="stroke:#00ff00;stroke-width:1" />
	<path d = "M180 381 L180 357 L157 357 L157 381 L180 381 Z" stroke = "#00ff00" stroke-width = "1" fill = "none" />	<path d = "M162 363 L174 363 L174 375 " stroke = "#00ff00" stroke-width = "1" fill = "none" /><circle cx="174" cy = "375" r = "1" stroke = "#00ff00" stroke-width = "1" fill = "#00ff00" />
    <line x1="174" y1="375" x2="176" y2="373" style="stroke:#00ff00;stroke-width:1" />
    <line x1="174" y1="375" x2="172" y2="373" style="stroke:#00ff00;stroke-width:1" />
    <line x1="174" y1="375" x2="162" y2="363" style="stroke:#00ff00;stroke-width:1" />
	<path d = "M203 381 L203 357 L180 357 L180 381 L203 381 Z" stroke = "#00ff00" stroke-width = "1" fill = "none" />  <path d="M187.4675895677965 364.79710555503465           A5.83134225262167 5.83134225262167 0 0 1 195.71435286829336 364.79710555503357" fill = "none" stroke = "#00ff00" stroke-width = "1" />
  <path d="M187.4675895677976 373.0438688555315           A5.83134225262167 5.83134225262167 0 0 1 187.4675895677965 364.79710555503465" fill = "none" stroke = "#00ff00" stroke-width = "1" />
  <path d="M195.71435286829444 373.0438688555304           A5.83134225262167 5.83134225262167 0 0 1 187.4675895677976 373.0438688555315" fill = "none" stroke = "#00ff00" stroke-width = "1" />
	<path d = "M193 378 L196 373 L190 371 " stroke = "#00ff00" stroke-width = "1" fill = "none" />	<path d = "M227 381 L227 357 L203 357 L203 381 L227 381 Z" stroke = "#00ff00" stroke-width = "1" fill = "none" />    <line x1="221" y1="369" x2="209" y2="369" style="stroke:#00ff00;stroke-width:1" />
	<path d = "M250 381 L250 357 L227 357 L227 381 L250 381 Z" stroke = "#00ff00" stroke-width = "1" fill = "none" />	<path d = "M235 363 L241 363 L241 369 L244 369 L241 372 L238 375 L235 372 L232 369 L235 369 L235 363 Z" stroke = "#00ff00" stroke-width = "1" fill = "none" />	<path d = "M273 381 L273 357 L250 357 L250 381 L273 381 Z" stroke = "#00ff00" stroke-width = "1" fill = "none" />    <line x1="262" y1="369" x2="262" y2="357" style="stroke:#00ff00;stroke-width:1" />
    <line x1="262" y1="369" x2="272" y2="363" style="stroke:#00ff00;stroke-width:1" />
    <line x1="262" y1="369" x2="272" y2="375" style="stroke:#00ff00;stroke-width:1" />
    <line x1="262" y1="369" x2="262" y2="381" style="stroke:#00ff00;stroke-width:1" />
    <line x1="262" y1="369" x2="251" y2="375" style="stroke:#00ff00;stroke-width:1" />
<circle cx="262" cy = "369" r = "11.662684505243341" stroke = "#00ff00" stroke-width = "1" fill = "none" />
<circle cx="259" cy = "364" r = "1.4578355631554176" stroke = "#00ff00" stroke-width = "1" fill = "none" />
<circle cx="264" cy = "364" r = "1.4578355631554176" stroke = "#00ff00" stroke-width = "1" fill = "none" />
<circle cx="267" cy = "369" r = "1.4578355631554176" stroke = "#00ff00" stroke-width = "1" fill = "none" />
<circle cx="264" cy = "374" r = "1.4578355631554176" stroke = "#00ff00" stroke-width = "1" fill = "none" />
<circle cx="259" cy = "374" r = "1.4578355631554176" stroke = "#00ff00" stroke-width = "1" fill = "none" />
    <line x1="262" y1="369" x2="251" y2="363" style="stroke:#00ff00;stroke-width:1" />
<circle cx="256" cy = "369" r = "1.4578355631554176" stroke = "#00ff00" stroke-width = "1" fill = "none" />
<circle cx="285" cy = "369" r = "5.8313422526216705" stroke = "#00ff00" stroke-width = "1" fill = "none" />
	<path d = "M180 42 L211 95 L149 95 L180 42 Z" stroke = "#ff0000" stroke-width = "4" fill = "#ff0000" />	<path d = "M251 36 L220 90 L189 36 L251 36 Z" stroke = "#ff7900" stroke-width = "4" fill = "#ff7900" />	<path d = "M292 95 L230 95 L261 42 L292 95 Z" stroke = "#ffff00" stroke-width = "4" fill = "#ffff00" />	<path d = "M261 160 L230 106 L292 106 L261 160 Z" stroke = "#00ff00" stroke-width = "4" fill = "#00ff00" />	<path d = "M189 165 L220 112 L251 165 L189 165 Z" stroke = "#0000ff" stroke-width = "4" fill = "#0000ff" />	<path d = "M149 106 L211 106 L180 160 L149 106 Z" stroke = "#800080" stroke-width = "4" fill = "#800080" />	<path d = "M180 31 L261 31 L301 101 L261 171 L180 171 L140 101 L180 31 Z" stroke = "#00ff00" stroke-width = "1" fill = "none" /></svg>