<svg width="400" height="400" viewbox = "0 0 400 400"  xmlns="http://www.w3.org/2000/svg">
<!--<json>{
  "glyph": "0337,0337,0337,0337,0321,0231,0300,0336,0331,0332,0332,0332,0332,0332,0332,0332,0331,0331,01312,01306,01350,01330,01362,01335,01335,01335,01335,01335,01351,01351,01337,01203,0331,0332,0332,0332,0332,0332,0332,0332,0332,0332,0332,0332,0332,0332,0332,0331,01335,01203,01335,01203,01363,01350,01350,01334,01336,01331,01306,0336,0330,0333,0336,0341,0337,0331,0332,0337,0330,0330,0330,0330,0330,0330,0330,0330,0332,0332,0332,0332,0332,0337,0337,0220,0313,0304,0336,0331,0331,0336,0331,0330,0332,0332,0332,0332,0332,0332,01220,01072,",
  "x0": 200,
  "y0": 200,
  "unit": 50,
  "width": 400,
  "height": 400,
  "style": {
    "color0": "#00ff00",
    "fill0": "#00ff00",
    "line0": 1,
    "color1": "black",
    "fill1": "black",
    "line1": 5,
    "color2": "red",
    "fill2": "red",
    "line2": 4,
    "color3": "#FF7900",
    "fill3": "#FF7900",
    "line3": 4,
    "color4": "yellow",
    "fill4": "yellow",
    "line4": 4,
    "color5": "#00ff00",
    "fill5": "#00ff00",
    "line5": 4,
    "color6": "blue",
    "fill6": "blue",
    "line6": 4,
    "color7": "purple",
    "fill7": "purple",
    "line7": 4
  },
  "shapes": [
    "0220:0312,0306,0350,0330,0362,0335,0335,0335,0335,0335,0351,0351,0337,0203,0335,0203,0335,0203,0363,0350,0350,0334,0336,0331,0306,",
    "0221:0210,0210,0220,0211,0211,",
    "0222:0304,0322,0221,0335,0330,0323,0221,0335,0330,0324,0221,0335,0330,0325,0221,0335,0330,0326,0221,0335,0330,0327,0221,0335,0330,0330,0350,0335,0335,0335,0312,0337,0320,0362,0203,0335,0335,0203,0335,0335,0203,0335,0335,0203,0335,0335,0203,0335,0335,0203,0354,0334,0336,0331,0306,",
    "0223:0304,0312,0336,0334,0306,0350,0334,0334,0331,0222,0330,0335,0335,0350,0335,0306,0312,0337,0306,",
    "0224:0306,0333,0331,0223,0335,0335,0223,0335,0335,0223,0332,0334,0223,0332,0334,0223,0334,0334,0330,0330,0335,0223,0333,0330,0332,0334,0334,0334,0334,0334,0331,0331,0331,0223,0330,0333,0330,0332,0332,0331,0331,0223,0333,0333,0333,0335,0335,0335,0335,0333,",
    "0225:0224,0224,0224,0224,0224,0224,0224,",
    "0230:0304,0327,0336,0331,0336,0336,0330,0335,0362,0203,0203,0203,0203,0203,0335,0203,0203,0335,0203,0203,0203,0203,0203,0203,0203,0203,0203,0203,0335,0203,0203,0335,0203,0203,0203,0203,0203,0363,0334,0331,0320,0336,0333,0337,0334,0306,0335,0362,0203,0334,0334,0203,0334,0203,0334,0334,0203,0363,0333,0362,0203,0335,0335,0203,0335,0203,0335,0335,0203,0363,0331,0335,0330,0333,0362,0203,0335,0335,0203,0335,0203,0335,0335,0203,0363,0332,0332,0332,0332,0332,0362,0203,0334,0334,0203,0334,0203,0334,0334,0203,0363,0332,0331,0332,0331,0334,0362,0203,0334,0334,0203,0334,0203,0334,0334,0203,0363,0333,0333,0333,0333,0335,0304,0334,0313,0336,0332,0337,0337,0337,0330,0337,0306,",
    "0231:0210,0306,0335,0330,0335,0335,0350,0335,0312,0337,0362,0203,0335,0335,0335,0335,0203,0335,0335,0335,0335,0203,0363,0334,0336,0331,0334,0334,0306,0351,0211,",
    "0232:0231,0231,0231,0231,0231,0231,0231,0231,",
    "0233:0220,0336,0210,0232,",
    "0234:0330,0312,0306,0350,0335,0335,0335,0335,0335,0337,0362,0203,0335,0335,0335,0335,0203,0335,0335,0335,0335,0203,0363,0334,0336,0331,0306,0313,",
    "0235:0210,0210,0234,0211,0211,",
    "0236:0322,0235,0335,0330,0323,0235,0335,0330,0324,0235,0335,0330,0325,0235,0335,0330,0326,0235,0335,0330,0327,0235,0330,0335,0335,0350,0334,0312,0337,0320,0362,0203,0335,0335,0203,0335,0335,0203,0335,0335,0203,0335,0335,0203,0335,0335,0203,0354,0335,0335,0336,0335,0330,0334,0334,0313,0306,",
    "0237:0236,0332,0334,0334,0334,0236,0335,0335,0335,0335,0330,0330,0334,0334,0334,0236,0335,0335,0335,0330,0335,0330,0335,0335,0335,0335,0236,",
    "01220:0333,0200,0336,0330,0332,0220,0313,0304,0331,0333,0337,",
    "01221:0333,0200,0336,0330,0332,0221,0313,0304,0331,0333,0337,0320,",
    "01222:0333,0200,0336,0330,0332,0336,0336,0222,0313,0337,0304,0337,0331,0333,0337,",
    "01223:0333,0200,0336,0330,0332,0223,0313,0304,0331,0333,0337,0320,",
    "01224:0333,0200,0336,0330,0332,0336,0332,0224,0313,0304,0331,0333,0331,0333,0333,0337,0337,",
    "01225:0333,0200,0336,0330,0332,0336,0332,0225,0313,0304,0331,0331,0333,0333,0333,0337,0337,0320,",
    "01226:0333,0200,0336,0336,0330,0332,0226,0331,0333,0337,0337,",
    "01227:0333,0200,0336,0330,0332,0336,0331,0333,0337,0227,0336,0331,0333,0337,0337,",
    "01230:0333,0200,0336,0330,0332,0336,0331,0330,0230,0313,0304,0331,0333,0331,0333,0337,0337,",
    "01231:0333,0200,0336,0330,0332,0336,0231,0313,0304,0337,0331,0333,0337,",
    "01232:0333,0200,",
    "01233:0333,0200,",
    "01234:0333,0200,",
    "01235:0333,0200,",
    "01236:0333,0200,",
    "01237:0333,0200,",
    "0240:0220,0336,0331,0333,0336,0321,0335,0342,0335,0335,0342,0335,0330,0330,0332,0332,0337,0337,",
    "01240:0333,0200,0336,0330,0332,0210,0240,0211,0333,0331,0337,",
    "0241:0220,0336,0321,0343,0332,0350,0335,0336,0342,0334,0334,0342,0335,0304,0337,0333,0337,",
    "01241:0333,0200,0336,0332,0330,0210,0241,0211,0333,0331,0337,",
    "0242:0220,0321,0336,0343,0333,0336,0350,0335,0342,0334,0334,0342,0335,0337,0304,0332,0337,",
    "01242:0333,0200,0336,0330,0332,0210,0242,0211,0333,0331,0337,",
    "0243:0220,0336,0331,0332,0336,0321,0343,0332,0350,0334,0336,0342,0335,0335,0342,0337,0334,0334,0335,0304,0332,0330,0330,0337,0337,0333,",
    "01243:0333,0200,0336,0330,0332,0210,0243,0211,0333,0331,0337,",
    "0244:0220,0336,0331,0333,0336,0321,0343,0333,0350,0336,0335,0342,0334,0334,0342,0335,0337,0304,0333,0330,0330,0337,0337,0332,",
    "01244:0333,0200,0336,0330,0332,0210,0244,0211,0333,0331,0337,",
    "0245:0210,0332,0332,0362,0335,0203,0203,0203,0203,0334,0203,0363,0332,0332,0331,0211,",
    "01245:0333,0200,0336,0330,0332,0336,0245,0337,0333,0331,0337,",
    "0246:0210,0332,0332,0335,0306,0336,0330,0335,0335,0335,0321,0362,0203,0335,0335,0203,0364,0331,0350,0335,0337,0366,0333,0333,0333,0333,0334,0334,0334,0334,0367,0335,0336,0342,0334,0334,0342,0330,0330,0330,0330,0335,0335,0335,0304,0337,0211,",
    "01246:0333,0200,0336,0330,0332,0336,0246,",
    "0247:0330,0332,0336,0332,0336,0221,0333,0333,0333,0222,0333,0333,0333,0223,0333,0333,0333,0225,0333,0331,0331,0331,0332,0332,0332,0332,0332,0332,0332,0332,0332,0332,0332,0332,0333,0333,0226,0331,0331,0331,0333,0333,0333,0333,0333,0333,0333,0333,0333,0333,0333,0333,0333,0330,0333,0330,0330,0333,0330,0331,0332,0332,0332,0332,0332,0332,0332,0332,0332,0332,0332,0332,0227,0333,0333,0333,0230,0333,0331,0331,0331,0331,0332,0332,0332,0330,0332,0332,0332,0332,0332,0332,0333,0333,0231,0333,0333,0333,0232,0331,0333,0330,0333,0333,0233,0333,0333,0333,0234,0330,0330,0332,0330,0332,0332,0337,0337,",
    "01247:0333,0200,0336,0330,0332,0220,0336,0247,0337,0331,0333,0337,"
  ]
}</json>-->	<path d = "M806 -150 L200 899 L-406 -150 L806 -150 Z" stroke = "#000000" stroke-width = "5" fill = "#000000" />	<path d = "M50 275 L50 250 L25 250 L25 275 L50 275 Z" stroke = "#00ff00" stroke-width = "1" fill = "none" />	<path d = "M50 275 L38 253 L25 275 " stroke = "#00ff00" stroke-width = "1" fill = "none" />    <line x1="38" y1="268" x2="38" y2="253" style="stroke:#00ff00;stroke-width:1" />
    <line x1="38" y1="268" x2="50" y2="275" style="stroke:#00ff00;stroke-width:1" />
    <line x1="38" y1="268" x2="25" y2="275" style="stroke:#00ff00;stroke-width:1" />
	<path d = "M75 275 L75 250 L50 250 L50 275 L75 275 Z" stroke = "#00ff00" stroke-width = "1" fill = "none" />    <line x1="63" y1="263" x2="63" y2="250" style="stroke:#00ff00;stroke-width:1" />
    <line x1="63" y1="263" x2="73" y2="256" style="stroke:#00ff00;stroke-width:1" />
    <line x1="63" y1="263" x2="73" y2="269" style="stroke:#00ff00;stroke-width:1" />
    <line x1="63" y1="263" x2="63" y2="275" style="stroke:#00ff00;stroke-width:1" />
    <line x1="63" y1="263" x2="52" y2="269" style="stroke:#00ff00;stroke-width:1" />
<circle cx="63" cy = "263" r = "12.5" stroke = "#00ff00" stroke-width = "1" fill = "none" />
<circle cx="59" cy = "257" r = "1.5625" stroke = "#00ff00" stroke-width = "1" fill = "none" />
<circle cx="66" cy = "257" r = "1.5625" stroke = "#00ff00" stroke-width = "1" fill = "none" />
<circle cx="69" cy = "263" r = "1.5625" stroke = "#00ff00" stroke-width = "1" fill = "none" />
<circle cx="66" cy = "268" r = "1.5625" stroke = "#00ff00" stroke-width = "1" fill = "none" />
<circle cx="59" cy = "268" r = "1.5625" stroke = "#00ff00" stroke-width = "1" fill = "none" />
    <line x1="63" y1="263" x2="52" y2="256" style="stroke:#00ff00;stroke-width:1" />
<circle cx="56" cy = "263" r = "1.5625" stroke = "#00ff00" stroke-width = "1" fill = "none" />
	<path d = "M100 275 L100 250 L75 250 L75 275 L100 275 Z" stroke = "#00ff00" stroke-width = "1" fill = "none" />	<path d = "M96 254 L88 263 L96 271 " stroke = "#00ff00" stroke-width = "1" fill = "none" />    <line x1="88" y1="263" x2="91" y2="263" style="stroke:#00ff00;stroke-width:1" />
    <line x1="94" y1="263" x2="97" y2="263" style="stroke:#00ff00;stroke-width:1" />
	<path d = "M125 275 L125 250 L100 250 L100 275 L125 275 Z" stroke = "#00ff00" stroke-width = "1" fill = "none" />	<path d = "M116 269 L109 269 L109 263 L106 263 L109 259 L113 256 L116 259 L119 263 L116 263 L116 269 Z" stroke = "#00ff00" stroke-width = "1" fill = "none" />	<path d = "M150 275 L150 250 L125 250 L125 275 L150 275 Z" stroke = "#00ff00" stroke-width = "1" fill = "none" /><circle cx="131" cy = "269" r = "1" stroke = "#00ff00" stroke-width = "1" fill = "#00ff00" />
	<path d = "M131 269 L131 256 L144 256 " stroke = "#00ff00" stroke-width = "1" fill = "none" />	<path d = "M139 252 L144 256 L139 261 " stroke = "#00ff00" stroke-width = "1" fill = "none" />	<path d = "M175 275 L175 250 L150 250 L150 275 L175 275 Z" stroke = "#00ff00" stroke-width = "1" fill = "none" />  <path d="M166.91941738241596 266.9194173824161           A6.250000000000001 6.250000000000001 0 0 1 158.0805826175841 266.9194173824161" fill = "none" stroke = "#00ff00" stroke-width = "1" />
  <path d="M158.0805826175841 266.9194173824161           A6.250000000000001 6.250000000000001 0 0 1 158.0805826175841 258.08058261758424" fill = "none" stroke = "#00ff00" stroke-width = "1" />
  <path d="M158.0805826175841 258.08058261758424           A6.250000000000001 6.250000000000001 0 0 1 166.91941738241596 258.08058261758424" fill = "none" stroke = "#00ff00" stroke-width = "1" />
	<path d = "M161 260 L167 258 L165 252 " stroke = "#00ff00" stroke-width = "1" fill = "none" />	<path d = "M200 275 L200 250 L175 250 L175 275 L200 275 Z" stroke = "#00ff00" stroke-width = "1" fill = "none" />  <path d="M191.919417382416 266.9194173824161           A6.250000000000001 6.250000000000001 0 0 1 183.08058261758413 266.9194173824161" fill = "none" stroke = "#00ff00" stroke-width = "1" />
  <path d="M183.08058261758413 266.9194173824161           A6.250000000000001 6.250000000000001 0 0 1 183.08058261758413 258.08058261758424" fill = "none" stroke = "#00ff00" stroke-width = "1" />
  <path d="M183.08058261758413 258.08058261758424           A6.250000000000001 6.250000000000001 0 0 1 191.919417382416 258.08058261758424" fill = "none" stroke = "#00ff00" stroke-width = "1" />
	<path d = "M186 260 L192 258 L190 252 " stroke = "#00ff00" stroke-width = "1" fill = "none" />	<path d = "M225 275 L225 250 L200 250 L200 275 L225 275 Z" stroke = "#00ff00" stroke-width = "1" fill = "none" />  <path d="M216.91941738241601 266.9194173824161           A6.250000000000001 6.250000000000001 0 0 1 208.08058261758416 266.9194173824161" fill = "none" stroke = "#00ff00" stroke-width = "1" />
  <path d="M208.08058261758416 266.9194173824161           A6.250000000000001 6.250000000000001 0 0 1 208.08058261758416 258.08058261758424" fill = "none" stroke = "#00ff00" stroke-width = "1" />
  <path d="M208.08058261758416 258.08058261758424           A6.250000000000001 6.250000000000001 0 0 1 216.91941738241601 258.08058261758424" fill = "none" stroke = "#00ff00" stroke-width = "1" />
	<path d = "M211 260 L217 258 L215 252 " stroke = "#00ff00" stroke-width = "1" fill = "none" />	<path d = "M250 275 L250 250 L225 250 L225 275 L250 275 Z" stroke = "#00ff00" stroke-width = "1" fill = "none" />  <path d="M241.91941738241604 266.9194173824161           A6.250000000000001 6.250000000000001 0 0 1 233.08058261758418 266.9194173824161" fill = "none" stroke = "#00ff00" stroke-width = "1" />
  <path d="M233.08058261758418 266.9194173824161           A6.250000000000001 6.250000000000001 0 0 1 233.08058261758418 258.08058261758424" fill = "none" stroke = "#00ff00" stroke-width = "1" />
  <path d="M233.08058261758418 258.08058261758424           A6.250000000000001 6.250000000000001 0 0 1 241.91941738241604 258.08058261758424" fill = "none" stroke = "#00ff00" stroke-width = "1" />
	<path d = "M236 260 L242 258 L240 252 " stroke = "#00ff00" stroke-width = "1" fill = "none" />	<path d = "M275 275 L275 250 L250 250 L250 275 L275 275 Z" stroke = "#00ff00" stroke-width = "1" fill = "none" />  <path d="M266.91941738241604 266.9194173824161           A6.250000000000001 6.250000000000001 0 0 1 258.0805826175842 266.9194173824161" fill = "none" stroke = "#00ff00" stroke-width = "1" />
  <path d="M258.0805826175842 266.9194173824161           A6.250000000000001 6.250000000000001 0 0 1 258.0805826175842 258.08058261758424" fill = "none" stroke = "#00ff00" stroke-width = "1" />
  <path d="M258.0805826175842 258.08058261758424           A6.250000000000001 6.250000000000001 0 0 1 266.91941738241604 258.08058261758424" fill = "none" stroke = "#00ff00" stroke-width = "1" />
	<path d = "M261 260 L267 258 L265 252 " stroke = "#00ff00" stroke-width = "1" fill = "none" />	<path d = "M300 275 L300 250 L275 250 L275 275 L300 275 Z" stroke = "#00ff00" stroke-width = "1" fill = "none" />	<path d = "M296 271 L288 263 L290 260 " stroke = "#00ff00" stroke-width = "1" fill = "none" />    <line x1="292" y1="258" x2="294" y2="256" style="stroke:#00ff00;stroke-width:1" />
    <line x1="296" y1="254" x2="299" y2="251" style="stroke:#00ff00;stroke-width:1" />
    <line x1="288" y1="263" x2="300" y2="263" style="stroke:#00ff00;stroke-width:1" />
	<path d = "M325 275 L325 250 L300 250 L300 275 L325 275 Z" stroke = "#00ff00" stroke-width = "1" fill = "none" />	<path d = "M321 271 L313 263 L315 260 " stroke = "#00ff00" stroke-width = "1" fill = "none" />    <line x1="317" y1="258" x2="319" y2="256" style="stroke:#00ff00;stroke-width:1" />
    <line x1="321" y1="254" x2="324" y2="251" style="stroke:#00ff00;stroke-width:1" />
    <line x1="313" y1="263" x2="325" y2="263" style="stroke:#00ff00;stroke-width:1" />
	<path d = "M350 275 L350 250 L325 250 L325 275 L350 275 Z" stroke = "#00ff00" stroke-width = "1" fill = "none" />    <line x1="338" y1="263" x2="338" y2="256" style="stroke:#00ff00;stroke-width:1" />
    <line x1="338" y1="263" x2="331" y2="263" style="stroke:#00ff00;stroke-width:1" />
    <line x1="338" y1="263" x2="338" y2="269" style="stroke:#00ff00;stroke-width:1" />
    <line x1="338" y1="263" x2="344" y2="263" style="stroke:#00ff00;stroke-width:1" />
    <line x1="350" y1="275" x2="354" y2="271" style="stroke:#00ff00;stroke-width:1" />
    <line x1="356" y1="275" x2="361" y2="271" style="stroke:#00ff00;stroke-width:1" />
    <line x1="363" y1="275" x2="367" y2="271" style="stroke:#00ff00;stroke-width:1" />
    <line x1="369" y1="275" x2="373" y2="271" style="stroke:#00ff00;stroke-width:1" />
	<path d = "M375 275 L375 250 L350 250 L350 275 L375 275 Z" stroke = "#00ff00" stroke-width = "1" fill = "none" />    <line x1="356" y1="263" x2="369" y2="263" style="stroke:#00ff00;stroke-width:1" />
    <line x1="369" y1="263" x2="367" y2="265" style="stroke:#00ff00;stroke-width:1" />
    <line x1="369" y1="263" x2="367" y2="260" style="stroke:#00ff00;stroke-width:1" />
	<path d = "M50 325 L50 300 L25 300 L25 325 L50 325 Z" stroke = "#00ff00" stroke-width = "1" fill = "none" />  <path d="M41.919417382415595 316.919417382414           A6.250000000000001 6.250000000000001 0 0 1 33.080582617583744 316.9194173824139" fill = "none" stroke = "#00ff00" stroke-width = "1" />
  <path d="M33.080582617583744 316.9194173824139           A6.250000000000001 6.250000000000001 0 0 1 33.08058261758384 308.080582617582" fill = "none" stroke = "#00ff00" stroke-width = "1" />
  <path d="M33.08058261758384 308.080582617582           A6.250000000000001 6.250000000000001 0 0 1 41.919417382415695 308.08058261758214" fill = "none" stroke = "#00ff00" stroke-width = "1" />
	<path d = "M36 310 L42 308 L40 302 " stroke = "#00ff00" stroke-width = "1" fill = "none" />    <line x1="50" y1="325" x2="54" y2="321" style="stroke:#00ff00;stroke-width:1" />
    <line x1="56" y1="325" x2="61" y2="321" style="stroke:#00ff00;stroke-width:1" />
    <line x1="62" y1="325" x2="67" y2="321" style="stroke:#00ff00;stroke-width:1" />
    <line x1="69" y1="325" x2="73" y2="321" style="stroke:#00ff00;stroke-width:1" />
	<path d = "M75 325 L75 300 L50 300 L50 325 L75 325 Z" stroke = "#00ff00" stroke-width = "1" fill = "none" />    <line x1="56" y1="312" x2="69" y2="312" style="stroke:#00ff00;stroke-width:1" />
    <line x1="69" y1="312" x2="67" y2="315" style="stroke:#00ff00;stroke-width:1" />
    <line x1="69" y1="312" x2="67" y2="310" style="stroke:#00ff00;stroke-width:1" />
	<path d = "M100 325 L100 300 L75 300 L75 325 L100 325 Z" stroke = "#00ff00" stroke-width = "1" fill = "none" />  <path d="M91.91941738241549 316.9194173824152           A6.250000000000001 6.250000000000001 0 0 1 83.08058261758364 316.91941738241496" fill = "none" stroke = "#00ff00" stroke-width = "1" />
  <path d="M83.08058261758364 316.91941738241496           A6.250000000000001 6.250000000000001 0 0 1 83.08058261758387 308.0805826175831" fill = "none" stroke = "#00ff00" stroke-width = "1" />
  <path d="M83.08058261758387 308.0805826175831           A6.250000000000001 6.250000000000001 0 0 1 91.91941738241572 308.08058261758333" fill = "none" stroke = "#00ff00" stroke-width = "1" />
	<path d = "M86 310 L92 308 L90 302 " stroke = "#00ff00" stroke-width = "1" fill = "none" />    <line x1="100" y1="325" x2="104" y2="321" style="stroke:#00ff00;stroke-width:1" />
    <line x1="106" y1="325" x2="111" y2="321" style="stroke:#00ff00;stroke-width:1" />
    <line x1="112" y1="325" x2="117" y2="321" style="stroke:#00ff00;stroke-width:1" />
    <line x1="119" y1="325" x2="123" y2="321" style="stroke:#00ff00;stroke-width:1" />
	<path d = "M125 325 L125 300 L100 300 L100 325 L125 325 Z" stroke = "#00ff00" stroke-width = "1" fill = "none" />    <line x1="106" y1="312" x2="119" y2="313" style="stroke:#00ff00;stroke-width:1" />
    <line x1="119" y1="313" x2="117" y2="315" style="stroke:#00ff00;stroke-width:1" />
    <line x1="119" y1="313" x2="117" y2="310" style="stroke:#00ff00;stroke-width:1" />
    <line x1="125" y1="325" x2="129" y2="321" style="stroke:#00ff00;stroke-width:1" />
    <line x1="131" y1="325" x2="136" y2="321" style="stroke:#00ff00;stroke-width:1" />
    <line x1="137" y1="325" x2="142" y2="321" style="stroke:#00ff00;stroke-width:1" />
    <line x1="144" y1="325" x2="148" y2="321" style="stroke:#00ff00;stroke-width:1" />
	<path d = "M150 325 L150 300 L125 300 L125 325 L150 325 Z" stroke = "#00ff00" stroke-width = "1" fill = "none" />	<path d = "M131 306 L144 306 L144 319 " stroke = "#00ff00" stroke-width = "1" fill = "none" />	<path d = "M139 314 L144 319 L148 314 " stroke = "#00ff00" stroke-width = "1" fill = "none" /><circle cx="144" cy = "319" r = "1" stroke = "#00ff00" stroke-width = "1" fill = "#00ff00" />
	<path d = "M175 325 L175 300 L150 300 L150 325 L175 325 Z" stroke = "#00ff00" stroke-width = "1" fill = "none" />	<path d = "M171 304 L162 313 L171 321 " stroke = "#00ff00" stroke-width = "1" fill = "none" />    <line x1="162" y1="313" x2="166" y2="313" style="stroke:#00ff00;stroke-width:1" />
    <line x1="169" y1="313" x2="172" y2="313" style="stroke:#00ff00;stroke-width:1" />
	<path d = "M200 325 L200 300 L175 300 L175 325 L200 325 Z" stroke = "#00ff00" stroke-width = "1" fill = "none" />	<path d = "M196 304 L187 313 L196 321 " stroke = "#00ff00" stroke-width = "1" fill = "none" />    <line x1="187" y1="313" x2="191" y2="313" style="stroke:#00ff00;stroke-width:1" />
    <line x1="194" y1="313" x2="197" y2="313" style="stroke:#00ff00;stroke-width:1" />
	<path d = "M225 325 L225 300 L200 300 L200 325 L225 325 Z" stroke = "#00ff00" stroke-width = "1" fill = "none" />  <path d="M208.08058261758367 308.0805826175876           A6.250000000000001 6.250000000000001 0 0 1 216.9194173824155 308.0805826175878" fill = "none" stroke = "#00ff00" stroke-width = "1" />
  <path d="M208.08058261758345 316.91941738241945           A6.250000000000001 6.250000000000001 0 0 1 208.08058261758367 308.0805826175876" fill = "none" stroke = "#00ff00" stroke-width = "1" />
  <path d="M216.91941738241525 316.91941738241974           A6.250000000000001 6.250000000000001 0 0 1 208.08058261758345 316.91941738241945" fill = "none" stroke = "#00ff00" stroke-width = "1" />
	<path d = "M215 323 L217 317 L211 315 " stroke = "#00ff00" stroke-width = "1" fill = "none" />	<path d = "M250 325 L250 300 L225 300 L225 325 L250 325 Z" stroke = "#00ff00" stroke-width = "1" fill = "none" />    <line x1="244" y1="313" x2="231" y2="313" style="stroke:#00ff00;stroke-width:1" />
	<path d = "M275 325 L275 300 L250 300 L250 325 L275 325 Z" stroke = "#00ff00" stroke-width = "1" fill = "none" />	<path d = "M259 306 L266 306 L266 313 L269 313 L266 316 L262 319 L259 316 L256 313 L259 313 L259 306 Z" stroke = "#00ff00" stroke-width = "1" fill = "none" />	<path d = "M300 325 L300 300 L275 300 L275 325 L300 325 Z" stroke = "#00ff00" stroke-width = "1" fill = "none" />    <line x1="287" y1="313" x2="287" y2="300" style="stroke:#00ff00;stroke-width:1" />
    <line x1="287" y1="313" x2="298" y2="306" style="stroke:#00ff00;stroke-width:1" />
    <line x1="287" y1="313" x2="298" y2="319" style="stroke:#00ff00;stroke-width:1" />
    <line x1="287" y1="313" x2="287" y2="325" style="stroke:#00ff00;stroke-width:1" />
    <line x1="287" y1="313" x2="277" y2="319" style="stroke:#00ff00;stroke-width:1" />
<circle cx="287" cy = "313" r = "12.500000000000004" stroke = "#00ff00" stroke-width = "1" fill = "none" />
<circle cx="284" cy = "307" r = "1.5625000000000004" stroke = "#00ff00" stroke-width = "1" fill = "none" />
<circle cx="291" cy = "307" r = "1.5625000000000004" stroke = "#00ff00" stroke-width = "1" fill = "none" />
<circle cx="294" cy = "313" r = "1.5625000000000004" stroke = "#00ff00" stroke-width = "1" fill = "none" />
<circle cx="291" cy = "318" r = "1.5625000000000004" stroke = "#00ff00" stroke-width = "1" fill = "none" />
<circle cx="284" cy = "318" r = "1.5625000000000004" stroke = "#00ff00" stroke-width = "1" fill = "none" />
    <line x1="287" y1="313" x2="277" y2="306" style="stroke:#00ff00;stroke-width:1" />
<circle cx="281" cy = "313" r = "1.5625000000000004" stroke = "#00ff00" stroke-width = "1" fill = "none" />
<circle cx="312" cy = "313" r = "6.250000000000002" stroke = "#00ff00" stroke-width = "1" fill = "none" />
	<path d = "M175 25 L262 175 L88 175 L175 25 Z" stroke = "#00ff00" stroke-width = "1" fill = "#00ff00" />	<path d = "M50 225 L50 200 L25 200 L25 225 L50 225 Z" stroke = "#00ff00" stroke-width = "1" fill = "none" />	<path d = "M37 200 L48 219 L27 219 L37 200 Z" stroke = "#00ff00" stroke-width = "1" fill = "#00ff00" />    <circle cx="59" cy = "222" r = "1.5625000000000007" stroke = "#00ff00" stroke-width = "1" fill = "#00ff00" />
    <circle cx="56" cy = "222" r = "1.5625000000000007" stroke = "#00ff00" stroke-width = "1" fill = "#00ff00" />
    <circle cx="56" cy = "219" r = "1.5625000000000007" stroke = "#00ff00" stroke-width = "1" fill = "#00ff00" />
    <circle cx="59" cy = "219" r = "1.5625000000000007" stroke = "#00ff00" stroke-width = "1" fill = "#00ff00" />
    <circle cx="59" cy = "213" r = "1.5625000000000007" stroke = "#00ff00" stroke-width = "1" fill = "#00ff00" />
    <circle cx="56" cy = "213" r = "1.5625000000000007" stroke = "#00ff00" stroke-width = "1" fill = "#00ff00" />
    <circle cx="56" cy = "209" r = "1.5625000000000007" stroke = "#00ff00" stroke-width = "1" fill = "#00ff00" />
    <circle cx="59" cy = "209" r = "1.5625000000000007" stroke = "#00ff00" stroke-width = "1" fill = "#00ff00" />
</svg>