<svg width="400" height="400" viewbox = "0 0 400 400"  xmlns="http://www.w3.org/2000/svg">
<!--<json>{
  "glyph": "0321,0336,0336,0330,0336,0330,0337,0337,0337,0330,0306,0350,0335,0351,0351,0335,0312,0337,0362,0203,0335,0203,0335,0203,0363,0350,0350,0334,0336,0331,0306,0313,0304,0331,0336,0332,0332,0332,0320,0336,0333,01330,01306,01350,01335,01351,01351,01335,01312,01337,0331,0332,0332,0332,0332,0332,0332,0332,0332,0332,0336,0331,0337,01362,01203,01335,01203,01335,01203,01363,01350,01350,0331,0332,0332,0332,0332,0332,0332,0332,0332,0332,0336,0331,0337,01334,01336,01331,01306,0336,0333,0330,0336,0341,0337,0331,0332,0337,",
  "x0": 200,
  "y0": 200,
  "unit": 129.68712300500013,
  "width": 400,
  "height": 400,
  "style": {
    "color0": "black",
    "fill0": "#00000080",
    "line0": 1,
    "color1": "black",
    "fill1": "#00000080",
    "line1": 5,
    "color2": "red",
    "fill2": "red",
    "line2": 4,
    "color3": "#FF7900",
    "fill3": "#FF7900",
    "line3": 4,
    "color4": "yellow",
    "fill4": "yellow",
    "line4": 4,
    "color5": "green",
    "fill5": "green",
    "line5": 4,
    "color6": "blue",
    "fill6": "blue",
    "line6": 4,
    "color7": "purple",
    "fill7": "purple",
    "line7": 4
  },
  "shapes": [
    "0220:0210,0210,0306,0330,0335,0335,0350,0335,0312,0337,0306,0362,0203,0335,0335,0203,0335,0335,0203,0363,0350,0334,0336,0331,0306,0313,0211,0211,",
    "0221:0320,0220,0210,0210,0210,0210,0327,0330,0335,0335,0350,0335,0312,0337,0313,0336,0362,0203,0335,0335,0203,0335,0335,0335,0335,0203,0335,0335,0203,0363,0326,0336,0336,0306,0331,0331,0333,0335,0335,0362,0203,0203,0335,0203,0203,0335,0335,0203,0203,0335,0203,0203,0363,0333,0332,0332,0331,0331,0331,0331,0331,0331,0331,0331,0335,0325,0362,0203,0334,0334,0203,0335,0203,0335,0335,0203,0203,0334,0203,0334,0334,0203,0203,0203,0364,0331,0331,0331,0335,0335,0330,0330,0330,0330,0330,0334,0334,0334,0362,0203,0335,0335,0203,0334,0203,0334,0334,0203,0203,0335,0203,0335,0335,0203,0203,0203,0364,0332,0332,0332,0332,0332,0350,0334,0337,0337,0337,0334,0335,0312,0336,0331,0211,0211,0211,0211,0306,0320,",
    "0222:0320,0220,0327,0336,0336,0350,0335,0306,0362,0203,0334,0203,0334,0334,0203,0334,0203,0363,0331,0334,0334,0320,0336,0336,0330,0333,0330,0335,0335,0362,0203,0335,0203,0335,0335,0203,0335,0203,0363,0330,0332,0337,0337,0331,0334,0331,0350,0335,0351,0337,0337,",
    "0223:0220,0324,0336,064,0365,0337,",
    "0224:0220,0333,0335,0220,0333,0335,0220,0333,0335,0220,0333,0335,0220,0333,0335,0220,0335,0330,",
    "0225:0221,0333,0335,0222,0333,0335,0222,0333,0335,0223,0333,0335,0222,0333,0335,0221,0333,0335,0330,0335,0320,0350,0335,0312,0337,0306,0362,0203,0335,0203,0335,0203,0335,0203,0335,0203,0335,0203,0354,0336,0313,0350,0334,0331,0306,",
    "0230:0304,0327,0336,0331,0336,0336,0330,0335,0362,0203,0203,0203,0203,0203,0335,0203,0203,0335,0203,0203,0203,0203,0203,0203,0203,0203,0203,0203,0335,0203,0203,0335,0203,0203,0203,0203,0203,0363,0334,0331,0320,0336,0333,0337,0334,0306,0335,0362,0203,0334,0334,0203,0334,0203,0334,0334,0203,0363,0333,0362,0203,0335,0335,0203,0335,0203,0335,0335,0203,0363,0331,0335,0330,0333,0362,0203,0335,0335,0203,0335,0203,0335,0335,0203,0363,0332,0332,0332,0332,0332,0362,0203,0334,0334,0203,0334,0203,0334,0334,0203,0363,0332,0331,0332,0331,0334,0362,0203,0334,0334,0203,0334,0203,0334,0334,0203,0363,0333,0333,0333,0333,0335,0304,0334,0313,0336,0332,0337,0337,0337,0330,0337,0306,",
    "0231:0210,0306,0335,0330,0335,0335,0350,0335,0312,0337,0362,0203,0335,0335,0335,0335,0203,0335,0335,0335,0335,0203,0363,0334,0336,0331,0334,0334,0306,0351,0211,",
    "0232:0231,0231,0231,0231,0231,0231,0231,0231,",
    "0233:0220,0336,0210,0232,",
    "0234:0220,0336,0335,0335,0331,0335,0331,0337,0321,0342,0332,0342,0336,0333,0337,0342,0330,0336,0336,0336,0330,0337,0366,0332,0332,0332,0367,0350,0335,0306,0350,0320,0335,0362,0203,0334,0334,0334,0334,0203,0334,0334,0334,0334,0203,0363,0335,0304,0350,0335,0304,0335,0335,0331,0331,0332,01015,0145,0154,0145,0155,0145,0156,0164,040,0144,0157,0167,0156,0365,0330,0330,0330,0330,0330,0333,0333,0333,0336,0332,0337,0333,0337,0337,",
    "0235:0220,0321,0336,0342,0335,0342,0335,0342,0335,0342,0335,0337,",
    "0236:0321,0220,0335,0336,0321,0342,0335,0335,0342,0335,0337,",
    "0237:0220,0336,0331,0332,0336,0321,0342,0335,0342,0335,0342,0335,0342,0335,0330,0330,0333,0333,0337,0337,",
    "01220:0333,0200,0336,0330,0332,0220,0313,0304,0331,0333,0337,",
    "01221:0333,0200,0336,0330,0332,0221,0313,0304,0331,0333,0337,0320,",
    "01222:0333,0200,0336,0330,0332,0222,0313,0304,0331,0333,0337,0320,",
    "01223:0333,0200,0336,0330,0332,0223,0313,0304,0331,0333,0337,0320,",
    "01224:0333,0200,0336,0330,0332,0336,0332,0224,0313,0304,0331,0333,0331,0333,0333,0337,0337,",
    "01225:0333,0200,0336,0330,0332,0336,0332,0225,0313,0304,0331,0331,0333,0333,0333,0337,0337,0320,",
    "01226:0333,0200,0336,0336,0330,0332,0226,0331,0333,0337,0337,",
    "01227:0333,0200,0336,0330,0332,0336,0331,0333,0337,0227,0336,0331,0333,0337,0337,",
    "01230:0333,0200,0336,0330,0332,0336,0331,0330,0230,0313,0304,0331,0333,0331,0333,0337,0337,",
    "01231:0333,0200,0336,0330,0332,0336,0231,0313,0304,0337,0331,0333,0337,",
    "01232:0333,0200,",
    "01233:0333,0200,",
    "01234:0333,0200,",
    "01235:0333,0200,",
    "01236:0333,0200,",
    "01237:0333,0200,",
    "0240:0220,0336,0331,0333,0336,0321,0335,0342,0335,0335,0342,0335,0330,0330,0332,0332,0337,0337,",
    "01240:0333,0200,0336,0330,0332,0210,0240,0211,0333,0331,0337,",
    "0241:0220,0336,0321,0343,0332,0350,0335,0336,0342,0334,0334,0342,0335,0304,0337,0333,0337,",
    "01241:0333,0200,0336,0332,0330,0210,0241,0211,0333,0331,0337,",
    "0242:0220,0321,0336,0343,0333,0336,0350,0335,0342,0334,0334,0342,0335,0337,0304,0332,0337,",
    "01242:0333,0200,0336,0330,0332,0210,0242,0211,0333,0331,0337,",
    "0243:0220,0336,0331,0332,0336,0321,0343,0332,0350,0334,0336,0342,0335,0335,0342,0337,0334,0334,0335,0304,0332,0330,0330,0337,0337,0333,",
    "01243:0333,0200,0336,0330,0332,0210,0243,0211,0333,0331,0337,",
    "0244:0220,0336,0331,0333,0336,0321,0343,0333,0350,0336,0335,0342,0334,0334,0342,0335,0337,0304,0333,0330,0330,0337,0337,0332,",
    "01244:0333,0200,0336,0330,0332,0210,0244,0211,0333,0331,0337,",
    "0245:0210,0332,0332,0362,0335,0203,0203,0203,0203,0334,0203,0363,0332,0332,0331,0211,",
    "01245:0333,0200,0336,0330,0332,0336,0245,0337,0333,0331,0337,",
    "0246:0210,0332,0332,0335,0306,0336,0330,0335,0335,0335,0321,0362,0203,0335,0335,0203,0364,0331,0350,0335,0337,0366,0333,0333,0333,0333,0334,0334,0334,0334,0367,0335,0336,0342,0334,0334,0342,0330,0330,0330,0330,0335,0335,0335,0304,0337,0211,",
    "01246:0333,0200,0336,0330,0332,0336,0246,",
    "0247:0330,0332,0336,0332,0336,0221,0333,0333,0333,0222,0333,0333,0333,0223,0333,0333,0333,0225,0333,0331,0331,0331,0332,0332,0332,0332,0332,0332,0332,0332,0332,0332,0332,0332,0333,0333,0226,0331,0331,0331,0333,0333,0333,0333,0333,0333,0333,0333,0333,0333,0333,0333,0333,0330,0333,0330,0330,0333,0330,0331,0332,0332,0332,0332,0332,0332,0332,0332,0332,0332,0332,0332,0227,0333,0333,0333,0230,0333,0331,0331,0331,0331,0332,0332,0332,0330,0332,0332,0332,0332,0332,0332,0333,0333,0231,0333,0333,0333,0232,0331,0333,0330,0333,0333,0233,0333,0333,0333,0234,0330,0330,0332,0330,0332,0332,0337,0337,",
    "01247:0333,0200,0336,0330,0332,0220,0336,0247,0337,0331,0333,0337,"
  ]
}</json>-->	<path d = "M200 22 L312 216 L88 216 L200 22 Z" stroke = "#000000" stroke-width = "5" fill = "rgba(0, 0, 0, 0.5)" />	<path d = "M70 281 L70 249 L38 249 L38 281 L70 281 Z" stroke = "#000000" stroke-width = "1" fill = "none" />	<path d = "M58 273 L50 273 L50 265 L46 265 L50 261 L54 257 L58 261 L62 265 L58 265 L58 273 Z" stroke = "#000000" stroke-width = "1" fill = "none" />	<path d = "M103 281 L103 249 L70 249 L70 281 L103 281 Z" stroke = "#000000" stroke-width = "1" fill = "none" />    <line x1="87" y1="265" x2="87" y2="249" style="stroke:#000000;stroke-width:1" />
    <line x1="87" y1="265" x2="101" y2="257" style="stroke:#000000;stroke-width:1" />
    <line x1="87" y1="265" x2="101" y2="273" style="stroke:#000000;stroke-width:1" />
    <line x1="87" y1="265" x2="87" y2="281" style="stroke:#000000;stroke-width:1" />
    <line x1="87" y1="265" x2="72" y2="273" style="stroke:#000000;stroke-width:1" />
<circle cx="87" cy = "265" r = "16.210890375625016" stroke = "#000000" stroke-width = "1" fill = "none" />
<circle cx="82" cy = "258" r = "2.026361296953127" stroke = "#000000" stroke-width = "1" fill = "none" />
<circle cx="91" cy = "258" r = "2.026361296953127" stroke = "#000000" stroke-width = "1" fill = "none" />
<circle cx="95" cy = "265" r = "2.026361296953127" stroke = "#000000" stroke-width = "1" fill = "none" />
<circle cx="91" cy = "272" r = "2.026361296953127" stroke = "#000000" stroke-width = "1" fill = "none" />
<circle cx="82" cy = "272" r = "2.026361296953127" stroke = "#000000" stroke-width = "1" fill = "none" />
    <line x1="87" y1="265" x2="72" y2="257" style="stroke:#000000;stroke-width:1" />
<circle cx="78" cy = "265" r = "2.026361296953127" stroke = "#000000" stroke-width = "1" fill = "none" />
	<path d = "M135 281 L135 249 L103 249 L103 281 L135 281 Z" stroke = "#000000" stroke-width = "1" fill = "none" />	<path d = "M130 253 L119 265 L130 276 " stroke = "#000000" stroke-width = "1" fill = "none" />    <line x1="119" y1="265" x2="123" y2="265" style="stroke:#000000;stroke-width:1" />
    <line x1="127" y1="265" x2="131" y2="265" style="stroke:#000000;stroke-width:1" />
	<path d = "M168 281 L168 249 L135 249 L135 281 L168 281 Z" stroke = "#000000" stroke-width = "1" fill = "none" />  <path d="M157.0987441299633 270.57497675933786           A8.105445187812508 8.105445187812508 0 0 1 145.63591361628713 270.5749767593379" fill = "none" stroke = "#000000" stroke-width = "1" />
  <path d="M145.63591361628713 270.5749767593379           A8.105445187812508 8.105445187812508 0 0 1 145.63591361628707 259.1121462456617" fill = "none" stroke = "#000000" stroke-width = "1" />
  <path d="M145.63591361628707 259.1121462456617           A8.105445187812508 8.105445187812508 0 0 1 157.09874412996325 259.1121462456616" fill = "none" stroke = "#000000" stroke-width = "1" />
	<path d = "M150 262 L157 259 L154 252 " stroke = "#000000" stroke-width = "1" fill = "none" />	<path d = "M200 281 L200 249 L168 249 L168 281 L200 281 Z" stroke = "#000000" stroke-width = "1" fill = "none" />	<path d = "M195 276 L184 265 L187 262 " stroke = "#000000" stroke-width = "1" fill = "none" />    <line x1="190" y1="259" x2="192" y2="256" style="stroke:#000000;stroke-width:1" />
    <line x1="195" y1="253" x2="198" y2="251" style="stroke:#000000;stroke-width:1" />
    <line x1="184" y1="265" x2="200" y2="265" style="stroke:#000000;stroke-width:1" />
	<path d = "M232 281 L232 249 L200 249 L200 281 L232 281 Z" stroke = "#000000" stroke-width = "1" fill = "none" />	<path d = "M228 276 L216 265 L219 262 " stroke = "#000000" stroke-width = "1" fill = "none" />    <line x1="222" y1="259" x2="225" y2="256" style="stroke:#000000;stroke-width:1" />
    <line x1="228" y1="253" x2="231" y2="251" style="stroke:#000000;stroke-width:1" />
    <line x1="216" y1="265" x2="232" y2="265" style="stroke:#000000;stroke-width:1" />
	<path d = "M265 281 L265 249 L232 249 L232 281 L265 281 Z" stroke = "#000000" stroke-width = "1" fill = "none" />  <path d="M254.36408638371338 270.5749767593372           A8.105445187812508 8.105445187812508 0 0 1 242.9012558700372 270.57497675933723" fill = "none" stroke = "#000000" stroke-width = "1" />
  <path d="M242.9012558700372 270.57497675933723           A8.105445187812508 8.105445187812508 0 0 1 242.90125587003715 259.112146245661" fill = "none" stroke = "#000000" stroke-width = "1" />
  <path d="M242.90125587003715 259.112146245661           A8.105445187812508 8.105445187812508 0 0 1 254.36408638371333 259.11214624566094" fill = "none" stroke = "#000000" stroke-width = "1" />
	<path d = "M247 262 L254 259 L251 252 " stroke = "#000000" stroke-width = "1" fill = "none" />	<path d = "M297 281 L297 249 L265 249 L265 281 L297 281 Z" stroke = "#000000" stroke-width = "1" fill = "none" />	<path d = "M297 281 L281 253 L265 281 " stroke = "#000000" stroke-width = "1" fill = "none" />    <line x1="281" y1="272" x2="281" y2="253" style="stroke:#000000;stroke-width:1" />
    <line x1="281" y1="272" x2="297" y2="281" style="stroke:#000000;stroke-width:1" />
    <line x1="281" y1="272" x2="265" y2="281" style="stroke:#000000;stroke-width:1" />
	<path d = "M330 281 L330 249 L297 249 L297 281 L330 281 Z" stroke = "#000000" stroke-width = "1" fill = "none" />    <line x1="313" y1="265" x2="313" y2="257" style="stroke:#000000;stroke-width:1" />
    <line x1="313" y1="265" x2="305" y2="265" style="stroke:#000000;stroke-width:1" />
    <line x1="313" y1="265" x2="313" y2="273" style="stroke:#000000;stroke-width:1" />
    <line x1="313" y1="265" x2="322" y2="265" style="stroke:#000000;stroke-width:1" />
	<path d = "M70 330 L70 297 L38 297 L38 330 L70 330 Z" stroke = "#000000" stroke-width = "1" fill = "none" /><circle cx="46" cy = "322" r = "1" stroke = "#000000" stroke-width = "1" fill = "#000000" />
	<path d = "M46 322 L46 305 L62 305 " stroke = "#000000" stroke-width = "1" fill = "none" />	<path d = "M56 300 L62 305 L56 311 " stroke = "#000000" stroke-width = "1" fill = "none" />    <line x1="70" y1="330" x2="76" y2="324" style="stroke:#000000;stroke-width:1" />
    <line x1="78" y1="330" x2="84" y2="324" style="stroke:#000000;stroke-width:1" />
    <line x1="87" y1="330" x2="92" y2="324" style="stroke:#000000;stroke-width:1" />
    <line x1="95" y1="330" x2="100" y2="324" style="stroke:#000000;stroke-width:1" />
	<path d = "M103 330 L103 297 L70 297 L70 330 L103 330 Z" stroke = "#000000" stroke-width = "1" fill = "none" />    <line x1="78" y1="313" x2="95" y2="313" style="stroke:#000000;stroke-width:1" />
    <line x1="95" y1="313" x2="92" y2="316" style="stroke:#000000;stroke-width:1" />
    <line x1="95" y1="313" x2="92" y2="311" style="stroke:#000000;stroke-width:1" />
	<path d = "M135 330 L135 297 L103 297 L103 330 L135 330 Z" stroke = "#000000" stroke-width = "1" fill = "none" />  <path d="M124.67696337871361 319.20764788621295           A8.105445187812508 8.105445187812508 0 0 1 113.2141328650374 319.207647886213" fill = "none" stroke = "#000000" stroke-width = "1" />
  <path d="M113.2141328650374 319.207647886213           A8.105445187812508 8.105445187812508 0 0 1 113.21413286503737 307.74481737253683" fill = "none" stroke = "#000000" stroke-width = "1" />
  <path d="M113.21413286503737 307.74481737253683           A8.105445187812508 8.105445187812508 0 0 1 124.67696337871355 307.74481737253683" fill = "none" stroke = "#000000" stroke-width = "1" />
	<path d = "M117 311 L125 308 L122 300 " stroke = "#000000" stroke-width = "1" fill = "none" />    <line x1="135" y1="330" x2="141" y2="324" style="stroke:#000000;stroke-width:1" />
    <line x1="143" y1="330" x2="149" y2="324" style="stroke:#000000;stroke-width:1" />
    <line x1="151" y1="330" x2="157" y2="324" style="stroke:#000000;stroke-width:1" />
    <line x1="159" y1="330" x2="165" y2="324" style="stroke:#000000;stroke-width:1" />
	<path d = "M168 330 L168 297 L135 297 L135 330 L168 330 Z" stroke = "#000000" stroke-width = "1" fill = "none" />    <line x1="143" y1="313" x2="159" y2="313" style="stroke:#000000;stroke-width:1" />
    <line x1="159" y1="313" x2="157" y2="316" style="stroke:#000000;stroke-width:1" />
    <line x1="159" y1="313" x2="157" y2="311" style="stroke:#000000;stroke-width:1" />
	<path d = "M200 330 L200 297 L168 297 L168 330 L200 330 Z" stroke = "#000000" stroke-width = "1" fill = "none" />  <path d="M189.52052488121367 319.2076478862129           A8.105445187812508 8.105445187812508 0 0 1 178.05769436753747 319.2076478862129" fill = "none" stroke = "#000000" stroke-width = "1" />
  <path d="M178.05769436753747 319.2076478862129           A8.105445187812508 8.105445187812508 0 0 1 178.05769436753747 307.7448173725367" fill = "none" stroke = "#000000" stroke-width = "1" />
  <path d="M178.05769436753747 307.7448173725367           A8.105445187812508 8.105445187812508 0 0 1 189.52052488121365 307.7448173725367" fill = "none" stroke = "#000000" stroke-width = "1" />
	<path d = "M182 311 L190 308 L186 300 " stroke = "#000000" stroke-width = "1" fill = "none" />    <line x1="200" y1="330" x2="206" y2="324" style="stroke:#000000;stroke-width:1" />
    <line x1="208" y1="330" x2="214" y2="324" style="stroke:#000000;stroke-width:1" />
    <line x1="216" y1="330" x2="222" y2="324" style="stroke:#000000;stroke-width:1" />
    <line x1="224" y1="330" x2="230" y2="324" style="stroke:#000000;stroke-width:1" />
	<path d = "M232 330 L232 297 L200 297 L200 330 L232 330 Z" stroke = "#000000" stroke-width = "1" fill = "none" />    <line x1="208" y1="313" x2="224" y2="313" style="stroke:#000000;stroke-width:1" />
    <line x1="224" y1="313" x2="221" y2="316" style="stroke:#000000;stroke-width:1" />
    <line x1="224" y1="313" x2="221" y2="311" style="stroke:#000000;stroke-width:1" />
    <line x1="232" y1="330" x2="238" y2="324" style="stroke:#000000;stroke-width:1" />
    <line x1="241" y1="330" x2="246" y2="324" style="stroke:#000000;stroke-width:1" />
    <line x1="249" y1="330" x2="254" y2="324" style="stroke:#000000;stroke-width:1" />
    <line x1="257" y1="330" x2="262" y2="324" style="stroke:#000000;stroke-width:1" />
	<path d = "M265 330 L265 297 L232 297 L232 330 L265 330 Z" stroke = "#000000" stroke-width = "1" fill = "none" />	<path d = "M241 305 L257 305 L257 322 " stroke = "#000000" stroke-width = "1" fill = "none" />	<path d = "M251 316 L257 322 L262 316 " stroke = "#000000" stroke-width = "1" fill = "none" /><circle cx="257" cy = "322" r = "1" stroke = "#000000" stroke-width = "1" fill = "#000000" />
	<path d = "M297 330 L297 297 L265 297 L265 330 L297 330 Z" stroke = "#000000" stroke-width = "1" fill = "none" />	<path d = "M293 302 L281 313 L293 325 " stroke = "#000000" stroke-width = "1" fill = "none" />    <line x1="281" y1="313" x2="285" y2="313" style="stroke:#000000;stroke-width:1" />
    <line x1="289" y1="313" x2="293" y2="313" style="stroke:#000000;stroke-width:1" />
	<path d = "M330 330 L330 297 L297 297 L297 330 L330 330 Z" stroke = "#000000" stroke-width = "1" fill = "none" />	<path d = "M325 302 L313 313 L325 325 " stroke = "#000000" stroke-width = "1" fill = "none" />    <line x1="313" y1="313" x2="318" y2="313" style="stroke:#000000;stroke-width:1" />
    <line x1="322" y1="313" x2="326" y2="313" style="stroke:#000000;stroke-width:1" />
	<path d = "M70 378 L70 346 L38 346 L38 378 L70 378 Z" stroke = "#000000" stroke-width = "1" fill = "none" />  <path d="M48.37057136253736 356.377488499413           A8.105445187812508 8.105445187812508 0 0 1 59.833401876213564 356.3774884994129" fill = "none" stroke = "#000000" stroke-width = "1" />
  <path d="M48.370571362537476 367.8403190130892           A8.105445187812508 8.105445187812508 0 0 1 48.37057136253736 356.377488499413" fill = "none" stroke = "#000000" stroke-width = "1" />
  <path d="M59.83340187621367 367.8403190130891           A8.105445187812508 8.105445187812508 0 0 1 48.370571362537476 367.8403190130892" fill = "none" stroke = "#000000" stroke-width = "1" />
	<path d = "M57 375 L60 368 L52 365 " stroke = "#000000" stroke-width = "1" fill = "none" />	<path d = "M103 378 L103 346 L70 346 L70 378 L103 378 Z" stroke = "#000000" stroke-width = "1" fill = "none" />    <line x1="95" y1="362" x2="78" y2="362" style="stroke:#000000;stroke-width:1" />
	<path d = "M135 378 L135 346 L103 346 L103 378 L135 378 Z" stroke = "#000000" stroke-width = "1" fill = "none" />	<path d = "M115 354 L123 354 L123 362 L127 362 L123 366 L119 370 L115 366 L111 362 L115 362 L115 354 Z" stroke = "#000000" stroke-width = "1" fill = "none" />	<path d = "M168 378 L168 346 L135 346 L135 378 L168 378 Z" stroke = "#000000" stroke-width = "1" fill = "none" />    <line x1="151" y1="362" x2="151" y2="346" style="stroke:#000000;stroke-width:1" />
    <line x1="151" y1="362" x2="165" y2="354" style="stroke:#000000;stroke-width:1" />
    <line x1="151" y1="362" x2="165" y2="370" style="stroke:#000000;stroke-width:1" />
    <line x1="151" y1="362" x2="151" y2="378" style="stroke:#000000;stroke-width:1" />
    <line x1="151" y1="362" x2="137" y2="370" style="stroke:#000000;stroke-width:1" />
<circle cx="151" cy = "362" r = "16.210890375625016" stroke = "#000000" stroke-width = "1" fill = "none" />
<circle cx="147" cy = "355" r = "2.026361296953127" stroke = "#000000" stroke-width = "1" fill = "none" />
<circle cx="155" cy = "355" r = "2.026361296953127" stroke = "#000000" stroke-width = "1" fill = "none" />
<circle cx="159" cy = "362" r = "2.026361296953127" stroke = "#000000" stroke-width = "1" fill = "none" />
<circle cx="155" cy = "369" r = "2.026361296953127" stroke = "#000000" stroke-width = "1" fill = "none" />
<circle cx="147" cy = "369" r = "2.026361296953127" stroke = "#000000" stroke-width = "1" fill = "none" />
    <line x1="151" y1="362" x2="137" y2="354" style="stroke:#000000;stroke-width:1" />
<circle cx="143" cy = "362" r = "2.026361296953127" stroke = "#000000" stroke-width = "1" fill = "none" />
<circle cx="184" cy = "362" r = "8.105445187812508" stroke = "#000000" stroke-width = "1" fill = "none" />
</svg>