<svg width="600" height="500" viewbox = "0 0 600 500"  xmlns="http://www.w3.org/2000/svg">
<!--<json>{
  "glyph": "0332,0332,0332,0332,0332,0332,0330,0330,0330,0330,0335,0362,0203,0203,0203,0203,0203,0203,0203,0203,0203,0203,0203,0203,0335,0203,0335,0203,0334,0336,0316,0336,0203,0203,0203,0203,0203,0203,0334,0337,0313,0337,0203,0335,0203,0203,0203,0203,0336,0316,0336,0203,0203,0203,0203,0203,0203,0203,0203,0335,0337,0203,0203,0334,0336,0203,0203,0203,0203,0203,0203,0334,0337,0203,0203,0335,0313,0337,0203,0335,0203,0203,0203,0203,0203,0203,0203,0203,0203,0203,0203,0203,0335,0203,0335,0203,0334,0336,0316,0336,0203,0203,0203,0203,0203,0203,0334,0337,0203,0203,0335,0313,0337,0203,0203,0203,0203,0336,0316,0336,0203,0203,0203,0203,0203,0203,0203,0203,0335,0337,0203,0203,0334,0336,0203,0203,0203,0203,0203,0203,0334,0337,0203,0203,0335,0313,0337,0203,0354,0333,0333,0333,0333,0333,0333,0331,0331,0331,0331,0336,0316,0336,0330,0330,0330,0334,0337,0313,0337,0362,0203,0203,0336,0203,0336,0203,0334,0337,0316,0336,0203,0203,0203,0203,0203,0203,0334,0337,0313,0203,0203,0203,0203,0203,0336,0203,0337,0337,0203,0203,0336,0336,0203,0203,0203,0334,0337,0316,0336,0203,0203,0203,0203,0203,0203,0334,0337,0203,0203,0203,0203,0203,0313,0336,0203,0354,0335,0337,0316,0336,0331,0331,0331,0337,0313,0337,",
  "x0": 300,
  "y0": 250,
  "unit": 45.45454545454545,
  "width": 600,
  "height": 500,
  "style": {
    "color0": "black",
    "fill0": "black",
    "line0": 1,
    "color1": "black",
    "fill1": "black",
    "line1": 5,
    "color2": "red",
    "fill2": "red",
    "line2": 4,
    "color3": "#FF7900",
    "fill3": "#FF7900",
    "line3": 4,
    "color4": "yellow",
    "fill4": "yellow",
    "line4": 4,
    "color5": "green",
    "fill5": "green",
    "line5": 4,
    "color6": "blue",
    "fill6": "blue",
    "line6": 4,
    "color7": "purple",
    "fill7": "purple",
    "line7": 4
  },
  "shapes": [
    "0220:0201,0335,0313,0336,0201,0316,0336,0201,0335,0337,0313,0337,0201,0335,0336,0330,0316,0336,0330,0335,0337,0313,0337,",
    "0221:0201,0334,0336,0201,0316,0336,0201,0334,0337,0313,0337,0201,0335,0335,0336,0333,0316,0336,0333,0337,0313,0337,",
    "0222:0330,0330,0330,0330,0334,0362,0203,0203,0203,0203,0203,0203,0334,0203,0203,0203,0203,0203,0203,0203,0203,0334,0203,0203,0203,0203,0203,0203,0203,0203,0203,0203,0203,0203,0334,0203,0203,0203,0203,0203,0203,0203,0203,0334,0203,0203,0203,0203,0203,0203,0354,0335,0331,0331,0331,0331,",
    "0223:0332,0332,0336,0336,0332,0332,0332,0337,0337,0313,0336,0316,0336,0362,0203,0203,0203,0337,0313,0337,0335,0203,0203,0203,0203,0203,0336,0203,0335,0337,0313,0336,0316,0336,0203,0203,0203,0203,0203,0203,0335,0337,0313,0337,0203,0203,0203,0203,0203,0336,0203,0335,0337,0336,0316,0336,0203,0203,0203,0354,0337,0313,0333,0333,0333,0333,0336,0333,0333,0333,0337,0337,",
    "0224:0222,0223,0333,0333,0333,0333,0333,0330,0330,0330,0333,0334,0221,0332,0332,0332,0332,0332,0332,0220,0330,0330,0330,0330,0330,0330,0330,0330,0330,0330,0330,0330,0335,0335,0221,0332,0332,0332,0332,0332,0332,0220,0334,0331,0331,0331,0333,0333,0333,0333,0333,0333,",
    "0225:0336,0201,0336,0330,0340,0330,0337,0337,",
    "0226:0336,0362,0203,0203,0334,0203,0203,0203,0203,0203,0203,0203,0203,0203,0203,0203,0203,0334,0203,0203,0334,0336,0336,0203,0203,0203,0334,0337,0337,0203,0335,0336,0316,0336,0203,0203,0203,0203,0203,0203,0335,0337,0203,0203,0334,0314,0313,0337,0203,0203,0203,0203,0203,0203,0203,0203,0203,0336,0316,0336,0203,0203,0203,0334,0337,0203,0203,0335,0336,0203,0203,0203,0203,0203,0203,0335,0337,0203,0203,0334,0313,0337,0336,0336,0203,0203,0203,0354,0334,0337,0337,0337,",
    "0227:0334,0362,0203,0203,0203,0203,0336,0203,0335,0337,0203,0336,0203,0335,0337,0203,0336,0336,0203,0203,0203,0334,0337,0337,0203,0203,0203,0203,0336,0203,0335,0203,0337,0203,0203,0203,0203,0203,0335,0203,0203,0203,0203,0336,0203,0334,0337,0203,0336,0336,0203,0203,0203,0335,0337,0337,0203,0336,0203,0335,0337,0203,0203,0203,0203,0336,0203,0354,0335,0330,0330,0330,0330,0330,0330,0330,0330,0330,0330,0330,0330,0337,0331,0330,0332,0332,0332,0336,0336,0333,0337,0337,0335,0333,0330,0362,0203,0203,0203,0336,0203,0337,0335,0203,0336,0203,0335,0337,0203,0203,0203,0336,0203,0336,0335,0337,0337,0203,0336,0203,0354,0333,0333,0333,0336,0333,0337,0331,0331,0331,0331,0331,0331,0331,0331,0331,0331,0337,",
    "0231:0321,0342,0330,0320,0336,0230,0331,0331,0337,0350,0335,0304,",
    "0232:0231,0231,0231,0231,0231,0231,0231,0231,",
    "0233:0220,0336,0210,0232,",
    "0234:0220,0336,0335,0335,0331,0335,0331,0337,0321,0342,0332,0342,0336,0333,0337,0342,0330,0336,0336,0336,0330,0337,0366,0332,0332,0332,0367,0350,0335,0306,0350,0320,0335,0362,0203,0334,0334,0334,0334,0203,0334,0334,0334,0334,0203,0363,0335,0304,0350,0335,0304,0335,0335,0331,0331,0332,01015,0145,0154,0145,0155,0145,0156,0164,040,0144,0157,0167,0156,0365,0330,0330,0330,0330,0330,0333,0333,0333,0336,0332,0337,0333,0337,0337,",
    "0235:0220,0321,0336,0342,0335,0342,0335,0342,0335,0342,0335,0337,",
    "0236:0321,0220,0335,0336,0321,0342,0335,0335,0342,0335,0337,",
    "0237:0220,0336,0331,0332,0336,0321,0342,0335,0342,0335,0342,0335,0342,0335,0330,0330,0333,0333,0337,0337,",
    "01220:0333,0200,0336,0330,0332,0336,0335,0335,0342,0335,0335,0220,0331,0331,0333,0333,0337,0337,",
    "01221:0333,0200,0336,0330,0332,0336,0335,0335,0342,0334,0334,0221,0331,0331,0333,0333,0337,0337,",
    "01222:0333,0200,0336,0330,0332,0336,0336,0336,0222,0337,0337,0331,0333,0336,0331,0333,0331,0333,0337,0337,0337,",
    "01223:0333,0200,0336,0330,0332,0336,0331,0330,0336,0223,0337,0333,0333,0331,0331,0337,0337,",
    "01224:0333,0200,0336,0330,0332,0336,0336,0336,0224,0337,0337,0337,0331,0333,0337,",
    "01225:0333,0200,0336,0332,0336,0336,0225,0225,0225,0225,0225,0225,0225,0225,0333,0333,0333,0333,0337,0337,0331,0331,0337,",
    "01226:0333,0200,0336,0336,0330,0332,0226,0331,0333,0337,0337,",
    "01227:0333,0200,0336,0330,0332,0336,0331,0333,0337,0227,0336,0331,0333,0337,0337,",
    "01230:0333,0200,0336,0330,0332,0336,0331,0330,0230,0331,0331,0333,0333,0337,0337,",
    "01231:0333,0200,",
    "01232:0333,0200,",
    "01233:0333,0200,",
    "01234:0333,0200,",
    "01235:0333,0200,",
    "01236:0333,0200,",
    "01237:0333,0200,",
    "0240:0220,0336,0331,0333,0336,0321,0335,0342,0335,0335,0342,0335,0330,0330,0332,0332,0337,0337,",
    "01240:0333,0200,0336,0330,0332,0210,0240,0211,0333,0331,0337,",
    "0241:0220,0336,0321,0343,0332,0350,0335,0336,0342,0334,0334,0342,0335,0304,0337,0333,0337,",
    "01241:0333,0200,0336,0332,0330,0210,0241,0211,0333,0331,0337,",
    "0242:0220,0321,0336,0343,0333,0336,0350,0335,0342,0334,0334,0342,0335,0337,0304,0332,0337,",
    "01242:0333,0200,0336,0330,0332,0210,0242,0211,0333,0331,0337,",
    "0243:0220,0336,0331,0332,0336,0321,0343,0332,0350,0334,0336,0342,0335,0335,0342,0337,0334,0334,0335,0304,0332,0330,0330,0337,0337,0333,",
    "01243:0333,0200,0336,0330,0332,0210,0243,0211,0333,0331,0337,",
    "0244:0220,0336,0331,0333,0336,0321,0343,0333,0350,0336,0335,0342,0334,0334,0342,0335,0337,0304,0333,0330,0330,0337,0337,0332,",
    "01244:0333,0200,0336,0330,0332,0210,0244,0211,0333,0331,0337,",
    "0245:0210,0332,0332,0362,0335,0203,0203,0203,0203,0334,0203,0363,0332,0332,0331,0211,",
    "01245:0333,0200,0336,0330,0332,0336,0245,0337,0333,0331,0337,",
    "0246:0210,0332,0332,0335,0306,0336,0330,0335,0335,0335,0321,0362,0203,0335,0335,0203,0364,0331,0350,0335,0337,0366,0333,0333,0333,0333,0334,0334,0334,0334,0367,0335,0336,0342,0334,0334,0342,0330,0330,0330,0330,0335,0335,0335,0304,0337,0211,",
    "01246:0333,0200,0336,0330,0332,0336,0246,",
    "0247:0330,0332,0336,0332,0336,0221,0333,0333,0333,0222,0333,0333,0333,0223,0333,0333,0333,0225,0333,0331,0331,0331,0332,0332,0332,0332,0332,0332,0332,0332,0332,0332,0332,0332,0333,0333,0226,0331,0331,0331,0333,0333,0333,0333,0333,0333,0333,0333,0333,0333,0333,0333,0333,0330,0333,0330,0330,0333,0330,0331,0332,0332,0332,0332,0332,0332,0332,0332,0332,0332,0332,0332,0227,0333,0333,0333,0230,0333,0331,0331,0331,0331,0332,0332,0332,0330,0332,0332,0332,0332,0332,0332,0333,0333,0231,0333,0333,0333,0232,0331,0333,0330,0333,0333,0233,0333,0333,0333,0234,0330,0330,0332,0330,0332,0332,0337,0337,",
    "01247:0333,0200,0336,0330,0332,0220,0336,0247,0337,0331,0333,0337,"
  ]
}</json>-->	<path d = "M27 68 L73 68 L118 68 L164 68 L209 68 L255 68 L300 68 L345 68 L391 68 L436 68 L482 68 L527 68 L573 68 L573 114 L527 114 L527 118 L527 123 L527 127 L527 132 L527 136 L527 141 L573 141 L573 186 L573 232 L573 277 L573 323 L573 327 L573 332 L573 336 L573 341 L573 345 L573 350 L573 355 L573 359 L550 359 L527 359 L527 364 L527 368 L527 373 L527 377 L527 382 L527 386 L550 386 L573 386 L573 432 L527 432 L482 432 L436 432 L391 432 L345 432 L300 432 L255 432 L209 432 L164 432 L118 432 L73 432 L27 432 L27 386 L73 386 L73 382 L73 377 L73 373 L73 368 L73 364 L73 359 L50 359 L27 359 L27 314 L27 268 L27 223 L27 177 L27 173 L27 168 L27 164 L27 159 L27 155 L27 150 L27 145 L27 141 L50 141 L73 141 L73 136 L73 132 L73 127 L73 123 L73 118 L73 114 L50 114 L27 114 L27 68 Z" stroke = "#000000" stroke-width = "1" fill = "none" />	<path d = "M300 236 L255 236 L209 236 L186 236 L175 236 L175 241 L175 245 L175 250 L175 255 L175 259 L175 264 L198 264 L220 264 L243 264 L266 264 L289 264 L300 264 L345 264 L391 264 L402 264 L414 264 L425 264 L425 259 L425 255 L425 250 L425 245 L425 241 L425 236 L402 236 L380 236 L357 236 L334 236 L311 236 L300 236 Z" stroke = "#000000" stroke-width = "1" fill = "none" /></svg>