<svg width="600" height="500" viewbox = "0 0 600 500"  xmlns="http://www.w3.org/2000/svg">
<!--<json>{
  "glyph": "0321,0340,0224,0332,0331,0331,0331,0331,0332,0332,0332,0332,0332,0332,0334,0336,0331,0337,0366,0333,0333,0333,0333,0330,0335,0335,0367,0366,0334,0334,0331,0333,0333,0333,0333,0367,0335,0331,0331,0331,0332,0332,0331,0331,0336,0330,0336,0330,0337,070,042,0365,0331,0331,0331,0331,0331,0331,0331,0333,0333,0333,0333,0333,0331,0336,0330,0337,0335,0335,0337,0336,0330,0337,0366,0335,0335,0331,0333,0333,0333,0333,0333,0333,0367,0366,0335,0335,0331,0332,0332,0332,0332,0332,0332,0367,0335,0335,0331,0332,0332,0332,0332,0332,0332,0336,0336,0331,0332,0331,0331,0337,061,062,042,0365,0330,0330,0330,0330,0336,0330,0333,0337,0337,0337,0337,0337,0336,0336,0330,0320,0330,0331,0336,0331,0331,0225,0225,0225,0225,0225,0225,0225,0225,0331,0331,0331,0331,0332,0332,0332,0332,0332,0332,0335,0225,0225,0225,0225,0225,0225,0225,0225,0225,0225,0225,0225,0334,0330,0332,0332,0332,0332,0331,0336,0336,0330,0337,0350,0321,0335,0342,0334,0334,0342,0335,0331,0335,0335,0335,0342,0335,0335,0342,0334,0342,0335,0335,0335,0335,0330,0337,0342,0330,0313,0304,0336,0336,0336,0330,0332,0332,0332,0337,0337,060,056,066,042,0365,0336,0336,0333,0333,0333,0331,0337,0337,0331,0331,0331,0331,0331,0333,0336,0333,0337,0335,0335,0331,0337,0342,0336,0330,0335,0350,0335,0342,0334,0334,0342,0335,0337,0362,0203,0336,0203,0364,0304,0335,0336,0331,0332,0332,0332,0332,0332,0336,0333,0337,0337,065,056,065,042,0365,0336,0336,0332,0337,0333,0333,0333,0333,0333,0330,0337,0332,0332,0332,0334,0362,0203,0203,0203,0203,0203,0335,0364,0335,0350,0334,0342,0335,0335,0342,0334,0334,0334,0304,0330,0330,0333,0333,0333,0333,0333,0336,0333,0337,0331,0331,0331,0331,0331,0331,0331,0331,0332,0332,0332,0337,0330,0336,0336,0331,0331,0331,0337,0337,0332,0332,0332,0332,0336,0332,0337,0330,0333,0331,0335,0336,0330,0334,0330,0330,0332,0335,0336,0337,0337,0334,0336,0316,0336,0313,0337,0314,0337,0335,0313,0336,0336,0330,0337,0366,0332,0335,0335,0331,0367,0366,0335,0335,0331,0332,0367,0334,0336,0332,0337,0337,0331,0313,0336,0314,0336,0316,0337,0313,0337,0336,0333,0336,0330,0333,0336,0331,0332,0337,0337,060,056,066,042,0365,0332,0336,0336,0331,0332,0337,0337,0337,0335,0336,0336,0330,0366,0333,0333,0335,0335,0331,0367,0366,0330,0335,0335,0333,0333,0367,0334,0333,0333,0330,0337,061,042,0365,0330,0330,0330,0332,0336,0332,0366,0332,0332,0330,0335,0335,0367,0366,0335,0335,0331,0332,0332,0367,0333,0333,0330,0336,0330,0332,0337,0337,061,042,0365,",
  "x0": 323.30134553650703,
  "y0": 231.69865446349294,
  "unit": 37.56574004507888,
  "width": 600,
  "height": 500,
  "style": {
    "color0": "black",
    "fill0": "black",
    "line0": 1,
    "color1": "black",
    "fill1": "black",
    "line1": 5,
    "color2": "red",
    "fill2": "red",
    "line2": 4,
    "color3": "#FF7900",
    "fill3": "#FF7900",
    "line3": 4,
    "color4": "yellow",
    "fill4": "yellow",
    "line4": 4,
    "color5": "green",
    "fill5": "green",
    "line5": 4,
    "color6": "blue",
    "fill6": "blue",
    "line6": 4,
    "color7": "purple",
    "fill7": "purple",
    "line7": 4
  },
  "shapes": [
    "0220:0201,0335,0313,0336,0201,0316,0336,0201,0335,0337,0313,0337,0201,0335,0336,0330,0316,0336,0330,0335,0337,0313,0337,",
    "0221:0201,0334,0336,0201,0316,0336,0201,0334,0337,0313,0337,0201,0335,0335,0336,0333,0316,0336,0333,0337,0313,0337,",
    "0222:0330,0330,0330,0330,0334,0362,0203,0203,0203,0203,0203,0203,0334,0203,0203,0203,0203,0203,0203,0203,0203,0334,0203,0203,0203,0203,0203,0203,0203,0203,0203,0203,0203,0203,0334,0203,0203,0203,0203,0203,0203,0203,0203,0334,0203,0203,0203,0203,0203,0203,0354,0335,0331,0331,0331,0331,",
    "0223:0332,0332,0336,0336,0332,0332,0332,0337,0337,0313,0336,0316,0336,0362,0203,0203,0203,0337,0313,0337,0335,0203,0203,0203,0203,0203,0336,0203,0335,0337,0313,0336,0316,0336,0203,0203,0203,0203,0203,0203,0335,0337,0313,0337,0203,0203,0203,0203,0203,0336,0203,0335,0337,0336,0316,0336,0203,0203,0203,0354,0337,0313,0333,0333,0333,0333,0336,0333,0333,0333,0337,0337,",
    "0224:0222,0223,0333,0333,0333,0333,0333,0330,0330,0330,0333,0334,0221,0332,0332,0332,0332,0332,0332,0220,0330,0330,0330,0330,0330,0330,0330,0330,0330,0330,0330,0330,0335,0335,0221,0332,0332,0332,0332,0332,0332,0220,0334,0331,0331,0331,0333,0333,0333,0333,0333,0333,",
    "0225:0336,0201,0336,0330,0340,0330,0337,0337,",
    "0231:0321,0342,0330,0320,0336,0230,0331,0331,0337,0350,0335,0304,",
    "0232:0231,0231,0231,0231,0231,0231,0231,0231,",
    "0233:0220,0336,0210,0232,",
    "0234:0220,0336,0335,0335,0331,0335,0331,0337,0321,0342,0332,0342,0336,0333,0337,0342,0330,0336,0336,0336,0330,0337,0366,0332,0332,0332,0367,0350,0335,0306,0350,0320,0335,0362,0203,0334,0334,0334,0334,0203,0334,0334,0334,0334,0203,0363,0335,0304,0350,0335,0304,0335,0335,0331,0331,0332,01015,0145,0154,0145,0155,0145,0156,0164,040,0144,0157,0167,0156,0365,0330,0330,0330,0330,0330,0333,0333,0333,0336,0332,0337,0333,0337,0337,",
    "0235:0220,0321,0336,0342,0335,0342,0335,0342,0335,0342,0335,0337,",
    "0236:0321,0220,0335,0336,0321,0342,0335,0335,0342,0335,0337,",
    "0237:0220,0336,0331,0332,0336,0321,0342,0335,0342,0335,0342,0335,0342,0335,0330,0330,0333,0333,0337,0337,",
    "01220:0333,0200,0336,0330,0332,0336,0335,0335,0342,0335,0335,0220,0331,0331,0333,0333,0337,0337,",
    "01221:0333,0200,0336,0330,0332,0336,0335,0335,0342,0334,0334,0221,0331,0331,0333,0333,0337,0337,",
    "01222:0333,0200,0336,0330,0332,0336,0336,0336,0222,0337,0337,0331,0333,0336,0331,0333,0331,0333,0337,0337,0337,",
    "01223:0333,0200,0336,0330,0332,0336,0331,0330,0336,0223,0337,0333,0333,0331,0331,0337,0337,",
    "01224:0333,0200,0336,0330,0332,0336,0336,0336,0224,0337,0337,0337,0331,0333,0337,",
    "01225:0333,0200,0336,0332,0336,0336,0225,0225,0225,0225,0225,0225,0225,0225,0333,0333,0333,0333,0337,0337,0331,0331,0337,",
    "01226:0333,0200,0336,0336,0330,0332,0226,0331,0333,0337,0337,",
    "01227:0333,0200,0336,0330,0332,0336,0331,0333,0337,0227,0336,0331,0333,0337,0337,",
    "01230:0333,0200,0336,0330,0332,0336,0331,0330,0230,0331,0331,0333,0333,0337,0337,",
    "01231:0333,0200,",
    "01232:0333,0200,",
    "01233:0333,0200,",
    "01234:0333,0200,",
    "01235:0333,0200,",
    "01236:0333,0200,",
    "01237:0333,0200,",
    "0240:0220,0336,0331,0333,0336,0321,0335,0342,0335,0335,0342,0335,0330,0330,0332,0332,0337,0337,",
    "01240:0333,0200,0336,0330,0332,0210,0240,0211,0333,0331,0337,",
    "0241:0220,0336,0321,0343,0332,0350,0335,0336,0342,0334,0334,0342,0335,0304,0337,0333,0337,",
    "01241:0333,0200,0336,0332,0330,0210,0241,0211,0333,0331,0337,",
    "0242:0220,0321,0336,0343,0333,0336,0350,0335,0342,0334,0334,0342,0335,0337,0304,0332,0337,",
    "01242:0333,0200,0336,0330,0332,0210,0242,0211,0333,0331,0337,",
    "0243:0220,0336,0331,0332,0336,0321,0343,0332,0350,0334,0336,0342,0335,0335,0342,0337,0334,0334,0335,0304,0332,0330,0330,0337,0337,0333,",
    "01243:0333,0200,0336,0330,0332,0210,0243,0211,0333,0331,0337,",
    "0244:0220,0336,0331,0333,0336,0321,0343,0333,0350,0336,0335,0342,0334,0334,0342,0335,0337,0304,0333,0330,0330,0337,0337,0332,",
    "01244:0333,0200,0336,0330,0332,0210,0244,0211,0333,0331,0337,",
    "0245:0210,0332,0332,0362,0335,0203,0203,0203,0203,0334,0203,0363,0332,0332,0331,0211,",
    "01245:0333,0200,0336,0330,0332,0336,0245,0337,0333,0331,0337,",
    "0246:0210,0332,0332,0335,0306,0336,0330,0335,0335,0335,0321,0362,0203,0335,0335,0203,0364,0331,0350,0335,0337,0366,0333,0333,0333,0333,0334,0334,0334,0334,0367,0335,0336,0342,0334,0334,0342,0330,0330,0330,0330,0335,0335,0335,0304,0337,0211,",
    "01246:0333,0200,0336,0330,0332,0336,0246,",
    "0247:0330,0332,0336,0332,0336,0221,0333,0333,0333,0222,0333,0333,0333,0223,0333,0333,0333,0225,0333,0331,0331,0331,0332,0332,0332,0332,0332,0332,0332,0332,0332,0332,0332,0332,0333,0333,0226,0331,0331,0331,0333,0333,0333,0333,0333,0333,0333,0333,0333,0333,0333,0333,0333,0330,0333,0330,0330,0333,0330,0331,0332,0332,0332,0332,0332,0332,0332,0332,0332,0332,0332,0332,0227,0333,0333,0333,0230,0333,0331,0331,0331,0331,0332,0332,0332,0330,0332,0332,0332,0332,0332,0332,0333,0333,0231,0333,0333,0333,0232,0331,0333,0330,0333,0333,0233,0333,0333,0333,0234,0330,0330,0332,0330,0332,0332,0337,0337,",
    "01247:0333,0200,0336,0330,0332,0220,0336,0247,0337,0331,0333,0337,"
  ]
}</json>--><circle cx="323" cy = "232" r = "5" stroke = "#000000" stroke-width = "5" fill = "#000000" />
	<path d = "M323 81 L286 81 L248 81 L211 81 L173 81 L135 81 L98 81 L98 119 L98 157 L98 194 L98 232 L98 269 L98 307 L98 344 L98 382 L135 382 L173 382 L211 382 L248 382 L286 382 L323 382 L361 382 L398 382 L436 382 L474 382 L511 382 L549 382 L549 344 L549 307 L549 269 L549 232 L549 194 L549 157 L549 119 L549 81 L511 81 L474 81 L436 81 L398 81 L361 81 L323 81 Z" stroke = "#000000" stroke-width = "5" fill = "none" />	<path d = "M220 232 L220 228 L220 224 L220 220 L258 220 L295 220 L333 220 L370 220 L408 220 L427 220 L427 224 L427 228 L427 232 L427 235 L427 239 L427 243 L389 243 L351 243 L314 243 L276 243 L239 243 L220 243 L220 239 L220 235 L220 232 Z" stroke = "#000000" stroke-width = "5" fill = "none" />    <line x1="549" y1="119" x2="511" y2="119" style="stroke:#000000;stroke-width:5" />
    <line x1="511" y1="119" x2="511" y2="138" style="stroke:#000000;stroke-width:5" />
    <line x1="511" y1="138" x2="511" y2="142" style="stroke:#000000;stroke-width:5" />
    <line x1="511" y1="142" x2="549" y2="142" style="stroke:#000000;stroke-width:5" />
    <line x1="549" y1="344" x2="511" y2="344" style="stroke:#000000;stroke-width:5" />
    <line x1="511" y1="344" x2="511" y2="326" style="stroke:#000000;stroke-width:5" />
    <line x1="511" y1="326" x2="511" y2="322" style="stroke:#000000;stroke-width:5" />
    <line x1="511" y1="322" x2="549" y2="322" style="stroke:#000000;stroke-width:5" />
    <line x1="98" y1="344" x2="135" y2="344" style="stroke:#000000;stroke-width:5" />
    <line x1="135" y1="344" x2="135" y2="326" style="stroke:#000000;stroke-width:5" />
    <line x1="135" y1="326" x2="135" y2="322" style="stroke:#000000;stroke-width:5" />
    <line x1="135" y1="322" x2="98" y2="322" style="stroke:#000000;stroke-width:5" />
    <line x1="98" y1="119" x2="135" y2="119" style="stroke:#000000;stroke-width:5" />
    <line x1="135" y1="119" x2="135" y2="138" style="stroke:#000000;stroke-width:5" />
    <line x1="135" y1="138" x2="135" y2="142" style="stroke:#000000;stroke-width:5" />
    <line x1="135" y1="142" x2="98" y2="142" style="stroke:#000000;stroke-width:5" />
<path    d = "M79,382 C42,382 79,232 42,232" fill = "none" stroke-width = "5" stroke = "#000000" /><path    d = "M42,232 C79,232 42,81 79,81" fill = "none" stroke-width = "5" stroke = "#000000" />    <text x="4" y = "241" fill = "#000000" font-size = "18.78287002253944px" font-family = "Arial">8"</text>
<path    d = "M98,401 C98,438 323,401 323,438" fill = "none" stroke-width = "5" stroke = "#000000" /><path    d = "M323,438 C323,401 549,438 549,401" fill = "none" stroke-width = "5" stroke = "#000000" />    <text x="314" y = "466" fill = "#000000" font-size = "18.78287002253944px" font-family = "Arial">12"</text>
    <line x1="323" y1="382" x2="323" y2="363" style="stroke:#000000;stroke-width:1" />
<circle cx="323" cy = "354" r = "1" stroke = "#000000" stroke-width = "1" fill = "#000000" />
    <line x1="323" y1="344" x2="323" y2="326" style="stroke:#000000;stroke-width:1" />
<circle cx="323" cy = "316" r = "1" stroke = "#000000" stroke-width = "1" fill = "#000000" />
    <line x1="323" y1="307" x2="323" y2="288" style="stroke:#000000;stroke-width:1" />
<circle cx="323" cy = "279" r = "1" stroke = "#000000" stroke-width = "1" fill = "#000000" />
    <line x1="323" y1="269" x2="323" y2="250" style="stroke:#000000;stroke-width:1" />
<circle cx="323" cy = "241" r = "1" stroke = "#000000" stroke-width = "1" fill = "#000000" />
    <line x1="323" y1="232" x2="323" y2="213" style="stroke:#000000;stroke-width:1" />
<circle cx="323" cy = "204" r = "1" stroke = "#000000" stroke-width = "1" fill = "#000000" />
    <line x1="323" y1="194" x2="323" y2="175" style="stroke:#000000;stroke-width:1" />
<circle cx="323" cy = "166" r = "1" stroke = "#000000" stroke-width = "1" fill = "#000000" />
    <line x1="323" y1="157" x2="323" y2="138" style="stroke:#000000;stroke-width:1" />
<circle cx="323" cy = "128" r = "1" stroke = "#000000" stroke-width = "1" fill = "#000000" />
    <line x1="323" y1="119" x2="323" y2="100" style="stroke:#000000;stroke-width:1" />
<circle cx="323" cy = "91" r = "1" stroke = "#000000" stroke-width = "1" fill = "#000000" />
    <line x1="98" y1="232" x2="117" y2="232" style="stroke:#000000;stroke-width:1" />
<circle cx="126" cy = "232" r = "1" stroke = "#000000" stroke-width = "1" fill = "#000000" />
    <line x1="135" y1="232" x2="154" y2="232" style="stroke:#000000;stroke-width:1" />
<circle cx="164" cy = "232" r = "1" stroke = "#000000" stroke-width = "1" fill = "#000000" />
    <line x1="173" y1="232" x2="192" y2="232" style="stroke:#000000;stroke-width:1" />
<circle cx="201" cy = "232" r = "1" stroke = "#000000" stroke-width = "1" fill = "#000000" />
    <line x1="211" y1="232" x2="229" y2="232" style="stroke:#000000;stroke-width:1" />
<circle cx="239" cy = "232" r = "1" stroke = "#000000" stroke-width = "1" fill = "#000000" />
    <line x1="248" y1="232" x2="267" y2="232" style="stroke:#000000;stroke-width:1" />
<circle cx="276" cy = "232" r = "1" stroke = "#000000" stroke-width = "1" fill = "#000000" />
    <line x1="286" y1="232" x2="305" y2="232" style="stroke:#000000;stroke-width:1" />
<circle cx="314" cy = "232" r = "1" stroke = "#000000" stroke-width = "1" fill = "#000000" />
    <line x1="323" y1="232" x2="342" y2="232" style="stroke:#000000;stroke-width:1" />
<circle cx="351" cy = "232" r = "1" stroke = "#000000" stroke-width = "1" fill = "#000000" />
    <line x1="361" y1="232" x2="380" y2="232" style="stroke:#000000;stroke-width:1" />
<circle cx="389" cy = "232" r = "1" stroke = "#000000" stroke-width = "1" fill = "#000000" />
    <line x1="398" y1="232" x2="417" y2="232" style="stroke:#000000;stroke-width:1" />
<circle cx="427" cy = "232" r = "1" stroke = "#000000" stroke-width = "1" fill = "#000000" />
    <line x1="436" y1="232" x2="455" y2="232" style="stroke:#000000;stroke-width:1" />
<circle cx="464" cy = "232" r = "1" stroke = "#000000" stroke-width = "1" fill = "#000000" />
    <line x1="474" y1="232" x2="492" y2="232" style="stroke:#000000;stroke-width:1" />
<circle cx="502" cy = "232" r = "1" stroke = "#000000" stroke-width = "1" fill = "#000000" />
    <line x1="511" y1="232" x2="530" y2="232" style="stroke:#000000;stroke-width:1" />
<circle cx="539" cy = "232" r = "1" stroke = "#000000" stroke-width = "1" fill = "#000000" />
    <line x1="398" y1="222" x2="412" y2="209" style="stroke:#000000;stroke-width:5" />
    <line x1="398" y1="222" x2="385" y2="209" style="stroke:#000000;stroke-width:5" />
    <line x1="398" y1="241" x2="412" y2="254" style="stroke:#000000;stroke-width:5" />
    <line x1="398" y1="241" x2="385" y2="254" style="stroke:#000000;stroke-width:5" />
    <line x1="398" y1="241" x2="398" y2="260" style="stroke:#000000;stroke-width:5" />
    <line x1="398" y1="222" x2="398" y2="185" style="stroke:#000000;stroke-width:5" />
    <text x="384" y = "180" fill = "#000000" font-size = "18.78287002253944px" font-family = "Arial">0.6"</text>
    <line x1="427" y1="260" x2="427" y2="297" style="stroke:#000000;stroke-width:5" />
    <line x1="427" y1="279" x2="413" y2="265" style="stroke:#000000;stroke-width:5" />
    <line x1="427" y1="279" x2="413" y2="292" style="stroke:#000000;stroke-width:5" />
	<path d = "M427 279 L389 279 L370 279 " stroke = "#000000" stroke-width = "5" fill = "none" />    <text x="328" y = "288" fill = "#000000" font-size = "18.78287002253944px" font-family = "Arial">5.5"</text>
	<path d = "M314 279 L295 279 L276 279 L258 279 L239 279 L220 279 " stroke = "#000000" stroke-width = "5" fill = "none" />    <line x1="220" y1="279" x2="233" y2="265" style="stroke:#000000;stroke-width:5" />
    <line x1="220" y1="279" x2="233" y2="292" style="stroke:#000000;stroke-width:5" />
<path    d = "M141,344 C152,344 141,333 152,333" fill = "none" stroke-width = "5" stroke = "#000000" /><path    d = "M152,333 C141,333 152,322 141,322" fill = "none" stroke-width = "5" stroke = "#000000" />    <text x="159" y = "340" fill = "#000000" font-size = "18.78287002253944px" font-family = "Arial">0.6"</text>
<path    d = "M145,344 C154,344 145,363 154,363" fill = "none" stroke-width = "5" stroke = "#000000" /><path    d = "M154,363 C145,363 154,382 145,382" fill = "none" stroke-width = "5" stroke = "#000000" />    <text x="164" y = "373" fill = "#000000" font-size = "18.78287002253944px" font-family = "Arial">1"</text>
<path    d = "M135,316 C135,307 117,316 117,307" fill = "none" stroke-width = "5" stroke = "#000000" /><path    d = "M117,307 C117,316 98,307 98,316" fill = "none" stroke-width = "5" stroke = "#000000" />    <text x="112" y = "302" fill = "#000000" font-size = "18.78287002253944px" font-family = "Arial">1"</text>
</svg>