<svg width="600" height="600" viewbox = "0 0 600 600"  xmlns="http://www.w3.org/2000/svg">
<!--<json>{
  "glyph": "0332,0332,0236,0331,0331,0331,0331,0236,0333,0333,0333,0333,0236,0330,0330,0330,0330,0236,",
  "x0": 178.75284877535773,
  "y0": 317.7814192947978,
  "unit": 60.50000000000002,
  "width": 600,
  "height": 600,
  "style": {
    "color0": "black",
    "fill0": "black",
    "line0": 1,
    "color1": "black",
    "fill1": "black",
    "line1": 5,
    "color2": "red",
    "fill2": "red",
    "line2": 4,
    "color3": "#FF7900",
    "fill3": "#FF7900",
    "line3": 4,
    "color4": "yellow",
    "fill4": "yellow",
    "line4": 4,
    "color5": "green",
    "fill5": "green",
    "line5": 4,
    "color6": "blue",
    "fill6": "blue",
    "line6": 4,
    "color7": "purple",
    "fill7": "purple",
    "line7": 4
  },
  "shapes": [
    "0220:0313,0336,0316,0336,0335,0362,0203,0203,0203,0203,0203,0203,0203,0364,0335,0313,0336,0362,0203,0335,0203,0334,0203,0335,0203,0334,0203,0203,0335,0203,0334,0203,0203,0335,0203,0334,0203,0335,0334,0203,0335,0203,0334,0203,0335,0203,0334,0203,0203,0335,0203,0334,0203,0364,0334,0337,0362,0203,0203,0203,0203,0203,0203,0203,0203,0203,0203,0203,0203,0203,0203,0364,0334,0336,0362,0203,0334,0203,0335,0203,0203,0334,0203,0335,0203,0334,0203,0335,0203,0203,0334,0203,0335,0203,0203,0334,0203,0335,0203,0203,0334,0203,0335,0203,0334,0203,0335,0203,0364,0337,0335,0362,0203,0203,0203,0203,0203,0203,0203,0203,0203,0203,0203,0203,0335,0336,0203,0335,0203,0334,0203,0203,0335,0203,0334,0203,0335,0203,0334,0203,0203,0335,0203,0334,0203,0203,0335,0203,0334,0203,0335,0203,0334,0203,0203,0335,0203,0334,0203,0364,0334,0337,0362,0203,0203,0203,0203,0203,0203,0203,0203,0203,0203,0203,0203,0203,0203,0364,0334,0336,0362,0203,0334,0203,0335,0203,0203,0334,0203,0335,0203,0334,0203,0335,0203,0203,0334,0203,0335,0203,0203,0334,0203,0335,0203,0334,0203,0335,0203,0203,0334,0203,0335,0203,0335,0364,0337,0362,0203,0203,0203,0203,0203,0203,0203,0364,0334,0337,0316,0337,0313,",
    "0221:0335,0362,0203,0336,0336,0203,0337,0364,0334,0316,0336,0362,0203,0203,0203,0203,0203,0203,0364,0337,0335,0362,0203,0203,0203,0364,0335,0336,0362,0203,0203,0203,0203,0203,0203,0364,0334,0337,0313,0362,0337,0203,0336,0336,0203,0364,0334,0337,0337,",
    "0222:0220,0335,0335,0362,0203,0203,0203,0203,0364,0335,0335,0335,0335,0220,0335,0221,0335,",
    "0223:0313,0336,0316,0336,0331,0331,0331,0331,0331,0331,0335,0335,0362,0203,0203,0203,0203,0203,0203,0203,0203,0203,0203,0203,0203,0203,0203,0203,0203,0203,0203,0203,0203,0203,0203,0203,0203,0203,0203,0203,0203,0364,0330,0330,0330,0330,0330,0330,0334,0334,0337,0313,0337,",
    "0224:0313,0336,0316,0336,0331,0331,0331,0331,0331,0331,0335,0362,0203,0203,0203,0203,0203,0203,0203,0334,0203,0203,0203,0203,0203,0203,0335,0203,0203,0203,0203,0203,0203,0203,0335,0203,0203,0203,0203,0203,0203,0334,0203,0203,0203,0203,0203,0203,0203,0203,0203,0203,0203,0203,0334,0203,0203,0203,0203,0203,0203,0335,0203,0203,0203,0203,0203,0203,0203,0335,0203,0203,0203,0203,0203,0203,0334,0203,0203,0203,0203,0203,0203,0203,0364,0334,0330,0330,0330,0330,0330,0330,0337,0313,0337,",
    "0225:0313,0336,0316,0336,0335,0333,0333,0333,0333,0333,0333,0362,0203,0203,0203,0203,0203,0203,0334,0203,0203,0203,0203,0203,0203,0335,0203,0203,0203,0203,0203,0203,0203,0203,0203,0335,0203,0203,0203,0203,0203,0203,0334,0203,0203,0203,0203,0203,0203,0203,0203,0203,0203,0334,0203,0203,0203,0203,0203,0203,0335,0203,0203,0203,0203,0203,0203,0203,0203,0203,0335,0203,0203,0203,0203,0203,0203,0334,0203,0203,0203,0203,0203,0203,0364,0334,0330,0330,0330,0330,0330,0330,0337,0313,0337,",
    "0226:0313,0336,0316,0336,0335,0333,0333,0333,0333,0333,0333,0362,0203,0203,0203,0203,0203,0334,0203,0203,0203,0203,0203,0203,0335,0203,0203,0203,0203,0203,0203,0203,0203,0203,0203,0203,0335,0203,0203,0203,0203,0203,0203,0334,0203,0203,0203,0203,0203,0203,0203,0203,0334,0203,0203,0203,0203,0203,0203,0335,0203,0203,0203,0203,0203,0203,0203,0203,0203,0203,0203,0335,0203,0203,0203,0203,0203,0203,0334,0203,0203,0203,0203,0203,0334,0364,0330,0330,0330,0330,0330,0330,0337,0313,0337,",
    "0227:0313,0336,0316,0336,0335,0333,0333,0333,0333,0333,0333,0362,0203,0203,0203,0203,0334,0203,0203,0203,0203,0203,0203,0335,0203,0203,0203,0203,0203,0203,0203,0203,0203,0203,0203,0203,0203,0335,0203,0203,0203,0203,0203,0203,0334,0203,0203,0203,0203,0203,0203,0334,0203,0203,0203,0203,0203,0203,0335,0203,0203,0203,0203,0203,0203,0203,0203,0203,0203,0203,0203,0203,0335,0203,0203,0203,0203,0203,0203,0334,0203,0203,0203,0203,0364,0334,0330,0330,0330,0330,0330,0330,0337,0313,0337,",
    "0230:0224,0223,0335,0335,0224,0335,0234,0335,",
    "0231:0225,0223,0335,0335,0225,0335,0234,0335,",
    "0232:0226,0223,0335,0335,0226,0335,0234,0335,",
    "0233:0227,0223,0335,0335,0227,0335,0234,0335,",
    "0234:0313,0336,0316,0336,0333,0333,0333,0333,0333,0333,0335,0362,0203,0203,0203,0203,0203,0203,0313,0336,0203,0334,0337,0203,0203,0203,0203,0203,0203,0335,0203,0203,0203,0203,0203,0203,0203,0203,0203,0203,0203,0203,0203,0203,0203,0335,0203,0203,0203,0203,0203,0203,0334,0336,0203,0337,0203,0203,0203,0203,0203,0203,0364,0334,0333,0333,0333,0333,0333,0333,0337,0316,0337,0313,",
    "0235:0313,0335,0336,0362,0203,0203,0336,0203,0334,0337,0316,0336,0203,0203,0203,0203,0203,0203,0335,0337,0203,0203,0203,0335,0336,0203,0203,0203,0203,0203,0203,0334,0337,0313,0203,0203,0336,0203,0364,0334,0337,0337,",
    "0236:0235,0334,0235,0334,0235,0334,0235,0334,",
    "01220:0333,0200,0336,0330,0332,0336,0332,0330,0332,0220,0331,0331,0331,0337,0337,",
    "01221:0333,0200,0336,0330,0332,0336,0334,0336,0332,0221,0335,0331,0333,0333,0331,0331,0331,0333,0331,0331,0331,0333,0337,0337,0337,",
    "01222:0333,0200,0336,0330,0332,0336,0336,0330,0332,0332,0330,0222,0337,0331,0333,0331,0333,0331,0333,0337,0337,",
    "01223:0333,0200,0330,0336,0332,0336,0223,0333,0333,0337,0337,",
    "01224:0333,0200,0336,0330,0332,0336,0332,0332,0224,0331,0331,0337,0337,",
    "01225:0333,0200,0336,0330,0332,0336,0332,0332,0225,0331,0331,0337,0337,",
    "01226:0333,0200,0336,0330,0332,0336,0332,0332,0226,0331,0331,0337,0337,",
    "01227:0333,0200,0336,0330,0332,0336,0332,0332,0227,0331,0331,0337,0337,",
    "01230:0333,0200,0336,0330,0332,0336,0330,0332,0336,0230,0331,0331,0331,0331,0331,0331,0333,0333,0333,0333,0333,0333,0337,0337,0337,0336,0332,0101,0365,0333,0337,",
    "01231:0333,0200,0336,0330,0332,0336,0330,0332,0330,0336,0332,0331,0331,0333,0231,0331,0331,0333,0331,0333,0331,0333,0333,0331,0331,0333,0333,0337,0337,0337,0336,0332,0102,0365,0333,0337,",
    "01232:0333,0200,0336,0330,0332,0336,0330,0332,0336,0232,0331,0333,0333,0331,0331,0331,0331,0331,0333,0333,0333,0333,0337,0337,0337,0336,0332,0103,0365,0333,0337,",
    "01233:0333,0200,0336,0330,0332,0336,0336,0330,0332,0330,0332,0233,0333,0331,0331,0331,0331,0331,0333,0331,0333,0333,0333,0333,0337,0337,0337,0336,0332,0104,0365,0333,0337,",
    "01234:0333,0200,0336,0330,0332,0336,0332,0336,0332,0332,0337,0234,0331,0331,0337,0337,",
    "01235:0333,0200,0336,0330,0332,0336,0331,0332,0330,0332,0235,0331,0331,0337,0337,",
    "01236:0333,0200,0336,0330,0332,0336,0336,0331,0332,0332,0331,0332,0236,0331,0331,0333,0333,0333,0333,0333,0333,0333,0337,0337,0337,",
    "01237:0333,0200,",
    "0240:0220,0336,0331,0333,0336,0321,0335,0342,0335,0335,0342,0335,0330,0330,0332,0332,0337,0337,",
    "01240:0333,0200,0336,0330,0332,0210,0240,0211,0333,0331,0337,",
    "0241:0220,0336,0321,0343,0332,0350,0335,0336,0342,0334,0334,0342,0335,0304,0337,0333,0337,",
    "01241:0333,0200,0336,0332,0330,0210,0241,0211,0333,0331,0337,",
    "0242:0220,0321,0336,0343,0333,0336,0350,0335,0342,0334,0334,0342,0335,0337,0304,0332,0337,",
    "01242:0333,0200,0336,0330,0332,0210,0242,0211,0333,0331,0337,",
    "0243:0220,0336,0331,0332,0336,0321,0343,0332,0350,0334,0336,0342,0335,0335,0342,0337,0334,0334,0335,0304,0332,0330,0330,0337,0337,0333,",
    "01243:0333,0200,0336,0330,0332,0210,0243,0211,0333,0331,0337,",
    "0244:0220,0336,0331,0333,0336,0321,0343,0333,0350,0336,0335,0342,0334,0334,0342,0335,0337,0304,0333,0330,0330,0337,0337,0332,",
    "01244:0333,0200,0336,0330,0332,0210,0244,0211,0333,0331,0337,",
    "0245:0210,0332,0332,0362,0335,0203,0203,0203,0203,0334,0203,0363,0332,0332,0331,0211,",
    "01245:0333,0200,0336,0330,0332,0336,0245,0337,0333,0331,0337,",
    "0246:0210,0332,0332,0335,0306,0336,0330,0335,0335,0335,0321,0362,0203,0335,0335,0203,0364,0331,0350,0335,0337,0366,0333,0333,0333,0333,0334,0334,0334,0334,0367,0335,0336,0342,0334,0334,0342,0330,0330,0330,0330,0335,0335,0335,0304,0337,0211,",
    "01246:0333,0200,0336,0330,0332,0336,0246,",
    "0247:0330,0332,0336,0332,0336,0221,0333,0333,0333,0222,0333,0333,0333,0223,0333,0333,0333,0225,0333,0331,0331,0331,0332,0332,0332,0332,0332,0332,0332,0332,0332,0332,0332,0332,0333,0333,0226,0331,0331,0331,0333,0333,0333,0333,0333,0333,0333,0333,0333,0333,0333,0333,0333,0330,0333,0330,0330,0333,0330,0331,0332,0332,0332,0332,0332,0332,0332,0332,0332,0332,0332,0332,0227,0333,0333,0333,0230,0333,0331,0331,0331,0331,0332,0332,0332,0330,0332,0332,0332,0332,0332,0332,0333,0333,0231,0333,0333,0333,0232,0331,0333,0330,0333,0333,0233,0333,0333,0333,0234,0330,0330,0332,0330,0332,0332,0337,0337,",
    "01247:0333,0200,0336,0330,0332,0220,0336,0247,0337,0331,0333,0337,"
  ]
}</json>-->	<path d = "M58 318 L88 318 L118 318 L133 318 L133 312 L133 306 L133 300 L133 294 L133 288 L133 281 L164 281 L194 281 L224 281 L224 288 L224 294 L224 300 L224 306 L224 312 L224 318 L254 318 L285 318 L300 318 " stroke = "#000000" stroke-width = "1" fill = "none" />	<path d = "M300 318 L300 288 L300 257 L300 242 L294 242 L288 242 L282 242 L276 242 L270 242 L263 242 L263 212 L263 182 L263 151 L270 151 L276 151 L282 151 L288 151 L294 151 L300 151 L300 121 L300 91 L300 76 " stroke = "#000000" stroke-width = "1" fill = "none" />	<path d = "M300 76 L270 76 L239 76 L224 76 L224 82 L224 88 L224 94 L224 100 L224 106 L224 112 L194 112 L164 112 L133 112 L133 106 L133 100 L133 94 L133 88 L133 82 L133 76 L103 76 L73 76 L58 76 " stroke = "#000000" stroke-width = "1" fill = "none" />	<path d = "M58 76 L58 106 L58 136 L58 151 L64 151 L70 151 L76 151 L82 151 L88 151 L94 151 L94 182 L94 212 L94 242 L88 242 L82 242 L76 242 L70 242 L64 242 L58 242 L58 272 L58 303 L58 318 " stroke = "#000000" stroke-width = "1" fill = "none" />	<path d = "M58 560 L88 560 L118 560 L133 560 L133 554 L133 548 L133 542 L133 536 L133 530 L133 523 L164 523 L194 523 L224 523 L224 530 L224 536 L224 542 L224 548 L224 554 L224 560 L254 560 L285 560 L300 560 " stroke = "#000000" stroke-width = "1" fill = "none" />	<path d = "M300 560 L300 530 L300 499 L300 484 L294 484 L288 484 L282 484 L276 484 L270 484 L263 484 L263 454 L263 424 L263 393 L270 393 L276 393 L282 393 L288 393 L294 393 L300 393 L300 363 L300 333 L300 318 " stroke = "#000000" stroke-width = "1" fill = "none" />	<path d = "M300 318 L270 318 L239 318 L224 318 L224 324 L224 330 L224 336 L224 342 L224 348 L224 354 L194 354 L164 354 L133 354 L133 348 L133 342 L133 336 L133 330 L133 324 L133 318 L103 318 L73 318 L58 318 " stroke = "#000000" stroke-width = "1" fill = "none" />	<path d = "M58 318 L58 348 L58 378 L58 393 L64 393 L70 393 L76 393 L82 393 L88 393 L94 393 L94 424 L94 454 L94 484 L88 484 L82 484 L76 484 L70 484 L64 484 L58 484 L58 514 L58 545 L58 560 " stroke = "#000000" stroke-width = "1" fill = "none" />	<path d = "M300 560 L330 560 L360 560 L375 560 L375 554 L375 548 L375 542 L375 536 L375 530 L375 523 L406 523 L436 523 L466 523 L466 530 L466 536 L466 542 L466 548 L466 554 L466 560 L496 560 L527 560 L542 560 " stroke = "#000000" stroke-width = "1" fill = "none" />	<path d = "M542 560 L542 530 L542 499 L542 484 L536 484 L530 484 L524 484 L518 484 L512 484 L505 484 L505 454 L505 424 L505 393 L512 393 L518 393 L524 393 L530 393 L536 393 L542 393 L542 363 L542 333 L542 318 " stroke = "#000000" stroke-width = "1" fill = "none" />	<path d = "M542 318 L512 318 L481 318 L466 318 L466 324 L466 330 L466 336 L466 342 L466 348 L466 354 L436 354 L406 354 L375 354 L375 348 L375 342 L375 336 L375 330 L375 324 L375 318 L345 318 L315 318 L300 318 " stroke = "#000000" stroke-width = "1" fill = "none" />	<path d = "M300 318 L300 348 L300 378 L300 393 L306 393 L312 393 L318 393 L324 393 L330 393 L336 393 L336 424 L336 454 L336 484 L330 484 L324 484 L318 484 L312 484 L306 484 L300 484 L300 514 L300 545 L300 560 " stroke = "#000000" stroke-width = "1" fill = "none" />	<path d = "M300 318 L330 318 L360 318 L375 318 L375 312 L375 306 L375 300 L375 294 L375 288 L375 281 L406 281 L436 281 L466 281 L466 288 L466 294 L466 300 L466 306 L466 312 L466 318 L496 318 L527 318 L542 318 " stroke = "#000000" stroke-width = "1" fill = "none" />	<path d = "M542 318 L542 288 L542 257 L542 242 L536 242 L530 242 L524 242 L518 242 L512 242 L505 242 L505 212 L505 182 L505 151 L512 151 L518 151 L524 151 L530 151 L536 151 L542 151 L542 121 L542 91 L542 76 " stroke = "#000000" stroke-width = "1" fill = "none" />	<path d = "M542 76 L512 76 L481 76 L466 76 L466 82 L466 88 L466 94 L466 100 L466 106 L466 112 L436 112 L406 112 L375 112 L375 106 L375 100 L375 94 L375 88 L375 82 L375 76 L345 76 L315 76 L300 76 " stroke = "#000000" stroke-width = "1" fill = "none" />	<path d = "M300 76 L300 106 L300 136 L300 151 L306 151 L312 151 L318 151 L324 151 L330 151 L336 151 L336 182 L336 212 L336 242 L330 242 L324 242 L318 242 L312 242 L306 242 L300 242 L300 272 L300 303 L300 318 " stroke = "#000000" stroke-width = "1" fill = "none" /></svg>