<svg width="600" height="600" viewbox = "0 0 600 600"  xmlns="http://www.w3.org/2000/svg">
<!--<json>{
  "glyph": "0332,0332,0330,0330,0334,0230,0331,0331,0331,0331,0231,0332,0332,0332,0332,0332,0330,0330,0330,0330,0232,0331,0331,0331,0331,0233,",
  "x0": 189.77531706850704,
  "y0": 376.66492663163433,
  "unit": 55.000000000000014,
  "width": 600,
  "height": 600,
  "style": {
    "color0": "black",
    "fill0": "black",
    "line0": 1,
    "color1": "black",
    "fill1": "black",
    "line1": 5,
    "color2": "red",
    "fill2": "red",
    "line2": 4,
    "color3": "#FF7900",
    "fill3": "#FF7900",
    "line3": 4,
    "color4": "yellow",
    "fill4": "yellow",
    "line4": 4,
    "color5": "green",
    "fill5": "green",
    "line5": 4,
    "color6": "blue",
    "fill6": "blue",
    "line6": 4,
    "color7": "purple",
    "fill7": "purple",
    "line7": 4
  },
  "shapes": [
    "0220:0313,0336,0316,0336,0335,0362,0203,0203,0203,0203,0203,0203,0203,0364,0335,0313,0336,0362,0203,0335,0203,0334,0203,0335,0203,0334,0203,0203,0335,0203,0334,0203,0203,0335,0203,0334,0203,0335,0334,0203,0335,0203,0334,0203,0335,0203,0334,0203,0203,0335,0203,0334,0203,0364,0334,0337,0362,0203,0203,0203,0203,0203,0203,0203,0203,0203,0203,0203,0203,0203,0203,0364,0334,0336,0362,0203,0334,0203,0335,0203,0203,0334,0203,0335,0203,0334,0203,0335,0203,0203,0334,0203,0335,0203,0203,0334,0203,0335,0203,0203,0334,0203,0335,0203,0334,0203,0335,0203,0364,0337,0335,0362,0203,0203,0203,0203,0203,0203,0203,0203,0203,0203,0203,0203,0335,0336,0203,0335,0203,0334,0203,0203,0335,0203,0334,0203,0335,0203,0334,0203,0203,0335,0203,0334,0203,0203,0335,0203,0334,0203,0335,0203,0334,0203,0203,0335,0203,0334,0203,0364,0334,0337,0362,0203,0203,0203,0203,0203,0203,0203,0203,0203,0203,0203,0203,0203,0203,0364,0334,0336,0362,0203,0334,0203,0335,0203,0203,0334,0203,0335,0203,0334,0203,0335,0203,0203,0334,0203,0335,0203,0203,0334,0203,0335,0203,0334,0203,0335,0203,0203,0334,0203,0335,0203,0335,0364,0337,0362,0203,0203,0203,0203,0203,0203,0203,0364,0334,0337,0316,0337,0313,",
    "0221:0335,0362,0203,0336,0336,0203,0337,0364,0334,0316,0336,0362,0203,0203,0203,0203,0203,0203,0364,0337,0335,0362,0203,0203,0203,0364,0335,0336,0362,0203,0203,0203,0203,0203,0203,0364,0334,0337,0313,0362,0337,0203,0336,0336,0203,0364,0334,0337,0337,",
    "0222:0220,0335,0335,0362,0203,0203,0203,0203,0364,0335,0335,0335,0335,0220,0335,0221,0335,",
    "0223:0313,0336,0316,0336,0331,0331,0331,0331,0331,0331,0335,0335,0362,0203,0203,0203,0203,0203,0203,0203,0203,0203,0203,0203,0203,0203,0203,0203,0203,0203,0203,0203,0203,0203,0203,0203,0203,0203,0203,0203,0203,0364,0330,0330,0330,0330,0330,0330,0334,0334,0337,0313,0337,",
    "0224:0313,0336,0316,0336,0331,0331,0331,0331,0331,0331,0335,0362,0203,0203,0203,0203,0203,0203,0203,0334,0203,0203,0203,0203,0203,0203,0335,0203,0203,0203,0203,0203,0203,0203,0335,0203,0203,0203,0203,0203,0203,0334,0203,0203,0203,0203,0203,0203,0203,0203,0203,0203,0203,0203,0334,0203,0203,0203,0203,0203,0203,0335,0203,0203,0203,0203,0203,0203,0203,0335,0203,0203,0203,0203,0203,0203,0334,0203,0203,0203,0203,0203,0203,0203,0364,0334,0330,0330,0330,0330,0330,0330,0337,0313,0337,",
    "0225:0313,0336,0316,0336,0335,0333,0333,0333,0333,0333,0333,0362,0203,0203,0203,0203,0203,0203,0334,0203,0203,0203,0203,0203,0203,0335,0203,0203,0203,0203,0203,0203,0203,0203,0203,0335,0203,0203,0203,0203,0203,0203,0334,0203,0203,0203,0203,0203,0203,0203,0203,0203,0203,0334,0203,0203,0203,0203,0203,0203,0335,0203,0203,0203,0203,0203,0203,0203,0203,0203,0335,0203,0203,0203,0203,0203,0203,0334,0203,0203,0203,0203,0203,0203,0364,0334,0330,0330,0330,0330,0330,0330,0337,0313,0337,",
    "0226:0313,0336,0316,0336,0335,0333,0333,0333,0333,0333,0333,0362,0203,0203,0203,0203,0203,0334,0203,0203,0203,0203,0203,0203,0335,0203,0203,0203,0203,0203,0203,0203,0203,0203,0203,0203,0335,0203,0203,0203,0203,0203,0203,0334,0203,0203,0203,0203,0203,0203,0203,0203,0334,0203,0203,0203,0203,0203,0203,0335,0203,0203,0203,0203,0203,0203,0203,0203,0203,0203,0203,0335,0203,0203,0203,0203,0203,0203,0334,0203,0203,0203,0203,0203,0334,0364,0330,0330,0330,0330,0330,0330,0337,0313,0337,",
    "0227:0313,0336,0316,0336,0335,0333,0333,0333,0333,0333,0333,0362,0203,0203,0203,0203,0334,0203,0203,0203,0203,0203,0203,0335,0203,0203,0203,0203,0203,0203,0203,0203,0203,0203,0203,0203,0203,0335,0203,0203,0203,0203,0203,0203,0334,0203,0203,0203,0203,0203,0203,0334,0203,0203,0203,0203,0203,0203,0335,0203,0203,0203,0203,0203,0203,0203,0203,0203,0203,0203,0203,0203,0335,0203,0203,0203,0203,0203,0203,0334,0203,0203,0203,0203,0364,0334,0330,0330,0330,0330,0330,0330,0337,0313,0337,",
    "0230:0224,0223,0335,0335,0224,0335,0234,0335,",
    "0231:0225,0223,0335,0335,0225,0335,0234,0335,",
    "0232:0226,0223,0335,0335,0226,0335,0234,0335,",
    "0233:0227,0223,0335,0335,0227,0335,0234,0335,",
    "0234:0313,0336,0316,0336,0333,0333,0333,0333,0333,0333,0335,0362,0203,0203,0203,0203,0203,0203,0313,0336,0203,0334,0337,0203,0203,0203,0203,0203,0203,0335,0203,0203,0203,0203,0203,0203,0203,0203,0203,0203,0203,0203,0203,0203,0203,0335,0203,0203,0203,0203,0203,0203,0334,0336,0203,0337,0203,0203,0203,0203,0203,0203,0364,0334,0333,0333,0333,0333,0333,0333,0337,0316,0337,0313,",
    "0235:0313,0335,0336,0362,0203,0203,0336,0203,0334,0337,0316,0336,0203,0203,0203,0203,0203,0203,0335,0337,0203,0203,0203,0335,0336,0203,0203,0203,0203,0203,0203,0334,0337,0313,0203,0203,0336,0203,0364,0334,0337,0337,",
    "0236:0235,0334,0235,0334,0235,0334,0235,0334,",
    "01220:0333,0200,0336,0330,0332,0336,0332,0330,0332,0220,0331,0331,0331,0337,0337,",
    "01221:0333,0200,0336,0330,0332,0336,0334,0336,0332,0221,0335,0331,0333,0333,0331,0331,0331,0333,0331,0331,0331,0333,0337,0337,0337,",
    "01222:0333,0200,0336,0330,0332,0336,0336,0330,0332,0332,0330,0222,0337,0331,0333,0331,0333,0331,0333,0337,0337,",
    "01223:0333,0200,0330,0336,0332,0336,0223,0333,0333,0337,0337,",
    "01224:0333,0200,0336,0330,0332,0336,0332,0332,0224,0331,0331,0337,0337,",
    "01225:0333,0200,0336,0330,0332,0336,0332,0332,0225,0331,0331,0337,0337,",
    "01226:0333,0200,0336,0330,0332,0336,0332,0332,0226,0331,0331,0337,0337,",
    "01227:0333,0200,0336,0330,0332,0336,0332,0332,0227,0331,0331,0337,0337,",
    "01230:0333,0200,0336,0330,0332,0336,0330,0332,0336,0230,0331,0331,0331,0331,0331,0331,0333,0333,0333,0333,0333,0333,0337,0337,0337,0336,0332,0101,0365,0333,0337,",
    "01231:0333,0200,0336,0330,0332,0336,0330,0332,0330,0336,0332,0331,0331,0333,0231,0331,0331,0333,0331,0333,0331,0333,0333,0331,0331,0333,0333,0337,0337,0337,0336,0332,0102,0365,0333,0337,",
    "01232:0333,0200,0336,0330,0332,0336,0330,0332,0336,0232,0331,0333,0333,0331,0331,0331,0331,0331,0333,0333,0333,0333,0337,0337,0337,0336,0332,0103,0365,0333,0337,",
    "01233:0333,0200,0336,0330,0332,0336,0336,0330,0332,0330,0332,0233,0333,0331,0331,0331,0331,0331,0333,0331,0333,0333,0333,0333,0337,0337,0337,0336,0332,0104,0365,0333,0337,",
    "01234:0333,0200,0336,0330,0332,0336,0332,0336,0332,0332,0337,0234,0331,0331,0337,0337,",
    "01235:0333,0200,0336,0330,0332,0336,0331,0332,0330,0332,0235,0331,0331,0337,0337,",
    "01236:0333,0200,0336,0330,0332,0336,0336,0331,0332,0332,0331,0332,0236,0331,0331,0333,0333,0333,0333,0333,0333,0333,0337,0337,0337,",
    "01237:0333,0200,",
    "0240:0220,0336,0331,0333,0336,0321,0335,0342,0335,0335,0342,0335,0330,0330,0332,0332,0337,0337,",
    "01240:0333,0200,0336,0330,0332,0210,0240,0211,0333,0331,0337,",
    "0241:0220,0336,0321,0343,0332,0350,0335,0336,0342,0334,0334,0342,0335,0304,0337,0333,0337,",
    "01241:0333,0200,0336,0332,0330,0210,0241,0211,0333,0331,0337,",
    "0242:0220,0321,0336,0343,0333,0336,0350,0335,0342,0334,0334,0342,0335,0337,0304,0332,0337,",
    "01242:0333,0200,0336,0330,0332,0210,0242,0211,0333,0331,0337,",
    "0243:0220,0336,0331,0332,0336,0321,0343,0332,0350,0334,0336,0342,0335,0335,0342,0337,0334,0334,0335,0304,0332,0330,0330,0337,0337,0333,",
    "01243:0333,0200,0336,0330,0332,0210,0243,0211,0333,0331,0337,",
    "0244:0220,0336,0331,0333,0336,0321,0343,0333,0350,0336,0335,0342,0334,0334,0342,0335,0337,0304,0333,0330,0330,0337,0337,0332,",
    "01244:0333,0200,0336,0330,0332,0210,0244,0211,0333,0331,0337,",
    "0245:0210,0332,0332,0362,0335,0203,0203,0203,0203,0334,0203,0363,0332,0332,0331,0211,",
    "01245:0333,0200,0336,0330,0332,0336,0245,0337,0333,0331,0337,",
    "0246:0210,0332,0332,0335,0306,0336,0330,0335,0335,0335,0321,0362,0203,0335,0335,0203,0364,0331,0350,0335,0337,0366,0333,0333,0333,0333,0334,0334,0334,0334,0367,0335,0336,0342,0334,0334,0342,0330,0330,0330,0330,0335,0335,0335,0304,0337,0211,",
    "01246:0333,0200,0336,0330,0332,0336,0246,",
    "0247:0330,0332,0336,0332,0336,0221,0333,0333,0333,0222,0333,0333,0333,0223,0333,0333,0333,0225,0333,0331,0331,0331,0332,0332,0332,0332,0332,0332,0332,0332,0332,0332,0332,0332,0333,0333,0226,0331,0331,0331,0333,0333,0333,0333,0333,0333,0333,0333,0333,0333,0333,0333,0333,0330,0333,0330,0330,0333,0330,0331,0332,0332,0332,0332,0332,0332,0332,0332,0332,0332,0332,0332,0227,0333,0333,0333,0230,0333,0331,0331,0331,0331,0332,0332,0332,0330,0332,0332,0332,0332,0332,0332,0333,0333,0231,0333,0333,0333,0232,0331,0333,0330,0333,0333,0233,0333,0333,0333,0234,0330,0330,0332,0330,0332,0332,0337,0337,",
    "01247:0333,0200,0336,0330,0332,0220,0336,0247,0337,0331,0333,0337,"
  ]
}</json>-->	<path d = "M113 267 L113 261 L113 256 L113 250 L113 245 L113 239 L113 234 L113 228 L107 228 L102 228 L96 228 L91 228 L85 228 L80 228 L80 223 L80 217 L80 212 L80 206 L80 201 L80 195 L80 190 L85 190 L91 190 L96 190 L102 190 L107 190 L113 190 L113 184 L113 179 L113 173 L113 168 L113 162 L113 157 L113 151 L113 146 L113 140 L113 135 L113 129 L113 124 L107 124 L102 124 L96 124 L91 124 L85 124 L80 124 L80 118 L80 113 L80 107 L80 102 L80 96 L80 91 L80 85 L85 85 L91 85 L96 85 L102 85 L107 85 L113 85 L113 80 L113 74 L113 69 L113 63 L113 58 L113 52 L113 47 " stroke = "#000000" stroke-width = "1" fill = "none" />	<path d = "M113 47 L118 47 L124 47 L129 47 L135 47 L140 47 L146 47 L151 47 L157 47 L162 47 L168 47 L173 47 L179 47 L184 47 L190 47 L195 47 L201 47 L206 47 L212 47 L217 47 L223 47 L228 47 L234 47 L239 47 L245 47 L250 47 L256 47 L261 47 L267 47 " stroke = "#000000" stroke-width = "1" fill = "none" />	<path d = "M267 47 L267 52 L267 58 L267 63 L267 69 L267 74 L267 80 L267 85 L272 85 L278 85 L283 85 L289 85 L294 85 L300 85 L300 91 L300 96 L300 102 L300 107 L300 113 L300 118 L300 124 L294 124 L289 124 L283 124 L278 124 L272 124 L267 124 L267 129 L267 135 L267 140 L267 146 L267 151 L267 157 L267 162 L267 168 L267 173 L267 179 L267 184 L267 190 L272 190 L278 190 L283 190 L289 190 L294 190 L300 190 L300 195 L300 201 L300 206 L300 212 L300 217 L300 223 L300 228 L294 228 L289 228 L283 228 L278 228 L272 228 L267 228 L267 234 L267 239 L267 245 L267 250 L267 256 L267 261 L267 267 " stroke = "#000000" stroke-width = "1" fill = "none" />	<path d = "M267 267 L261 267 L256 267 L250 267 L245 267 L239 267 L234 267 L231 267 L231 272 L231 278 L231 283 L231 289 L231 294 L231 300 L226 300 L220 300 L215 300 L209 300 L204 300 L198 300 L193 300 L187 300 L182 300 L176 300 L171 300 L165 300 L160 300 L154 300 L149 300 L149 294 L149 289 L149 283 L149 278 L149 272 L149 267 L146 267 L140 267 L135 267 L129 267 L124 267 L118 267 L113 267 " stroke = "#000000" stroke-width = "1" fill = "none" />	<path d = "M333 267 L333 261 L333 256 L333 250 L333 245 L333 239 L333 234 L327 234 L322 234 L316 234 L311 234 L305 234 L300 234 L300 228 L300 223 L300 217 L300 212 L300 206 L300 201 L300 195 L300 190 L300 184 L305 184 L311 184 L316 184 L322 184 L327 184 L333 184 L333 179 L333 173 L333 168 L333 162 L333 157 L333 151 L333 146 L333 140 L333 135 L333 129 L327 129 L322 129 L316 129 L311 129 L305 129 L300 129 L300 124 L300 118 L300 113 L300 107 L300 102 L300 96 L300 91 L300 85 L300 80 L305 80 L311 80 L316 80 L322 80 L327 80 L333 80 L333 74 L333 69 L333 63 L333 58 L333 52 L333 47 " stroke = "#000000" stroke-width = "1" fill = "none" />	<path d = "M333 47 L338 47 L344 47 L349 47 L355 47 L360 47 L366 47 L371 47 L377 47 L382 47 L388 47 L393 47 L399 47 L404 47 L410 47 L415 47 L421 47 L426 47 L432 47 L437 47 L443 47 L448 47 L454 47 L459 47 L465 47 L470 47 L476 47 L481 47 L487 47 " stroke = "#000000" stroke-width = "1" fill = "none" />	<path d = "M487 47 L487 52 L487 58 L487 63 L487 69 L487 74 L487 80 L492 80 L498 80 L503 80 L509 80 L514 80 L520 80 L520 85 L520 91 L520 96 L520 102 L520 107 L520 113 L520 118 L520 124 L520 129 L514 129 L509 129 L503 129 L498 129 L492 129 L487 129 L487 135 L487 140 L487 146 L487 151 L487 157 L487 162 L487 168 L487 173 L487 179 L487 184 L492 184 L498 184 L503 184 L509 184 L514 184 L520 184 L520 190 L520 195 L520 201 L520 206 L520 212 L520 217 L520 223 L520 228 L520 234 L514 234 L509 234 L503 234 L498 234 L492 234 L487 234 L487 239 L487 245 L487 250 L487 256 L487 261 L487 267 " stroke = "#000000" stroke-width = "1" fill = "none" />	<path d = "M487 267 L481 267 L476 267 L470 267 L465 267 L459 267 L454 267 L451 267 L451 272 L451 278 L451 283 L451 289 L451 294 L451 300 L446 300 L440 300 L435 300 L429 300 L424 300 L418 300 L413 300 L407 300 L402 300 L396 300 L391 300 L385 300 L380 300 L374 300 L369 300 L369 294 L369 289 L369 283 L369 278 L369 272 L369 267 L366 267 L360 267 L355 267 L349 267 L344 267 L338 267 L333 267 " stroke = "#000000" stroke-width = "1" fill = "none" />	<path d = "M113 542 L113 536 L113 531 L113 525 L113 520 L113 514 L107 514 L102 514 L96 514 L91 514 L85 514 L80 514 L80 509 L80 503 L80 498 L80 492 L80 487 L80 481 L80 476 L80 470 L80 465 L80 459 L80 454 L85 454 L91 454 L96 454 L102 454 L107 454 L113 454 L113 448 L113 443 L113 437 L113 432 L113 426 L113 421 L113 415 L113 410 L107 410 L102 410 L96 410 L91 410 L85 410 L80 410 L80 404 L80 399 L80 393 L80 388 L80 382 L80 377 L80 371 L80 366 L80 360 L80 355 L80 349 L85 349 L91 349 L96 349 L102 349 L107 349 L113 349 L113 344 L113 338 L113 333 L113 327 L113 322 " stroke = "#000000" stroke-width = "1" fill = "none" />	<path d = "M113 322 L118 322 L124 322 L129 322 L135 322 L140 322 L146 322 L151 322 L157 322 L162 322 L168 322 L173 322 L179 322 L184 322 L190 322 L195 322 L201 322 L206 322 L212 322 L217 322 L223 322 L228 322 L234 322 L239 322 L245 322 L250 322 L256 322 L261 322 L267 322 " stroke = "#000000" stroke-width = "1" fill = "none" />	<path d = "M267 322 L267 327 L267 333 L267 338 L267 344 L267 349 L272 349 L278 349 L283 349 L289 349 L294 349 L300 349 L300 355 L300 360 L300 366 L300 371 L300 377 L300 382 L300 388 L300 393 L300 399 L300 404 L300 410 L294 410 L289 410 L283 410 L278 410 L272 410 L267 410 L267 415 L267 421 L267 426 L267 432 L267 437 L267 443 L267 448 L267 454 L272 454 L278 454 L283 454 L289 454 L294 454 L300 454 L300 459 L300 465 L300 470 L300 476 L300 481 L300 487 L300 492 L300 498 L300 503 L300 509 L300 514 L294 514 L289 514 L283 514 L278 514 L272 514 L267 514 L267 520 L267 525 L267 531 L267 536 L267 542 " stroke = "#000000" stroke-width = "1" fill = "none" />	<path d = "M267 542 L261 542 L256 542 L250 542 L245 542 L239 542 L234 542 L231 542 L231 547 L231 553 L231 558 L231 564 L231 569 L231 575 L226 575 L220 575 L215 575 L209 575 L204 575 L198 575 L193 575 L187 575 L182 575 L176 575 L171 575 L165 575 L160 575 L154 575 L149 575 L149 569 L149 564 L149 558 L149 553 L149 547 L149 542 L146 542 L140 542 L135 542 L129 542 L124 542 L118 542 L113 542 " stroke = "#000000" stroke-width = "1" fill = "none" />	<path d = "M333 542 L333 536 L333 531 L333 525 L333 520 L327 520 L322 520 L316 520 L311 520 L305 520 L300 520 L300 514 L300 509 L300 503 L300 498 L300 492 L300 487 L300 481 L300 476 L300 470 L300 465 L300 459 L300 454 L300 448 L305 448 L311 448 L316 448 L322 448 L327 448 L333 448 L333 443 L333 437 L333 432 L333 426 L333 421 L333 415 L327 415 L322 415 L316 415 L311 415 L305 415 L300 415 L300 410 L300 404 L300 399 L300 393 L300 388 L300 382 L300 377 L300 371 L300 366 L300 360 L300 355 L300 349 L300 344 L305 344 L311 344 L316 344 L322 344 L327 344 L333 344 L333 338 L333 333 L333 327 L333 322 " stroke = "#000000" stroke-width = "1" fill = "none" />	<path d = "M333 322 L338 322 L344 322 L349 322 L355 322 L360 322 L366 322 L371 322 L377 322 L382 322 L388 322 L393 322 L399 322 L404 322 L410 322 L415 322 L421 322 L426 322 L432 322 L437 322 L443 322 L448 322 L454 322 L459 322 L465 322 L470 322 L476 322 L481 322 L487 322 " stroke = "#000000" stroke-width = "1" fill = "none" />	<path d = "M487 322 L487 327 L487 333 L487 338 L487 344 L492 344 L498 344 L503 344 L509 344 L514 344 L520 344 L520 349 L520 355 L520 360 L520 366 L520 371 L520 377 L520 382 L520 388 L520 393 L520 399 L520 404 L520 410 L520 415 L514 415 L509 415 L503 415 L498 415 L492 415 L487 415 L487 421 L487 426 L487 432 L487 437 L487 443 L487 448 L492 448 L498 448 L503 448 L509 448 L514 448 L520 448 L520 454 L520 459 L520 465 L520 470 L520 476 L520 481 L520 487 L520 492 L520 498 L520 503 L520 509 L520 514 L520 520 L514 520 L509 520 L503 520 L498 520 L492 520 L487 520 L487 525 L487 531 L487 536 L487 542 " stroke = "#000000" stroke-width = "1" fill = "none" />	<path d = "M487 542 L481 542 L476 542 L470 542 L465 542 L459 542 L454 542 L451 542 L451 547 L451 553 L451 558 L451 564 L451 569 L451 575 L446 575 L440 575 L435 575 L429 575 L424 575 L418 575 L413 575 L407 575 L402 575 L396 575 L391 575 L385 575 L380 575 L374 575 L369 575 L369 569 L369 564 L369 558 L369 553 L369 547 L369 542 L366 542 L360 542 L355 542 L349 542 L344 542 L338 542 L333 542 " stroke = "#000000" stroke-width = "1" fill = "none" /></svg>