<svg width="600" height="600" viewbox = "0 0 600 600"  xmlns="http://www.w3.org/2000/svg">
<!--<json>{
  "glyph": "0332,0332,0330,0334,0222,0335,0333,0333,0333,0333,0334,0222,0332,0332,0332,0332,0332,0330,0330,0330,0330,0222,0331,0331,0331,0331,0222,0335,0330,0332,0330,0332,0332,0330,0336,0336,0336,0333,0331,0337,0337,0210,0210,01127,01127,01127,01056,0331,0331,0332,0332,0332,0332,01124,01122,01101,01123,01110,0331,0331,0332,0332,0332,0332,01122,01117,01102,01117,01124,0331,0332,0332,0332,0332,0336,0331,0331,0337,01056,01117,01122,01107,",
  "x0": 189.77531706850704,
  "y0": 316.16492663163433,
  "unit": 55.000000000000014,
  "width": 600,
  "height": 600,
  "style": {
    "color0": "black",
    "fill0": "black",
    "line0": 1,
    "color1": "black",
    "fill1": "black",
    "line1": 5,
    "color2": "red",
    "fill2": "red",
    "line2": 4,
    "color3": "#FF7900",
    "fill3": "#FF7900",
    "line3": 4,
    "color4": "yellow",
    "fill4": "yellow",
    "line4": 4,
    "color5": "green",
    "fill5": "green",
    "line5": 4,
    "color6": "blue",
    "fill6": "blue",
    "line6": 4,
    "color7": "purple",
    "fill7": "purple",
    "line7": 4
  },
  "shapes": [
    "0220:0313,0336,0316,0336,0335,0362,0203,0203,0203,0203,0203,0203,0203,0364,0335,0313,0336,0362,0203,0335,0203,0334,0203,0335,0203,0334,0203,0203,0335,0203,0334,0203,0203,0335,0203,0334,0203,0335,0334,0203,0335,0203,0334,0203,0335,0203,0334,0203,0203,0335,0203,0334,0203,0364,0334,0337,0362,0203,0203,0203,0203,0203,0203,0203,0203,0203,0203,0203,0203,0203,0203,0364,0334,0336,0362,0203,0334,0203,0335,0203,0203,0334,0203,0335,0203,0334,0203,0335,0203,0203,0334,0203,0335,0203,0203,0334,0203,0335,0203,0203,0334,0203,0335,0203,0334,0203,0335,0203,0364,0337,0335,0362,0203,0203,0203,0203,0203,0203,0203,0203,0203,0203,0203,0203,0335,0336,0203,0335,0203,0334,0203,0203,0335,0203,0334,0203,0335,0203,0334,0203,0203,0335,0203,0334,0203,0203,0335,0203,0334,0203,0335,0203,0334,0203,0203,0335,0203,0334,0203,0364,0334,0337,0362,0203,0203,0203,0203,0203,0203,0203,0203,0203,0203,0203,0203,0203,0203,0364,0334,0336,0362,0203,0334,0203,0335,0203,0203,0334,0203,0335,0203,0334,0203,0335,0203,0203,0334,0203,0335,0203,0203,0334,0203,0335,0203,0334,0203,0335,0203,0203,0334,0203,0335,0203,0335,0364,0337,0362,0203,0203,0203,0203,0203,0203,0203,0364,0334,0337,0316,0337,0313,",
    "0221:0335,0362,0203,0336,0336,0203,0337,0364,0334,0316,0336,0362,0203,0203,0203,0203,0203,0203,0364,0337,0335,0362,0203,0203,0203,0364,0335,0336,0362,0203,0203,0203,0203,0203,0203,0364,0334,0337,0313,0362,0337,0203,0336,0336,0203,0364,0334,0337,0337,",
    "0222:0220,0335,0335,0362,0203,0203,0203,0203,0364,0335,0335,0335,0335,0220,0335,0221,0335,",
    "0223:0313,0336,0316,0336,0331,0331,0331,0331,0331,0331,0335,0335,0362,0203,0203,0203,0203,0203,0203,0203,0203,0203,0203,0203,0203,0203,0203,0203,0203,0203,0203,0203,0203,0203,0203,0203,0203,0203,0203,0203,0203,0364,0330,0330,0330,0330,0330,0330,0334,0334,0337,0313,0337,",
    "0224:0313,0336,0316,0336,0331,0331,0331,0331,0331,0331,0335,0362,0203,0203,0203,0203,0203,0203,0203,0334,0203,0203,0203,0203,0203,0203,0335,0203,0203,0203,0203,0203,0203,0203,0335,0203,0203,0203,0203,0203,0203,0334,0203,0203,0203,0203,0203,0203,0203,0203,0203,0203,0203,0203,0334,0203,0203,0203,0203,0203,0203,0335,0203,0203,0203,0203,0203,0203,0203,0335,0203,0203,0203,0203,0203,0203,0334,0203,0203,0203,0203,0203,0203,0203,0364,0334,0330,0330,0330,0330,0330,0330,0337,0313,0337,",
    "0225:0313,0336,0316,0336,0335,0333,0333,0333,0333,0333,0333,0362,0203,0203,0203,0203,0203,0203,0334,0203,0203,0203,0203,0203,0203,0335,0203,0203,0203,0203,0203,0203,0203,0203,0203,0335,0203,0203,0203,0203,0203,0203,0334,0203,0203,0203,0203,0203,0203,0203,0203,0203,0203,0334,0203,0203,0203,0203,0203,0203,0335,0203,0203,0203,0203,0203,0203,0203,0203,0203,0335,0203,0203,0203,0203,0203,0203,0334,0203,0203,0203,0203,0203,0203,0364,0334,0330,0330,0330,0330,0330,0330,0337,0313,0337,",
    "0226:0313,0336,0316,0336,0335,0333,0333,0333,0333,0333,0333,0362,0203,0203,0203,0203,0203,0334,0203,0203,0203,0203,0203,0203,0335,0203,0203,0203,0203,0203,0203,0203,0203,0203,0203,0203,0335,0203,0203,0203,0203,0203,0203,0334,0203,0203,0203,0203,0203,0203,0203,0203,0334,0203,0203,0203,0203,0203,0203,0335,0203,0203,0203,0203,0203,0203,0203,0203,0203,0203,0203,0335,0203,0203,0203,0203,0203,0203,0334,0203,0203,0203,0203,0203,0334,0364,0330,0330,0330,0330,0330,0330,0337,0313,0337,",
    "0227:0313,0336,0316,0336,0335,0333,0333,0333,0333,0333,0333,0362,0203,0203,0203,0203,0334,0203,0203,0203,0203,0203,0203,0335,0203,0203,0203,0203,0203,0203,0203,0203,0203,0203,0203,0203,0203,0335,0203,0203,0203,0203,0203,0203,0334,0203,0203,0203,0203,0203,0203,0334,0203,0203,0203,0203,0203,0203,0335,0203,0203,0203,0203,0203,0203,0203,0203,0203,0203,0203,0203,0203,0335,0203,0203,0203,0203,0203,0203,0334,0203,0203,0203,0203,0364,0334,0330,0330,0330,0330,0330,0330,0337,0313,0337,",
    "0230:0224,0223,0335,0335,0224,0335,0234,0335,",
    "0231:0225,0223,0335,0335,0225,0335,0234,0335,",
    "0232:0226,0223,0335,0335,0226,0335,0234,0335,",
    "0233:0227,0223,0335,0335,0227,0335,0234,0335,",
    "0234:0313,0336,0316,0336,0333,0333,0333,0333,0333,0333,0335,0362,0203,0203,0203,0203,0203,0203,0313,0336,0203,0334,0337,0203,0203,0203,0203,0203,0203,0335,0203,0203,0203,0203,0203,0203,0203,0203,0203,0203,0203,0203,0203,0203,0203,0335,0203,0203,0203,0203,0203,0203,0334,0336,0203,0337,0203,0203,0203,0203,0203,0203,0364,0334,0333,0333,0333,0333,0333,0333,0337,0316,0337,0313,",
    "0235:0313,0335,0336,0362,0203,0203,0336,0203,0334,0337,0316,0336,0203,0203,0203,0203,0203,0203,0335,0337,0203,0203,0203,0335,0336,0203,0203,0203,0203,0203,0203,0334,0337,0313,0203,0203,0336,0203,0364,0334,0337,0337,",
    "0236:0235,0334,0235,0334,0235,0334,0235,0334,",
    "01220:0333,0200,0336,0330,0332,0336,0332,0330,0332,0220,0331,0331,0331,0337,0337,",
    "01221:0333,0200,0336,0330,0332,0336,0334,0336,0332,0221,0335,0331,0333,0333,0331,0331,0331,0333,0331,0331,0331,0333,0337,0337,0337,",
    "01222:0333,0200,0336,0330,0332,0336,0336,0330,0332,0332,0330,0222,0337,0331,0333,0331,0333,0331,0333,0337,0337,",
    "01223:0333,0200,0330,0336,0332,0336,0223,0333,0333,0337,0337,",
    "01224:0333,0200,0336,0330,0332,0336,0332,0332,0224,0331,0331,0337,0337,",
    "01225:0333,0200,0336,0330,0332,0336,0332,0332,0225,0331,0331,0337,0337,",
    "01226:0333,0200,0336,0330,0332,0336,0332,0332,0226,0331,0331,0337,0337,",
    "01227:0333,0200,0336,0330,0332,0336,0332,0332,0227,0331,0331,0337,0337,",
    "01230:0333,0200,0336,0330,0332,0336,0330,0332,0336,0230,0331,0331,0331,0331,0331,0331,0333,0333,0333,0333,0333,0333,0337,0337,0337,0336,0332,0101,0365,0333,0337,",
    "01231:0333,0200,0336,0330,0332,0336,0330,0332,0330,0336,0332,0331,0331,0333,0231,0331,0331,0333,0331,0333,0331,0333,0333,0331,0331,0333,0333,0337,0337,0337,0336,0332,0102,0365,0333,0337,",
    "01232:0333,0200,0336,0330,0332,0336,0330,0332,0336,0232,0331,0333,0333,0331,0331,0331,0331,0331,0333,0333,0333,0333,0337,0337,0337,0336,0332,0103,0365,0333,0337,",
    "01233:0333,0200,0336,0330,0332,0336,0336,0330,0332,0330,0332,0233,0333,0331,0331,0331,0331,0331,0333,0331,0333,0333,0333,0333,0337,0337,0337,0336,0332,0104,0365,0333,0337,",
    "01234:0333,0200,0336,0330,0332,0336,0332,0336,0332,0332,0337,0234,0331,0331,0337,0337,",
    "01235:0333,0200,0336,0330,0332,0336,0331,0332,0330,0332,0235,0331,0331,0337,0337,",
    "01236:0333,0200,0336,0330,0332,0336,0336,0331,0332,0332,0331,0332,0236,0331,0331,0333,0333,0333,0333,0333,0333,0333,0337,0337,0337,",
    "01237:0333,0200,",
    "0240:0220,0336,0331,0333,0336,0321,0335,0342,0335,0335,0342,0335,0330,0330,0332,0332,0337,0337,",
    "01240:0333,0200,0336,0330,0332,0210,0240,0211,0333,0331,0337,",
    "0241:0220,0336,0321,0343,0332,0350,0335,0336,0342,0334,0334,0342,0335,0304,0337,0333,0337,",
    "01241:0333,0200,0336,0332,0330,0210,0241,0211,0333,0331,0337,",
    "0242:0220,0321,0336,0343,0333,0336,0350,0335,0342,0334,0334,0342,0335,0337,0304,0332,0337,",
    "01242:0333,0200,0336,0330,0332,0210,0242,0211,0333,0331,0337,",
    "0243:0220,0336,0331,0332,0336,0321,0343,0332,0350,0334,0336,0342,0335,0335,0342,0337,0334,0334,0335,0304,0332,0330,0330,0337,0337,0333,",
    "01243:0333,0200,0336,0330,0332,0210,0243,0211,0333,0331,0337,",
    "0244:0220,0336,0331,0333,0336,0321,0343,0333,0350,0336,0335,0342,0334,0334,0342,0335,0337,0304,0333,0330,0330,0337,0337,0332,",
    "01244:0333,0200,0336,0330,0332,0210,0244,0211,0333,0331,0337,",
    "0245:0210,0332,0332,0362,0335,0203,0203,0203,0203,0334,0203,0363,0332,0332,0331,0211,",
    "01245:0333,0200,0336,0330,0332,0336,0245,0337,0333,0331,0337,",
    "0246:0210,0332,0332,0335,0306,0336,0330,0335,0335,0335,0321,0362,0203,0335,0335,0203,0364,0331,0350,0335,0337,0366,0333,0333,0333,0333,0334,0334,0334,0334,0367,0335,0336,0342,0334,0334,0342,0330,0330,0330,0330,0335,0335,0335,0304,0337,0211,",
    "01246:0333,0200,0336,0330,0332,0336,0246,",
    "0247:0330,0332,0336,0332,0336,0221,0333,0333,0333,0222,0333,0333,0333,0223,0333,0333,0333,0225,0333,0331,0331,0331,0332,0332,0332,0332,0332,0332,0332,0332,0332,0332,0332,0332,0333,0333,0226,0331,0331,0331,0333,0333,0333,0333,0333,0333,0333,0333,0333,0333,0333,0333,0333,0330,0333,0330,0330,0333,0330,0331,0332,0332,0332,0332,0332,0332,0332,0332,0332,0332,0332,0332,0227,0333,0333,0333,0230,0333,0331,0331,0331,0331,0332,0332,0332,0330,0332,0332,0332,0332,0332,0332,0333,0333,0231,0333,0333,0333,0232,0331,0333,0330,0333,0333,0233,0333,0333,0333,0234,0330,0330,0332,0330,0332,0332,0337,0337,",
    "01247:0333,0200,0336,0330,0332,0220,0336,0247,0337,0331,0333,0337,"
  ]
}</json>-->	<path d = "M80 261 L80 256 L80 250 L80 245 L80 239 L80 234 L80 228 L80 223 " stroke = "#000000" stroke-width = "1" fill = "none" />	<path d = "M80 223 L83 223 L83 225 L85 225 L85 228 L88 228 L91 228 L91 231 L94 231 L96 231 L96 234 L99 234 L102 234 L102 236 L105 236 L105 239 L107 239 L110 239 L110 242 L113 242 " stroke = "#000000" stroke-width = "1" fill = "none" />	<path d = "M113 242 L113 236 L113 231 L113 225 L113 220 L113 214 L113 209 L113 203 L113 198 L113 192 L113 187 L113 181 L113 176 L113 170 L113 165 " stroke = "#000000" stroke-width = "1" fill = "none" />	<path d = "M113 165 L110 165 L110 168 L107 168 L105 168 L105 170 L102 170 L102 173 L99 173 L96 173 L96 176 L94 176 L91 176 L91 179 L88 179 L85 179 L85 181 L83 181 L83 184 L80 184 " stroke = "#000000" stroke-width = "1" fill = "none" />	<path d = "M80 184 L80 179 L80 173 L80 168 L80 162 L80 157 L80 151 L80 146 L80 140 L80 135 L80 129 L80 124 L80 118 L83 118 L83 121 L85 121 L88 121 L88 124 L91 124 L91 126 L94 126 L96 126 L96 129 L99 129 L102 129 L102 132 L105 132 L105 135 L107 135 L110 135 L110 137 L113 137 " stroke = "#000000" stroke-width = "1" fill = "none" />	<path d = "M113 137 L113 132 L113 126 L113 121 L113 115 L113 110 L113 104 L113 99 L113 93 L113 88 L113 82 L113 77 L113 71 L113 66 L113 60 " stroke = "#000000" stroke-width = "1" fill = "none" />	<path d = "M113 60 L110 60 L110 63 L107 63 L105 63 L105 66 L102 66 L102 69 L99 69 L96 69 L96 71 L94 71 L91 71 L91 74 L88 74 L88 77 L85 77 L83 77 L83 80 L80 80 " stroke = "#000000" stroke-width = "1" fill = "none" />	<path d = "M80 80 L80 74 L80 69 L80 63 L80 58 L80 52 L80 47 L80 41 " stroke = "#000000" stroke-width = "1" fill = "none" />	<path d = "M80 41 L135 41 L190 41 L245 41 L300 41 " stroke = "#000000" stroke-width = "1" fill = "none" />	<path d = "M300 41 L300 47 L300 52 L300 58 L300 63 L300 69 L300 74 L300 80 " stroke = "#000000" stroke-width = "1" fill = "none" />	<path d = "M300 80 L297 80 L297 77 L294 77 L294 74 L292 74 L289 74 L289 71 L286 71 L283 71 L283 69 L281 69 L278 69 L278 66 L275 66 L275 63 L272 63 L270 63 L270 60 L267 60 " stroke = "#000000" stroke-width = "1" fill = "none" />	<path d = "M267 60 L267 66 L267 71 L267 77 L267 82 L267 88 L267 93 L267 99 L267 104 L267 110 L267 115 L267 121 L267 126 L267 132 L267 137 " stroke = "#000000" stroke-width = "1" fill = "none" />	<path d = "M267 137 L270 137 L270 135 L272 135 L275 135 L275 132 L278 132 L278 129 L281 129 L283 129 L283 126 L286 126 L289 126 L289 124 L292 124 L294 124 L294 121 L297 121 L297 118 L300 118 " stroke = "#000000" stroke-width = "1" fill = "none" />	<path d = "M300 118 L300 124 L300 129 L300 135 L300 140 L300 146 L300 151 L300 157 L300 162 L300 168 L300 173 L300 179 L300 184 L297 184 L297 181 L294 181 L292 181 L292 179 L289 179 L289 176 L286 176 L283 176 L283 173 L281 173 L278 173 L278 170 L275 170 L275 168 L272 168 L270 168 L270 165 L267 165 " stroke = "#000000" stroke-width = "1" fill = "none" />	<path d = "M267 165 L267 170 L267 176 L267 181 L267 187 L267 192 L267 198 L267 203 L267 209 L267 214 L267 220 L267 225 L267 231 L267 236 L267 242 " stroke = "#000000" stroke-width = "1" fill = "none" />	<path d = "M267 242 L270 242 L270 239 L272 239 L275 239 L275 236 L278 236 L278 234 L281 234 L283 234 L283 231 L286 231 L289 231 L289 228 L292 228 L292 225 L294 225 L297 225 L297 223 L300 223 " stroke = "#000000" stroke-width = "1" fill = "none" />	<path d = "M300 223 L300 228 L300 234 L300 239 L300 245 L300 250 L300 256 L300 261 " stroke = "#000000" stroke-width = "1" fill = "none" />	<path d = "M300 261 L245 261 L231 261 " stroke = "#000000" stroke-width = "1" fill = "none" />	<path d = "M231 261 L231 267 L231 272 L231 278 L231 283 L231 289 L231 294 " stroke = "#000000" stroke-width = "1" fill = "none" />	<path d = "M231 294 L204 294 L176 294 L149 294 " stroke = "#000000" stroke-width = "1" fill = "none" />	<path d = "M149 294 L149 289 L149 283 L149 278 L149 272 L149 267 L149 261 " stroke = "#000000" stroke-width = "1" fill = "none" />	<path d = "M149 261 L94 261 L80 261 " stroke = "#000000" stroke-width = "1" fill = "none" />	<path d = "M300 261 L300 256 L300 250 L300 245 L300 239 L300 234 L300 228 L300 223 " stroke = "#000000" stroke-width = "1" fill = "none" />	<path d = "M300 223 L303 223 L303 225 L305 225 L305 228 L308 228 L311 228 L311 231 L314 231 L316 231 L316 234 L319 234 L322 234 L322 236 L325 236 L325 239 L327 239 L330 239 L330 242 L333 242 " stroke = "#000000" stroke-width = "1" fill = "none" />	<path d = "M333 242 L333 236 L333 231 L333 225 L333 220 L333 214 L333 209 L333 203 L333 198 L333 192 L333 187 L333 181 L333 176 L333 170 L333 165 " stroke = "#000000" stroke-width = "1" fill = "none" />	<path d = "M333 165 L330 165 L330 168 L327 168 L325 168 L325 170 L322 170 L322 173 L319 173 L316 173 L316 176 L314 176 L311 176 L311 179 L308 179 L305 179 L305 181 L303 181 L303 184 L300 184 " stroke = "#000000" stroke-width = "1" fill = "none" />	<path d = "M300 184 L300 179 L300 173 L300 168 L300 162 L300 157 L300 151 L300 146 L300 140 L300 135 L300 129 L300 124 L300 118 L303 118 L303 121 L305 121 L308 121 L308 124 L311 124 L311 126 L314 126 L316 126 L316 129 L319 129 L322 129 L322 132 L325 132 L325 135 L327 135 L330 135 L330 137 L333 137 " stroke = "#000000" stroke-width = "1" fill = "none" />	<path d = "M333 137 L333 132 L333 126 L333 121 L333 115 L333 110 L333 104 L333 99 L333 93 L333 88 L333 82 L333 77 L333 71 L333 66 L333 60 " stroke = "#000000" stroke-width = "1" fill = "none" />	<path d = "M333 60 L330 60 L330 63 L327 63 L325 63 L325 66 L322 66 L322 69 L319 69 L316 69 L316 71 L314 71 L311 71 L311 74 L308 74 L308 77 L305 77 L303 77 L303 80 L300 80 " stroke = "#000000" stroke-width = "1" fill = "none" />	<path d = "M300 80 L300 74 L300 69 L300 63 L300 58 L300 52 L300 47 L300 41 " stroke = "#000000" stroke-width = "1" fill = "none" />	<path d = "M300 41 L355 41 L410 41 L465 41 L520 41 " stroke = "#000000" stroke-width = "1" fill = "none" />	<path d = "M520 41 L520 47 L520 52 L520 58 L520 63 L520 69 L520 74 L520 80 " stroke = "#000000" stroke-width = "1" fill = "none" />	<path d = "M520 80 L517 80 L517 77 L514 77 L514 74 L512 74 L509 74 L509 71 L506 71 L503 71 L503 69 L501 69 L498 69 L498 66 L495 66 L495 63 L492 63 L490 63 L490 60 L487 60 " stroke = "#000000" stroke-width = "1" fill = "none" />	<path d = "M487 60 L487 66 L487 71 L487 77 L487 82 L487 88 L487 93 L487 99 L487 104 L487 110 L487 115 L487 121 L487 126 L487 132 L487 137 " stroke = "#000000" stroke-width = "1" fill = "none" />	<path d = "M487 137 L490 137 L490 135 L492 135 L495 135 L495 132 L498 132 L498 129 L501 129 L503 129 L503 126 L506 126 L509 126 L509 124 L512 124 L514 124 L514 121 L517 121 L517 118 L520 118 " stroke = "#000000" stroke-width = "1" fill = "none" />	<path d = "M520 118 L520 124 L520 129 L520 135 L520 140 L520 146 L520 151 L520 157 L520 162 L520 168 L520 173 L520 179 L520 184 L517 184 L517 181 L514 181 L512 181 L512 179 L509 179 L509 176 L506 176 L503 176 L503 173 L501 173 L498 173 L498 170 L495 170 L495 168 L492 168 L490 168 L490 165 L487 165 " stroke = "#000000" stroke-width = "1" fill = "none" />	<path d = "M487 165 L487 170 L487 176 L487 181 L487 187 L487 192 L487 198 L487 203 L487 209 L487 214 L487 220 L487 225 L487 231 L487 236 L487 242 " stroke = "#000000" stroke-width = "1" fill = "none" />	<path d = "M487 242 L490 242 L490 239 L492 239 L495 239 L495 236 L498 236 L498 234 L501 234 L503 234 L503 231 L506 231 L509 231 L509 228 L512 228 L512 225 L514 225 L517 225 L517 223 L520 223 " stroke = "#000000" stroke-width = "1" fill = "none" />	<path d = "M520 223 L520 228 L520 234 L520 239 L520 245 L520 250 L520 256 L520 261 " stroke = "#000000" stroke-width = "1" fill = "none" />	<path d = "M520 261 L465 261 L451 261 " stroke = "#000000" stroke-width = "1" fill = "none" />	<path d = "M451 261 L451 267 L451 272 L451 278 L451 283 L451 289 L451 294 " stroke = "#000000" stroke-width = "1" fill = "none" />	<path d = "M451 294 L424 294 L396 294 L369 294 " stroke = "#000000" stroke-width = "1" fill = "none" />	<path d = "M369 294 L369 289 L369 283 L369 278 L369 272 L369 267 L369 261 " stroke = "#000000" stroke-width = "1" fill = "none" />	<path d = "M369 261 L314 261 L300 261 " stroke = "#000000" stroke-width = "1" fill = "none" />	<path d = "M80 536 L80 531 L80 525 L80 520 L80 514 L80 509 L80 503 L80 498 " stroke = "#000000" stroke-width = "1" fill = "none" />	<path d = "M80 498 L83 498 L83 500 L85 500 L85 503 L88 503 L91 503 L91 506 L94 506 L96 506 L96 509 L99 509 L102 509 L102 511 L105 511 L105 514 L107 514 L110 514 L110 517 L113 517 " stroke = "#000000" stroke-width = "1" fill = "none" />	<path d = "M113 517 L113 511 L113 506 L113 500 L113 495 L113 489 L113 484 L113 478 L113 473 L113 467 L113 462 L113 456 L113 451 L113 445 L113 440 " stroke = "#000000" stroke-width = "1" fill = "none" />	<path d = "M113 440 L110 440 L110 443 L107 443 L105 443 L105 445 L102 445 L102 448 L99 448 L96 448 L96 451 L94 451 L91 451 L91 454 L88 454 L85 454 L85 456 L83 456 L83 459 L80 459 " stroke = "#000000" stroke-width = "1" fill = "none" />	<path d = "M80 459 L80 454 L80 448 L80 443 L80 437 L80 432 L80 426 L80 421 L80 415 L80 410 L80 404 L80 399 L80 393 L83 393 L83 396 L85 396 L88 396 L88 399 L91 399 L91 401 L94 401 L96 401 L96 404 L99 404 L102 404 L102 407 L105 407 L105 410 L107 410 L110 410 L110 412 L113 412 " stroke = "#000000" stroke-width = "1" fill = "none" />	<path d = "M113 412 L113 407 L113 401 L113 396 L113 390 L113 385 L113 379 L113 374 L113 368 L113 363 L113 357 L113 352 L113 346 L113 341 L113 335 " stroke = "#000000" stroke-width = "1" fill = "none" />	<path d = "M113 335 L110 335 L110 338 L107 338 L105 338 L105 341 L102 341 L102 344 L99 344 L96 344 L96 346 L94 346 L91 346 L91 349 L88 349 L88 352 L85 352 L83 352 L83 355 L80 355 " stroke = "#000000" stroke-width = "1" fill = "none" />	<path d = "M80 355 L80 349 L80 344 L80 338 L80 333 L80 327 L80 322 L80 316 " stroke = "#000000" stroke-width = "1" fill = "none" />	<path d = "M80 316 L135 316 L190 316 L245 316 L300 316 " stroke = "#000000" stroke-width = "1" fill = "none" />	<path d = "M300 316 L300 322 L300 327 L300 333 L300 338 L300 344 L300 349 L300 355 " stroke = "#000000" stroke-width = "1" fill = "none" />	<path d = "M300 355 L297 355 L297 352 L294 352 L294 349 L292 349 L289 349 L289 346 L286 346 L283 346 L283 344 L281 344 L278 344 L278 341 L275 341 L275 338 L272 338 L270 338 L270 335 L267 335 " stroke = "#000000" stroke-width = "1" fill = "none" />	<path d = "M267 335 L267 341 L267 346 L267 352 L267 357 L267 363 L267 368 L267 374 L267 379 L267 385 L267 390 L267 396 L267 401 L267 407 L267 412 " stroke = "#000000" stroke-width = "1" fill = "none" />	<path d = "M267 412 L270 412 L270 410 L272 410 L275 410 L275 407 L278 407 L278 404 L281 404 L283 404 L283 401 L286 401 L289 401 L289 399 L292 399 L294 399 L294 396 L297 396 L297 393 L300 393 " stroke = "#000000" stroke-width = "1" fill = "none" />	<path d = "M300 393 L300 399 L300 404 L300 410 L300 415 L300 421 L300 426 L300 432 L300 437 L300 443 L300 448 L300 454 L300 459 L297 459 L297 456 L294 456 L292 456 L292 454 L289 454 L289 451 L286 451 L283 451 L283 448 L281 448 L278 448 L278 445 L275 445 L275 443 L272 443 L270 443 L270 440 L267 440 " stroke = "#000000" stroke-width = "1" fill = "none" />	<path d = "M267 440 L267 445 L267 451 L267 456 L267 462 L267 467 L267 473 L267 478 L267 484 L267 489 L267 495 L267 500 L267 506 L267 511 L267 517 " stroke = "#000000" stroke-width = "1" fill = "none" />	<path d = "M267 517 L270 517 L270 514 L272 514 L275 514 L275 511 L278 511 L278 509 L281 509 L283 509 L283 506 L286 506 L289 506 L289 503 L292 503 L292 500 L294 500 L297 500 L297 498 L300 498 " stroke = "#000000" stroke-width = "1" fill = "none" />	<path d = "M300 498 L300 503 L300 509 L300 514 L300 520 L300 525 L300 531 L300 536 " stroke = "#000000" stroke-width = "1" fill = "none" />	<path d = "M300 536 L245 536 L231 536 " stroke = "#000000" stroke-width = "1" fill = "none" />	<path d = "M231 536 L231 542 L231 547 L231 553 L231 558 L231 564 L231 569 " stroke = "#000000" stroke-width = "1" fill = "none" />	<path d = "M231 569 L204 569 L176 569 L149 569 " stroke = "#000000" stroke-width = "1" fill = "none" />	<path d = "M149 569 L149 564 L149 558 L149 553 L149 547 L149 542 L149 536 " stroke = "#000000" stroke-width = "1" fill = "none" />	<path d = "M149 536 L94 536 L80 536 " stroke = "#000000" stroke-width = "1" fill = "none" />	<path d = "M300 536 L300 531 L300 525 L300 520 L300 514 L300 509 L300 503 L300 498 " stroke = "#000000" stroke-width = "1" fill = "none" />	<path d = "M300 498 L303 498 L303 500 L305 500 L305 503 L308 503 L311 503 L311 506 L314 506 L316 506 L316 509 L319 509 L322 509 L322 511 L325 511 L325 514 L327 514 L330 514 L330 517 L333 517 " stroke = "#000000" stroke-width = "1" fill = "none" />	<path d = "M333 517 L333 511 L333 506 L333 500 L333 495 L333 489 L333 484 L333 478 L333 473 L333 467 L333 462 L333 456 L333 451 L333 445 L333 440 " stroke = "#000000" stroke-width = "1" fill = "none" />	<path d = "M333 440 L330 440 L330 443 L327 443 L325 443 L325 445 L322 445 L322 448 L319 448 L316 448 L316 451 L314 451 L311 451 L311 454 L308 454 L305 454 L305 456 L303 456 L303 459 L300 459 " stroke = "#000000" stroke-width = "1" fill = "none" />	<path d = "M300 459 L300 454 L300 448 L300 443 L300 437 L300 432 L300 426 L300 421 L300 415 L300 410 L300 404 L300 399 L300 393 L303 393 L303 396 L305 396 L308 396 L308 399 L311 399 L311 401 L314 401 L316 401 L316 404 L319 404 L322 404 L322 407 L325 407 L325 410 L327 410 L330 410 L330 412 L333 412 " stroke = "#000000" stroke-width = "1" fill = "none" />	<path d = "M333 412 L333 407 L333 401 L333 396 L333 390 L333 385 L333 379 L333 374 L333 368 L333 363 L333 357 L333 352 L333 346 L333 341 L333 335 " stroke = "#000000" stroke-width = "1" fill = "none" />	<path d = "M333 335 L330 335 L330 338 L327 338 L325 338 L325 341 L322 341 L322 344 L319 344 L316 344 L316 346 L314 346 L311 346 L311 349 L308 349 L308 352 L305 352 L303 352 L303 355 L300 355 " stroke = "#000000" stroke-width = "1" fill = "none" />	<path d = "M300 355 L300 349 L300 344 L300 338 L300 333 L300 327 L300 322 L300 316 " stroke = "#000000" stroke-width = "1" fill = "none" />	<path d = "M300 316 L355 316 L410 316 L465 316 L520 316 " stroke = "#000000" stroke-width = "1" fill = "none" />	<path d = "M520 316 L520 322 L520 327 L520 333 L520 338 L520 344 L520 349 L520 355 " stroke = "#000000" stroke-width = "1" fill = "none" />	<path d = "M520 355 L517 355 L517 352 L514 352 L514 349 L512 349 L509 349 L509 346 L506 346 L503 346 L503 344 L501 344 L498 344 L498 341 L495 341 L495 338 L492 338 L490 338 L490 335 L487 335 " stroke = "#000000" stroke-width = "1" fill = "none" />	<path d = "M487 335 L487 341 L487 346 L487 352 L487 357 L487 363 L487 368 L487 374 L487 379 L487 385 L487 390 L487 396 L487 401 L487 407 L487 412 " stroke = "#000000" stroke-width = "1" fill = "none" />	<path d = "M487 412 L490 412 L490 410 L492 410 L495 410 L495 407 L498 407 L498 404 L501 404 L503 404 L503 401 L506 401 L509 401 L509 399 L512 399 L514 399 L514 396 L517 396 L517 393 L520 393 " stroke = "#000000" stroke-width = "1" fill = "none" />	<path d = "M520 393 L520 399 L520 404 L520 410 L520 415 L520 421 L520 426 L520 432 L520 437 L520 443 L520 448 L520 454 L520 459 L517 459 L517 456 L514 456 L512 456 L512 454 L509 454 L509 451 L506 451 L503 451 L503 448 L501 448 L498 448 L498 445 L495 445 L495 443 L492 443 L490 443 L490 440 L487 440 " stroke = "#000000" stroke-width = "1" fill = "none" />	<path d = "M487 440 L487 445 L487 451 L487 456 L487 462 L487 467 L487 473 L487 478 L487 484 L487 489 L487 495 L487 500 L487 506 L487 511 L487 517 " stroke = "#000000" stroke-width = "1" fill = "none" />	<path d = "M487 517 L490 517 L490 514 L492 514 L495 514 L495 511 L498 511 L498 509 L501 509 L503 509 L503 506 L506 506 L509 506 L509 503 L512 503 L512 500 L514 500 L517 500 L517 498 L520 498 " stroke = "#000000" stroke-width = "1" fill = "none" />	<path d = "M520 498 L520 503 L520 509 L520 514 L520 520 L520 525 L520 531 L520 536 " stroke = "#000000" stroke-width = "1" fill = "none" />	<path d = "M520 536 L465 536 L451 536 " stroke = "#000000" stroke-width = "1" fill = "none" />	<path d = "M451 536 L451 542 L451 547 L451 553 L451 558 L451 564 L451 569 " stroke = "#000000" stroke-width = "1" fill = "none" />	<path d = "M451 569 L424 569 L396 569 L369 569 " stroke = "#000000" stroke-width = "1" fill = "none" />	<path d = "M369 569 L369 564 L369 558 L369 553 L369 547 L369 542 L369 536 " stroke = "#000000" stroke-width = "1" fill = "none" />	<path d = "M369 536 L314 536 L300 536 " stroke = "#000000" stroke-width = "1" fill = "none" />	<path d = "M146 378 L144 376 L144 373 L144 371 L144 369 L144 366 L144 364 L144 362 L144 359 L144 357 L146 357 L146 359 L146 362 L146 364 L146 366 L146 369 L146 371 L146 373 L146 376 L147 376 L147 378 L146 378 Z" stroke = "#000000" stroke-width = "1" fill = "none" />	<path d = "M150 378 L150 376 L150 373 L150 371 L152 371 L152 373 L152 376 L152 378 L150 378 Z" stroke = "#000000" stroke-width = "1" fill = "none" />	<path d = "M154 378 L154 376 L156 376 L156 373 L156 371 L156 369 L156 366 L156 364 L156 362 L156 359 L156 357 L158 357 L158 359 L158 362 L158 364 L158 366 L158 369 L158 371 L158 373 L158 376 L156 378 L154 378 Z" stroke = "#000000" stroke-width = "1" fill = "none" />	<path d = "M165 378 L163 376 L163 373 L163 371 L163 369 L163 366 L163 364 L163 362 L163 359 L163 357 L165 357 L165 359 L165 362 L165 364 L165 366 L165 369 L165 371 L165 373 L165 376 L166 376 L166 378 L165 378 Z" stroke = "#000000" stroke-width = "1" fill = "none" />	<path d = "M168 378 L168 376 L168 373 L168 371 L171 371 L171 373 L171 376 L171 378 L168 378 Z" stroke = "#000000" stroke-width = "1" fill = "none" />	<path d = "M173 378 L173 376 L174 376 L174 373 L174 371 L174 369 L174 366 L174 364 L174 362 L174 359 L174 357 L177 357 L177 359 L177 362 L177 364 L177 366 L177 369 L177 371 L177 373 L177 376 L174 378 L173 378 Z" stroke = "#000000" stroke-width = "1" fill = "none" />	<path d = "M184 378 L181 376 L181 373 L181 371 L181 369 L181 366 L181 364 L181 362 L181 359 L181 357 L184 357 L184 359 L184 362 L184 364 L184 366 L184 369 L184 371 L184 373 L184 376 L185 376 L185 378 L184 378 Z" stroke = "#000000" stroke-width = "1" fill = "none" />	<path d = "M187 378 L187 376 L187 373 L187 371 L190 371 L190 373 L190 376 L190 378 L187 378 Z" stroke = "#000000" stroke-width = "1" fill = "none" />	<path d = "M192 378 L192 376 L193 376 L193 373 L193 371 L193 369 L193 366 L193 364 L193 362 L193 359 L193 357 L195 357 L195 359 L195 362 L195 364 L195 366 L195 369 L195 371 L195 373 L195 376 L193 378 L192 378 Z" stroke = "#000000" stroke-width = "1" fill = "none" />	<path d = "M208 378 L208 376 L206 376 L206 378 L208 378 Z" stroke = "#000000" stroke-width = "1" fill = "none" />	<path d = "M142 420 L140 420 L140 418 L140 415 L140 413 L140 411 L140 408 L140 406 L140 404 L140 401 L138 401 L136 401 L135 401 L135 399 L137 399 L139 399 L142 399 L144 399 L146 399 L149 399 L149 401 L146 401 L144 401 L143 401 L143 404 L143 406 L143 408 L143 411 L143 413 L143 415 L143 418 L143 420 L142 420 Z" stroke = "#000000" stroke-width = "1" fill = "none" />	<path d = "M153 420 L153 418 L153 415 L153 413 L153 411 L153 408 L153 406 L153 404 L153 401 L153 399 L156 399 L156 401 L156 404 L156 406 L156 408 L156 411 L156 413 L156 415 L156 418 L156 420 L153 420 Z" stroke = "#000000" stroke-width = "1" fill = "none" />	<path d = "M158 411 L158 408 L160 408 L163 408 L165 406 L165 404 L163 401 L160 401 L158 401 L158 399 L160 399 L163 399 L165 399 L167 401 L167 404 L167 406 L167 408 L165 411 L163 411 L160 411 L158 411 Z" stroke = "#000000" stroke-width = "1" fill = "none" />	<path d = "M167 420 L167 418 L165 415 L163 413 L160 413 L160 415 L163 418 L165 420 L167 420 Z" stroke = "#000000" stroke-width = "1" fill = "none" />	<path d = "M172 420 L172 418 L172 415 L172 413 L172 411 L172 408 L172 406 L172 404 L174 401 L177 399 L178 399 L178 401 L177 401 L174 404 L174 406 L174 408 L177 408 L178 408 L178 411 L175 411 L174 411 L174 413 L174 415 L174 418 L174 420 L172 420 Z" stroke = "#000000" stroke-width = "1" fill = "none" />	<path d = "M186 420 L184 420 L184 418 L184 415 L184 413 L184 411 L181 411 L180 411 L180 408 L182 408 L184 408 L184 406 L184 404 L181 401 L180 401 L180 399 L181 399 L186 404 L186 406 L186 408 L186 411 L186 413 L186 415 L186 418 L186 420 Z" stroke = "#000000" stroke-width = "1" fill = "none" />	<path d = "M191 401 L193 399 L195 399 L197 399 L197 401 L194 401 L193 401 L193 404 L193 406 L193 408 L195 408 L197 408 L197 411 L194 411 L193 411 L191 408 L191 406 L191 404 L191 401 Z" stroke = "#000000" stroke-width = "1" fill = "none" />	<path d = "M199 401 L199 399 L201 399 L202 399 L205 401 L205 404 L202 404 L202 401 L200 401 L199 401 Z" stroke = "#000000" stroke-width = "1" fill = "none" />	<path d = "M199 411 L199 408 L201 408 L202 408 L205 411 L205 413 L205 415 L205 418 L202 420 L200 420 L199 420 L199 418 L201 418 L202 418 L202 415 L202 413 L202 411 L200 411 L199 411 Z" stroke = "#000000" stroke-width = "1" fill = "none" />	<path d = "M197 420 L197 418 L194 418 L193 418 L193 415 L191 415 L191 418 L193 420 L195 420 L197 420 Z" stroke = "#000000" stroke-width = "1" fill = "none" />	<path d = "M209 420 L209 418 L209 415 L209 413 L209 411 L209 408 L209 406 L209 404 L209 401 L209 399 L212 399 L212 401 L212 404 L212 406 L212 408 L214 408 L215 408 L215 411 L213 411 L212 411 L212 413 L212 415 L212 418 L212 420 L209 420 Z" stroke = "#000000" stroke-width = "1" fill = "none" />	<path d = "M221 420 L221 418 L221 415 L221 413 L221 411 L219 411 L218 411 L218 408 L220 408 L221 408 L221 406 L221 404 L221 401 L221 399 L223 399 L223 401 L223 404 L223 406 L223 408 L223 411 L223 413 L223 415 L223 418 L223 420 L221 420 Z" stroke = "#000000" stroke-width = "1" fill = "none" />	<path d = "M144 462 L144 460 L144 457 L144 455 L144 453 L144 450 L144 448 L144 446 L144 443 L144 441 L146 441 L146 443 L146 446 L146 448 L146 450 L146 453 L146 455 L146 457 L146 460 L146 462 L144 462 Z" stroke = "#000000" stroke-width = "1" fill = "none" />	<path d = "M149 453 L149 450 L151 450 L153 450 L156 448 L156 446 L153 443 L151 443 L149 443 L149 441 L151 441 L153 441 L156 441 L158 443 L158 446 L158 448 L158 450 L156 453 L153 453 L151 453 L149 453 Z" stroke = "#000000" stroke-width = "1" fill = "none" />	<path d = "M158 462 L158 460 L156 457 L153 455 L151 455 L151 457 L153 460 L156 462 L158 462 Z" stroke = "#000000" stroke-width = "1" fill = "none" />	<path d = "M168 462 L168 460 L167 460 L165 457 L165 455 L165 453 L165 450 L165 448 L165 446 L167 443 L168 443 L168 441 L166 441 L165 441 L163 443 L163 446 L163 448 L163 450 L163 453 L163 455 L163 457 L163 460 L165 462 L167 462 L168 462 Z" stroke = "#000000" stroke-width = "1" fill = "none" />	<path d = "M171 462 L171 460 L172 460 L174 457 L174 455 L174 453 L174 450 L174 448 L174 446 L172 443 L171 443 L171 441 L173 441 L174 441 L177 443 L177 446 L177 448 L177 450 L177 453 L177 455 L177 457 L177 460 L174 462 L172 462 L171 462 Z" stroke = "#000000" stroke-width = "1" fill = "none" />	<path d = "M186 462 L186 460 L184 460 L184 457 L184 455 L184 453 L186 453 L186 450 L184 450 L184 448 L184 446 L184 443 L186 443 L186 441 L184 441 L181 441 L181 443 L181 446 L181 448 L181 450 L181 453 L181 455 L181 457 L181 460 L181 462 L184 462 L186 462 Z" stroke = "#000000" stroke-width = "1" fill = "none" />	<path d = "M188 462 L188 460 L191 460 L193 457 L193 455 L193 454 L191 452 L193 449 L193 447 L193 446 L191 443 L188 443 L188 441 L191 441 L195 446 L195 448 L195 450 L194 452 L195 453 L195 455 L195 457 L191 462 L188 462 Z" stroke = "#000000" stroke-width = "1" fill = "none" />	<path d = "M206 462 L206 460 L205 460 L202 457 L202 455 L202 453 L202 450 L202 448 L202 446 L205 443 L206 443 L206 441 L204 441 L202 441 L200 443 L200 446 L200 448 L200 450 L200 453 L200 455 L200 457 L200 460 L202 462 L205 462 L206 462 Z" stroke = "#000000" stroke-width = "1" fill = "none" />	<path d = "M208 462 L208 460 L209 460 L212 457 L212 455 L212 453 L212 450 L212 448 L212 446 L209 443 L208 443 L208 441 L211 441 L212 441 L214 443 L214 446 L214 448 L214 450 L214 453 L214 455 L214 457 L214 460 L212 462 L209 462 L208 462 Z" stroke = "#000000" stroke-width = "1" fill = "none" />	<path d = "M226 462 L225 462 L225 460 L225 457 L225 455 L225 453 L225 450 L225 448 L225 446 L225 443 L222 443 L220 443 L219 443 L219 441 L221 441 L223 441 L226 441 L228 441 L230 441 L233 441 L233 443 L230 443 L228 443 L227 443 L227 446 L227 448 L227 450 L227 453 L227 455 L227 457 L227 460 L227 462 L226 462 Z" stroke = "#000000" stroke-width = "1" fill = "none" />	<path d = "M161 504 L161 502 L159 502 L159 504 L161 504 Z" stroke = "#000000" stroke-width = "1" fill = "none" />	<path d = "M178 504 L178 502 L177 502 L174 499 L174 497 L174 495 L174 492 L174 490 L174 488 L177 485 L178 485 L178 483 L175 483 L174 483 L172 485 L172 488 L172 490 L172 492 L172 495 L172 497 L172 499 L172 502 L174 504 L177 504 L178 504 Z" stroke = "#000000" stroke-width = "1" fill = "none" />	<path d = "M180 504 L180 502 L181 502 L184 499 L184 497 L184 495 L184 492 L184 490 L184 488 L181 485 L180 485 L180 483 L182 483 L184 483 L186 485 L186 488 L186 490 L186 492 L186 495 L186 497 L186 499 L186 502 L184 504 L181 504 L180 504 Z" stroke = "#000000" stroke-width = "1" fill = "none" />	<path d = "M191 504 L191 502 L191 499 L191 497 L191 495 L191 492 L191 490 L191 488 L191 485 L191 483 L193 483 L193 485 L193 488 L193 490 L193 492 L193 495 L193 497 L193 499 L193 502 L193 504 L191 504 Z" stroke = "#000000" stroke-width = "1" fill = "none" />	<path d = "M195 495 L195 492 L198 492 L200 492 L202 490 L202 488 L200 485 L198 485 L195 485 L195 483 L198 483 L200 483 L202 483 L205 485 L205 488 L205 490 L205 492 L202 495 L200 495 L198 495 L195 495 Z" stroke = "#000000" stroke-width = "1" fill = "none" />	<path d = "M205 504 L205 502 L202 499 L200 497 L198 497 L198 499 L200 502 L202 504 L205 504 Z" stroke = "#000000" stroke-width = "1" fill = "none" />	<path d = "M212 504 L209 502 L209 499 L209 497 L209 495 L209 492 L209 490 L209 488 L209 485 L212 483 L214 483 L215 483 L215 485 L213 485 L212 485 L212 488 L212 490 L212 492 L212 495 L212 497 L212 499 L212 502 L214 502 L216 502 L219 502 L219 504 L216 504 L214 504 L212 504 " stroke = "#000000" stroke-width = "1" fill = "none" />	<path d = "M221 504 L221 502 L221 499 L219 499 L218 499 L218 497 L220 497 L222 497 L223 497 L223 499 L223 502 L223 504 L221 504 " stroke = "#000000" stroke-width = "1" fill = "none" />	<path d = "M223 487 L221 487 L221 485 L219 485 L218 485 L218 483 L219 483 L221 483 L223 485 L223 487 " stroke = "#000000" stroke-width = "1" fill = "none" /></svg>