<svg width="600" height="500" viewbox = "0 0 600 500"  xmlns="http://www.w3.org/2000/svg">
<!--<json>{
  "glyph": "0336,0330,0330,0330,0330,0337,0335,0227,0335,0335,0227,",
  "x0": 300,
  "y0": 332.64462809917353,
  "unit": 45.45454545454545,
  "width": 600,
  "height": 500,
  "style": {
    "color0": "black",
    "fill0": "black",
    "line0": 1,
    "color1": "black",
    "fill1": "black",
    "line1": 5,
    "color2": "red",
    "fill2": "red",
    "line2": 4,
    "color3": "#FF7900",
    "fill3": "#FF7900",
    "line3": 4,
    "color4": "yellow",
    "fill4": "yellow",
    "line4": 4,
    "color5": "green",
    "fill5": "green",
    "line5": 4,
    "color6": "blue",
    "fill6": "blue",
    "line6": 4,
    "color7": "purple",
    "fill7": "purple",
    "line7": 4
  },
  "shapes": [
    "0220:0201,0335,0313,0336,0201,0316,0336,0201,0335,0337,0313,0337,0201,0335,0336,0330,0316,0336,0330,0335,0337,0313,0337,",
    "0221:0201,0334,0336,0201,0316,0336,0201,0334,0337,0313,0337,0201,0335,0335,0336,0333,0316,0336,0333,0337,0313,0337,",
    "0222:0330,0330,0330,0330,0334,0362,0203,0203,0203,0203,0203,0203,0334,0203,0203,0203,0203,0203,0203,0203,0203,0334,0203,0203,0203,0203,0203,0203,0203,0203,0203,0203,0203,0203,0334,0203,0203,0203,0203,0203,0203,0203,0203,0334,0203,0203,0203,0203,0203,0203,0354,0335,0331,0331,0331,0331,",
    "0223:0332,0332,0336,0336,0332,0332,0332,0337,0337,0313,0336,0316,0336,0362,0203,0203,0203,0337,0313,0337,0335,0203,0203,0203,0203,0203,0336,0203,0335,0337,0313,0336,0316,0336,0203,0203,0203,0203,0203,0203,0335,0337,0313,0337,0203,0203,0203,0203,0203,0336,0203,0335,0337,0336,0316,0336,0203,0203,0203,0354,0337,0313,0333,0333,0333,0333,0336,0333,0333,0333,0337,0337,",
    "0224:0222,0223,0333,0333,0333,0333,0333,0330,0330,0330,0333,0334,0221,0332,0332,0332,0332,0332,0332,0220,0330,0330,0330,0330,0330,0330,0330,0330,0330,0330,0330,0330,0335,0335,0221,0332,0332,0332,0332,0332,0332,0220,0334,0331,0331,0331,0333,0333,0333,0333,0333,0333,",
    "0225:0336,0201,0336,0330,0340,0330,0337,0337,",
    "0226:0336,0362,0203,0203,0334,0203,0203,0203,0203,0203,0203,0203,0203,0203,0203,0203,0203,0334,0203,0203,0334,0336,0336,0203,0203,0203,0334,0337,0337,0203,0335,0336,0316,0336,0203,0203,0203,0203,0203,0203,0335,0337,0203,0203,0334,0314,0313,0337,0203,0203,0203,0203,0203,0203,0203,0203,0203,0336,0316,0336,0203,0203,0203,0334,0337,0203,0203,0335,0336,0203,0203,0203,0203,0203,0203,0335,0337,0203,0203,0334,0313,0337,0336,0336,0203,0203,0203,0354,0334,0337,0337,0337,",
    "0227:0334,0362,0203,0203,0203,0203,0336,0203,0335,0337,0203,0336,0203,0335,0337,0203,0336,0336,0203,0203,0203,0334,0337,0337,0203,0203,0203,0203,0336,0203,0335,0203,0337,0203,0203,0203,0203,0203,0335,0203,0203,0203,0203,0336,0203,0334,0337,0203,0336,0336,0203,0203,0203,0335,0337,0337,0203,0336,0203,0335,0337,0203,0203,0203,0203,0336,0203,0354,0335,0330,0330,0330,0330,0330,0330,0330,0330,0330,0330,0330,0330,0337,0331,0330,0332,0332,0332,0336,0336,0333,0337,0337,0335,0333,0330,0362,0203,0203,0203,0336,0203,0337,0335,0203,0336,0203,0335,0337,0203,0203,0203,0336,0203,0336,0335,0337,0337,0203,0336,0203,0354,0333,0333,0333,0336,0333,0337,0331,0331,0331,0331,0331,0331,0331,0331,0331,0331,0337,",
    "0231:0321,0342,0330,0320,0336,0230,0331,0331,0337,0350,0335,0304,",
    "0232:0231,0231,0231,0231,0231,0231,0231,0231,",
    "0233:0220,0336,0210,0232,",
    "0234:0220,0336,0335,0335,0331,0335,0331,0337,0321,0342,0332,0342,0336,0333,0337,0342,0330,0336,0336,0336,0330,0337,0366,0332,0332,0332,0367,0350,0335,0306,0350,0320,0335,0362,0203,0334,0334,0334,0334,0203,0334,0334,0334,0334,0203,0363,0335,0304,0350,0335,0304,0335,0335,0331,0331,0332,01015,0145,0154,0145,0155,0145,0156,0164,040,0144,0157,0167,0156,0365,0330,0330,0330,0330,0330,0333,0333,0333,0336,0332,0337,0333,0337,0337,",
    "0235:0220,0321,0336,0342,0335,0342,0335,0342,0335,0342,0335,0337,",
    "0236:0321,0220,0335,0336,0321,0342,0335,0335,0342,0335,0337,",
    "0237:0220,0336,0331,0332,0336,0321,0342,0335,0342,0335,0342,0335,0342,0335,0330,0330,0333,0333,0337,0337,",
    "01220:0333,0200,0336,0330,0332,0336,0335,0335,0342,0335,0335,0220,0331,0331,0333,0333,0337,0337,",
    "01221:0333,0200,0336,0330,0332,0336,0335,0335,0342,0334,0334,0221,0331,0331,0333,0333,0337,0337,",
    "01222:0333,0200,0336,0330,0332,0336,0336,0336,0222,0337,0337,0331,0333,0336,0331,0333,0331,0333,0337,0337,0337,",
    "01223:0333,0200,0336,0330,0332,0336,0331,0330,0336,0223,0337,0333,0333,0331,0331,0337,0337,",
    "01224:0333,0200,0336,0330,0332,0336,0336,0336,0224,0337,0337,0337,0331,0333,0337,",
    "01225:0333,0200,0336,0332,0336,0336,0225,0225,0225,0225,0225,0225,0225,0225,0333,0333,0333,0333,0337,0337,0331,0331,0337,",
    "01226:0333,0200,0336,0336,0330,0332,0226,0331,0333,0337,0337,",
    "01227:0333,0200,0336,0330,0332,0336,0336,0336,0227,0337,0337,0331,0331,0333,0333,0337,0337,",
    "01230:0333,0200,0336,0330,0332,0336,0331,0330,0230,0331,0331,0333,0333,0337,0337,",
    "01231:0333,0200,",
    "01232:0333,0200,",
    "01233:0333,0200,",
    "01234:0333,0200,",
    "01235:0333,0200,",
    "01236:0333,0200,",
    "01237:0333,0200,",
    "0240:0220,0336,0331,0333,0336,0321,0335,0342,0335,0335,0342,0335,0330,0330,0332,0332,0337,0337,",
    "01240:0333,0200,0336,0330,0332,0210,0240,0211,0333,0331,0337,",
    "0241:0220,0336,0321,0343,0332,0350,0335,0336,0342,0334,0334,0342,0335,0304,0337,0333,0337,",
    "01241:0333,0200,0336,0332,0330,0210,0241,0211,0333,0331,0337,",
    "0242:0220,0321,0336,0343,0333,0336,0350,0335,0342,0334,0334,0342,0335,0337,0304,0332,0337,",
    "01242:0333,0200,0336,0330,0332,0210,0242,0211,0333,0331,0337,",
    "0243:0220,0336,0331,0332,0336,0321,0343,0332,0350,0334,0336,0342,0335,0335,0342,0337,0334,0334,0335,0304,0332,0330,0330,0337,0337,0333,",
    "01243:0333,0200,0336,0330,0332,0210,0243,0211,0333,0331,0337,",
    "0244:0220,0336,0331,0333,0336,0321,0343,0333,0350,0336,0335,0342,0334,0334,0342,0335,0337,0304,0333,0330,0330,0337,0337,0332,",
    "01244:0333,0200,0336,0330,0332,0210,0244,0211,0333,0331,0337,",
    "0245:0210,0332,0332,0362,0335,0203,0203,0203,0203,0334,0203,0363,0332,0332,0331,0211,",
    "01245:0333,0200,0336,0330,0332,0336,0245,0337,0333,0331,0337,",
    "0246:0210,0332,0332,0335,0306,0336,0330,0335,0335,0335,0321,0362,0203,0335,0335,0203,0364,0331,0350,0335,0337,0366,0333,0333,0333,0333,0334,0334,0334,0334,0367,0335,0336,0342,0334,0334,0342,0330,0330,0330,0330,0335,0335,0335,0304,0337,0211,",
    "01246:0333,0200,0336,0330,0332,0336,0246,",
    "0247:0330,0332,0336,0332,0336,0221,0333,0333,0333,0222,0333,0333,0333,0223,0333,0333,0333,0225,0333,0331,0331,0331,0332,0332,0332,0332,0332,0332,0332,0332,0332,0332,0332,0332,0333,0333,0226,0331,0331,0331,0333,0333,0333,0333,0333,0333,0333,0333,0333,0333,0333,0333,0333,0330,0333,0330,0330,0333,0330,0331,0332,0332,0332,0332,0332,0332,0332,0332,0332,0332,0332,0332,0227,0333,0333,0333,0230,0333,0331,0331,0331,0331,0332,0332,0332,0330,0332,0332,0332,0332,0332,0332,0333,0333,0231,0333,0333,0333,0232,0331,0333,0330,0333,0333,0233,0333,0333,0333,0234,0330,0330,0332,0330,0332,0332,0337,0337,",
    "01247:0333,0200,0336,0330,0332,0220,0336,0247,0337,0331,0333,0337,"
  ]
}</json>-->	<path d = "M300 242 L300 196 L300 151 L300 105 L300 60 L300 37 L345 37 L368 37 L368 83 L368 94 L368 105 L368 117 L414 117 L459 117 L505 117 L550 117 L573 117 L573 139 L573 185 L573 230 L573 276 L573 321 L573 367 L527 367 L482 367 L436 367 L391 367 L368 367 L368 412 L368 424 L368 435 L368 446 L323 446 L300 446 L300 401 L300 355 L300 310 L300 264 L300 242 Z" stroke = "#000000" stroke-width = "1" fill = "none" />	<path d = "M527 162 L527 208 L527 253 L527 299 L527 321 L482 321 L459 321 L459 276 L459 230 L459 185 L459 162 L505 162 L527 162 Z" stroke = "#000000" stroke-width = "1" fill = "none" />	<path d = "M300 242 L300 287 L300 333 L300 378 L300 424 L300 446 L255 446 L232 446 L232 401 L232 389 L232 378 L232 367 L186 367 L141 367 L95 367 L50 367 L27 367 L27 344 L27 299 L27 253 L27 208 L27 162 L27 117 L73 117 L118 117 L164 117 L209 117 L232 117 L232 71 L232 60 L232 49 L232 37 L277 37 L300 37 L300 83 L300 128 L300 174 L300 219 L300 242 Z" stroke = "#000000" stroke-width = "1" fill = "none" />	<path d = "M73 321 L73 276 L73 230 L73 185 L73 162 L118 162 L141 162 L141 208 L141 253 L141 299 L141 321 L95 321 L73 321 Z" stroke = "#000000" stroke-width = "1" fill = "none" /></svg>