<svg width="2500" height="2500" viewbox = "0 0 2500 2500"  xmlns="http://www.w3.org/2000/svg">
<!--<json>{
  "glyph": "0322,0330,0330,0333,0333,0362,0203,0334,0203,0203,0203,0203,0334,0203,0334,0203,0203,0203,0203,0363,0323,0335,0362,0203,0335,0203,0203,0203,0203,0335,0203,0335,0203,0203,0203,0203,0363,0335,0330,0324,0362,0203,0335,0203,0203,0203,0203,0335,0203,0335,0203,0203,0203,0203,0363,0335,0330,0325,0362,0203,0335,0203,0203,0203,0203,0335,0203,0335,0203,0203,0203,0203,0363,0335,0330,0326,0362,0203,0335,0203,0203,0203,0203,0335,0203,0335,0203,0203,0203,0203,0363,0335,0330,0327,0362,0203,0335,0203,0203,0203,0203,0335,0203,0335,0203,0203,0203,0203,0363,0334,0331,0321,0362,0203,0203,0203,0203,0203,0203,0334,0203,0203,0203,0203,0334,0203,0203,0203,0203,0203,0203,0334,0203,0203,0203,0203,0354,0334,0330,0330,0330,0332,0332,0336,0332,0332,0330,0347,0333,0333,0333,0331,0333,0336,0330,0337,0211,0211,0347,0210,0210,0320,0336,0331,0333,0336,0331,0337,0347,0337,0330,0332,0332,0332,0330,0332,0332,0331,0333,0336,0336,0331,0332,0337,0347,0331,0331,0331,0331,0331,0331,0331,0331,0331,0337,0362,0203,0335,0203,0203,0203,0335,0203,0203,0335,0203,0203,0203,0335,0203,0363,0300,0211,0211,0211,0330,0322,0330,0332,0332,0336,0332,0331,0337,01124,0220,0323,01122,0220,0324,01101,0325,0220,01123,0326,0220,01110,0330,0330,0330,0330,0333,0333,0333,0336,0333,0337,0327,01122,0220,0322,01117,0323,0220,01102,0324,0220,01117,0325,0220,01124,",
  "x0": 1250,
  "y0": 1250,
  "unit": 276.18169715144825,
  "width": 2500,
  "height": 2500,
  "style": {
    "color0": "black",
    "fill0": "black",
    "line0": 1,
    "color1": "black",
    "fill1": "white",
    "line1": 5,
    "color2": "red",
    "fill2": "red",
    "line2": 1,
    "color3": "#FF7900",
    "fill3": "#FF7900",
    "line3": 1,
    "color4": "yellow",
    "fill4": "yellow",
    "line4": 1,
    "color5": "green",
    "fill5": "green",
    "line5": 1,
    "color6": "blue",
    "fill6": "blue",
    "line6": 1,
    "color7": "purple",
    "fill7": "purple",
    "line7": 1
  },
  "shapes": [
    "0220:0336,0336,0333,0337,0337,0331,0332,",
    "0221:0305,0350,0350,0334,0362,0203,0335,0335,0203,0335,0335,0335,0335,0335,0335,0335,0335,0203,0335,0335,0203,0363,0335,0335,0335,0335,0335,0335,0335,0335,0335,",
    "0222:0341,0336,0333,0341,0332,0337,0333,0333,0333,",
    "0223:0305,0350,0201,0335,0201,0335,0335,0335,0335,0201,0335,0201,0335,0335,0335,0335,",
    "0230:0336,0336,0347,0337,0337,0350,0336,0310,0343,0337,0343,0337,0343,0336,0336,0304,0313,0336,0337,0337,0335,0305,0335,0311,0337,0362,0203,0335,0350,0335,0336,0203,0335,0335,0335,0337,0203,0363,0335,0335,0336,0304,0334,0313,",
    "0231:0321,0342,0330,0320,0336,0230,0331,0331,0337,0350,0335,0304,",
    "0232:0231,0231,0231,0231,0231,0231,0231,0231,",
    "0233:0220,0336,0210,0232,",
    "0234:0220,0336,0335,0335,0331,0335,0331,0337,0321,0342,0332,0342,0336,0333,0337,0342,0330,0336,0336,0336,0330,0337,0366,0332,0332,0332,0367,0350,0335,0306,0350,0320,0335,0362,0203,0334,0334,0334,0334,0203,0334,0334,0334,0334,0203,0363,0335,0304,0350,0335,0304,0335,0335,0331,0331,0332,01015,0145,0154,0145,0155,0145,0156,0164,040,0144,0157,0167,0156,0365,0330,0330,0330,0330,0330,0333,0333,0333,0336,0332,0337,0333,0337,0337,",
    "0235:0220,0321,0336,0342,0335,0342,0335,0342,0335,0342,0335,0337,",
    "0236:0321,0220,0335,0336,0321,0342,0335,0335,0342,0335,0337,",
    "0237:0220,0336,0331,0332,0336,0321,0342,0335,0342,0335,0342,0335,0342,0335,0330,0330,0333,0333,0337,0337,",
    "01220:0333,0200,0336,0330,0332,0336,0331,0336,0331,0336,0336,0347,0337,0337,0333,0336,0336,0347,0337,0337,0337,0333,0336,0331,0333,0337,0337,0337,",
    "01221:0333,0200,0336,0330,0332,0336,0326,0221,0320,0313,0304,0337,0331,0333,0337,",
    "01222:0333,0200,",
    "01223:0333,0200,0336,0330,0332,0336,0331,0337,0223,0313,0304,0331,0336,0330,0333,0333,0337,0337,",
    "01224:0333,0200,0336,0332,0336,0330,0336,0332,0332,0331,0332,0224,",
    "01225:0333,0200,0336,0330,0332,0336,0331,0332,0336,0331,0332,0225,0331,0332,0320,0337,0337,0337,0333,",
    "01226:0333,0200,0336,0330,0332,0336,0332,0336,0332,0337,0226,0331,0331,0333,0333,0333,0336,0333,0337,0337,0337,",
    "01227:0333,0200,0336,0330,0332,0336,0332,0337,0227,0333,0336,0333,0337,0331,0337,",
    "01230:0333,0200,",
    "01231:0333,0200,",
    "01232:0333,0200,",
    "01233:0333,0200,",
    "01234:0333,0200,",
    "01235:0333,0200,",
    "01236:0333,0200,",
    "01237:0333,0200,",
    "0240:0220,0336,0331,0333,0336,0321,0335,0342,0335,0335,0342,0335,0330,0330,0332,0332,0337,0337,",
    "01240:0333,0200,0336,0330,0332,0210,0240,0211,0333,0331,0337,",
    "0241:0220,0336,0321,0343,0332,0350,0335,0336,0342,0334,0334,0342,0335,0304,0337,0333,0337,",
    "01241:0333,0200,0336,0332,0330,0210,0241,0211,0333,0331,0337,",
    "0242:0220,0321,0336,0343,0333,0336,0350,0335,0342,0334,0334,0342,0335,0337,0304,0332,0337,",
    "01242:0333,0200,0336,0330,0332,0210,0242,0211,0333,0331,0337,",
    "0243:0220,0336,0331,0332,0336,0321,0343,0332,0350,0334,0336,0342,0335,0335,0342,0337,0334,0334,0335,0304,0332,0330,0330,0337,0337,0333,",
    "01243:0333,0200,0336,0330,0332,0210,0243,0211,0333,0331,0337,",
    "0244:0220,0336,0331,0333,0336,0321,0343,0333,0350,0336,0335,0342,0334,0334,0342,0335,0337,0304,0333,0330,0330,0337,0337,0332,",
    "01244:0333,0200,0336,0330,0332,0210,0244,0211,0333,0331,0337,",
    "0245:0210,0332,0332,0362,0335,0203,0203,0203,0203,0334,0203,0363,0332,0332,0331,0211,",
    "01245:0333,0200,0336,0330,0332,0336,0245,0337,0333,0331,0337,",
    "0246:0210,0332,0332,0335,0306,0336,0330,0335,0335,0335,0321,0362,0203,0335,0335,0203,0364,0331,0350,0335,0337,0366,0333,0333,0333,0333,0334,0334,0334,0334,0367,0335,0336,0342,0334,0334,0342,0330,0330,0330,0330,0335,0335,0335,0304,0337,0211,",
    "01246:0333,0200,0336,0330,0332,0336,0246,",
    "0247:0330,0332,0336,0332,0336,0221,0333,0333,0333,0222,0333,0333,0333,0223,0333,0333,0333,0225,0333,0331,0331,0331,0332,0332,0332,0332,0332,0332,0332,0332,0332,0332,0332,0332,0333,0333,0226,0331,0331,0331,0333,0333,0333,0333,0333,0333,0333,0333,0333,0333,0333,0333,0333,0330,0333,0330,0330,0333,0330,0331,0332,0332,0332,0332,0332,0332,0332,0332,0332,0332,0332,0332,0227,0333,0333,0333,0230,0333,0331,0331,0331,0331,0332,0332,0332,0330,0332,0332,0332,0332,0332,0332,0333,0333,0231,0333,0333,0333,0232,0331,0333,0330,0333,0333,0233,0333,0333,0333,0234,0330,0330,0332,0330,0332,0332,0337,0337,",
    "01247:0333,0200,0336,0330,0332,0220,0336,0247,0337,0331,0333,0337,"
  ]
}</json>-->	<path d = "M1802 698 L1802 421 L1526 421 L1250 421 L974 421 L698 421 L698 698 L974 698 L1250 698 L1526 698 L1802 698 Z" stroke = "#ff0000" stroke-width = "1" fill = "#ff0000" />	<path d = "M1802 698 L1802 974 L1526 974 L1250 974 L974 974 L698 974 L698 698 L974 698 L1250 698 L1526 698 L1802 698 Z" stroke = "#ff7900" stroke-width = "1" fill = "#ff7900" />	<path d = "M1802 974 L1802 1250 L1526 1250 L1250 1250 L974 1250 L698 1250 L698 974 L974 974 L1250 974 L1526 974 L1802 974 Z" stroke = "#ffff00" stroke-width = "1" fill = "#ffff00" />	<path d = "M1802 1250 L1802 1526 L1526 1526 L1250 1526 L974 1526 L698 1526 L698 1250 L974 1250 L1250 1250 L1526 1250 L1802 1250 Z" stroke = "#008000" stroke-width = "1" fill = "#008000" />	<path d = "M1802 1526 L1802 1802 L1526 1802 L1250 1802 L974 1802 L698 1802 L698 1526 L974 1526 L1250 1526 L1526 1526 L1802 1526 Z" stroke = "#0000ff" stroke-width = "1" fill = "#0000ff" />	<path d = "M1802 1802 L1802 2079 L1526 2079 L1250 2079 L974 2079 L698 2079 L698 1802 L974 1802 L1250 1802 L1526 1802 L1802 1802 Z" stroke = "#800080" stroke-width = "1" fill = "#800080" />	<path d = "M1802 2079 L1802 1802 L1802 1526 L1802 1250 L1802 974 L1802 698 L1802 421 L1526 421 L1250 421 L974 421 L698 421 L698 698 L698 974 L698 1250 L698 1526 L698 1802 L698 2079 L974 2079 L1250 2079 L1526 2079 L1802 2079 Z" stroke = "#000000" stroke-width = "5" fill = "none" />    <circle cx="974" cy = "1112" r = "138.09084857572412" stroke = "#000000" stroke-width = "5" fill = "#ffffff" />
    <circle cx="1526" cy = "1181" r = "180.76326755328037" stroke = "#000000" stroke-width = "5" fill = "#ffffff" />
    <circle cx="1595" cy = "1285" r = "69.04542428786205" stroke = "#000000" stroke-width = "1" fill = "#000000" />
    <circle cx="1008" cy = "1181" r = "69.04542428786205" stroke = "#000000" stroke-width = "1" fill = "#000000" />
	<path d = "M1008 1802 L1008 1664 L1146 1664 L1285 1664 L1423 1664 L1423 1802 L1423 1940 L1285 1940 L1146 1940 L1008 1940 L1008 1802 Z" stroke = "#000000" stroke-width = "1" fill = "#000000" />    <circle cx="268" cy = "319" r = "25.851922103609493" stroke = "#ff0000" stroke-width = "1" fill = "#ff0000" />
    <circle cx="319" cy = "319" r = "25.851922103609493" stroke = "#ff0000" stroke-width = "1" fill = "#ff0000" />
    <circle cx="371" cy = "319" r = "25.851922103609493" stroke = "#ff0000" stroke-width = "1" fill = "#ff0000" />
    <circle cx="423" cy = "319" r = "25.851922103609493" stroke = "#ff0000" stroke-width = "1" fill = "#ff0000" />
    <circle cx="474" cy = "319" r = "25.851922103609493" stroke = "#ff0000" stroke-width = "1" fill = "#ff0000" />
    <circle cx="371" cy = "371" r = "25.851922103609493" stroke = "#ff0000" stroke-width = "1" fill = "#ff0000" />
    <circle cx="371" cy = "423" r = "25.851922103609493" stroke = "#ff0000" stroke-width = "1" fill = "#ff0000" />
    <circle cx="371" cy = "474" r = "25.851922103609493" stroke = "#ff0000" stroke-width = "1" fill = "#ff0000" />
    <circle cx="371" cy = "526" r = "25.851922103609493" stroke = "#ff0000" stroke-width = "1" fill = "#ff0000" />
    <circle cx="371" cy = "578" r = "25.851922103609493" stroke = "#ff0000" stroke-width = "1" fill = "#ff0000" />
    <circle cx="371" cy = "630" r = "25.851922103609493" stroke = "#ff0000" stroke-width = "1" fill = "#ff0000" />
    <circle cx="268" cy = "1043" r = "25.851922103609493" stroke = "#ff7900" stroke-width = "1" fill = "#ff7900" />
    <circle cx="268" cy = "991" r = "25.851922103609493" stroke = "#ff7900" stroke-width = "1" fill = "#ff7900" />
    <circle cx="268" cy = "940" r = "25.851922103609493" stroke = "#ff7900" stroke-width = "1" fill = "#ff7900" />
    <circle cx="268" cy = "888" r = "25.851922103609493" stroke = "#ff7900" stroke-width = "1" fill = "#ff7900" />
    <circle cx="268" cy = "836" r = "25.851922103609493" stroke = "#ff7900" stroke-width = "1" fill = "#ff7900" />
    <circle cx="268" cy = "785" r = "25.851922103609493" stroke = "#ff7900" stroke-width = "1" fill = "#ff7900" />
    <circle cx="268" cy = "733" r = "25.851922103609493" stroke = "#ff7900" stroke-width = "1" fill = "#ff7900" />
    <circle cx="319" cy = "733" r = "25.851922103609493" stroke = "#ff7900" stroke-width = "1" fill = "#ff7900" />
    <circle cx="371" cy = "733" r = "25.851922103609493" stroke = "#ff7900" stroke-width = "1" fill = "#ff7900" />
    <circle cx="423" cy = "733" r = "25.851922103609493" stroke = "#ff7900" stroke-width = "1" fill = "#ff7900" />
    <circle cx="474" cy = "785" r = "25.851922103609493" stroke = "#ff7900" stroke-width = "1" fill = "#ff7900" />
    <circle cx="474" cy = "836" r = "25.851922103609493" stroke = "#ff7900" stroke-width = "1" fill = "#ff7900" />
    <circle cx="423" cy = "888" r = "25.851922103609493" stroke = "#ff7900" stroke-width = "1" fill = "#ff7900" />
    <circle cx="371" cy = "888" r = "25.851922103609493" stroke = "#ff7900" stroke-width = "1" fill = "#ff7900" />
    <circle cx="319" cy = "888" r = "25.851922103609493" stroke = "#ff7900" stroke-width = "1" fill = "#ff7900" />
    <circle cx="371" cy = "940" r = "25.851922103609493" stroke = "#ff7900" stroke-width = "1" fill = "#ff7900" />
    <circle cx="423" cy = "991" r = "25.851922103609493" stroke = "#ff7900" stroke-width = "1" fill = "#ff7900" />
    <circle cx="474" cy = "1043" r = "25.851922103609493" stroke = "#ff7900" stroke-width = "1" fill = "#ff7900" />
    <circle cx="268" cy = "1457" r = "25.851922103609493" stroke = "#ffff00" stroke-width = "1" fill = "#ffff00" />
    <circle cx="268" cy = "1405" r = "25.851922103609493" stroke = "#ffff00" stroke-width = "1" fill = "#ffff00" />
    <circle cx="268" cy = "1353" r = "25.851922103609493" stroke = "#ffff00" stroke-width = "1" fill = "#ffff00" />
    <circle cx="268" cy = "1302" r = "25.851922103609493" stroke = "#ffff00" stroke-width = "1" fill = "#ffff00" />
    <circle cx="268" cy = "1250" r = "25.851922103609493" stroke = "#ffff00" stroke-width = "1" fill = "#ffff00" />
    <circle cx="268" cy = "1198" r = "25.851922103609493" stroke = "#ffff00" stroke-width = "1" fill = "#ffff00" />
    <circle cx="319" cy = "1147" r = "25.851922103609493" stroke = "#ffff00" stroke-width = "1" fill = "#ffff00" />
    <circle cx="371" cy = "1147" r = "25.851922103609493" stroke = "#ffff00" stroke-width = "1" fill = "#ffff00" />
    <circle cx="423" cy = "1147" r = "25.851922103609493" stroke = "#ffff00" stroke-width = "1" fill = "#ffff00" />
    <circle cx="474" cy = "1198" r = "25.851922103609493" stroke = "#ffff00" stroke-width = "1" fill = "#ffff00" />
    <circle cx="474" cy = "1250" r = "25.851922103609493" stroke = "#ffff00" stroke-width = "1" fill = "#ffff00" />
    <circle cx="474" cy = "1302" r = "25.851922103609493" stroke = "#ffff00" stroke-width = "1" fill = "#ffff00" />
    <circle cx="474" cy = "1353" r = "25.851922103609493" stroke = "#ffff00" stroke-width = "1" fill = "#ffff00" />
    <circle cx="474" cy = "1405" r = "25.851922103609493" stroke = "#ffff00" stroke-width = "1" fill = "#ffff00" />
    <circle cx="474" cy = "1457" r = "25.851922103609493" stroke = "#ffff00" stroke-width = "1" fill = "#ffff00" />
    <circle cx="423" cy = "1302" r = "25.851922103609493" stroke = "#ffff00" stroke-width = "1" fill = "#ffff00" />
    <circle cx="371" cy = "1302" r = "25.851922103609493" stroke = "#ffff00" stroke-width = "1" fill = "#ffff00" />
    <circle cx="319" cy = "1302" r = "25.851922103609493" stroke = "#ffff00" stroke-width = "1" fill = "#ffff00" />
    <circle cx="268" cy = "1819" r = "25.851922103609493" stroke = "#008000" stroke-width = "1" fill = "#008000" />
    <circle cx="319" cy = "1870" r = "25.851922103609493" stroke = "#008000" stroke-width = "1" fill = "#008000" />
    <circle cx="371" cy = "1870" r = "25.851922103609493" stroke = "#008000" stroke-width = "1" fill = "#008000" />
    <circle cx="423" cy = "1870" r = "25.851922103609493" stroke = "#008000" stroke-width = "1" fill = "#008000" />
    <circle cx="474" cy = "1819" r = "25.851922103609493" stroke = "#008000" stroke-width = "1" fill = "#008000" />
    <circle cx="474" cy = "1767" r = "25.851922103609493" stroke = "#008000" stroke-width = "1" fill = "#008000" />
    <circle cx="423" cy = "1715" r = "25.851922103609493" stroke = "#008000" stroke-width = "1" fill = "#008000" />
    <circle cx="371" cy = "1715" r = "25.851922103609493" stroke = "#008000" stroke-width = "1" fill = "#008000" />
    <circle cx="319" cy = "1715" r = "25.851922103609493" stroke = "#008000" stroke-width = "1" fill = "#008000" />
    <circle cx="268" cy = "1664" r = "25.851922103609493" stroke = "#008000" stroke-width = "1" fill = "#008000" />
    <circle cx="268" cy = "1612" r = "25.851922103609493" stroke = "#008000" stroke-width = "1" fill = "#008000" />
    <circle cx="319" cy = "1560" r = "25.851922103609493" stroke = "#008000" stroke-width = "1" fill = "#008000" />
    <circle cx="371" cy = "1560" r = "25.851922103609493" stroke = "#008000" stroke-width = "1" fill = "#008000" />
    <circle cx="423" cy = "1560" r = "25.851922103609493" stroke = "#008000" stroke-width = "1" fill = "#008000" />
    <circle cx="474" cy = "1612" r = "25.851922103609493" stroke = "#008000" stroke-width = "1" fill = "#008000" />
    <circle cx="268" cy = "2284" r = "25.851922103609493" stroke = "#0000ff" stroke-width = "1" fill = "#0000ff" />
    <circle cx="268" cy = "2232" r = "25.851922103609493" stroke = "#0000ff" stroke-width = "1" fill = "#0000ff" />
    <circle cx="268" cy = "2181" r = "25.851922103609493" stroke = "#0000ff" stroke-width = "1" fill = "#0000ff" />
    <circle cx="268" cy = "2129" r = "25.851922103609493" stroke = "#0000ff" stroke-width = "1" fill = "#0000ff" />
    <circle cx="268" cy = "2077" r = "25.851922103609493" stroke = "#0000ff" stroke-width = "1" fill = "#0000ff" />
    <circle cx="268" cy = "2026" r = "25.851922103609493" stroke = "#0000ff" stroke-width = "1" fill = "#0000ff" />
    <circle cx="268" cy = "1974" r = "25.851922103609493" stroke = "#0000ff" stroke-width = "1" fill = "#0000ff" />
    <circle cx="319" cy = "2129" r = "25.851922103609493" stroke = "#0000ff" stroke-width = "1" fill = "#0000ff" />
    <circle cx="371" cy = "2129" r = "25.851922103609493" stroke = "#0000ff" stroke-width = "1" fill = "#0000ff" />
    <circle cx="423" cy = "2129" r = "25.851922103609493" stroke = "#0000ff" stroke-width = "1" fill = "#0000ff" />
    <circle cx="474" cy = "2129" r = "25.851922103609493" stroke = "#0000ff" stroke-width = "1" fill = "#0000ff" />
    <circle cx="474" cy = "2077" r = "25.851922103609493" stroke = "#0000ff" stroke-width = "1" fill = "#0000ff" />
    <circle cx="474" cy = "2026" r = "25.851922103609493" stroke = "#0000ff" stroke-width = "1" fill = "#0000ff" />
    <circle cx="474" cy = "1974" r = "25.851922103609493" stroke = "#0000ff" stroke-width = "1" fill = "#0000ff" />
    <circle cx="474" cy = "2181" r = "25.851922103609493" stroke = "#0000ff" stroke-width = "1" fill = "#0000ff" />
    <circle cx="474" cy = "2232" r = "25.851922103609493" stroke = "#0000ff" stroke-width = "1" fill = "#0000ff" />
    <circle cx="474" cy = "2284" r = "25.851922103609493" stroke = "#0000ff" stroke-width = "1" fill = "#0000ff" />
    <circle cx="2026" cy = "630" r = "25.851922103609493" stroke = "#800080" stroke-width = "1" fill = "#800080" />
    <circle cx="2026" cy = "578" r = "25.851922103609493" stroke = "#800080" stroke-width = "1" fill = "#800080" />
    <circle cx="2026" cy = "526" r = "25.851922103609493" stroke = "#800080" stroke-width = "1" fill = "#800080" />
    <circle cx="2026" cy = "474" r = "25.851922103609493" stroke = "#800080" stroke-width = "1" fill = "#800080" />
    <circle cx="2026" cy = "423" r = "25.851922103609493" stroke = "#800080" stroke-width = "1" fill = "#800080" />
    <circle cx="2026" cy = "371" r = "25.851922103609493" stroke = "#800080" stroke-width = "1" fill = "#800080" />
    <circle cx="2026" cy = "319" r = "25.851922103609493" stroke = "#800080" stroke-width = "1" fill = "#800080" />
    <circle cx="2077" cy = "319" r = "25.851922103609493" stroke = "#800080" stroke-width = "1" fill = "#800080" />
    <circle cx="2129" cy = "319" r = "25.851922103609493" stroke = "#800080" stroke-width = "1" fill = "#800080" />
    <circle cx="2181" cy = "319" r = "25.851922103609493" stroke = "#800080" stroke-width = "1" fill = "#800080" />
    <circle cx="2232" cy = "371" r = "25.851922103609493" stroke = "#800080" stroke-width = "1" fill = "#800080" />
    <circle cx="2232" cy = "423" r = "25.851922103609493" stroke = "#800080" stroke-width = "1" fill = "#800080" />
    <circle cx="2181" cy = "474" r = "25.851922103609493" stroke = "#800080" stroke-width = "1" fill = "#800080" />
    <circle cx="2129" cy = "474" r = "25.851922103609493" stroke = "#800080" stroke-width = "1" fill = "#800080" />
    <circle cx="2077" cy = "474" r = "25.851922103609493" stroke = "#800080" stroke-width = "1" fill = "#800080" />
    <circle cx="2129" cy = "526" r = "25.851922103609493" stroke = "#800080" stroke-width = "1" fill = "#800080" />
    <circle cx="2181" cy = "578" r = "25.851922103609493" stroke = "#800080" stroke-width = "1" fill = "#800080" />
    <circle cx="2232" cy = "630" r = "25.851922103609493" stroke = "#800080" stroke-width = "1" fill = "#800080" />
    <circle cx="2026" cy = "991" r = "25.851922103609493" stroke = "#ff0000" stroke-width = "1" fill = "#ff0000" />
    <circle cx="2026" cy = "940" r = "25.851922103609493" stroke = "#ff0000" stroke-width = "1" fill = "#ff0000" />
    <circle cx="2026" cy = "888" r = "25.851922103609493" stroke = "#ff0000" stroke-width = "1" fill = "#ff0000" />
    <circle cx="2026" cy = "836" r = "25.851922103609493" stroke = "#ff0000" stroke-width = "1" fill = "#ff0000" />
    <circle cx="2026" cy = "785" r = "25.851922103609493" stroke = "#ff0000" stroke-width = "1" fill = "#ff0000" />
    <circle cx="2077" cy = "733" r = "25.851922103609493" stroke = "#ff0000" stroke-width = "1" fill = "#ff0000" />
    <circle cx="2129" cy = "733" r = "25.851922103609493" stroke = "#ff0000" stroke-width = "1" fill = "#ff0000" />
    <circle cx="2181" cy = "733" r = "25.851922103609493" stroke = "#ff0000" stroke-width = "1" fill = "#ff0000" />
    <circle cx="2232" cy = "785" r = "25.851922103609493" stroke = "#ff0000" stroke-width = "1" fill = "#ff0000" />
    <circle cx="2232" cy = "836" r = "25.851922103609493" stroke = "#ff0000" stroke-width = "1" fill = "#ff0000" />
    <circle cx="2232" cy = "888" r = "25.851922103609493" stroke = "#ff0000" stroke-width = "1" fill = "#ff0000" />
    <circle cx="2232" cy = "940" r = "25.851922103609493" stroke = "#ff0000" stroke-width = "1" fill = "#ff0000" />
    <circle cx="2232" cy = "991" r = "25.851922103609493" stroke = "#ff0000" stroke-width = "1" fill = "#ff0000" />
    <circle cx="2181" cy = "1043" r = "25.851922103609493" stroke = "#ff0000" stroke-width = "1" fill = "#ff0000" />
    <circle cx="2129" cy = "1043" r = "25.851922103609493" stroke = "#ff0000" stroke-width = "1" fill = "#ff0000" />
    <circle cx="2077" cy = "1043" r = "25.851922103609493" stroke = "#ff0000" stroke-width = "1" fill = "#ff0000" />
    <circle cx="2026" cy = "1457" r = "25.851922103609493" stroke = "#ff7900" stroke-width = "1" fill = "#ff7900" />
    <circle cx="2026" cy = "1405" r = "25.851922103609493" stroke = "#ff7900" stroke-width = "1" fill = "#ff7900" />
    <circle cx="2026" cy = "1353" r = "25.851922103609493" stroke = "#ff7900" stroke-width = "1" fill = "#ff7900" />
    <circle cx="2026" cy = "1302" r = "25.851922103609493" stroke = "#ff7900" stroke-width = "1" fill = "#ff7900" />
    <circle cx="2026" cy = "1250" r = "25.851922103609493" stroke = "#ff7900" stroke-width = "1" fill = "#ff7900" />
    <circle cx="2026" cy = "1198" r = "25.851922103609493" stroke = "#ff7900" stroke-width = "1" fill = "#ff7900" />
    <circle cx="2026" cy = "1147" r = "25.851922103609493" stroke = "#ff7900" stroke-width = "1" fill = "#ff7900" />
    <circle cx="2077" cy = "1147" r = "25.851922103609493" stroke = "#ff7900" stroke-width = "1" fill = "#ff7900" />
    <circle cx="2129" cy = "1147" r = "25.851922103609493" stroke = "#ff7900" stroke-width = "1" fill = "#ff7900" />
    <circle cx="2181" cy = "1147" r = "25.851922103609493" stroke = "#ff7900" stroke-width = "1" fill = "#ff7900" />
    <circle cx="2232" cy = "1198" r = "25.851922103609493" stroke = "#ff7900" stroke-width = "1" fill = "#ff7900" />
    <circle cx="2232" cy = "1250" r = "25.851922103609493" stroke = "#ff7900" stroke-width = "1" fill = "#ff7900" />
    <circle cx="2181" cy = "1302" r = "25.851922103609493" stroke = "#ff7900" stroke-width = "1" fill = "#ff7900" />
    <circle cx="2129" cy = "1302" r = "25.851922103609493" stroke = "#ff7900" stroke-width = "1" fill = "#ff7900" />
    <circle cx="2077" cy = "1302" r = "25.851922103609493" stroke = "#ff7900" stroke-width = "1" fill = "#ff7900" />
    <circle cx="2232" cy = "1353" r = "25.851922103609493" stroke = "#ff7900" stroke-width = "1" fill = "#ff7900" />
    <circle cx="2232" cy = "1405" r = "25.851922103609493" stroke = "#ff7900" stroke-width = "1" fill = "#ff7900" />
    <circle cx="2181" cy = "1457" r = "25.851922103609493" stroke = "#ff7900" stroke-width = "1" fill = "#ff7900" />
    <circle cx="2129" cy = "1457" r = "25.851922103609493" stroke = "#ff7900" stroke-width = "1" fill = "#ff7900" />
    <circle cx="2077" cy = "1457" r = "25.851922103609493" stroke = "#ff7900" stroke-width = "1" fill = "#ff7900" />
    <circle cx="2026" cy = "1819" r = "25.851922103609493" stroke = "#ffff00" stroke-width = "1" fill = "#ffff00" />
    <circle cx="2026" cy = "1767" r = "25.851922103609493" stroke = "#ffff00" stroke-width = "1" fill = "#ffff00" />
    <circle cx="2026" cy = "1715" r = "25.851922103609493" stroke = "#ffff00" stroke-width = "1" fill = "#ffff00" />
    <circle cx="2026" cy = "1664" r = "25.851922103609493" stroke = "#ffff00" stroke-width = "1" fill = "#ffff00" />
    <circle cx="2026" cy = "1612" r = "25.851922103609493" stroke = "#ffff00" stroke-width = "1" fill = "#ffff00" />
    <circle cx="2077" cy = "1560" r = "25.851922103609493" stroke = "#ffff00" stroke-width = "1" fill = "#ffff00" />
    <circle cx="2129" cy = "1560" r = "25.851922103609493" stroke = "#ffff00" stroke-width = "1" fill = "#ffff00" />
    <circle cx="2181" cy = "1560" r = "25.851922103609493" stroke = "#ffff00" stroke-width = "1" fill = "#ffff00" />
    <circle cx="2232" cy = "1612" r = "25.851922103609493" stroke = "#ffff00" stroke-width = "1" fill = "#ffff00" />
    <circle cx="2232" cy = "1664" r = "25.851922103609493" stroke = "#ffff00" stroke-width = "1" fill = "#ffff00" />
    <circle cx="2232" cy = "1715" r = "25.851922103609493" stroke = "#ffff00" stroke-width = "1" fill = "#ffff00" />
    <circle cx="2232" cy = "1767" r = "25.851922103609493" stroke = "#ffff00" stroke-width = "1" fill = "#ffff00" />
    <circle cx="2232" cy = "1819" r = "25.851922103609493" stroke = "#ffff00" stroke-width = "1" fill = "#ffff00" />
    <circle cx="2181" cy = "1870" r = "25.851922103609493" stroke = "#ffff00" stroke-width = "1" fill = "#ffff00" />
    <circle cx="2129" cy = "1870" r = "25.851922103609493" stroke = "#ffff00" stroke-width = "1" fill = "#ffff00" />
    <circle cx="2077" cy = "1870" r = "25.851922103609493" stroke = "#ffff00" stroke-width = "1" fill = "#ffff00" />
    <circle cx="2026" cy = "1974" r = "25.851922103609493" stroke = "#008000" stroke-width = "1" fill = "#008000" />
    <circle cx="2077" cy = "1974" r = "25.851922103609493" stroke = "#008000" stroke-width = "1" fill = "#008000" />
    <circle cx="2129" cy = "1974" r = "25.851922103609493" stroke = "#008000" stroke-width = "1" fill = "#008000" />
    <circle cx="2181" cy = "1974" r = "25.851922103609493" stroke = "#008000" stroke-width = "1" fill = "#008000" />
    <circle cx="2232" cy = "1974" r = "25.851922103609493" stroke = "#008000" stroke-width = "1" fill = "#008000" />
    <circle cx="2129" cy = "2026" r = "25.851922103609493" stroke = "#008000" stroke-width = "1" fill = "#008000" />
    <circle cx="2129" cy = "2077" r = "25.851922103609493" stroke = "#008000" stroke-width = "1" fill = "#008000" />
    <circle cx="2129" cy = "2129" r = "25.851922103609493" stroke = "#008000" stroke-width = "1" fill = "#008000" />
    <circle cx="2129" cy = "2181" r = "25.851922103609493" stroke = "#008000" stroke-width = "1" fill = "#008000" />
    <circle cx="2129" cy = "2232" r = "25.851922103609493" stroke = "#008000" stroke-width = "1" fill = "#008000" />
    <circle cx="2129" cy = "2284" r = "25.851922103609493" stroke = "#008000" stroke-width = "1" fill = "#008000" />
</svg>