<svg width="800" height="800" viewbox = "0 0 800 800"  xmlns="http://www.w3.org/2000/svg">
<!--<json>{
  "shapes": [
    "0220:0520,",
    "0221:0521,",
    "0222:0522,",
    "0223:0523,",
    "0224:0524,",
    "0225:0525,",
    "0226:0526,",
    "0227:0527,",
    "0230:0530,",
    "0231:0531,",
    "0232:0532,",
    "0233:0533,",
    "0234:0331,0534,",
    "0235:0535,",
    "0236:0536,",
    "0237:0220,0336,0331,0332,0336,0321,0342,0335,0342,0335,0342,0335,0342,0335,0330,0330,0333,0333,0337,0337,",
    "01220:0333,0200,",
    "01221:0333,0200,0336,0336,0330,0221,0337,0337,",
    "01222:0333,0200,0336,0336,0330,0222,0337,0337,",
    "01223:0333,0200,0336,0336,0330,0223,0337,0337,",
    "01224:0333,0200,0336,0336,0330,0224,0337,0337,",
    "01225:0333,0200,0336,0336,0330,0225,0337,0337,",
    "01226:0333,0200,0336,0336,0330,0226,0337,0337,",
    "01227:0333,0200,0336,0336,0330,0227,0337,0337,",
    "01230:0333,0200,0336,0336,0330,0230,0331,0337,0337,",
    "01231:0333,0200,0336,0336,0330,0231,0331,0337,0337,",
    "01232:0333,0200,0336,0336,0232,0337,0337,",
    "01233:0333,0200,0336,0336,0330,0233,0331,0330,0337,0337,",
    "01234:0333,0200,0336,0336,0330,0330,0330,0234,0331,0331,0333,0333,0331,0331,0333,0333,0337,0337,0333,0333,0333,",
    "01235:0333,0200,0336,0336,0330,0235,0331,0333,0337,0337,",
    "01236:0333,0200,",
    "01237:0333,0200,",
    "0240:0220,0336,0331,0333,0336,0321,0335,0342,0335,0335,0342,0335,0330,0330,0332,0332,0337,0337,",
    "01240:0333,0200,0336,0330,0332,0210,0240,0211,0333,0331,0337,",
    "0241:0220,0336,0321,0343,0332,0350,0335,0336,0342,0334,0334,0342,0335,0304,0337,0333,0337,",
    "01241:0333,0200,0336,0332,0330,0210,0241,0211,0333,0331,0337,",
    "0242:0220,0321,0336,0343,0333,0336,0350,0335,0342,0334,0334,0342,0335,0337,0304,0332,0337,",
    "01242:0333,0200,0336,0330,0332,0210,0242,0211,0333,0331,0337,",
    "0243:0220,0336,0331,0332,0336,0321,0343,0332,0350,0334,0336,0342,0335,0335,0342,0337,0334,0334,0335,0304,0332,0330,0330,0337,0337,0333,",
    "01243:0333,0200,0336,0330,0332,0210,0243,0211,0333,0331,0337,",
    "0244:0220,0336,0331,0333,0336,0321,0343,0333,0350,0336,0335,0342,0334,0334,0342,0335,0337,0304,0333,0330,0330,0337,0337,0332,",
    "01244:0333,0200,0336,0330,0332,0210,0244,0211,0333,0331,0337,",
    "0245:0210,0332,0332,0362,0335,0203,0203,0203,0203,0334,0203,0363,0332,0332,0331,0211,",
    "01245:0333,0200,0336,0330,0332,0336,0245,0337,0333,0331,0337,",
    "0246:0210,0332,0332,0335,0306,0336,0330,0335,0335,0335,0321,0362,0203,0335,0335,0203,0364,0331,0350,0335,0337,0366,0333,0333,0333,0333,0334,0334,0334,0334,0367,0335,0336,0342,0334,0334,0342,0330,0330,0330,0330,0335,0335,0335,0304,0337,0211,",
    "01246:0333,0200,0336,0330,0332,0336,0246,",
    "0247:0330,0332,0336,0332,0336,0221,0333,0333,0333,0222,0333,0333,0333,0223,0333,0333,0333,0225,0333,0331,0331,0331,0332,0332,0332,0332,0332,0332,0332,0332,0332,0332,0332,0332,0333,0333,0226,0331,0331,0331,0333,0333,0333,0333,0333,0333,0333,0333,0333,0333,0333,0333,0333,0330,0333,0330,0330,0333,0330,0331,0332,0332,0332,0332,0332,0332,0332,0332,0332,0332,0332,0332,0227,0333,0333,0333,0230,0333,0331,0331,0331,0331,0332,0332,0332,0330,0332,0332,0332,0332,0332,0332,0333,0333,0231,0333,0333,0333,0232,0331,0333,0330,0333,0333,0233,0333,0333,0333,0234,0330,0330,0332,0330,0332,0332,0337,0337,",
    "01247:0333,0200,0336,0330,0332,0220,0336,0247,0337,0331,0333,0337,"
  ],
  "glyph": "0532,0521,0530,0522,0530,0524,0530,0531,0521,0530,0521,0530,0527,0530,0531,0521,0530,0521,0530,0527,0530,0531,0520,0530,0524,0530,0520,0530,0531,0521,0530,0521,0530,0525,0530,0531,0521,0530,0520,0530,0521,0530,0531,0521,0530,0521,0530,0526,0530,0531,0521,0530,0523,0530,0521,0530,0531,0520,0530,0524,0530,0520,0530,0531,0521,0530,0522,0530,0523,0530,0531,0521,0530,0520,0530,0525,0530,0531,0521,0530,0520,0530,0523,0530,0531,0521,0530,0522,0530,0522,0530,0531,0521,0530,0520,0530,0525,0530,0531,0521,0530,0522,0530,0524,0530,0531,0521,0530,0522,0530,0523,0530,0531,0533,",
  "x0": 423.07126111097335,
  "y0": 49.798752378556856,
  "unit": 13.473986805714295,
  "width": 800,
  "height": 800,
  "style": {
    "color0": "black",
    "fill0": "black",
    "line0": 0.2,
    "color1": "black",
    "fill1": "black",
    "line1": 5,
    "color2": "red",
    "fill2": "red",
    "line2": 1,
    "color3": "#FF7900",
    "fill3": "#FF7900",
    "line3": 1,
    "color4": "yellow",
    "fill4": "yellow",
    "line4": 1,
    "color5": "green",
    "fill5": "green",
    "line5": 1,
    "color6": "blue",
    "fill6": "blue",
    "line6": 1,
    "color7": "purple",
    "fill7": "purple",
    "line7": 1
  }
}</json>-->    <circle cx="403" cy = "36" r = "13.473986805714295" stroke = "#008000" stroke-width = "1" fill = "#008000" />
	<path d = "M416 50 L416 23 L389 23 L389 50 L416 50 Z" stroke = "#000000" stroke-width = "0.20000000298023224" fill = "none" />    <line x1="423" y1="50" x2="410" y2="50" style="stroke:#000000;stroke-width:0.20000000298023224" />
    <line x1="410" y1="50" x2="396" y2="50" style="stroke:#000000;stroke-width:0.20000000298023224" />
    <line x1="396" y1="50" x2="383" y2="50" style="stroke:#000000;stroke-width:0.20000000298023224" />
	<path d = "M430 50 L430 43 L423 43 L423 50 L430 50 Z" stroke = "#000000" stroke-width = "0.20000000298023224" fill = "#000000" />	<path d = "M383 50 L383 43 L376 43 L376 50 L383 50 Z" stroke = "#000000" stroke-width = "0.20000000298023224" fill = "#000000" />	<path d = "M376 43 L376 36 L369 36 L369 43 L376 43 Z" stroke = "#000000" stroke-width = "0.20000000298023224" fill = "#000000" />	<path d = "M437 43 L437 36 L430 36 L430 43 L437 43 Z" stroke = "#000000" stroke-width = "0.20000000298023224" fill = "#000000" />	<path d = "M423 63 L423 50 L410 50 L410 63 L423 63 Z" stroke = "#000000" stroke-width = "0.20000000298023224" fill = "#000000" />    <line x1="423" y1="63" x2="423" y2="50" style="stroke:#000000;stroke-width:0.20000000298023224" />
    <line x1="383" y1="63" x2="383" y2="50" style="stroke:#000000;stroke-width:0.20000000298023224" />
	<path d = "M423 63 L430 63 L430 57 L423 57 L423 63 Z" stroke = "#000000" stroke-width = "0.20000000298023224" fill = "#000000" />    <line x1="423" y1="63" x2="430" y2="63" style="stroke:#000000;stroke-width:0.20000000298023224" />
	<path d = "M410 77 L410 63 L396 63 L396 77 L410 77 Z" stroke = "#000000" stroke-width = "0.20000000298023224" fill = "#000000" />    <line x1="423" y1="77" x2="423" y2="63" style="stroke:#000000;stroke-width:0.20000000298023224" />
    <line x1="383" y1="77" x2="383" y2="63" style="stroke:#000000;stroke-width:0.20000000298023224" />
	<path d = "M423 77 L430 77 L430 70 L423 70 L423 77 Z" stroke = "#000000" stroke-width = "0.20000000298023224" fill = "#000000" />    <line x1="423" y1="77" x2="430" y2="77" style="stroke:#000000;stroke-width:0.20000000298023224" />
	<path d = "M396 90 L396 77 L383 77 L383 90 L396 90 Z" stroke = "#000000" stroke-width = "0.20000000298023224" fill = "#000000" />    <line x1="423" y1="90" x2="423" y2="77" style="stroke:#000000;stroke-width:0.20000000298023224" />
    <line x1="383" y1="90" x2="383" y2="77" style="stroke:#000000;stroke-width:0.20000000298023224" />
	<path d = "M423 90 L430 90 L430 83 L423 83 L423 90 Z" stroke = "#000000" stroke-width = "0.20000000298023224" fill = "#000000" />    <line x1="423" y1="90" x2="430" y2="90" style="stroke:#000000;stroke-width:0.20000000298023224" />
    <line x1="383" y1="90" x2="376" y2="90" style="stroke:#000000;stroke-width:0.20000000298023224" />
	<path d = "M383 90 L383 83 L376 83 L376 90 L383 90 Z" stroke = "#000000" stroke-width = "0.20000000298023224" fill = "#000000" />    <line x1="383" y1="90" x2="396" y2="90" style="stroke:#000000;stroke-width:0.20000000298023224" />
    <line x1="396" y1="90" x2="410" y2="90" style="stroke:#000000;stroke-width:0.20000000298023224" />
    <line x1="410" y1="90" x2="423" y2="90" style="stroke:#000000;stroke-width:0.20000000298023224" />
    <line x1="410" y1="94" x2="410" y2="87" style="stroke:#000000;stroke-width:0.20000000298023224" />
    <line x1="396" y1="94" x2="396" y2="87" style="stroke:#000000;stroke-width:0.20000000298023224" />
	<path d = "M423 104 L423 90 L410 90 L410 104 L423 104 Z" stroke = "#000000" stroke-width = "0.20000000298023224" fill = "#000000" />    <line x1="423" y1="104" x2="423" y2="90" style="stroke:#000000;stroke-width:0.20000000298023224" />
    <line x1="383" y1="104" x2="383" y2="90" style="stroke:#000000;stroke-width:0.20000000298023224" />
	<path d = "M423 104 L430 104 L430 97 L423 97 L423 104 Z" stroke = "#000000" stroke-width = "0.20000000298023224" fill = "#000000" />    <line x1="423" y1="104" x2="430" y2="104" style="stroke:#000000;stroke-width:0.20000000298023224" />
	<path d = "M423 117 L423 104 L410 104 L410 117 L423 117 Z" stroke = "#000000" stroke-width = "0.20000000298023224" fill = "#000000" />    <line x1="423" y1="117" x2="423" y2="104" style="stroke:#000000;stroke-width:0.20000000298023224" />
    <line x1="383" y1="117" x2="383" y2="104" style="stroke:#000000;stroke-width:0.20000000298023224" />
	<path d = "M423 117 L430 117 L430 110 L423 110 L423 117 Z" stroke = "#000000" stroke-width = "0.20000000298023224" fill = "#000000" />    <line x1="423" y1="117" x2="430" y2="117" style="stroke:#000000;stroke-width:0.20000000298023224" />
	<path d = "M423 131 L423 117 L410 117 L410 131 L423 131 Z" stroke = "#000000" stroke-width = "0.20000000298023224" fill = "#000000" />	<path d = "M410 131 L410 117 L396 117 L396 131 L410 131 Z" stroke = "#000000" stroke-width = "0.20000000298023224" fill = "#000000" />	<path d = "M396 131 L396 117 L383 117 L383 131 L396 131 Z" stroke = "#000000" stroke-width = "0.20000000298023224" fill = "#000000" />    <line x1="423" y1="131" x2="423" y2="117" style="stroke:#000000;stroke-width:0.20000000298023224" />
    <line x1="383" y1="131" x2="383" y2="117" style="stroke:#000000;stroke-width:0.20000000298023224" />
	<path d = "M423 131 L430 131 L430 124 L423 124 L423 131 Z" stroke = "#000000" stroke-width = "0.20000000298023224" fill = "#000000" />    <line x1="423" y1="131" x2="430" y2="131" style="stroke:#000000;stroke-width:0.20000000298023224" />
    <line x1="383" y1="131" x2="376" y2="131" style="stroke:#000000;stroke-width:0.20000000298023224" />
	<path d = "M383 131 L383 124 L376 124 L376 131 L383 131 Z" stroke = "#000000" stroke-width = "0.20000000298023224" fill = "#000000" />    <line x1="383" y1="131" x2="396" y2="131" style="stroke:#000000;stroke-width:0.20000000298023224" />
    <line x1="396" y1="131" x2="410" y2="131" style="stroke:#000000;stroke-width:0.20000000298023224" />
    <line x1="410" y1="131" x2="423" y2="131" style="stroke:#000000;stroke-width:0.20000000298023224" />
    <line x1="410" y1="134" x2="410" y2="127" style="stroke:#000000;stroke-width:0.20000000298023224" />
    <line x1="396" y1="134" x2="396" y2="127" style="stroke:#000000;stroke-width:0.20000000298023224" />
	<path d = "M423 144 L423 131 L410 131 L410 144 L423 144 Z" stroke = "#000000" stroke-width = "0.20000000298023224" fill = "#000000" />    <line x1="423" y1="144" x2="423" y2="131" style="stroke:#000000;stroke-width:0.20000000298023224" />
    <line x1="383" y1="144" x2="383" y2="131" style="stroke:#000000;stroke-width:0.20000000298023224" />
	<path d = "M423 144 L430 144 L430 137 L423 137 L423 144 Z" stroke = "#000000" stroke-width = "0.20000000298023224" fill = "#000000" />    <line x1="423" y1="144" x2="430" y2="144" style="stroke:#000000;stroke-width:0.20000000298023224" />
	<path d = "M423 158 L423 144 L410 144 L410 158 L423 158 Z" stroke = "#000000" stroke-width = "0.20000000298023224" fill = "#000000" />    <line x1="423" y1="158" x2="423" y2="144" style="stroke:#000000;stroke-width:0.20000000298023224" />
    <line x1="383" y1="158" x2="383" y2="144" style="stroke:#000000;stroke-width:0.20000000298023224" />
	<path d = "M423 158 L430 158 L430 151 L423 151 L423 158 Z" stroke = "#000000" stroke-width = "0.20000000298023224" fill = "#000000" />    <line x1="423" y1="158" x2="430" y2="158" style="stroke:#000000;stroke-width:0.20000000298023224" />
	<path d = "M423 171 L423 158 L410 158 L410 171 L423 171 Z" stroke = "#000000" stroke-width = "0.20000000298023224" fill = "#000000" />	<path d = "M410 171 L410 158 L396 158 L396 171 L410 171 Z" stroke = "#000000" stroke-width = "0.20000000298023224" fill = "#000000" />	<path d = "M396 171 L396 158 L383 158 L383 171 L396 171 Z" stroke = "#000000" stroke-width = "0.20000000298023224" fill = "#000000" />    <line x1="423" y1="171" x2="423" y2="158" style="stroke:#000000;stroke-width:0.20000000298023224" />
    <line x1="383" y1="171" x2="383" y2="158" style="stroke:#000000;stroke-width:0.20000000298023224" />
	<path d = "M423 171 L430 171 L430 164 L423 164 L423 171 Z" stroke = "#000000" stroke-width = "0.20000000298023224" fill = "#000000" />    <line x1="423" y1="171" x2="430" y2="171" style="stroke:#000000;stroke-width:0.20000000298023224" />
    <line x1="383" y1="171" x2="376" y2="171" style="stroke:#000000;stroke-width:0.20000000298023224" />
	<path d = "M383 171 L383 164 L376 164 L376 171 L383 171 Z" stroke = "#000000" stroke-width = "0.20000000298023224" fill = "#000000" />    <line x1="383" y1="171" x2="396" y2="171" style="stroke:#000000;stroke-width:0.20000000298023224" />
    <line x1="396" y1="171" x2="410" y2="171" style="stroke:#000000;stroke-width:0.20000000298023224" />
    <line x1="410" y1="171" x2="423" y2="171" style="stroke:#000000;stroke-width:0.20000000298023224" />
    <line x1="410" y1="174" x2="410" y2="168" style="stroke:#000000;stroke-width:0.20000000298023224" />
    <line x1="396" y1="174" x2="396" y2="168" style="stroke:#000000;stroke-width:0.20000000298023224" />
    <line x1="423" y1="185" x2="423" y2="171" style="stroke:#000000;stroke-width:0.20000000298023224" />
    <line x1="383" y1="185" x2="383" y2="171" style="stroke:#000000;stroke-width:0.20000000298023224" />
	<path d = "M423 185 L430 185 L430 178 L423 178 L423 185 Z" stroke = "#000000" stroke-width = "0.20000000298023224" fill = "#000000" />    <line x1="423" y1="185" x2="430" y2="185" style="stroke:#000000;stroke-width:0.20000000298023224" />
	<path d = "M396 198 L396 185 L383 185 L383 198 L396 198 Z" stroke = "#000000" stroke-width = "0.20000000298023224" fill = "#000000" />    <line x1="423" y1="198" x2="423" y2="185" style="stroke:#000000;stroke-width:0.20000000298023224" />
    <line x1="383" y1="198" x2="383" y2="185" style="stroke:#000000;stroke-width:0.20000000298023224" />
	<path d = "M423 198 L430 198 L430 191 L423 191 L423 198 Z" stroke = "#000000" stroke-width = "0.20000000298023224" fill = "#000000" />    <line x1="423" y1="198" x2="430" y2="198" style="stroke:#000000;stroke-width:0.20000000298023224" />
    <line x1="423" y1="211" x2="423" y2="198" style="stroke:#000000;stroke-width:0.20000000298023224" />
    <line x1="383" y1="211" x2="383" y2="198" style="stroke:#000000;stroke-width:0.20000000298023224" />
	<path d = "M423 211 L430 211 L430 205 L423 205 L423 211 Z" stroke = "#000000" stroke-width = "0.20000000298023224" fill = "#000000" />    <line x1="423" y1="211" x2="430" y2="211" style="stroke:#000000;stroke-width:0.20000000298023224" />
    <line x1="383" y1="211" x2="376" y2="211" style="stroke:#000000;stroke-width:0.20000000298023224" />
	<path d = "M383 211 L383 205 L376 205 L376 211 L383 211 Z" stroke = "#000000" stroke-width = "0.20000000298023224" fill = "#000000" />    <line x1="383" y1="211" x2="396" y2="211" style="stroke:#000000;stroke-width:0.20000000298023224" />
    <line x1="396" y1="211" x2="410" y2="211" style="stroke:#000000;stroke-width:0.20000000298023224" />
    <line x1="410" y1="211" x2="423" y2="211" style="stroke:#000000;stroke-width:0.20000000298023224" />
    <line x1="410" y1="215" x2="410" y2="208" style="stroke:#000000;stroke-width:0.20000000298023224" />
    <line x1="396" y1="215" x2="396" y2="208" style="stroke:#000000;stroke-width:0.20000000298023224" />
	<path d = "M423 225 L423 211 L410 211 L410 225 L423 225 Z" stroke = "#000000" stroke-width = "0.20000000298023224" fill = "#000000" />    <line x1="423" y1="225" x2="423" y2="211" style="stroke:#000000;stroke-width:0.20000000298023224" />
    <line x1="383" y1="225" x2="383" y2="211" style="stroke:#000000;stroke-width:0.20000000298023224" />
	<path d = "M423 225 L430 225 L430 218 L423 218 L423 225 Z" stroke = "#000000" stroke-width = "0.20000000298023224" fill = "#000000" />    <line x1="423" y1="225" x2="430" y2="225" style="stroke:#000000;stroke-width:0.20000000298023224" />
	<path d = "M423 238 L423 225 L410 225 L410 238 L423 238 Z" stroke = "#000000" stroke-width = "0.20000000298023224" fill = "#000000" />    <line x1="423" y1="238" x2="423" y2="225" style="stroke:#000000;stroke-width:0.20000000298023224" />
    <line x1="383" y1="238" x2="383" y2="225" style="stroke:#000000;stroke-width:0.20000000298023224" />
	<path d = "M423 238 L430 238 L430 232 L423 232 L423 238 Z" stroke = "#000000" stroke-width = "0.20000000298023224" fill = "#000000" />    <line x1="423" y1="238" x2="430" y2="238" style="stroke:#000000;stroke-width:0.20000000298023224" />
	<path d = "M423 252 L423 238 L410 238 L410 252 L423 252 Z" stroke = "#000000" stroke-width = "0.20000000298023224" fill = "#000000" />	<path d = "M396 252 L396 238 L383 238 L383 252 L396 252 Z" stroke = "#000000" stroke-width = "0.20000000298023224" fill = "#000000" />    <line x1="423" y1="252" x2="423" y2="238" style="stroke:#000000;stroke-width:0.20000000298023224" />
    <line x1="383" y1="252" x2="383" y2="238" style="stroke:#000000;stroke-width:0.20000000298023224" />
	<path d = "M423 252 L430 252 L430 245 L423 245 L423 252 Z" stroke = "#000000" stroke-width = "0.20000000298023224" fill = "#000000" />    <line x1="423" y1="252" x2="430" y2="252" style="stroke:#000000;stroke-width:0.20000000298023224" />
    <line x1="383" y1="252" x2="376" y2="252" style="stroke:#000000;stroke-width:0.20000000298023224" />
	<path d = "M383 252 L383 245 L376 245 L376 252 L383 252 Z" stroke = "#000000" stroke-width = "0.20000000298023224" fill = "#000000" />    <line x1="383" y1="252" x2="396" y2="252" style="stroke:#000000;stroke-width:0.20000000298023224" />
    <line x1="396" y1="252" x2="410" y2="252" style="stroke:#000000;stroke-width:0.20000000298023224" />
    <line x1="410" y1="252" x2="423" y2="252" style="stroke:#000000;stroke-width:0.20000000298023224" />
    <line x1="410" y1="255" x2="410" y2="249" style="stroke:#000000;stroke-width:0.20000000298023224" />
    <line x1="396" y1="255" x2="396" y2="249" style="stroke:#000000;stroke-width:0.20000000298023224" />
	<path d = "M423 265 L423 252 L410 252 L410 265 L423 265 Z" stroke = "#000000" stroke-width = "0.20000000298023224" fill = "#000000" />    <line x1="423" y1="265" x2="423" y2="252" style="stroke:#000000;stroke-width:0.20000000298023224" />
    <line x1="383" y1="265" x2="383" y2="252" style="stroke:#000000;stroke-width:0.20000000298023224" />
	<path d = "M423 265 L430 265 L430 259 L423 259 L423 265 Z" stroke = "#000000" stroke-width = "0.20000000298023224" fill = "#000000" />    <line x1="423" y1="265" x2="430" y2="265" style="stroke:#000000;stroke-width:0.20000000298023224" />
    <line x1="423" y1="279" x2="423" y2="265" style="stroke:#000000;stroke-width:0.20000000298023224" />
    <line x1="383" y1="279" x2="383" y2="265" style="stroke:#000000;stroke-width:0.20000000298023224" />
	<path d = "M423 279 L430 279 L430 272 L423 272 L423 279 Z" stroke = "#000000" stroke-width = "0.20000000298023224" fill = "#000000" />    <line x1="423" y1="279" x2="430" y2="279" style="stroke:#000000;stroke-width:0.20000000298023224" />
	<path d = "M423 292 L423 279 L410 279 L410 292 L423 292 Z" stroke = "#000000" stroke-width = "0.20000000298023224" fill = "#000000" />    <line x1="423" y1="292" x2="423" y2="279" style="stroke:#000000;stroke-width:0.20000000298023224" />
    <line x1="383" y1="292" x2="383" y2="279" style="stroke:#000000;stroke-width:0.20000000298023224" />
	<path d = "M423 292 L430 292 L430 286 L423 286 L423 292 Z" stroke = "#000000" stroke-width = "0.20000000298023224" fill = "#000000" />    <line x1="423" y1="292" x2="430" y2="292" style="stroke:#000000;stroke-width:0.20000000298023224" />
    <line x1="383" y1="292" x2="376" y2="292" style="stroke:#000000;stroke-width:0.20000000298023224" />
	<path d = "M383 292 L383 286 L376 286 L376 292 L383 292 Z" stroke = "#000000" stroke-width = "0.20000000298023224" fill = "#000000" />    <line x1="383" y1="292" x2="396" y2="292" style="stroke:#000000;stroke-width:0.20000000298023224" />
    <line x1="396" y1="292" x2="410" y2="292" style="stroke:#000000;stroke-width:0.20000000298023224" />
    <line x1="410" y1="292" x2="423" y2="292" style="stroke:#000000;stroke-width:0.20000000298023224" />
    <line x1="410" y1="296" x2="410" y2="289" style="stroke:#000000;stroke-width:0.20000000298023224" />
    <line x1="396" y1="296" x2="396" y2="289" style="stroke:#000000;stroke-width:0.20000000298023224" />
	<path d = "M423 306 L423 292 L410 292 L410 306 L423 306 Z" stroke = "#000000" stroke-width = "0.20000000298023224" fill = "#000000" />    <line x1="423" y1="306" x2="423" y2="292" style="stroke:#000000;stroke-width:0.20000000298023224" />
    <line x1="383" y1="306" x2="383" y2="292" style="stroke:#000000;stroke-width:0.20000000298023224" />
	<path d = "M423 306 L430 306 L430 299 L423 299 L423 306 Z" stroke = "#000000" stroke-width = "0.20000000298023224" fill = "#000000" />    <line x1="423" y1="306" x2="430" y2="306" style="stroke:#000000;stroke-width:0.20000000298023224" />
	<path d = "M423 319 L423 306 L410 306 L410 319 L423 319 Z" stroke = "#000000" stroke-width = "0.20000000298023224" fill = "#000000" />    <line x1="423" y1="319" x2="423" y2="306" style="stroke:#000000;stroke-width:0.20000000298023224" />
    <line x1="383" y1="319" x2="383" y2="306" style="stroke:#000000;stroke-width:0.20000000298023224" />
	<path d = "M423 319 L430 319 L430 313 L423 313 L423 319 Z" stroke = "#000000" stroke-width = "0.20000000298023224" fill = "#000000" />    <line x1="423" y1="319" x2="430" y2="319" style="stroke:#000000;stroke-width:0.20000000298023224" />
	<path d = "M396 333 L396 319 L383 319 L383 333 L396 333 Z" stroke = "#000000" stroke-width = "0.20000000298023224" fill = "#000000" />	<path d = "M410 333 L410 319 L396 319 L396 333 L410 333 Z" stroke = "#000000" stroke-width = "0.20000000298023224" fill = "#000000" />    <line x1="423" y1="333" x2="423" y2="319" style="stroke:#000000;stroke-width:0.20000000298023224" />
    <line x1="383" y1="333" x2="383" y2="319" style="stroke:#000000;stroke-width:0.20000000298023224" />
	<path d = "M423 333 L430 333 L430 326 L423 326 L423 333 Z" stroke = "#000000" stroke-width = "0.20000000298023224" fill = "#000000" />    <line x1="423" y1="333" x2="430" y2="333" style="stroke:#000000;stroke-width:0.20000000298023224" />
    <line x1="383" y1="333" x2="376" y2="333" style="stroke:#000000;stroke-width:0.20000000298023224" />
	<path d = "M383 333 L383 326 L376 326 L376 333 L383 333 Z" stroke = "#000000" stroke-width = "0.20000000298023224" fill = "#000000" />    <line x1="383" y1="333" x2="396" y2="333" style="stroke:#000000;stroke-width:0.20000000298023224" />
    <line x1="396" y1="333" x2="410" y2="333" style="stroke:#000000;stroke-width:0.20000000298023224" />
    <line x1="410" y1="333" x2="423" y2="333" style="stroke:#000000;stroke-width:0.20000000298023224" />
    <line x1="410" y1="336" x2="410" y2="329" style="stroke:#000000;stroke-width:0.20000000298023224" />
    <line x1="396" y1="336" x2="396" y2="329" style="stroke:#000000;stroke-width:0.20000000298023224" />
	<path d = "M423 346 L423 333 L410 333 L410 346 L423 346 Z" stroke = "#000000" stroke-width = "0.20000000298023224" fill = "#000000" />    <line x1="423" y1="346" x2="423" y2="333" style="stroke:#000000;stroke-width:0.20000000298023224" />
    <line x1="383" y1="346" x2="383" y2="333" style="stroke:#000000;stroke-width:0.20000000298023224" />
	<path d = "M423 346 L430 346 L430 339 L423 339 L423 346 Z" stroke = "#000000" stroke-width = "0.20000000298023224" fill = "#000000" />    <line x1="423" y1="346" x2="430" y2="346" style="stroke:#000000;stroke-width:0.20000000298023224" />
	<path d = "M423 360 L423 346 L410 346 L410 360 L423 360 Z" stroke = "#000000" stroke-width = "0.20000000298023224" fill = "#000000" />	<path d = "M410 360 L410 346 L396 346 L396 360 L410 360 Z" stroke = "#000000" stroke-width = "0.20000000298023224" fill = "#000000" />    <line x1="423" y1="360" x2="423" y2="346" style="stroke:#000000;stroke-width:0.20000000298023224" />
    <line x1="383" y1="360" x2="383" y2="346" style="stroke:#000000;stroke-width:0.20000000298023224" />
	<path d = "M423 360 L430 360 L430 353 L423 353 L423 360 Z" stroke = "#000000" stroke-width = "0.20000000298023224" fill = "#000000" />    <line x1="423" y1="360" x2="430" y2="360" style="stroke:#000000;stroke-width:0.20000000298023224" />
	<path d = "M423 373 L423 360 L410 360 L410 373 L423 373 Z" stroke = "#000000" stroke-width = "0.20000000298023224" fill = "#000000" />    <line x1="423" y1="373" x2="423" y2="360" style="stroke:#000000;stroke-width:0.20000000298023224" />
    <line x1="383" y1="373" x2="383" y2="360" style="stroke:#000000;stroke-width:0.20000000298023224" />
	<path d = "M423 373 L430 373 L430 366 L423 366 L423 373 Z" stroke = "#000000" stroke-width = "0.20000000298023224" fill = "#000000" />    <line x1="423" y1="373" x2="430" y2="373" style="stroke:#000000;stroke-width:0.20000000298023224" />
    <line x1="383" y1="373" x2="376" y2="373" style="stroke:#000000;stroke-width:0.20000000298023224" />
	<path d = "M383 373 L383 366 L376 366 L376 373 L383 373 Z" stroke = "#000000" stroke-width = "0.20000000298023224" fill = "#000000" />    <line x1="383" y1="373" x2="396" y2="373" style="stroke:#000000;stroke-width:0.20000000298023224" />
    <line x1="396" y1="373" x2="410" y2="373" style="stroke:#000000;stroke-width:0.20000000298023224" />
    <line x1="410" y1="373" x2="423" y2="373" style="stroke:#000000;stroke-width:0.20000000298023224" />
    <line x1="410" y1="377" x2="410" y2="370" style="stroke:#000000;stroke-width:0.20000000298023224" />
    <line x1="396" y1="377" x2="396" y2="370" style="stroke:#000000;stroke-width:0.20000000298023224" />
    <line x1="423" y1="387" x2="423" y2="373" style="stroke:#000000;stroke-width:0.20000000298023224" />
    <line x1="383" y1="387" x2="383" y2="373" style="stroke:#000000;stroke-width:0.20000000298023224" />
	<path d = "M423 387 L430 387 L430 380 L423 380 L423 387 Z" stroke = "#000000" stroke-width = "0.20000000298023224" fill = "#000000" />    <line x1="423" y1="387" x2="430" y2="387" style="stroke:#000000;stroke-width:0.20000000298023224" />
	<path d = "M396 400 L396 387 L383 387 L383 400 L396 400 Z" stroke = "#000000" stroke-width = "0.20000000298023224" fill = "#000000" />    <line x1="423" y1="400" x2="423" y2="387" style="stroke:#000000;stroke-width:0.20000000298023224" />
    <line x1="383" y1="400" x2="383" y2="387" style="stroke:#000000;stroke-width:0.20000000298023224" />
	<path d = "M423 400 L430 400 L430 393 L423 393 L423 400 Z" stroke = "#000000" stroke-width = "0.20000000298023224" fill = "#000000" />    <line x1="423" y1="400" x2="430" y2="400" style="stroke:#000000;stroke-width:0.20000000298023224" />
    <line x1="423" y1="414" x2="423" y2="400" style="stroke:#000000;stroke-width:0.20000000298023224" />
    <line x1="383" y1="414" x2="383" y2="400" style="stroke:#000000;stroke-width:0.20000000298023224" />
	<path d = "M423 414 L430 414 L430 407 L423 407 L423 414 Z" stroke = "#000000" stroke-width = "0.20000000298023224" fill = "#000000" />    <line x1="423" y1="414" x2="430" y2="414" style="stroke:#000000;stroke-width:0.20000000298023224" />
    <line x1="383" y1="414" x2="376" y2="414" style="stroke:#000000;stroke-width:0.20000000298023224" />
	<path d = "M383 414 L383 407 L376 407 L376 414 L383 414 Z" stroke = "#000000" stroke-width = "0.20000000298023224" fill = "#000000" />    <line x1="383" y1="414" x2="396" y2="414" style="stroke:#000000;stroke-width:0.20000000298023224" />
    <line x1="396" y1="414" x2="410" y2="414" style="stroke:#000000;stroke-width:0.20000000298023224" />
    <line x1="410" y1="414" x2="423" y2="414" style="stroke:#000000;stroke-width:0.20000000298023224" />
    <line x1="410" y1="417" x2="410" y2="410" style="stroke:#000000;stroke-width:0.20000000298023224" />
    <line x1="396" y1="417" x2="396" y2="410" style="stroke:#000000;stroke-width:0.20000000298023224" />
	<path d = "M423 427 L423 414 L410 414 L410 427 L423 427 Z" stroke = "#000000" stroke-width = "0.20000000298023224" fill = "#000000" />    <line x1="423" y1="427" x2="423" y2="414" style="stroke:#000000;stroke-width:0.20000000298023224" />
    <line x1="383" y1="427" x2="383" y2="414" style="stroke:#000000;stroke-width:0.20000000298023224" />
	<path d = "M423 427 L430 427 L430 420 L423 420 L423 427 Z" stroke = "#000000" stroke-width = "0.20000000298023224" fill = "#000000" />    <line x1="423" y1="427" x2="430" y2="427" style="stroke:#000000;stroke-width:0.20000000298023224" />
	<path d = "M410 441 L410 427 L396 427 L396 441 L410 441 Z" stroke = "#000000" stroke-width = "0.20000000298023224" fill = "#000000" />    <line x1="423" y1="441" x2="423" y2="427" style="stroke:#000000;stroke-width:0.20000000298023224" />
    <line x1="383" y1="441" x2="383" y2="427" style="stroke:#000000;stroke-width:0.20000000298023224" />
	<path d = "M423 441 L430 441 L430 434 L423 434 L423 441 Z" stroke = "#000000" stroke-width = "0.20000000298023224" fill = "#000000" />    <line x1="423" y1="441" x2="430" y2="441" style="stroke:#000000;stroke-width:0.20000000298023224" />
	<path d = "M423 454 L423 441 L410 441 L410 454 L423 454 Z" stroke = "#000000" stroke-width = "0.20000000298023224" fill = "#000000" />	<path d = "M410 454 L410 441 L396 441 L396 454 L410 454 Z" stroke = "#000000" stroke-width = "0.20000000298023224" fill = "#000000" />    <line x1="423" y1="454" x2="423" y2="441" style="stroke:#000000;stroke-width:0.20000000298023224" />
    <line x1="383" y1="454" x2="383" y2="441" style="stroke:#000000;stroke-width:0.20000000298023224" />
	<path d = "M423 454 L430 454 L430 447 L423 447 L423 454 Z" stroke = "#000000" stroke-width = "0.20000000298023224" fill = "#000000" />    <line x1="423" y1="454" x2="430" y2="454" style="stroke:#000000;stroke-width:0.20000000298023224" />
    <line x1="383" y1="454" x2="376" y2="454" style="stroke:#000000;stroke-width:0.20000000298023224" />
	<path d = "M383 454 L383 447 L376 447 L376 454 L383 454 Z" stroke = "#000000" stroke-width = "0.20000000298023224" fill = "#000000" />    <line x1="383" y1="454" x2="396" y2="454" style="stroke:#000000;stroke-width:0.20000000298023224" />
    <line x1="396" y1="454" x2="410" y2="454" style="stroke:#000000;stroke-width:0.20000000298023224" />
    <line x1="410" y1="454" x2="423" y2="454" style="stroke:#000000;stroke-width:0.20000000298023224" />
    <line x1="410" y1="457" x2="410" y2="451" style="stroke:#000000;stroke-width:0.20000000298023224" />
    <line x1="396" y1="457" x2="396" y2="451" style="stroke:#000000;stroke-width:0.20000000298023224" />
	<path d = "M423 467 L423 454 L410 454 L410 467 L423 467 Z" stroke = "#000000" stroke-width = "0.20000000298023224" fill = "#000000" />    <line x1="423" y1="467" x2="423" y2="454" style="stroke:#000000;stroke-width:0.20000000298023224" />
    <line x1="383" y1="467" x2="383" y2="454" style="stroke:#000000;stroke-width:0.20000000298023224" />
	<path d = "M423 467 L430 467 L430 461 L423 461 L423 467 Z" stroke = "#000000" stroke-width = "0.20000000298023224" fill = "#000000" />    <line x1="423" y1="467" x2="430" y2="467" style="stroke:#000000;stroke-width:0.20000000298023224" />
    <line x1="423" y1="481" x2="423" y2="467" style="stroke:#000000;stroke-width:0.20000000298023224" />
    <line x1="383" y1="481" x2="383" y2="467" style="stroke:#000000;stroke-width:0.20000000298023224" />
	<path d = "M423 481 L430 481 L430 474 L423 474 L423 481 Z" stroke = "#000000" stroke-width = "0.20000000298023224" fill = "#000000" />    <line x1="423" y1="481" x2="430" y2="481" style="stroke:#000000;stroke-width:0.20000000298023224" />
	<path d = "M423 494 L423 481 L410 481 L410 494 L423 494 Z" stroke = "#000000" stroke-width = "0.20000000298023224" fill = "#000000" />	<path d = "M396 494 L396 481 L383 481 L383 494 L396 494 Z" stroke = "#000000" stroke-width = "0.20000000298023224" fill = "#000000" />    <line x1="423" y1="494" x2="423" y2="481" style="stroke:#000000;stroke-width:0.20000000298023224" />
    <line x1="383" y1="494" x2="383" y2="481" style="stroke:#000000;stroke-width:0.20000000298023224" />
	<path d = "M423 494 L430 494 L430 488 L423 488 L423 494 Z" stroke = "#000000" stroke-width = "0.20000000298023224" fill = "#000000" />    <line x1="423" y1="494" x2="430" y2="494" style="stroke:#000000;stroke-width:0.20000000298023224" />
    <line x1="383" y1="494" x2="376" y2="494" style="stroke:#000000;stroke-width:0.20000000298023224" />
	<path d = "M383 494 L383 488 L376 488 L376 494 L383 494 Z" stroke = "#000000" stroke-width = "0.20000000298023224" fill = "#000000" />    <line x1="383" y1="494" x2="396" y2="494" style="stroke:#000000;stroke-width:0.20000000298023224" />
    <line x1="396" y1="494" x2="410" y2="494" style="stroke:#000000;stroke-width:0.20000000298023224" />
    <line x1="410" y1="494" x2="423" y2="494" style="stroke:#000000;stroke-width:0.20000000298023224" />
    <line x1="410" y1="498" x2="410" y2="491" style="stroke:#000000;stroke-width:0.20000000298023224" />
    <line x1="396" y1="498" x2="396" y2="491" style="stroke:#000000;stroke-width:0.20000000298023224" />
	<path d = "M423 508 L423 494 L410 494 L410 508 L423 508 Z" stroke = "#000000" stroke-width = "0.20000000298023224" fill = "#000000" />    <line x1="423" y1="508" x2="423" y2="494" style="stroke:#000000;stroke-width:0.20000000298023224" />
    <line x1="383" y1="508" x2="383" y2="494" style="stroke:#000000;stroke-width:0.20000000298023224" />
	<path d = "M423 508 L430 508 L430 501 L423 501 L423 508 Z" stroke = "#000000" stroke-width = "0.20000000298023224" fill = "#000000" />    <line x1="423" y1="508" x2="430" y2="508" style="stroke:#000000;stroke-width:0.20000000298023224" />
    <line x1="423" y1="521" x2="423" y2="508" style="stroke:#000000;stroke-width:0.20000000298023224" />
    <line x1="383" y1="521" x2="383" y2="508" style="stroke:#000000;stroke-width:0.20000000298023224" />
	<path d = "M423 521 L430 521 L430 515 L423 515 L423 521 Z" stroke = "#000000" stroke-width = "0.20000000298023224" fill = "#000000" />    <line x1="423" y1="521" x2="430" y2="521" style="stroke:#000000;stroke-width:0.20000000298023224" />
	<path d = "M423 535 L423 521 L410 521 L410 535 L423 535 Z" stroke = "#000000" stroke-width = "0.20000000298023224" fill = "#000000" />	<path d = "M410 535 L410 521 L396 521 L396 535 L410 535 Z" stroke = "#000000" stroke-width = "0.20000000298023224" fill = "#000000" />    <line x1="423" y1="535" x2="423" y2="521" style="stroke:#000000;stroke-width:0.20000000298023224" />
    <line x1="383" y1="535" x2="383" y2="521" style="stroke:#000000;stroke-width:0.20000000298023224" />
	<path d = "M423 535 L430 535 L430 528 L423 528 L423 535 Z" stroke = "#000000" stroke-width = "0.20000000298023224" fill = "#000000" />    <line x1="423" y1="535" x2="430" y2="535" style="stroke:#000000;stroke-width:0.20000000298023224" />
    <line x1="383" y1="535" x2="376" y2="535" style="stroke:#000000;stroke-width:0.20000000298023224" />
	<path d = "M383 535 L383 528 L376 528 L376 535 L383 535 Z" stroke = "#000000" stroke-width = "0.20000000298023224" fill = "#000000" />    <line x1="383" y1="535" x2="396" y2="535" style="stroke:#000000;stroke-width:0.20000000298023224" />
    <line x1="396" y1="535" x2="410" y2="535" style="stroke:#000000;stroke-width:0.20000000298023224" />
    <line x1="410" y1="535" x2="423" y2="535" style="stroke:#000000;stroke-width:0.20000000298023224" />
    <line x1="410" y1="538" x2="410" y2="531" style="stroke:#000000;stroke-width:0.20000000298023224" />
    <line x1="396" y1="538" x2="396" y2="531" style="stroke:#000000;stroke-width:0.20000000298023224" />
	<path d = "M423 548 L423 535 L410 535 L410 548 L423 548 Z" stroke = "#000000" stroke-width = "0.20000000298023224" fill = "#000000" />    <line x1="423" y1="548" x2="423" y2="535" style="stroke:#000000;stroke-width:0.20000000298023224" />
    <line x1="383" y1="548" x2="383" y2="535" style="stroke:#000000;stroke-width:0.20000000298023224" />
	<path d = "M423 548 L430 548 L430 542 L423 542 L423 548 Z" stroke = "#000000" stroke-width = "0.20000000298023224" fill = "#000000" />    <line x1="423" y1="548" x2="430" y2="548" style="stroke:#000000;stroke-width:0.20000000298023224" />
	<path d = "M410 562 L410 548 L396 548 L396 562 L410 562 Z" stroke = "#000000" stroke-width = "0.20000000298023224" fill = "#000000" />    <line x1="423" y1="562" x2="423" y2="548" style="stroke:#000000;stroke-width:0.20000000298023224" />
    <line x1="383" y1="562" x2="383" y2="548" style="stroke:#000000;stroke-width:0.20000000298023224" />
	<path d = "M423 562 L430 562 L430 555 L423 555 L423 562 Z" stroke = "#000000" stroke-width = "0.20000000298023224" fill = "#000000" />    <line x1="423" y1="562" x2="430" y2="562" style="stroke:#000000;stroke-width:0.20000000298023224" />
	<path d = "M410 575 L410 562 L396 562 L396 575 L410 575 Z" stroke = "#000000" stroke-width = "0.20000000298023224" fill = "#000000" />    <line x1="423" y1="575" x2="423" y2="562" style="stroke:#000000;stroke-width:0.20000000298023224" />
    <line x1="383" y1="575" x2="383" y2="562" style="stroke:#000000;stroke-width:0.20000000298023224" />
	<path d = "M423 575 L430 575 L430 569 L423 569 L423 575 Z" stroke = "#000000" stroke-width = "0.20000000298023224" fill = "#000000" />    <line x1="423" y1="575" x2="430" y2="575" style="stroke:#000000;stroke-width:0.20000000298023224" />
    <line x1="383" y1="575" x2="376" y2="575" style="stroke:#000000;stroke-width:0.20000000298023224" />
	<path d = "M383 575 L383 569 L376 569 L376 575 L383 575 Z" stroke = "#000000" stroke-width = "0.20000000298023224" fill = "#000000" />    <line x1="383" y1="575" x2="396" y2="575" style="stroke:#000000;stroke-width:0.20000000298023224" />
    <line x1="396" y1="575" x2="410" y2="575" style="stroke:#000000;stroke-width:0.20000000298023224" />
    <line x1="410" y1="575" x2="423" y2="575" style="stroke:#000000;stroke-width:0.20000000298023224" />
    <line x1="410" y1="579" x2="410" y2="572" style="stroke:#000000;stroke-width:0.20000000298023224" />
    <line x1="396" y1="579" x2="396" y2="572" style="stroke:#000000;stroke-width:0.20000000298023224" />
	<path d = "M423 589 L423 575 L410 575 L410 589 L423 589 Z" stroke = "#000000" stroke-width = "0.20000000298023224" fill = "#000000" />    <line x1="423" y1="589" x2="423" y2="575" style="stroke:#000000;stroke-width:0.20000000298023224" />
    <line x1="383" y1="589" x2="383" y2="575" style="stroke:#000000;stroke-width:0.20000000298023224" />
	<path d = "M423 589 L430 589 L430 582 L423 582 L423 589 Z" stroke = "#000000" stroke-width = "0.20000000298023224" fill = "#000000" />    <line x1="423" y1="589" x2="430" y2="589" style="stroke:#000000;stroke-width:0.20000000298023224" />
    <line x1="423" y1="602" x2="423" y2="589" style="stroke:#000000;stroke-width:0.20000000298023224" />
    <line x1="383" y1="602" x2="383" y2="589" style="stroke:#000000;stroke-width:0.20000000298023224" />
	<path d = "M423 602 L430 602 L430 595 L423 595 L423 602 Z" stroke = "#000000" stroke-width = "0.20000000298023224" fill = "#000000" />    <line x1="423" y1="602" x2="430" y2="602" style="stroke:#000000;stroke-width:0.20000000298023224" />
	<path d = "M423 616 L423 602 L410 602 L410 616 L423 616 Z" stroke = "#000000" stroke-width = "0.20000000298023224" fill = "#000000" />	<path d = "M396 616 L396 602 L383 602 L383 616 L396 616 Z" stroke = "#000000" stroke-width = "0.20000000298023224" fill = "#000000" />    <line x1="423" y1="616" x2="423" y2="602" style="stroke:#000000;stroke-width:0.20000000298023224" />
    <line x1="383" y1="616" x2="383" y2="602" style="stroke:#000000;stroke-width:0.20000000298023224" />
	<path d = "M423 616 L430 616 L430 609 L423 609 L423 616 Z" stroke = "#000000" stroke-width = "0.20000000298023224" fill = "#000000" />    <line x1="423" y1="616" x2="430" y2="616" style="stroke:#000000;stroke-width:0.20000000298023224" />
    <line x1="383" y1="616" x2="376" y2="616" style="stroke:#000000;stroke-width:0.20000000298023224" />
	<path d = "M383 616 L383 609 L376 609 L376 616 L383 616 Z" stroke = "#000000" stroke-width = "0.20000000298023224" fill = "#000000" />    <line x1="383" y1="616" x2="396" y2="616" style="stroke:#000000;stroke-width:0.20000000298023224" />
    <line x1="396" y1="616" x2="410" y2="616" style="stroke:#000000;stroke-width:0.20000000298023224" />
    <line x1="410" y1="616" x2="423" y2="616" style="stroke:#000000;stroke-width:0.20000000298023224" />
    <line x1="410" y1="619" x2="410" y2="612" style="stroke:#000000;stroke-width:0.20000000298023224" />
    <line x1="396" y1="619" x2="396" y2="612" style="stroke:#000000;stroke-width:0.20000000298023224" />
	<path d = "M423 629 L423 616 L410 616 L410 629 L423 629 Z" stroke = "#000000" stroke-width = "0.20000000298023224" fill = "#000000" />    <line x1="423" y1="629" x2="423" y2="616" style="stroke:#000000;stroke-width:0.20000000298023224" />
    <line x1="383" y1="629" x2="383" y2="616" style="stroke:#000000;stroke-width:0.20000000298023224" />
	<path d = "M423 629 L430 629 L430 622 L423 622 L423 629 Z" stroke = "#000000" stroke-width = "0.20000000298023224" fill = "#000000" />    <line x1="423" y1="629" x2="430" y2="629" style="stroke:#000000;stroke-width:0.20000000298023224" />
	<path d = "M410 643 L410 629 L396 629 L396 643 L410 643 Z" stroke = "#000000" stroke-width = "0.20000000298023224" fill = "#000000" />    <line x1="423" y1="643" x2="423" y2="629" style="stroke:#000000;stroke-width:0.20000000298023224" />
    <line x1="383" y1="643" x2="383" y2="629" style="stroke:#000000;stroke-width:0.20000000298023224" />
	<path d = "M423 643 L430 643 L430 636 L423 636 L423 643 Z" stroke = "#000000" stroke-width = "0.20000000298023224" fill = "#000000" />    <line x1="423" y1="643" x2="430" y2="643" style="stroke:#000000;stroke-width:0.20000000298023224" />
	<path d = "M396 656 L396 643 L383 643 L383 656 L396 656 Z" stroke = "#000000" stroke-width = "0.20000000298023224" fill = "#000000" />    <line x1="423" y1="656" x2="423" y2="643" style="stroke:#000000;stroke-width:0.20000000298023224" />
    <line x1="383" y1="656" x2="383" y2="643" style="stroke:#000000;stroke-width:0.20000000298023224" />
	<path d = "M423 656 L430 656 L430 649 L423 649 L423 656 Z" stroke = "#000000" stroke-width = "0.20000000298023224" fill = "#000000" />    <line x1="423" y1="656" x2="430" y2="656" style="stroke:#000000;stroke-width:0.20000000298023224" />
    <line x1="383" y1="656" x2="376" y2="656" style="stroke:#000000;stroke-width:0.20000000298023224" />
	<path d = "M383 656 L383 649 L376 649 L376 656 L383 656 Z" stroke = "#000000" stroke-width = "0.20000000298023224" fill = "#000000" />    <line x1="383" y1="656" x2="396" y2="656" style="stroke:#000000;stroke-width:0.20000000298023224" />
    <line x1="396" y1="656" x2="410" y2="656" style="stroke:#000000;stroke-width:0.20000000298023224" />
    <line x1="410" y1="656" x2="423" y2="656" style="stroke:#000000;stroke-width:0.20000000298023224" />
    <line x1="410" y1="659" x2="410" y2="653" style="stroke:#000000;stroke-width:0.20000000298023224" />
    <line x1="396" y1="659" x2="396" y2="653" style="stroke:#000000;stroke-width:0.20000000298023224" />
	<path d = "M423 670 L423 656 L410 656 L410 670 L423 670 Z" stroke = "#000000" stroke-width = "0.20000000298023224" fill = "#000000" />    <line x1="423" y1="670" x2="423" y2="656" style="stroke:#000000;stroke-width:0.20000000298023224" />
    <line x1="383" y1="670" x2="383" y2="656" style="stroke:#000000;stroke-width:0.20000000298023224" />
	<path d = "M423 670 L430 670 L430 663 L423 663 L423 670 Z" stroke = "#000000" stroke-width = "0.20000000298023224" fill = "#000000" />    <line x1="423" y1="670" x2="430" y2="670" style="stroke:#000000;stroke-width:0.20000000298023224" />
	<path d = "M410 683 L410 670 L396 670 L396 683 L410 683 Z" stroke = "#000000" stroke-width = "0.20000000298023224" fill = "#000000" />    <line x1="423" y1="683" x2="423" y2="670" style="stroke:#000000;stroke-width:0.20000000298023224" />
    <line x1="383" y1="683" x2="383" y2="670" style="stroke:#000000;stroke-width:0.20000000298023224" />
	<path d = "M423 683 L430 683 L430 676 L423 676 L423 683 Z" stroke = "#000000" stroke-width = "0.20000000298023224" fill = "#000000" />    <line x1="423" y1="683" x2="430" y2="683" style="stroke:#000000;stroke-width:0.20000000298023224" />
	<path d = "M423 697 L423 683 L410 683 L410 697 L423 697 Z" stroke = "#000000" stroke-width = "0.20000000298023224" fill = "#000000" />	<path d = "M410 697 L410 683 L396 683 L396 697 L410 697 Z" stroke = "#000000" stroke-width = "0.20000000298023224" fill = "#000000" />    <line x1="423" y1="697" x2="423" y2="683" style="stroke:#000000;stroke-width:0.20000000298023224" />
    <line x1="383" y1="697" x2="383" y2="683" style="stroke:#000000;stroke-width:0.20000000298023224" />
	<path d = "M423 697 L430 697 L430 690 L423 690 L423 697 Z" stroke = "#000000" stroke-width = "0.20000000298023224" fill = "#000000" />    <line x1="423" y1="697" x2="430" y2="697" style="stroke:#000000;stroke-width:0.20000000298023224" />
    <line x1="383" y1="697" x2="376" y2="697" style="stroke:#000000;stroke-width:0.20000000298023224" />
	<path d = "M383 697 L383 690 L376 690 L376 697 L383 697 Z" stroke = "#000000" stroke-width = "0.20000000298023224" fill = "#000000" />    <line x1="383" y1="697" x2="396" y2="697" style="stroke:#000000;stroke-width:0.20000000298023224" />
    <line x1="396" y1="697" x2="410" y2="697" style="stroke:#000000;stroke-width:0.20000000298023224" />
    <line x1="410" y1="697" x2="423" y2="697" style="stroke:#000000;stroke-width:0.20000000298023224" />
    <line x1="410" y1="700" x2="410" y2="693" style="stroke:#000000;stroke-width:0.20000000298023224" />
    <line x1="396" y1="700" x2="396" y2="693" style="stroke:#000000;stroke-width:0.20000000298023224" />
	<path d = "M396 710 L410 710 L419 720 L419 733 L410 743 L396 743 L387 733 L387 720 L396 710 Z" stroke = "#ff0000" stroke-width = "1" fill = "#ff0000" />	<path d = "M437 710 L437 697 L423 697 L423 710 L437 710 Z" stroke = "#000000" stroke-width = "0.20000000298023224" fill = "#000000" />	<path d = "M423 710 L423 697 L410 697 L410 710 L423 710 Z" stroke = "#000000" stroke-width = "0.20000000298023224" fill = "#000000" />	<path d = "M410 710 L410 697 L396 697 L396 710 L410 710 Z" stroke = "#000000" stroke-width = "0.20000000298023224" fill = "#000000" />	<path d = "M396 710 L396 697 L383 697 L383 710 L396 710 Z" stroke = "#000000" stroke-width = "0.20000000298023224" fill = "#000000" />	<path d = "M383 710 L383 697 L369 697 L369 710 L383 710 Z" stroke = "#000000" stroke-width = "0.20000000298023224" fill = "#000000" /></svg>