<svg width="400" height="400" viewbox = "0 0 400 400"  xmlns="http://www.w3.org/2000/svg">
<!--<json>{
  "glyph": "0230,0330,0330,0220,0333,0221,0333,0222,0304,0333,0223,0333,0331,0335,0335,0335,0335,0335,0335,0331,0224,0333,0225,",
  "x0": 63.39730892698586,
  "y0": 200,
  "unit": 45.45454545454546,
  "width": 400,
  "height": 400,
  "style": {
    "color0": "black",
    "fill0": "black",
    "line0": 1,
    "color1": "black",
    "fill1": "black",
    "line1": 5,
    "color2": "red",
    "fill2": "red",
    "line2": 4,
    "color3": "#FF7900",
    "fill3": "#FF7900",
    "line3": 4,
    "color4": "yellow",
    "fill4": "yellow",
    "line4": 4,
    "color5": "green",
    "fill5": "green",
    "line5": 4,
    "color6": "blue",
    "fill6": "blue",
    "line6": 4,
    "color7": "purple",
    "fill7": "purple",
    "line7": 4
  },
  "shapes": [
    "0220:0304,0313,0320,0200,0322,0336,0332,0337,0342,0336,0330,0333,0334,0337,0342,0336,0335,0331,0336,0332,0337,0342,0336,0333,0330,0334,0337,0342,0335,0336,0331,0336,0332,0337,0342,0336,0333,0330,0334,0337,0342,0335,0336,0331,0336,0332,0337,0342,0336,0333,0330,0334,0337,0342,0335,0336,0331,0337,0337,0337,0337,",
    "0221:0304,0320,0362,0203,0334,0350,0334,0310,0337,0203,0334,0334,0334,0336,0203,0354,0334,0334,0334,0336,0322,0201,0335,0335,0335,0336,0201,0334,0334,0334,0336,0201,0335,0335,0335,0336,0201,0334,0334,0334,0336,0201,0335,0335,0335,0336,0201,0334,0334,0334,0336,0201,0335,0335,0335,0336,0201,0334,0334,0330,0337,0337,0337,0337,0337,0337,0337,0337,0331,0313,0304,0320,",
    "0222:0306,0320,0362,0203,0334,0334,0203,0334,0334,0203,0354,0334,0334,0313,0336,0322,0330,0334,0201,0334,0334,0201,0334,0334,0201,0334,0331,0337,0320,",
    "0223:0304,0335,0335,0331,0306,0350,0362,0203,0335,0335,0335,0335,0335,0312,0336,0203,0335,0335,0203,0354,0335,0335,0335,0335,0335,0337,0322,0335,0336,0330,0334,0334,0334,0334,0313,0336,0342,0337,0312,0335,0336,0342,0334,0334,0342,0330,0335,0335,0335,0335,0335,0336,0201,0334,0334,0342,0335,0335,0334,0334,0334,0336,0342,0334,0334,0342,0335,0335,0335,0335,0335,0337,0331,0335,0337,0330,0334,0337,0331,0334,0337,0320,0330,0304,0335,0335,0306,0350,",
    "0224:0305,0311,0362,0203,0334,0334,0203,0334,0350,0334,0336,0203,0354,0334,0334,0334,0337,0322,0336,0334,0201,0335,0335,0335,0335,0336,0201,0334,0334,0334,0334,0201,0335,0335,0335,0336,0335,0201,0334,0334,0334,0334,0201,0335,0335,0335,0335,0336,0201,0334,0334,0334,0334,0201,0335,0335,0335,0335,0336,0201,0334,0334,0334,0334,0201,0335,0335,0335,0335,0336,0201,0334,0334,0334,0337,0330,0337,0337,0337,0337,0337,0331,0320,",
    "0225:0304,0330,0335,0335,0305,0350,0311,0362,0203,0335,0335,0335,0335,0336,0203,0335,0335,0203,0354,0335,0335,0335,0322,0335,0335,0330,0334,0334,0334,0336,0334,0342,0335,0342,0330,0335,0335,0335,0336,0335,0201,0334,0334,0334,0334,0201,0335,0335,0335,0335,0336,0201,0334,0334,0334,0334,0201,0335,0335,0335,0336,0335,0201,0334,0334,0334,0334,0342,0335,0331,0337,0331,0337,0331,0335,0335,0337,0335,0331,0335,0336,0201,0335,0335,0335,0335,0201,0334,0334,0334,0334,0336,0201,0335,0335,0335,0335,0201,0334,0334,0334,0334,0336,0201,0335,0335,0335,0335,0201,0335,0335,0335,0331,0337,0337,0337,0337,0337,0320,0304,0335,0335,0331,0305,0350,",
    "0226:0313,0333,0342,0336,0332,0342,0336,0333,0342,0332,0332,0342,0336,0332,0342,0333,0333,0342,0333,0333,0342,0333,0333,0342,0333,0337,0337,0337,",
    "0227:0313,0336,0333,0337,0316,0336,0342,0313,0336,0332,0342,0332,0342,0332,0342,0332,0342,0333,0333,0333,0333,0333,0342,0333,0342,0333,0342,0333,0342,0333,0337,0316,0337,0313,",
    "0230:0322,0226,0226,0226,0226,0226,0226,0334,0226,0334,0227,0227,0227,0227,0227,0227,0334,0227,0334,0320,0362,0203,0335,0203,0203,0203,0203,0203,0203,0335,0203,0335,0203,0203,0203,0203,0203,0203,0335,0354,0313,",
    "0231:0321,0200,0322,0336,0332,0336,0336,0332,0362,0203,0334,0203,0203,0335,0203,0203,0334,0203,0335,0203,0203,0335,0203,0334,0203,0203,0203,0335,0203,0203,0203,0203,0203,0203,0335,0203,0203,0203,0334,0203,0335,0203,0203,0335,0203,0334,0203,0203,0335,0203,0203,0334,0203,0335,0203,0203,0354,0335,0333,0323,0334,0362,0203,0335,0203,0334,0203,0203,0203,0335,0203,0203,0335,0203,0334,0203,0203,0334,0203,0335,0203,0203,0203,0335,0203,0203,0203,0203,0203,0203,0203,0203,0335,0203,0203,0203,0335,0203,0334,0203,0203,0334,0203,0335,0203,0203,0335,0203,0203,0203,0334,0203,0335,0203,0354,0335,0324,0330,0334,0362,0203,0334,0203,0335,0203,0203,0203,0335,0203,0203,0203,0335,0203,0334,0203,0203,0334,0203,0335,0203,0203,0203,0335,0203,0203,0203,0335,0203,0203,0336,0336,0203,0337,0337,0334,0203,0203,0334,0336,0336,0203,0337,0337,0203,0203,0335,0203,0203,0203,0335,0203,0203,0203,0335,0203,0334,0203,0203,0334,0203,0335,0203,0203,0203,0335,0203,0203,0203,0335,0203,0334,0203,0354,0335,0331,0325,0330,0333,0333,0333,0337,0314,0337,0200,0326,0336,0313,0332,0336,0332,0337,0330,0336,0330,0337,0331,0333,0337,0200,0336,0336,0333,",
    "0232:0231,0231,0231,0231,0231,0231,0231,0231,",
    "0233:0220,0336,0210,0232,",
    "0234:0220,0336,0335,0335,0331,0335,0331,0337,0321,0342,0332,0342,0336,0333,0337,0342,0330,0336,0336,0336,0330,0337,0366,0332,0332,0332,0367,0350,0335,0306,0350,0320,0335,0362,0203,0334,0334,0334,0334,0203,0334,0334,0334,0334,0203,0363,0335,0304,0350,0335,0304,0335,0335,0331,0331,0332,01015,0145,0154,0145,0155,0145,0156,0164,040,0144,0157,0167,0156,0365,0330,0330,0330,0330,0330,0333,0333,0333,0336,0332,0337,0333,0337,0337,",
    "0235:0220,0321,0336,0342,0335,0342,0335,0342,0335,0342,0335,0337,",
    "0236:0321,0220,0335,0336,0321,0342,0335,0335,0342,0335,0337,",
    "0237:0220,0336,0331,0332,0336,0321,0342,0335,0342,0335,0342,0335,0342,0335,0330,0330,0333,0333,0337,0337,",
    "01220:0333,0220,",
    "01221:0333,0221,",
    "01222:0333,0222,0304,",
    "01223:0333,0223,0314,0304,0313,",
    "01224:0333,0224,0313,0304,",
    "01225:0333,0225,0313,0304,",
    "01226:0226,0200,",
    "01227:0227,0200,",
    "01230:0230,0333,0333,0333,0333,0333,0333,",
    "01231:0333,0200,",
    "01232:0333,0200,",
    "01233:0333,0200,",
    "01234:0333,0200,",
    "01235:0333,0200,",
    "01236:0333,0200,",
    "01237:0333,0200,",
    "0240:0220,0336,0331,0333,0336,0321,0335,0342,0335,0335,0342,0335,0330,0330,0332,0332,0337,0337,",
    "01240:0333,0200,0336,0330,0332,0210,0240,0211,0333,0331,0337,",
    "0241:0220,0336,0321,0343,0332,0350,0335,0336,0342,0334,0334,0342,0335,0304,0337,0333,0337,",
    "01241:0333,0200,0336,0332,0330,0210,0241,0211,0333,0331,0337,",
    "0242:0220,0321,0336,0343,0333,0336,0350,0335,0342,0334,0334,0342,0335,0337,0304,0332,0337,",
    "01242:0333,0200,0336,0330,0332,0210,0242,0211,0333,0331,0337,",
    "0243:0220,0336,0331,0332,0336,0321,0343,0332,0350,0334,0336,0342,0335,0335,0342,0337,0334,0334,0335,0304,0332,0330,0330,0337,0337,0333,",
    "01243:0333,0200,0336,0330,0332,0210,0243,0211,0333,0331,0337,",
    "0244:0220,0336,0331,0333,0336,0321,0343,0333,0350,0336,0335,0342,0334,0334,0342,0335,0337,0304,0333,0330,0330,0337,0337,0332,",
    "01244:0333,0200,0336,0330,0332,0210,0244,0211,0333,0331,0337,",
    "0245:0210,0332,0332,0362,0335,0203,0203,0203,0203,0334,0203,0363,0332,0332,0331,0211,",
    "01245:0333,0200,0336,0330,0332,0336,0245,0337,0333,0331,0337,",
    "0246:0210,0332,0332,0335,0306,0336,0330,0335,0335,0335,0321,0362,0203,0335,0335,0203,0364,0331,0350,0335,0337,0366,0333,0333,0333,0333,0334,0334,0334,0334,0367,0335,0336,0342,0334,0334,0342,0330,0330,0330,0330,0335,0335,0335,0304,0337,0211,",
    "01246:0333,0200,0336,0330,0332,0336,0246,",
    "0247:0330,0332,0336,0332,0336,0221,0333,0333,0333,0222,0333,0333,0333,0223,0333,0333,0333,0225,0333,0331,0331,0331,0332,0332,0332,0332,0332,0332,0332,0332,0332,0332,0332,0332,0333,0333,0226,0331,0331,0331,0333,0333,0333,0333,0333,0333,0333,0333,0333,0333,0333,0333,0333,0330,0333,0330,0330,0333,0330,0331,0332,0332,0332,0332,0332,0332,0332,0332,0332,0332,0332,0332,0227,0333,0333,0333,0230,0333,0331,0331,0331,0331,0332,0332,0332,0330,0332,0332,0332,0332,0332,0332,0333,0333,0231,0333,0333,0333,0232,0331,0333,0330,0333,0333,0233,0333,0333,0333,0234,0330,0330,0332,0330,0332,0332,0337,0337,",
    "01247:0333,0200,0336,0330,0332,0220,0336,0247,0337,0331,0333,0337,"
  ]
}</json>-->    <line x1="109" y1="200" x2="109" y2="155" style="stroke:#ff0000;stroke-width:4" />
    <line x1="86" y1="200" x2="86" y2="177" style="stroke:#ff0000;stroke-width:4" />
    <line x1="97" y1="200" x2="97" y2="189" style="stroke:#ff0000;stroke-width:4" />
    <line x1="75" y1="200" x2="75" y2="189" style="stroke:#ff0000;stroke-width:4" />
    <line x1="69" y1="200" x2="69" y2="194" style="stroke:#ff0000;stroke-width:4" />
    <line x1="80" y1="200" x2="80" y2="194" style="stroke:#ff0000;stroke-width:4" />
    <line x1="92" y1="200" x2="92" y2="194" style="stroke:#ff0000;stroke-width:4" />
    <line x1="103" y1="200" x2="103" y2="194" style="stroke:#ff0000;stroke-width:4" />
    <line x1="154" y1="200" x2="154" y2="155" style="stroke:#ff0000;stroke-width:4" />
    <line x1="132" y1="200" x2="132" y2="177" style="stroke:#ff0000;stroke-width:4" />
    <line x1="143" y1="200" x2="143" y2="189" style="stroke:#ff0000;stroke-width:4" />
    <line x1="120" y1="200" x2="120" y2="189" style="stroke:#ff0000;stroke-width:4" />
    <line x1="115" y1="200" x2="115" y2="194" style="stroke:#ff0000;stroke-width:4" />
    <line x1="126" y1="200" x2="126" y2="194" style="stroke:#ff0000;stroke-width:4" />
    <line x1="137" y1="200" x2="137" y2="194" style="stroke:#ff0000;stroke-width:4" />
    <line x1="149" y1="200" x2="149" y2="194" style="stroke:#ff0000;stroke-width:4" />
    <line x1="200" y1="200" x2="200" y2="155" style="stroke:#ff0000;stroke-width:4" />
    <line x1="177" y1="200" x2="177" y2="177" style="stroke:#ff0000;stroke-width:4" />
    <line x1="188" y1="200" x2="188" y2="189" style="stroke:#ff0000;stroke-width:4" />
    <line x1="166" y1="200" x2="166" y2="189" style="stroke:#ff0000;stroke-width:4" />
    <line x1="160" y1="200" x2="160" y2="194" style="stroke:#ff0000;stroke-width:4" />
    <line x1="171" y1="200" x2="171" y2="194" style="stroke:#ff0000;stroke-width:4" />
    <line x1="183" y1="200" x2="183" y2="194" style="stroke:#ff0000;stroke-width:4" />
    <line x1="194" y1="200" x2="194" y2="194" style="stroke:#ff0000;stroke-width:4" />
    <line x1="245" y1="200" x2="245" y2="155" style="stroke:#ff0000;stroke-width:4" />
    <line x1="222" y1="200" x2="222" y2="177" style="stroke:#ff0000;stroke-width:4" />
    <line x1="234" y1="200" x2="234" y2="189" style="stroke:#ff0000;stroke-width:4" />
    <line x1="211" y1="200" x2="211" y2="189" style="stroke:#ff0000;stroke-width:4" />
    <line x1="205" y1="200" x2="205" y2="194" style="stroke:#ff0000;stroke-width:4" />
    <line x1="217" y1="200" x2="217" y2="194" style="stroke:#ff0000;stroke-width:4" />
    <line x1="228" y1="200" x2="228" y2="194" style="stroke:#ff0000;stroke-width:4" />
    <line x1="240" y1="200" x2="240" y2="194" style="stroke:#ff0000;stroke-width:4" />
    <line x1="291" y1="200" x2="291" y2="155" style="stroke:#ff0000;stroke-width:4" />
    <line x1="268" y1="200" x2="268" y2="177" style="stroke:#ff0000;stroke-width:4" />
    <line x1="279" y1="200" x2="279" y2="189" style="stroke:#ff0000;stroke-width:4" />
    <line x1="257" y1="200" x2="257" y2="189" style="stroke:#ff0000;stroke-width:4" />
    <line x1="251" y1="200" x2="251" y2="194" style="stroke:#ff0000;stroke-width:4" />
    <line x1="262" y1="200" x2="262" y2="194" style="stroke:#ff0000;stroke-width:4" />
    <line x1="274" y1="200" x2="274" y2="194" style="stroke:#ff0000;stroke-width:4" />
    <line x1="285" y1="200" x2="285" y2="194" style="stroke:#ff0000;stroke-width:4" />
    <line x1="336" y1="200" x2="336" y2="155" style="stroke:#ff0000;stroke-width:4" />
    <line x1="313" y1="200" x2="313" y2="177" style="stroke:#ff0000;stroke-width:4" />
    <line x1="325" y1="200" x2="325" y2="189" style="stroke:#ff0000;stroke-width:4" />
    <line x1="302" y1="200" x2="302" y2="189" style="stroke:#ff0000;stroke-width:4" />
    <line x1="296" y1="200" x2="296" y2="194" style="stroke:#ff0000;stroke-width:4" />
    <line x1="308" y1="200" x2="308" y2="194" style="stroke:#ff0000;stroke-width:4" />
    <line x1="319" y1="200" x2="319" y2="194" style="stroke:#ff0000;stroke-width:4" />
    <line x1="330" y1="200" x2="330" y2="194" style="stroke:#ff0000;stroke-width:4" />
    <line x1="336" y1="155" x2="291" y2="155" style="stroke:#ff0000;stroke-width:4" />
    <line x1="336" y1="177" x2="313" y2="177" style="stroke:#ff0000;stroke-width:4" />
    <line x1="336" y1="166" x2="325" y2="166" style="stroke:#ff0000;stroke-width:4" />
    <line x1="336" y1="189" x2="325" y2="189" style="stroke:#ff0000;stroke-width:4" />
    <line x1="336" y1="194" x2="330" y2="194" style="stroke:#ff0000;stroke-width:4" />
    <line x1="336" y1="183" x2="330" y2="183" style="stroke:#ff0000;stroke-width:4" />
    <line x1="336" y1="172" x2="330" y2="172" style="stroke:#ff0000;stroke-width:4" />
    <line x1="336" y1="160" x2="330" y2="160" style="stroke:#ff0000;stroke-width:4" />
    <line x1="313" y1="155" x2="313" y2="164" style="stroke:#ff0000;stroke-width:4" />
    <line x1="318" y1="155" x2="318" y2="159" style="stroke:#ff0000;stroke-width:4" />
    <line x1="322" y1="155" x2="322" y2="159" style="stroke:#ff0000;stroke-width:4" />
    <line x1="327" y1="155" x2="327" y2="159" style="stroke:#ff0000;stroke-width:4" />
    <line x1="332" y1="155" x2="332" y2="159" style="stroke:#ff0000;stroke-width:4" />
    <line x1="309" y1="155" x2="309" y2="159" style="stroke:#ff0000;stroke-width:4" />
    <line x1="304" y1="155" x2="304" y2="159" style="stroke:#ff0000;stroke-width:4" />
    <line x1="300" y1="155" x2="300" y2="159" style="stroke:#ff0000;stroke-width:4" />
    <line x1="295" y1="155" x2="295" y2="159" style="stroke:#ff0000;stroke-width:4" />
    <line x1="268" y1="155" x2="268" y2="164" style="stroke:#ff0000;stroke-width:4" />
    <line x1="272" y1="155" x2="272" y2="159" style="stroke:#ff0000;stroke-width:4" />
    <line x1="277" y1="155" x2="277" y2="159" style="stroke:#ff0000;stroke-width:4" />
    <line x1="282" y1="155" x2="282" y2="159" style="stroke:#ff0000;stroke-width:4" />
    <line x1="286" y1="155" x2="286" y2="159" style="stroke:#ff0000;stroke-width:4" />
    <line x1="263" y1="155" x2="263" y2="159" style="stroke:#ff0000;stroke-width:4" />
    <line x1="259" y1="155" x2="259" y2="159" style="stroke:#ff0000;stroke-width:4" />
    <line x1="254" y1="155" x2="254" y2="159" style="stroke:#ff0000;stroke-width:4" />
    <line x1="250" y1="155" x2="250" y2="159" style="stroke:#ff0000;stroke-width:4" />
    <line x1="222" y1="155" x2="222" y2="164" style="stroke:#ff0000;stroke-width:4" />
    <line x1="227" y1="155" x2="227" y2="159" style="stroke:#ff0000;stroke-width:4" />
    <line x1="232" y1="155" x2="232" y2="159" style="stroke:#ff0000;stroke-width:4" />
    <line x1="236" y1="155" x2="236" y2="159" style="stroke:#ff0000;stroke-width:4" />
    <line x1="241" y1="155" x2="241" y2="159" style="stroke:#ff0000;stroke-width:4" />
    <line x1="218" y1="155" x2="218" y2="159" style="stroke:#ff0000;stroke-width:4" />
    <line x1="213" y1="155" x2="213" y2="159" style="stroke:#ff0000;stroke-width:4" />
    <line x1="209" y1="155" x2="209" y2="159" style="stroke:#ff0000;stroke-width:4" />
    <line x1="204" y1="155" x2="204" y2="159" style="stroke:#ff0000;stroke-width:4" />
    <line x1="177" y1="155" x2="177" y2="164" style="stroke:#ff0000;stroke-width:4" />
    <line x1="182" y1="155" x2="182" y2="159" style="stroke:#ff0000;stroke-width:4" />
    <line x1="186" y1="155" x2="186" y2="159" style="stroke:#ff0000;stroke-width:4" />
    <line x1="191" y1="155" x2="191" y2="159" style="stroke:#ff0000;stroke-width:4" />
    <line x1="195" y1="155" x2="195" y2="159" style="stroke:#ff0000;stroke-width:4" />
    <line x1="172" y1="155" x2="172" y2="159" style="stroke:#ff0000;stroke-width:4" />
    <line x1="168" y1="155" x2="168" y2="159" style="stroke:#ff0000;stroke-width:4" />
    <line x1="163" y1="155" x2="163" y2="159" style="stroke:#ff0000;stroke-width:4" />
    <line x1="159" y1="155" x2="159" y2="159" style="stroke:#ff0000;stroke-width:4" />
    <line x1="132" y1="155" x2="132" y2="164" style="stroke:#ff0000;stroke-width:4" />
    <line x1="136" y1="155" x2="136" y2="159" style="stroke:#ff0000;stroke-width:4" />
    <line x1="141" y1="155" x2="141" y2="159" style="stroke:#ff0000;stroke-width:4" />
    <line x1="145" y1="155" x2="145" y2="159" style="stroke:#ff0000;stroke-width:4" />
    <line x1="150" y1="155" x2="150" y2="159" style="stroke:#ff0000;stroke-width:4" />
    <line x1="127" y1="155" x2="127" y2="159" style="stroke:#ff0000;stroke-width:4" />
    <line x1="122" y1="155" x2="122" y2="159" style="stroke:#ff0000;stroke-width:4" />
    <line x1="118" y1="155" x2="118" y2="159" style="stroke:#ff0000;stroke-width:4" />
    <line x1="113" y1="155" x2="113" y2="159" style="stroke:#ff0000;stroke-width:4" />
    <line x1="86" y1="155" x2="86" y2="164" style="stroke:#ff0000;stroke-width:4" />
    <line x1="91" y1="155" x2="91" y2="159" style="stroke:#ff0000;stroke-width:4" />
    <line x1="95" y1="155" x2="95" y2="159" style="stroke:#ff0000;stroke-width:4" />
    <line x1="100" y1="155" x2="100" y2="159" style="stroke:#ff0000;stroke-width:4" />
    <line x1="104" y1="155" x2="104" y2="159" style="stroke:#ff0000;stroke-width:4" />
    <line x1="82" y1="155" x2="82" y2="159" style="stroke:#ff0000;stroke-width:4" />
    <line x1="77" y1="155" x2="77" y2="159" style="stroke:#ff0000;stroke-width:4" />
    <line x1="72" y1="155" x2="72" y2="159" style="stroke:#ff0000;stroke-width:4" />
    <line x1="68" y1="155" x2="68" y2="159" style="stroke:#ff0000;stroke-width:4" />
    <line x1="63" y1="177" x2="72" y2="177" style="stroke:#ff0000;stroke-width:4" />
    <line x1="63" y1="173" x2="68" y2="173" style="stroke:#ff0000;stroke-width:4" />
    <line x1="63" y1="168" x2="68" y2="168" style="stroke:#ff0000;stroke-width:4" />
    <line x1="63" y1="164" x2="68" y2="164" style="stroke:#ff0000;stroke-width:4" />
    <line x1="63" y1="159" x2="68" y2="159" style="stroke:#ff0000;stroke-width:4" />
    <line x1="63" y1="182" x2="68" y2="182" style="stroke:#ff0000;stroke-width:4" />
    <line x1="63" y1="186" x2="68" y2="186" style="stroke:#ff0000;stroke-width:4" />
    <line x1="63" y1="191" x2="68" y2="191" style="stroke:#ff0000;stroke-width:4" />
    <line x1="63" y1="195" x2="68" y2="195" style="stroke:#ff0000;stroke-width:4" />
	<path d = "M63 200 L63 155 L109 155 L154 155 L200 155 L245 155 L291 155 L336 155 L336 200 L291 200 L245 200 L200 200 L154 200 L109 200 L63 200 Z" stroke = "#000000" stroke-width = "1" fill = "none" />	<path d = "M63 109 L63 64 L18 64 L18 109 L63 109 Z" stroke = "#000000" stroke-width = "1" fill = "none" />    <line x1="41" y1="109" x2="41" y2="64" style="stroke:#ff0000;stroke-width:4" />
    <line x1="63" y1="86" x2="18" y2="86" style="stroke:#ff0000;stroke-width:4" />
    <line x1="52" y1="109" x2="52" y2="86" style="stroke:#ff0000;stroke-width:4" />
    <line x1="63" y1="98" x2="41" y2="98" style="stroke:#ff0000;stroke-width:4" />
    <line x1="58" y1="109" x2="58" y2="98" style="stroke:#ff0000;stroke-width:4" />
    <line x1="63" y1="103" x2="52" y2="103" style="stroke:#ff0000;stroke-width:4" />
    <line x1="61" y1="109" x2="61" y2="103" style="stroke:#ff0000;stroke-width:4" />
    <line x1="63" y1="106" x2="58" y2="106" style="stroke:#ff0000;stroke-width:4" />
	<path d = "M109 109 L109 64 L63 109 L109 109 Z" stroke = "#000000" stroke-width = "1" fill = "none" />    <line x1="109" y1="109" x2="86" y2="86" style="stroke:#ff0000;stroke-width:4" />
    <line x1="86" y1="86" x2="109" y2="86" style="stroke:#ff0000;stroke-width:4" />
    <line x1="109" y1="86" x2="97" y2="75" style="stroke:#ff0000;stroke-width:4" />
    <line x1="97" y1="75" x2="109" y2="75" style="stroke:#ff0000;stroke-width:4" />
    <line x1="109" y1="75" x2="103" y2="69" style="stroke:#ff0000;stroke-width:4" />
    <line x1="103" y1="69" x2="109" y2="69" style="stroke:#ff0000;stroke-width:4" />
    <line x1="109" y1="69" x2="106" y2="66" style="stroke:#ff0000;stroke-width:4" />
    <line x1="106" y1="66" x2="109" y2="66" style="stroke:#ff0000;stroke-width:4" />
	<path d = "M154 109 L154 64 L115 86 L154 109 Z" stroke = "#000000" stroke-width = "1" fill = "none" />    <line x1="154" y1="86" x2="135" y2="75" style="stroke:#ff0000;stroke-width:4" />
    <line x1="135" y1="75" x2="135" y2="98" style="stroke:#ff0000;stroke-width:4" />
    <line x1="135" y1="98" x2="154" y2="86" style="stroke:#ff0000;stroke-width:4" />
	<path d = "M200 64 L200 109 L187 86 L200 64 Z" stroke = "#000000" stroke-width = "1" fill = "none" />    <line x1="187" y1="86" x2="200" y2="86" style="stroke:#ff0000;stroke-width:4" />
    <line x1="187" y1="86" x2="200" y2="94" style="stroke:#ff0000;stroke-width:4" />
    <line x1="187" y1="86" x2="200" y2="79" style="stroke:#ff0000;stroke-width:4" />
    <line x1="200" y1="79" x2="195" y2="86" style="stroke:#ff0000;stroke-width:4" />
    <line x1="195" y1="86" x2="200" y2="94" style="stroke:#ff0000;stroke-width:4" />
    <line x1="195" y1="86" x2="200" y2="89" style="stroke:#ff0000;stroke-width:4" />
    <line x1="195" y1="86" x2="200" y2="84" style="stroke:#ff0000;stroke-width:4" />
	<path d = "M222 70 L222 115 L249 78 L222 70 Z" stroke = "#000000" stroke-width = "1" fill = "none" />    <line x1="222" y1="70" x2="239" y2="92" style="stroke:#ff0000;stroke-width:4" />
    <line x1="239" y1="92" x2="222" y2="87" style="stroke:#ff0000;stroke-width:4" />
    <line x1="222" y1="87" x2="233" y2="101" style="stroke:#ff0000;stroke-width:4" />
    <line x1="233" y1="101" x2="222" y2="98" style="stroke:#ff0000;stroke-width:4" />
    <line x1="222" y1="98" x2="229" y2="106" style="stroke:#ff0000;stroke-width:4" />
    <line x1="229" y1="106" x2="222" y2="104" style="stroke:#ff0000;stroke-width:4" />
    <line x1="222" y1="104" x2="226" y2="110" style="stroke:#ff0000;stroke-width:4" />
    <line x1="226" y1="110" x2="222" y2="109" style="stroke:#ff0000;stroke-width:4" />
    <line x1="222" y1="109" x2="225" y2="112" style="stroke:#ff0000;stroke-width:4" />
    <line x1="225" y1="112" x2="222" y2="111" style="stroke:#ff0000;stroke-width:4" />
	<path d = "M196 152 L196 106 L212 129 L196 152 Z" stroke = "#000000" stroke-width = "1" fill = "none" />    <line x1="212" y1="129" x2="196" y2="135" style="stroke:#ff0000;stroke-width:4" />
    <line x1="212" y1="129" x2="196" y2="124" style="stroke:#ff0000;stroke-width:4" />
    <line x1="196" y1="124" x2="206" y2="121" style="stroke:#ff0000;stroke-width:4" />
    <line x1="206" y1="121" x2="196" y2="117" style="stroke:#ff0000;stroke-width:4" />
    <line x1="196" y1="117" x2="202" y2="115" style="stroke:#ff0000;stroke-width:4" />
    <line x1="202" y1="115" x2="196" y2="113" style="stroke:#ff0000;stroke-width:4" />
    <line x1="196" y1="113" x2="200" y2="112" style="stroke:#ff0000;stroke-width:4" />
    <line x1="200" y1="112" x2="196" y2="111" style="stroke:#ff0000;stroke-width:4" />
    <line x1="196" y1="135" x2="206" y2="138" style="stroke:#ff0000;stroke-width:4" />
    <line x1="206" y1="138" x2="196" y2="141" style="stroke:#ff0000;stroke-width:4" />
    <line x1="196" y1="141" x2="202" y2="143" style="stroke:#ff0000;stroke-width:4" />
    <line x1="202" y1="143" x2="196" y2="145" style="stroke:#ff0000;stroke-width:4" />
    <line x1="196" y1="145" x2="200" y2="147" style="stroke:#ff0000;stroke-width:4" />
    <line x1="200" y1="147" x2="196" y2="148" style="stroke:#ff0000;stroke-width:4" />
</svg>