<svg width="800" height="800" viewbox = "0 0 800 800"  xmlns="http://www.w3.org/2000/svg">
<!--<json>{
  "shapes": [
    "0220:0520,",
    "0221:0521,",
    "0222:0522,",
    "0223:0523,",
    "0224:0524,",
    "0225:0525,",
    "0226:0526,",
    "0227:0527,",
    "0230:0530,",
    "0231:0531,",
    "0232:0532,",
    "0233:0533,",
    "0234:0331,0534,",
    "0235:0535,",
    "0236:0536,",
    "0237:0220,0336,0331,0332,0336,0321,0342,0335,0342,0335,0342,0335,0342,0335,0330,0330,0333,0333,0337,0337,",
    "01220:0333,0200,",
    "01221:0333,0200,0336,0336,0330,0221,0337,0337,",
    "01222:0333,0200,0336,0336,0330,0222,0337,0337,",
    "01223:0333,0200,0336,0336,0330,0223,0337,0337,",
    "01224:0333,0200,0336,0336,0330,0224,0337,0337,",
    "01225:0333,0200,0336,0336,0330,0225,0337,0337,",
    "01226:0333,0200,0336,0336,0330,0226,0337,0337,",
    "01227:0333,0200,0336,0336,0330,0227,0337,0337,",
    "01230:0333,0200,0336,0336,0330,0230,0331,0337,0337,",
    "01231:0333,0200,0336,0336,0330,0231,0331,0337,0337,",
    "01232:0333,0200,0336,0336,0232,0337,0337,",
    "01233:0333,0200,0336,0336,0330,0233,0331,0330,0337,0337,",
    "01234:0333,0200,0336,0336,0330,0330,0330,0234,0331,0331,0333,0333,0331,0331,0333,0333,0337,0337,0333,0333,0333,",
    "01235:0333,0200,0336,0336,0330,0235,0331,0333,0337,0337,",
    "01236:0333,0200,",
    "01237:0333,0200,",
    "0240:0220,0336,0331,0333,0336,0321,0335,0342,0335,0335,0342,0335,0330,0330,0332,0332,0337,0337,",
    "01240:0333,0200,0336,0330,0332,0210,0240,0211,0333,0331,0337,",
    "0241:0220,0336,0321,0343,0332,0350,0335,0336,0342,0334,0334,0342,0335,0304,0337,0333,0337,",
    "01241:0333,0200,0336,0332,0330,0210,0241,0211,0333,0331,0337,",
    "0242:0220,0321,0336,0343,0333,0336,0350,0335,0342,0334,0334,0342,0335,0337,0304,0332,0337,",
    "01242:0333,0200,0336,0330,0332,0210,0242,0211,0333,0331,0337,",
    "0243:0220,0336,0331,0332,0336,0321,0343,0332,0350,0334,0336,0342,0335,0335,0342,0337,0334,0334,0335,0304,0332,0330,0330,0337,0337,0333,",
    "01243:0333,0200,0336,0330,0332,0210,0243,0211,0333,0331,0337,",
    "0244:0220,0336,0331,0333,0336,0321,0343,0333,0350,0336,0335,0342,0334,0334,0342,0335,0337,0304,0333,0330,0330,0337,0337,0332,",
    "01244:0333,0200,0336,0330,0332,0210,0244,0211,0333,0331,0337,",
    "0245:0210,0332,0332,0362,0335,0203,0203,0203,0203,0334,0203,0363,0332,0332,0331,0211,",
    "01245:0333,0200,0336,0330,0332,0336,0245,0337,0333,0331,0337,",
    "0246:0210,0332,0332,0335,0306,0336,0330,0335,0335,0335,0321,0362,0203,0335,0335,0203,0364,0331,0350,0335,0337,0366,0333,0333,0333,0333,0334,0334,0334,0334,0367,0335,0336,0342,0334,0334,0342,0330,0330,0330,0330,0335,0335,0335,0304,0337,0211,",
    "01246:0333,0200,0336,0330,0332,0336,0246,",
    "0247:0330,0332,0336,0332,0336,0221,0333,0333,0333,0222,0333,0333,0333,0223,0333,0333,0333,0225,0333,0331,0331,0331,0332,0332,0332,0332,0332,0332,0332,0332,0332,0332,0332,0332,0333,0333,0226,0331,0331,0331,0333,0333,0333,0333,0333,0333,0333,0333,0333,0333,0333,0333,0333,0330,0333,0330,0330,0333,0330,0331,0332,0332,0332,0332,0332,0332,0332,0332,0332,0332,0332,0332,0227,0333,0333,0333,0230,0333,0331,0331,0331,0331,0332,0332,0332,0330,0332,0332,0332,0332,0332,0332,0333,0333,0231,0333,0333,0333,0232,0331,0333,0330,0333,0333,0233,0333,0333,0333,0234,0330,0330,0332,0330,0332,0332,0337,0337,",
    "01247:0333,0200,0336,0330,0332,0220,0336,0247,0337,0331,0333,0337,"
  ],
  "glyph": "0532,0521,0530,0520,0530,0521,0530,0531,0521,0530,0520,0530,0522,0530,0531,0521,0530,0520,0530,0523,0530,0531,0521,0530,0520,0530,0524,0530,0531,0521,0530,0520,0530,0525,0530,0531,0521,0530,0520,0530,0526,0530,0531,0521,0530,0520,0530,0527,0530,0531,0521,0530,0521,0530,0520,0530,0531,0533,",
  "x0": 444.95936104551885,
  "y0": 55.54334031875925,
  "unit": 26.25698849346984,
  "width": 800,
  "height": 800,
  "style": {
    "color0": "black",
    "fill0": "black",
    "line0": 1,
    "color1": "black",
    "fill1": "black",
    "line1": 5,
    "color2": "red",
    "fill2": "red",
    "line2": 1,
    "color3": "#FF7900",
    "fill3": "#FF7900",
    "line3": 1,
    "color4": "yellow",
    "fill4": "yellow",
    "line4": 1,
    "color5": "green",
    "fill5": "green",
    "line5": 1,
    "color6": "blue",
    "fill6": "blue",
    "line6": 1,
    "color7": "purple",
    "fill7": "purple",
    "line7": 1
  }
}</json>-->	<path d = "M445 56 L445 29 L419 56 L445 56 Z" stroke = "#000000" stroke-width = "1" fill = "#000000" />	<path d = "M366 56 L366 29 L392 56 L366 56 Z" stroke = "#000000" stroke-width = "1" fill = "#000000" />	<path d = "M406 56 L432 29 L379 29 L406 56 Z" stroke = "#000000" stroke-width = "1" fill = "#000000" />    <circle cx="432" cy = "69" r = "13.12849424673492" stroke = "#000000" stroke-width = "1" fill = "#000000" />
    <line x1="445" y1="82" x2="445" y2="56" style="stroke:#000000;stroke-width:1" />
    <line x1="366" y1="82" x2="366" y2="56" style="stroke:#000000;stroke-width:1" />
    <line x1="445" y1="82" x2="458" y2="82" style="stroke:#000000;stroke-width:1" />
    <line x1="445" y1="108" x2="445" y2="82" style="stroke:#000000;stroke-width:1" />
    <line x1="366" y1="108" x2="366" y2="82" style="stroke:#000000;stroke-width:1" />
    <line x1="445" y1="108" x2="458" y2="108" style="stroke:#000000;stroke-width:1" />
    <circle cx="432" cy = "121" r = "13.12849424673492" stroke = "#000000" stroke-width = "1" fill = "#000000" />
    <line x1="445" y1="134" x2="445" y2="108" style="stroke:#000000;stroke-width:1" />
    <line x1="366" y1="134" x2="366" y2="108" style="stroke:#000000;stroke-width:1" />
    <line x1="445" y1="134" x2="458" y2="134" style="stroke:#000000;stroke-width:1" />
    <line x1="366" y1="134" x2="353" y2="134" style="stroke:#000000;stroke-width:1" />
    <line x1="366" y1="134" x2="392" y2="134" style="stroke:#000000;stroke-width:1" />
    <line x1="392" y1="134" x2="419" y2="134" style="stroke:#000000;stroke-width:1" />
    <line x1="419" y1="134" x2="445" y2="134" style="stroke:#000000;stroke-width:1" />
    <line x1="419" y1="141" x2="419" y2="128" style="stroke:#000000;stroke-width:1" />
    <line x1="392" y1="141" x2="392" y2="128" style="stroke:#000000;stroke-width:1" />
    <circle cx="432" cy = "147" r = "13.12849424673492" stroke = "#000000" stroke-width = "1" fill = "#000000" />
    <line x1="445" y1="161" x2="445" y2="134" style="stroke:#000000;stroke-width:1" />
    <line x1="366" y1="161" x2="366" y2="134" style="stroke:#000000;stroke-width:1" />
    <line x1="445" y1="161" x2="458" y2="161" style="stroke:#000000;stroke-width:1" />
    <line x1="445" y1="187" x2="445" y2="161" style="stroke:#000000;stroke-width:1" />
    <line x1="366" y1="187" x2="366" y2="161" style="stroke:#000000;stroke-width:1" />
    <line x1="445" y1="187" x2="458" y2="187" style="stroke:#000000;stroke-width:1" />
    <circle cx="406" cy = "200" r = "13.12849424673492" stroke = "#000000" stroke-width = "1" fill = "#000000" />
    <line x1="445" y1="213" x2="445" y2="187" style="stroke:#000000;stroke-width:1" />
    <line x1="366" y1="213" x2="366" y2="187" style="stroke:#000000;stroke-width:1" />
    <line x1="445" y1="213" x2="458" y2="213" style="stroke:#000000;stroke-width:1" />
    <line x1="366" y1="213" x2="353" y2="213" style="stroke:#000000;stroke-width:1" />
    <line x1="366" y1="213" x2="392" y2="213" style="stroke:#000000;stroke-width:1" />
    <line x1="392" y1="213" x2="419" y2="213" style="stroke:#000000;stroke-width:1" />
    <line x1="419" y1="213" x2="445" y2="213" style="stroke:#000000;stroke-width:1" />
    <line x1="419" y1="220" x2="419" y2="207" style="stroke:#000000;stroke-width:1" />
    <line x1="392" y1="220" x2="392" y2="207" style="stroke:#000000;stroke-width:1" />
    <circle cx="432" cy = "226" r = "13.12849424673492" stroke = "#000000" stroke-width = "1" fill = "#000000" />
    <line x1="445" y1="239" x2="445" y2="213" style="stroke:#000000;stroke-width:1" />
    <line x1="366" y1="239" x2="366" y2="213" style="stroke:#000000;stroke-width:1" />
    <line x1="445" y1="239" x2="458" y2="239" style="stroke:#000000;stroke-width:1" />
    <line x1="445" y1="266" x2="445" y2="239" style="stroke:#000000;stroke-width:1" />
    <line x1="366" y1="266" x2="366" y2="239" style="stroke:#000000;stroke-width:1" />
    <line x1="445" y1="266" x2="458" y2="266" style="stroke:#000000;stroke-width:1" />
    <circle cx="432" cy = "279" r = "13.12849424673492" stroke = "#000000" stroke-width = "1" fill = "#000000" />
    <circle cx="406" cy = "279" r = "13.12849424673492" stroke = "#000000" stroke-width = "1" fill = "#000000" />
    <line x1="445" y1="292" x2="445" y2="266" style="stroke:#000000;stroke-width:1" />
    <line x1="366" y1="292" x2="366" y2="266" style="stroke:#000000;stroke-width:1" />
    <line x1="445" y1="292" x2="458" y2="292" style="stroke:#000000;stroke-width:1" />
    <line x1="366" y1="292" x2="353" y2="292" style="stroke:#000000;stroke-width:1" />
    <line x1="366" y1="292" x2="392" y2="292" style="stroke:#000000;stroke-width:1" />
    <line x1="392" y1="292" x2="419" y2="292" style="stroke:#000000;stroke-width:1" />
    <line x1="419" y1="292" x2="445" y2="292" style="stroke:#000000;stroke-width:1" />
    <line x1="419" y1="298" x2="419" y2="285" style="stroke:#000000;stroke-width:1" />
    <line x1="392" y1="298" x2="392" y2="285" style="stroke:#000000;stroke-width:1" />
    <circle cx="432" cy = "305" r = "13.12849424673492" stroke = "#000000" stroke-width = "1" fill = "#000000" />
    <line x1="445" y1="318" x2="445" y2="292" style="stroke:#000000;stroke-width:1" />
    <line x1="366" y1="318" x2="366" y2="292" style="stroke:#000000;stroke-width:1" />
    <line x1="445" y1="318" x2="458" y2="318" style="stroke:#000000;stroke-width:1" />
    <line x1="445" y1="344" x2="445" y2="318" style="stroke:#000000;stroke-width:1" />
    <line x1="366" y1="344" x2="366" y2="318" style="stroke:#000000;stroke-width:1" />
    <line x1="445" y1="344" x2="458" y2="344" style="stroke:#000000;stroke-width:1" />
    <circle cx="379" cy = "357" r = "13.12849424673492" stroke = "#000000" stroke-width = "1" fill = "#000000" />
    <line x1="445" y1="371" x2="445" y2="344" style="stroke:#000000;stroke-width:1" />
    <line x1="366" y1="371" x2="366" y2="344" style="stroke:#000000;stroke-width:1" />
    <line x1="445" y1="371" x2="458" y2="371" style="stroke:#000000;stroke-width:1" />
    <line x1="366" y1="371" x2="353" y2="371" style="stroke:#000000;stroke-width:1" />
    <line x1="366" y1="371" x2="392" y2="371" style="stroke:#000000;stroke-width:1" />
    <line x1="392" y1="371" x2="419" y2="371" style="stroke:#000000;stroke-width:1" />
    <line x1="419" y1="371" x2="445" y2="371" style="stroke:#000000;stroke-width:1" />
    <line x1="419" y1="377" x2="419" y2="364" style="stroke:#000000;stroke-width:1" />
    <line x1="392" y1="377" x2="392" y2="364" style="stroke:#000000;stroke-width:1" />
    <circle cx="432" cy = "384" r = "13.12849424673492" stroke = "#000000" stroke-width = "1" fill = "#000000" />
    <line x1="445" y1="397" x2="445" y2="371" style="stroke:#000000;stroke-width:1" />
    <line x1="366" y1="397" x2="366" y2="371" style="stroke:#000000;stroke-width:1" />
    <line x1="445" y1="397" x2="458" y2="397" style="stroke:#000000;stroke-width:1" />
    <line x1="445" y1="423" x2="445" y2="397" style="stroke:#000000;stroke-width:1" />
    <line x1="366" y1="423" x2="366" y2="397" style="stroke:#000000;stroke-width:1" />
    <line x1="445" y1="423" x2="458" y2="423" style="stroke:#000000;stroke-width:1" />
    <circle cx="379" cy = "436" r = "13.12849424673492" stroke = "#000000" stroke-width = "1" fill = "#000000" />
    <circle cx="432" cy = "436" r = "13.12849424673492" stroke = "#000000" stroke-width = "1" fill = "#000000" />
    <line x1="445" y1="449" x2="445" y2="423" style="stroke:#000000;stroke-width:1" />
    <line x1="366" y1="449" x2="366" y2="423" style="stroke:#000000;stroke-width:1" />
    <line x1="445" y1="449" x2="458" y2="449" style="stroke:#000000;stroke-width:1" />
    <line x1="366" y1="449" x2="353" y2="449" style="stroke:#000000;stroke-width:1" />
    <line x1="366" y1="449" x2="392" y2="449" style="stroke:#000000;stroke-width:1" />
    <line x1="392" y1="449" x2="419" y2="449" style="stroke:#000000;stroke-width:1" />
    <line x1="419" y1="449" x2="445" y2="449" style="stroke:#000000;stroke-width:1" />
    <line x1="419" y1="456" x2="419" y2="443" style="stroke:#000000;stroke-width:1" />
    <line x1="392" y1="456" x2="392" y2="443" style="stroke:#000000;stroke-width:1" />
    <circle cx="432" cy = "463" r = "13.12849424673492" stroke = "#000000" stroke-width = "1" fill = "#000000" />
    <line x1="445" y1="476" x2="445" y2="449" style="stroke:#000000;stroke-width:1" />
    <line x1="366" y1="476" x2="366" y2="449" style="stroke:#000000;stroke-width:1" />
    <line x1="445" y1="476" x2="458" y2="476" style="stroke:#000000;stroke-width:1" />
    <line x1="445" y1="502" x2="445" y2="476" style="stroke:#000000;stroke-width:1" />
    <line x1="366" y1="502" x2="366" y2="476" style="stroke:#000000;stroke-width:1" />
    <line x1="445" y1="502" x2="458" y2="502" style="stroke:#000000;stroke-width:1" />
    <circle cx="379" cy = "515" r = "13.12849424673492" stroke = "#000000" stroke-width = "1" fill = "#000000" />
    <circle cx="406" cy = "515" r = "13.12849424673492" stroke = "#000000" stroke-width = "1" fill = "#000000" />
    <line x1="445" y1="528" x2="445" y2="502" style="stroke:#000000;stroke-width:1" />
    <line x1="366" y1="528" x2="366" y2="502" style="stroke:#000000;stroke-width:1" />
    <line x1="445" y1="528" x2="458" y2="528" style="stroke:#000000;stroke-width:1" />
    <line x1="366" y1="528" x2="353" y2="528" style="stroke:#000000;stroke-width:1" />
    <line x1="366" y1="528" x2="392" y2="528" style="stroke:#000000;stroke-width:1" />
    <line x1="392" y1="528" x2="419" y2="528" style="stroke:#000000;stroke-width:1" />
    <line x1="419" y1="528" x2="445" y2="528" style="stroke:#000000;stroke-width:1" />
    <line x1="419" y1="535" x2="419" y2="522" style="stroke:#000000;stroke-width:1" />
    <line x1="392" y1="535" x2="392" y2="522" style="stroke:#000000;stroke-width:1" />
    <circle cx="432" cy = "541" r = "13.12849424673492" stroke = "#000000" stroke-width = "1" fill = "#000000" />
    <line x1="445" y1="554" x2="445" y2="528" style="stroke:#000000;stroke-width:1" />
    <line x1="366" y1="554" x2="366" y2="528" style="stroke:#000000;stroke-width:1" />
    <line x1="445" y1="554" x2="458" y2="554" style="stroke:#000000;stroke-width:1" />
    <line x1="445" y1="581" x2="445" y2="554" style="stroke:#000000;stroke-width:1" />
    <line x1="366" y1="581" x2="366" y2="554" style="stroke:#000000;stroke-width:1" />
    <line x1="445" y1="581" x2="458" y2="581" style="stroke:#000000;stroke-width:1" />
    <circle cx="379" cy = "594" r = "13.12849424673492" stroke = "#000000" stroke-width = "1" fill = "#000000" />
    <circle cx="406" cy = "594" r = "13.12849424673492" stroke = "#000000" stroke-width = "1" fill = "#000000" />
    <circle cx="432" cy = "594" r = "13.12849424673492" stroke = "#000000" stroke-width = "1" fill = "#000000" />
    <line x1="445" y1="607" x2="445" y2="581" style="stroke:#000000;stroke-width:1" />
    <line x1="366" y1="607" x2="366" y2="581" style="stroke:#000000;stroke-width:1" />
    <line x1="445" y1="607" x2="458" y2="607" style="stroke:#000000;stroke-width:1" />
    <line x1="366" y1="607" x2="353" y2="607" style="stroke:#000000;stroke-width:1" />
    <line x1="366" y1="607" x2="392" y2="607" style="stroke:#000000;stroke-width:1" />
    <line x1="392" y1="607" x2="419" y2="607" style="stroke:#000000;stroke-width:1" />
    <line x1="419" y1="607" x2="445" y2="607" style="stroke:#000000;stroke-width:1" />
    <line x1="419" y1="614" x2="419" y2="600" style="stroke:#000000;stroke-width:1" />
    <line x1="392" y1="614" x2="392" y2="600" style="stroke:#000000;stroke-width:1" />
    <circle cx="432" cy = "620" r = "13.12849424673492" stroke = "#000000" stroke-width = "1" fill = "#000000" />
    <line x1="445" y1="633" x2="445" y2="607" style="stroke:#000000;stroke-width:1" />
    <line x1="366" y1="633" x2="366" y2="607" style="stroke:#000000;stroke-width:1" />
    <line x1="445" y1="633" x2="458" y2="633" style="stroke:#000000;stroke-width:1" />
    <circle cx="432" cy = "646" r = "13.12849424673492" stroke = "#000000" stroke-width = "1" fill = "#000000" />
    <line x1="445" y1="659" x2="445" y2="633" style="stroke:#000000;stroke-width:1" />
    <line x1="366" y1="659" x2="366" y2="633" style="stroke:#000000;stroke-width:1" />
    <line x1="445" y1="659" x2="458" y2="659" style="stroke:#000000;stroke-width:1" />
    <line x1="445" y1="686" x2="445" y2="659" style="stroke:#000000;stroke-width:1" />
    <line x1="366" y1="686" x2="366" y2="659" style="stroke:#000000;stroke-width:1" />
    <line x1="445" y1="686" x2="458" y2="686" style="stroke:#000000;stroke-width:1" />
    <line x1="366" y1="686" x2="353" y2="686" style="stroke:#000000;stroke-width:1" />
    <line x1="366" y1="686" x2="392" y2="686" style="stroke:#000000;stroke-width:1" />
    <line x1="392" y1="686" x2="419" y2="686" style="stroke:#000000;stroke-width:1" />
    <line x1="419" y1="686" x2="445" y2="686" style="stroke:#000000;stroke-width:1" />
    <line x1="419" y1="692" x2="419" y2="679" style="stroke:#000000;stroke-width:1" />
    <line x1="392" y1="692" x2="392" y2="679" style="stroke:#000000;stroke-width:1" />
	<path d = "M445 712 L445 686 L419 686 L419 712 L445 712 Z" stroke = "#000000" stroke-width = "1" fill = "#000000" />	<path d = "M392 712 L392 686 L366 686 L366 712 L392 712 Z" stroke = "#000000" stroke-width = "1" fill = "#000000" />	<path d = "M419 738 L419 712 L392 712 L392 738 L419 738 Z" stroke = "#000000" stroke-width = "1" fill = "#000000" /></svg>