<svg width="600" height="400" viewbox = "0 0 600 400"  xmlns="http://www.w3.org/2000/svg">
<!--<json>{
  "glyph": "0336,0330,0332,0336,0225,",
  "x0": 300,
  "y0": 388.5780500000001,
  "unit": 370.0124972129086,
  "width": 600,
  "height": 400,
  "style": {
    "color0": "black",
    "fill0": "black",
    "line0": 1,
    "color1": "black",
    "fill1": "black",
    "line1": 5,
    "color2": "red",
    "fill2": "#ff000080",
    "line2": 2,
    "color3": "#FF7900",
    "fill3": "#FF790080",
    "line3": 2,
    "color4": "yellow",
    "fill4": "#ffff0080",
    "line4": 2,
    "color5": "green",
    "fill5": "#00ff0080",
    "line5": 2,
    "color6": "blue",
    "fill6": "#0000ff80",
    "line6": 2,
    "color7": "purple",
    "fill7": "#BF40BF80",
    "line7": 2
  },
  "shapes": [
    "0220:0331,0336,0336,0335,0362,0203,0336,0203,0334,0337,0203,0335,0203,0336,0203,0334,0337,0203,0203,0335,0203,0334,0203,0203,0203,0334,0203,0335,0203,0203,0334,0203,0203,0203,0203,0203,0203,0334,0203,0203,0335,0203,0334,0203,0203,0203,0334,0203,0335,0203,0203,0334,0203,0336,0203,0335,0337,0203,0334,0203,0336,0203,0354,0334,0337,0337,0337,0330,",
    "0221:0330,0335,0362,0203,0335,0336,0203,0335,0336,0203,0334,0337,0203,0336,0203,0334,0203,0335,0337,0203,0335,0203,0336,0336,0203,0334,0337,0203,0335,0203,0203,0203,0335,0203,0334,0203,0336,0203,0337,0203,0335,0203,0203,0335,0203,0334,0203,0203,0203,0334,0203,0335,0203,0203,0335,0203,0203,0203,0203,0354,0334,0337,0337,0331,",
    "0222:0331,0336,0336,0333,0336,0333,0337,0362,0203,0334,0203,0203,0203,0334,0203,0335,0203,0203,0336,0203,0335,0337,0203,0203,0336,0203,0335,0337,0203,0334,0203,0203,0203,0334,0203,0335,0203,0203,0336,0203,0335,0337,0203,0203,0336,0203,0337,0335,0203,0334,0203,0203,0203,0334,0203,0335,0203,0203,0336,0203,0337,0335,0337,0336,0203,0203,0336,0203,0335,0337,0203,0334,0203,0203,0203,0334,0203,0335,0203,0203,0336,0203,0335,0337,0203,0203,0336,0203,0335,0354,0337,0330,0330,0330,0330,0332,0332,0336,0333,0337,0337,0337,",
    "0223:0220,0333,0333,0220,0333,0333,0220,0331,0331,0220,0332,0332,0220,0332,0332,0220,0330,0330,",
    "0224:0221,0333,0333,0221,0333,0333,0221,0331,0331,0221,0332,0332,0221,0332,0332,0221,0330,0330,",
    "0225:0222,0333,0333,0222,0333,0333,0222,",
    "0231:0321,0342,0330,0320,0336,0230,0331,0331,0337,0350,0335,0304,",
    "0232:0231,0231,0231,0231,0231,0231,0231,0231,",
    "0233:0220,0336,0210,0232,",
    "0234:0220,0336,0335,0335,0331,0335,0331,0337,0321,0342,0332,0342,0336,0333,0337,0342,0330,0336,0336,0336,0330,0337,0366,0332,0332,0332,0367,0350,0335,0306,0350,0320,0335,0362,0203,0334,0334,0334,0334,0203,0334,0334,0334,0334,0203,0363,0335,0304,0350,0335,0304,0335,0335,0331,0331,0332,01015,0145,0154,0145,0155,0145,0156,0164,040,0144,0157,0167,0156,0365,0330,0330,0330,0330,0330,0333,0333,0333,0336,0332,0337,0333,0337,0337,",
    "0235:0220,0321,0336,0342,0335,0342,0335,0342,0335,0342,0335,0337,",
    "0236:0321,0220,0335,0336,0321,0342,0335,0335,0342,0335,0337,",
    "0237:0220,0336,0331,0332,0336,0321,0342,0335,0342,0335,0342,0335,0342,0335,0330,0330,0333,0333,0337,0337,",
    "01220:0333,0200,0336,0330,0332,0220,0331,0333,0337,",
    "01221:0333,0200,0336,0330,0332,0221,0331,0333,0337,",
    "01222:0333,0200,0336,0330,0332,0222,0331,0333,0337,",
    "01223:0333,0200,0336,0330,0332,0336,0330,0332,0336,0223,0337,0331,0331,0331,0333,0333,0333,0337,0337,",
    "01224:0333,0200,0336,0330,0332,0336,0336,0330,0332,0332,0224,0331,0331,0331,0331,0331,0333,0333,0333,0333,0333,0333,0337,0337,0337,",
    "01225:0333,0200,0336,0330,0332,0332,0336,0331,0333,0336,0330,0330,0225,0331,0331,0331,0331,0333,0333,0337,0337,0337,",
    "01226:0333,0200,0336,0336,0330,0332,0226,0331,0333,0337,0337,",
    "01227:0333,0200,0336,0330,0332,0336,0331,0333,0337,0227,0336,0331,0333,0337,0337,",
    "01230:0333,0200,0336,0330,0332,0336,0331,0330,0230,0331,0331,0333,0333,0337,0337,",
    "01231:0333,0200,",
    "01232:0333,0200,",
    "01233:0333,0200,",
    "01234:0333,0200,",
    "01235:0333,0200,",
    "01236:0333,0200,",
    "01237:0333,0200,",
    "0240:0220,0336,0331,0333,0336,0321,0335,0342,0335,0335,0342,0335,0330,0330,0332,0332,0337,0337,",
    "01240:0333,0200,0336,0330,0332,0210,0240,0211,0333,0331,0337,",
    "0241:0220,0336,0321,0343,0332,0350,0335,0336,0342,0334,0334,0342,0335,0304,0337,0333,0337,",
    "01241:0333,0200,0336,0332,0330,0210,0241,0211,0333,0331,0337,",
    "0242:0220,0321,0336,0343,0333,0336,0350,0335,0342,0334,0334,0342,0335,0337,0304,0332,0337,",
    "01242:0333,0200,0336,0330,0332,0210,0242,0211,0333,0331,0337,",
    "0243:0220,0336,0331,0332,0336,0321,0343,0332,0350,0334,0336,0342,0335,0335,0342,0337,0334,0334,0335,0304,0332,0330,0330,0337,0337,0333,",
    "01243:0333,0200,0336,0330,0332,0210,0243,0211,0333,0331,0337,",
    "0244:0220,0336,0331,0333,0336,0321,0343,0333,0350,0336,0335,0342,0334,0334,0342,0335,0337,0304,0333,0330,0330,0337,0337,0332,",
    "01244:0333,0200,0336,0330,0332,0210,0244,0211,0333,0331,0337,",
    "0245:0210,0332,0332,0362,0335,0203,0203,0203,0203,0334,0203,0363,0332,0332,0331,0211,",
    "01245:0333,0200,0336,0330,0332,0336,0245,0337,0333,0331,0337,",
    "0246:0210,0332,0332,0335,0306,0336,0330,0335,0335,0335,0321,0362,0203,0335,0335,0203,0364,0331,0350,0335,0337,0366,0333,0333,0333,0333,0334,0334,0334,0334,0367,0335,0336,0342,0334,0334,0342,0330,0330,0330,0330,0335,0335,0335,0304,0337,0211,",
    "01246:0333,0200,0336,0330,0332,0336,0246,",
    "0247:0330,0332,0336,0332,0336,0221,0333,0333,0333,0222,0333,0333,0333,0223,0333,0333,0333,0225,0333,0331,0331,0331,0332,0332,0332,0332,0332,0332,0332,0332,0332,0332,0332,0332,0333,0333,0226,0331,0331,0331,0333,0333,0333,0333,0333,0333,0333,0333,0333,0333,0333,0333,0333,0330,0333,0330,0330,0333,0330,0331,0332,0332,0332,0332,0332,0332,0332,0332,0332,0332,0332,0332,0227,0333,0333,0333,0230,0333,0331,0331,0331,0331,0332,0332,0332,0330,0332,0332,0332,0332,0332,0332,0333,0333,0231,0333,0333,0333,0232,0331,0333,0330,0333,0333,0233,0333,0333,0333,0234,0330,0330,0332,0330,0332,0332,0337,0337,",
    "01247:0333,0200,0336,0330,0332,0220,0336,0247,0337,0331,0333,0337,"
  ]
}</json>-->	<path d = "M150 296 L150 273 L127 273 L103 273 L80 273 L80 296 L57 296 L34 296 L22 296 L22 273 L22 250 L22 238 L46 238 L46 215 L46 192 L46 169 L22 169 L22 146 L22 123 L22 111 L46 111 L69 111 L80 111 L80 134 L103 134 L127 134 L150 134 L150 111 L173 111 L196 111 L207 111 L207 134 L207 157 L207 169 L184 169 L184 192 L184 215 L184 238 L207 238 L207 261 L207 285 L207 296 L184 296 L161 296 L150 296 Z" stroke = "#000000" stroke-width = "1" fill = "none" />	<path d = "M335 296 L335 273 L312 273 L288 273 L265 273 L265 296 L242 296 L219 296 L207 296 L207 273 L207 250 L207 238 L231 238 L231 215 L231 192 L231 169 L207 169 L207 146 L207 123 L207 111 L231 111 L254 111 L265 111 L265 134 L288 134 L312 134 L335 134 L335 111 L358 111 L381 111 L393 111 L393 134 L393 157 L393 169 L369 169 L369 192 L369 215 L369 238 L393 238 L393 261 L393 285 L393 296 L369 296 L346 296 L335 296 Z" stroke = "#000000" stroke-width = "1" fill = "none" />	<path d = "M520 296 L520 273 L497 273 L473 273 L450 273 L450 296 L427 296 L404 296 L393 296 L393 273 L393 250 L393 238 L416 238 L416 215 L416 192 L416 169 L393 169 L393 146 L393 123 L393 111 L416 111 L439 111 L450 111 L450 134 L473 134 L497 134 L520 134 L520 111 L543 111 L566 111 L578 111 L578 134 L578 157 L578 169 L554 169 L554 192 L554 215 L554 238 L578 238 L578 261 L578 285 L578 296 L554 296 L531 296 L520 296 Z" stroke = "#000000" stroke-width = "1" fill = "none" /></svg>