<svg width="600" height="400" viewbox = "0 0 600 400"  xmlns="http://www.w3.org/2000/svg">
<!--<json>{
  "glyph": "0336,0330,0332,0336,0223,",
  "x0": 300,
  "y0": 288.5780500000001,
  "unit": 370.0124972129086,
  "width": 600,
  "height": 400,
  "style": {
    "color0": "black",
    "fill0": "black",
    "line0": 1,
    "color1": "black",
    "fill1": "black",
    "line1": 5,
    "color2": "red",
    "fill2": "#ff000080",
    "line2": 2,
    "color3": "#FF7900",
    "fill3": "#FF790080",
    "line3": 2,
    "color4": "yellow",
    "fill4": "#ffff0080",
    "line4": 2,
    "color5": "green",
    "fill5": "#00ff0080",
    "line5": 2,
    "color6": "blue",
    "fill6": "#0000ff80",
    "line6": 2,
    "color7": "purple",
    "fill7": "#BF40BF80",
    "line7": 2
  },
  "shapes": [
    "0220:0331,0336,0336,0335,0362,0203,0336,0203,0334,0337,0203,0335,0203,0336,0203,0334,0337,0203,0203,0335,0203,0334,0203,0203,0203,0334,0203,0335,0203,0203,0334,0203,0203,0203,0203,0203,0203,0334,0203,0203,0335,0203,0334,0203,0203,0203,0334,0203,0335,0203,0203,0334,0203,0336,0203,0335,0337,0203,0334,0203,0336,0203,0354,0334,0337,0337,0337,0330,",
    "0221:0330,0335,0362,0203,0335,0336,0203,0335,0336,0203,0334,0337,0203,0336,0203,0334,0203,0335,0337,0203,0335,0203,0336,0336,0203,0334,0337,0203,0335,0203,0203,0203,0335,0203,0334,0203,0336,0203,0337,0203,0335,0203,0203,0335,0203,0334,0203,0203,0203,0334,0203,0335,0203,0203,0335,0203,0203,0203,0203,0354,0334,0337,0337,0331,",
    "0222:0331,0336,0336,0333,0336,0333,0337,0362,0203,0334,0203,0203,0203,0334,0203,0335,0203,0203,0336,0203,0335,0337,0203,0203,0336,0203,0335,0337,0203,0334,0203,0203,0203,0334,0203,0335,0203,0203,0336,0203,0335,0337,0203,0203,0336,0203,0337,0335,0203,0334,0203,0203,0203,0334,0203,0335,0203,0203,0336,0203,0337,0335,0337,0336,0203,0203,0336,0203,0335,0337,0203,0334,0203,0203,0203,0334,0203,0335,0203,0203,0336,0203,0335,0337,0203,0203,0336,0203,0335,0354,0337,0330,0330,0330,0330,0332,0332,0336,0333,0337,0337,0337,",
    "0223:0220,0333,0333,0220,0333,0333,0220,0331,0331,0220,0332,0332,0220,0332,0332,0220,0330,0330,",
    "0224:0221,0333,0333,0221,0333,0333,0221,0331,0331,0221,0332,0332,0221,0332,0332,0221,0330,0330,",
    "0225:0222,0333,0333,0222,0333,0333,0222,",
    "0231:0321,0342,0330,0320,0336,0230,0331,0331,0337,0350,0335,0304,",
    "0232:0231,0231,0231,0231,0231,0231,0231,0231,",
    "0233:0220,0336,0210,0232,",
    "0234:0220,0336,0335,0335,0331,0335,0331,0337,0321,0342,0332,0342,0336,0333,0337,0342,0330,0336,0336,0336,0330,0337,0366,0332,0332,0332,0367,0350,0335,0306,0350,0320,0335,0362,0203,0334,0334,0334,0334,0203,0334,0334,0334,0334,0203,0363,0335,0304,0350,0335,0304,0335,0335,0331,0331,0332,01015,0145,0154,0145,0155,0145,0156,0164,040,0144,0157,0167,0156,0365,0330,0330,0330,0330,0330,0333,0333,0333,0336,0332,0337,0333,0337,0337,",
    "0235:0220,0321,0336,0342,0335,0342,0335,0342,0335,0342,0335,0337,",
    "0236:0321,0220,0335,0336,0321,0342,0335,0335,0342,0335,0337,",
    "0237:0220,0336,0331,0332,0336,0321,0342,0335,0342,0335,0342,0335,0342,0335,0330,0330,0333,0333,0337,0337,",
    "01220:0333,0200,0336,0330,0332,0220,0331,0333,0337,",
    "01221:0333,0200,0336,0330,0332,0221,0331,0333,0337,",
    "01222:0333,0200,0336,0330,0332,0222,0331,0333,0337,",
    "01223:0333,0200,0336,0330,0332,0336,0330,0332,0336,0223,0337,0331,0331,0331,0333,0333,0333,0337,0337,",
    "01224:0333,0200,0336,0330,0332,0336,0336,0330,0332,0332,0224,0331,0331,0331,0331,0331,0333,0333,0333,0333,0333,0333,0337,0337,0337,",
    "01225:0333,0200,0336,0330,0332,0332,0336,0331,0333,0336,0330,0330,0225,0331,0331,0331,0331,0333,0333,0337,0337,0337,",
    "01226:0333,0200,0336,0336,0330,0332,0226,0331,0333,0337,0337,",
    "01227:0333,0200,0336,0330,0332,0336,0331,0333,0337,0227,0336,0331,0333,0337,0337,",
    "01230:0333,0200,0336,0330,0332,0336,0331,0330,0230,0331,0331,0333,0333,0337,0337,",
    "01231:0333,0200,",
    "01232:0333,0200,",
    "01233:0333,0200,",
    "01234:0333,0200,",
    "01235:0333,0200,",
    "01236:0333,0200,",
    "01237:0333,0200,",
    "0240:0220,0336,0331,0333,0336,0321,0335,0342,0335,0335,0342,0335,0330,0330,0332,0332,0337,0337,",
    "01240:0333,0200,0336,0330,0332,0210,0240,0211,0333,0331,0337,",
    "0241:0220,0336,0321,0343,0332,0350,0335,0336,0342,0334,0334,0342,0335,0304,0337,0333,0337,",
    "01241:0333,0200,0336,0332,0330,0210,0241,0211,0333,0331,0337,",
    "0242:0220,0321,0336,0343,0333,0336,0350,0335,0342,0334,0334,0342,0335,0337,0304,0332,0337,",
    "01242:0333,0200,0336,0330,0332,0210,0242,0211,0333,0331,0337,",
    "0243:0220,0336,0331,0332,0336,0321,0343,0332,0350,0334,0336,0342,0335,0335,0342,0337,0334,0334,0335,0304,0332,0330,0330,0337,0337,0333,",
    "01243:0333,0200,0336,0330,0332,0210,0243,0211,0333,0331,0337,",
    "0244:0220,0336,0331,0333,0336,0321,0343,0333,0350,0336,0335,0342,0334,0334,0342,0335,0337,0304,0333,0330,0330,0337,0337,0332,",
    "01244:0333,0200,0336,0330,0332,0210,0244,0211,0333,0331,0337,",
    "0245:0210,0332,0332,0362,0335,0203,0203,0203,0203,0334,0203,0363,0332,0332,0331,0211,",
    "01245:0333,0200,0336,0330,0332,0336,0245,0337,0333,0331,0337,",
    "0246:0210,0332,0332,0335,0306,0336,0330,0335,0335,0335,0321,0362,0203,0335,0335,0203,0364,0331,0350,0335,0337,0366,0333,0333,0333,0333,0334,0334,0334,0334,0367,0335,0336,0342,0334,0334,0342,0330,0330,0330,0330,0335,0335,0335,0304,0337,0211,",
    "01246:0333,0200,0336,0330,0332,0336,0246,",
    "0247:0330,0332,0336,0332,0336,0221,0333,0333,0333,0222,0333,0333,0333,0223,0333,0333,0333,0225,0333,0331,0331,0331,0332,0332,0332,0332,0332,0332,0332,0332,0332,0332,0332,0332,0333,0333,0226,0331,0331,0331,0333,0333,0333,0333,0333,0333,0333,0333,0333,0333,0333,0333,0333,0330,0333,0330,0330,0333,0330,0331,0332,0332,0332,0332,0332,0332,0332,0332,0332,0332,0332,0332,0227,0333,0333,0333,0230,0333,0331,0331,0331,0331,0332,0332,0332,0330,0332,0332,0332,0332,0332,0332,0333,0333,0231,0333,0333,0333,0232,0331,0333,0330,0333,0333,0233,0333,0333,0333,0234,0330,0330,0332,0330,0332,0332,0337,0337,",
    "01247:0333,0200,0336,0330,0332,0220,0336,0247,0337,0331,0333,0337,"
  ]
}</json>-->	<path d = "M115 196 L138 196 L150 196 L150 173 L173 173 L184 173 L184 150 L184 127 L207 127 L207 104 L207 80 L207 57 L184 57 L184 34 L184 11 L161 11 L138 11 L115 11 L92 11 L69 11 L46 11 L46 34 L46 57 L22 57 L22 80 L22 104 L22 127 L46 127 L46 150 L46 173 L69 173 L80 173 L80 196 L103 196 L115 196 Z" stroke = "#000000" stroke-width = "1" fill = "none" />	<path d = "M300 196 L323 196 L335 196 L335 173 L358 173 L369 173 L369 150 L369 127 L393 127 L393 104 L393 80 L393 57 L369 57 L369 34 L369 11 L346 11 L323 11 L300 11 L277 11 L254 11 L231 11 L231 34 L231 57 L207 57 L207 80 L207 104 L207 127 L231 127 L231 150 L231 173 L254 173 L265 173 L265 196 L288 196 L300 196 Z" stroke = "#000000" stroke-width = "1" fill = "none" />	<path d = "M485 196 L508 196 L520 196 L520 173 L543 173 L554 173 L554 150 L554 127 L578 127 L578 104 L578 80 L578 57 L554 57 L554 34 L554 11 L531 11 L508 11 L485 11 L462 11 L439 11 L416 11 L416 34 L416 57 L393 57 L393 80 L393 104 L393 127 L416 127 L416 150 L416 173 L439 173 L450 173 L450 196 L473 196 L485 196 Z" stroke = "#000000" stroke-width = "1" fill = "none" />	<path d = "M485 381 L508 381 L520 381 L520 358 L543 358 L554 358 L554 335 L554 312 L578 312 L578 289 L578 265 L578 242 L554 242 L554 219 L554 196 L531 196 L508 196 L485 196 L462 196 L439 196 L416 196 L416 219 L416 242 L393 242 L393 265 L393 289 L393 312 L416 312 L416 335 L416 358 L439 358 L450 358 L450 381 L473 381 L485 381 Z" stroke = "#000000" stroke-width = "1" fill = "none" />	<path d = "M300 381 L323 381 L335 381 L335 358 L358 358 L369 358 L369 335 L369 312 L393 312 L393 289 L393 265 L393 242 L369 242 L369 219 L369 196 L346 196 L323 196 L300 196 L277 196 L254 196 L231 196 L231 219 L231 242 L207 242 L207 265 L207 289 L207 312 L231 312 L231 335 L231 358 L254 358 L265 358 L265 381 L288 381 L300 381 Z" stroke = "#000000" stroke-width = "1" fill = "none" />	<path d = "M115 381 L138 381 L150 381 L150 358 L173 358 L184 358 L184 335 L184 312 L207 312 L207 289 L207 265 L207 242 L184 242 L184 219 L184 196 L161 196 L138 196 L115 196 L92 196 L69 196 L46 196 L46 219 L46 242 L22 242 L22 265 L22 289 L22 312 L46 312 L46 335 L46 358 L69 358 L80 358 L80 381 L103 381 L115 381 Z" stroke = "#000000" stroke-width = "1" fill = "none" /></svg>