<svg width="400" height="400" viewbox = "0 0 400 400"  xmlns="http://www.w3.org/2000/svg">
<!--<json>{
  "glyph": "0331,0333,0337,0200,0330,0336,0336,0331,0334,0336,0312,0336,0313,0337,0306,0350,0334,0201,0335,0335,0335,0335,0313,0336,0201,0335,0335,0335,0312,0337,0334,0334,0334,0201,0201,0335,0335,0335,0330,0335,0335,0335,0330,0330,0304,0335,0335,0334,0342,0333,0342,0333,0332,0332,0332,0332,0332,0332,0342,0332,0342,0330,0335,0342,0335,0335,0201,0335,0335,0330,0330,0312,0336,0201,0335,0313,0337,0306,0350,0335,0201,0335,0313,0336,0335,0312,0337,0330,0330,0313,0304,0335,0335,0330,0332,0334,0201,0334,0201,0335,0335,0336,0332,0337,0201,0335,0336,0342,0335,0330,0330,0335,0335,0337,0337,0332,0336,0332,0201,0334,0336,0201,0334,0337,0342,0335,0201,0334,0342,0335,0342,0335,0331,0332,0330,0333,0200,0330,0332,0330,0330,0330,0330,0330,0333,0200,0331,0200,0332,0333,0334,0335,0332,0335,0306,0350,0335,0312,0336,0313,0337,0201,0334,0334,0334,0334,0313,0336,0342,0330,0312,0337,0304,0332,0331,0331,0331,0331,0333,0312,0336,0201,0334,0306,0350,0334,0313,0337,0342,0335,0335,0335,0335,0336,0331,0312,0337,0304,0332,0331,0331,0333,0333,0313,0336,0333,0337,0324,0362,0203,0334,0336,0203,0337,0203,0203,0335,0203,0336,0336,0203,0335,0337,0337,0334,0336,0336,0336,0203,0335,0337,0337,0337,0203,0334,0203,0203,0203,0336,0336,0203,0334,0337,0337,0203,0335,0336,0336,0203,0336,0203,0337,0337,0337,0203,0203,0335,0203,0203,0203,0203,0203,0203,0203,0203,0335,0203,0203,0336,0336,0203,0336,0203,0335,0337,0337,0337,0203,0334,0203,0203,0203,0336,0336,0203,0334,0337,0337,0203,0335,0203,0336,0336,0203,0336,0203,0337,0337,0337,0335,0203,0203,0336,0203,0334,0337,0203,0335,0203,0203,0203,0363,",
  "x0": 200,
  "y0": 200,
  "unit": 156.92141883605018,
  "width": 400,
  "height": 400,
  "style": {
    "color0": "black",
    "fill0": "black",
    "line0": 1,
    "color1": "black",
    "fill1": "black",
    "line1": 5,
    "color2": "red",
    "fill2": "#ff000080",
    "line2": 2,
    "color3": "#FF7900",
    "fill3": "#FF790080",
    "line3": 2,
    "color4": "yellow",
    "fill4": "#ffff0080",
    "line4": 2,
    "color5": "green",
    "fill5": "#00ff0080",
    "line5": 2,
    "color6": "blue",
    "fill6": "#0000ff80",
    "line6": 2,
    "color7": "purple",
    "fill7": "#BF40BF80",
    "line7": 2
  },
  "shapes": [
    "0220:0331,0333,0337,0336,0330,0332,0336,0333,0330,0335,0350,0321,0334,0310,0337,0337,0337,0342,0330,0335,0335,0335,0313,0336,0342,0335,0335,0342,0334,0330,0330,0335,0335,0335,0335,0310,0336,0334,0304,0331,0332,0313,0337,0330,0334,0201,0334,0201,0201,0334,0201,0201,0334,0201,0336,0342,0330,0330,0332,0332,0335,0342,0334,0331,0331,0337,",
    "0231:0321,0342,0330,0320,0336,0230,0331,0331,0337,0350,0335,0304,",
    "0232:0231,0231,0231,0231,0231,0231,0231,0231,",
    "0233:0220,0336,0210,0232,",
    "0234:0220,0336,0335,0335,0331,0335,0331,0337,0321,0342,0332,0342,0336,0333,0337,0342,0330,0336,0336,0336,0330,0337,0366,0332,0332,0332,0367,0350,0335,0306,0350,0320,0335,0362,0203,0334,0334,0334,0334,0203,0334,0334,0334,0334,0203,0363,0335,0304,0350,0335,0304,0335,0335,0331,0331,0332,01015,0145,0154,0145,0155,0145,0156,0164,040,0144,0157,0167,0156,0365,0330,0330,0330,0330,0330,0333,0333,0333,0336,0332,0337,0333,0337,0337,",
    "0235:0220,0321,0336,0342,0335,0342,0335,0342,0335,0342,0335,0337,",
    "0236:0321,0220,0335,0336,0321,0342,0335,0335,0342,0335,0337,",
    "0237:0220,0336,0331,0332,0336,0321,0342,0335,0342,0335,0342,0335,0342,0335,0330,0330,0333,0333,0337,0337,",
    "01220:0333,0200,",
    "01221:0333,0200,",
    "01222:0333,0200,",
    "01223:0333,0200,0336,0330,0332,0336,0331,0330,0223,0333,0333,0331,0331,0337,0337,",
    "01224:0333,0200,0336,0330,0332,0336,0332,0337,0335,0224,0334,0336,0331,0333,0333,0337,0337,0336,0336,0331,0333,0337,0337,",
    "01225:0333,0200,0336,0330,0332,0336,0336,0225,0337,0337,0331,0333,0337,",
    "01226:0333,0200,0336,0336,0330,0332,0226,0331,0333,0337,0337,",
    "01227:0333,0200,0336,0330,0332,0336,0331,0333,0337,0227,0336,0331,0333,0337,0337,",
    "01230:0333,0200,0336,0330,0332,0336,0331,0330,0230,0331,0331,0333,0333,0337,0337,",
    "01231:0333,0200,",
    "01232:0333,0200,",
    "01233:0333,0200,",
    "01234:0333,0200,",
    "01235:0333,0200,",
    "01236:0333,0200,",
    "01237:0333,0200,",
    "0240:0220,0336,0331,0333,0336,0321,0335,0342,0335,0335,0342,0335,0330,0330,0332,0332,0337,0337,",
    "01240:0333,0200,0336,0330,0332,0210,0240,0211,0333,0331,0337,",
    "0241:0220,0336,0321,0343,0332,0350,0335,0336,0342,0334,0334,0342,0335,0304,0337,0333,0337,",
    "01241:0333,0200,0336,0332,0330,0210,0241,0211,0333,0331,0337,",
    "0242:0220,0321,0336,0343,0333,0336,0350,0335,0342,0334,0334,0342,0335,0337,0304,0332,0337,",
    "01242:0333,0200,0336,0330,0332,0210,0242,0211,0333,0331,0337,",
    "0243:0220,0336,0331,0332,0336,0321,0343,0332,0350,0334,0336,0342,0335,0335,0342,0337,0334,0334,0335,0304,0332,0330,0330,0337,0337,0333,",
    "01243:0333,0200,0336,0330,0332,0210,0243,0211,0333,0331,0337,",
    "0244:0220,0336,0331,0333,0336,0321,0343,0333,0350,0336,0335,0342,0334,0334,0342,0335,0337,0304,0333,0330,0330,0337,0337,0332,",
    "01244:0333,0200,0336,0330,0332,0210,0244,0211,0333,0331,0337,",
    "0245:0210,0332,0332,0362,0335,0203,0203,0203,0203,0334,0203,0363,0332,0332,0331,0211,",
    "01245:0333,0200,0336,0330,0332,0336,0245,0337,0333,0331,0337,",
    "0246:0210,0332,0332,0335,0306,0336,0330,0335,0335,0335,0321,0362,0203,0335,0335,0203,0364,0331,0350,0335,0337,0366,0333,0333,0333,0333,0334,0334,0334,0334,0367,0335,0336,0342,0334,0334,0342,0330,0330,0330,0330,0335,0335,0335,0304,0337,0211,",
    "01246:0333,0200,0336,0330,0332,0336,0246,",
    "0247:0330,0332,0336,0332,0336,0221,0333,0333,0333,0222,0333,0333,0333,0223,0333,0333,0333,0225,0333,0331,0331,0331,0332,0332,0332,0332,0332,0332,0332,0332,0332,0332,0332,0332,0333,0333,0226,0331,0331,0331,0333,0333,0333,0333,0333,0333,0333,0333,0333,0333,0333,0333,0333,0330,0333,0330,0330,0333,0330,0331,0332,0332,0332,0332,0332,0332,0332,0332,0332,0332,0332,0332,0227,0333,0333,0333,0230,0333,0331,0331,0331,0331,0332,0332,0332,0330,0332,0332,0332,0332,0332,0332,0333,0333,0231,0333,0333,0333,0232,0331,0333,0330,0333,0333,0233,0333,0333,0333,0234,0330,0330,0332,0330,0332,0332,0337,0337,",
    "01247:0333,0200,0336,0330,0332,0220,0336,0247,0337,0331,0333,0337,"
  ]
}</json>-->	<path d = "M357 357 L357 43 L43 43 L43 357 L357 357 Z" stroke = "#000000" stroke-width = "1" fill = "none" />    <line x1="357" y1="122" x2="318" y2="144" style="stroke:#000000;stroke-width:1" />
    <line x1="318" y1="144" x2="318" y2="122" style="stroke:#000000;stroke-width:1" />
    <line x1="318" y1="122" x2="318" y2="82" style="stroke:#000000;stroke-width:1" />
    <line x1="318" y1="82" x2="318" y2="43" style="stroke:#000000;stroke-width:1" />
    <line x1="357" y1="122" x2="318" y2="122" style="stroke:#000000;stroke-width:1" />
    <line x1="357" y1="82" x2="318" y2="82" style="stroke:#000000;stroke-width:1" />
    <line x1="357" y1="278" x2="318" y2="278" style="stroke:#000000;stroke-width:1" />
    <line x1="357" y1="318" x2="318" y2="318" style="stroke:#000000;stroke-width:1" />
    <line x1="318" y1="318" x2="318" y2="278" style="stroke:#000000;stroke-width:1" />
    <line x1="318" y1="318" x2="318" y2="357" style="stroke:#000000;stroke-width:1" />
    <line x1="318" y1="278" x2="318" y2="256" style="stroke:#000000;stroke-width:1" />
    <line x1="318" y1="256" x2="357" y2="278" style="stroke:#000000;stroke-width:1" />
    <line x1="318" y1="318" x2="278" y2="318" style="stroke:#000000;stroke-width:1" />
    <line x1="278" y1="318" x2="278" y2="357" style="stroke:#000000;stroke-width:1" />
    <line x1="259" y1="357" x2="259" y2="318" style="stroke:#000000;stroke-width:1" />
    <line x1="259" y1="318" x2="278" y2="318" style="stroke:#000000;stroke-width:1" />
    <line x1="141" y1="357" x2="141" y2="318" style="stroke:#000000;stroke-width:1" />
    <line x1="141" y1="318" x2="122" y2="318" style="stroke:#000000;stroke-width:1" />
    <line x1="122" y1="318" x2="122" y2="357" style="stroke:#000000;stroke-width:1" />
    <line x1="122" y1="318" x2="82" y2="318" style="stroke:#000000;stroke-width:1" />
    <line x1="82" y1="318" x2="82" y2="357" style="stroke:#000000;stroke-width:1" />
    <line x1="82" y1="318" x2="43" y2="318" style="stroke:#000000;stroke-width:1" />
	<path d = "M82 318 L82 278 L43 278 L43 318 L82 318 Z" stroke = "#000000" stroke-width = "1" fill = "none" />	<path d = "M82 82 L82 43 L43 43 L43 82 L82 82 Z" stroke = "#000000" stroke-width = "1" fill = "none" />	<path d = "M82 122 L82 82 L43 82 L43 122 L82 122 Z" stroke = "#000000" stroke-width = "1" fill = "none" />    <line x1="43" y1="122" x2="82" y2="144" style="stroke:#000000;stroke-width:1" />
    <line x1="82" y1="144" x2="82" y2="122" style="stroke:#000000;stroke-width:1" />
    <line x1="82" y1="278" x2="82" y2="256" style="stroke:#000000;stroke-width:1" />
    <line x1="82" y1="256" x2="43" y2="278" style="stroke:#000000;stroke-width:1" />
	<path d = "M141 357 L141 318 L122 318 L82 318 L43 318 L43 278 L43 269 L43 264 L82 264 L82 225 L82 185 L82 146 L82 136 L43 136 L43 126 L43 122 L43 82 L43 43 L82 43 L122 43 L161 43 L200 43 L239 43 L278 43 L318 43 L357 43 L357 82 L357 122 L357 131 L357 136 L318 136 L318 175 L318 215 L318 254 L318 264 L357 264 L357 303 L357 313 L357 318 L318 318 L278 318 L259 318 L259 357 L220 357 L180 357 L141 357 Z" stroke = "#ffff00" stroke-width = "2" fill = "rgba(255, 255, 0, 0.5)" /></svg>