<svg width="400" height="800" viewbox = "0 0 400 800"  xmlns="http://www.w3.org/2000/svg">
<!--<json>{
  "glyph": "0335,0335,0330,0221,0331,0336,0331,0337,0222,0336,0336,0335,0335,0335,0331,0331,0331,0331,0331,0313,0304,0336,0336,0336,0330,0330,0337,0337,0337,0332,0332,0332,0332,0336,0331,0337,0210,0210,0210,0210,0210,01127,01127,01127,01056,01124,01122,01101,01123,01110,01122,01117,01102,01117,01124,01056,01117,01122,01107,",
  "x0": 200,
  "y0": 309.1873636363636,
  "unit": 189.87491679162073,
  "width": 400,
  "height": 800,
  "style": {
    "color0": "black",
    "fill0": "#00000080",
    "line0": 1,
    "color1": "black",
    "fill1": "black",
    "line1": 5,
    "color2": "red",
    "fill2": "red",
    "line2": 1,
    "color3": "#FF7900",
    "fill3": "#FF7900",
    "line3": 4,
    "color4": "yellow",
    "fill4": "yellow",
    "line4": 4,
    "color5": "green",
    "fill5": "green",
    "line5": 4,
    "color6": "blue",
    "fill6": "blue",
    "line6": 4,
    "color7": "purple",
    "fill7": "purple",
    "line7": 4
  },
  "shapes": [
    "0220:0313,0336,0330,0210,0210,0331,0337,0305,0350,0311,0362,0203,0335,0335,0335,0335,0336,0203,0335,0335,0203,0363,0335,0335,0335,0335,0337,0313,0336,0330,0211,0211,0313,0331,0337,",
    "0221:0334,0336,0331,0337,0220,0330,0335,0335,0220,0330,0335,0335,0220,0330,0335,0335,0220,0330,0335,0335,0220,0335,0334,0335,0311,0336,0330,0336,0220,0330,0335,0335,0220,0330,0335,0335,0220,0330,0335,0335,0220,0330,0335,0335,0220,0330,0311,0337,0330,0335,0335,0335,0337,0313,0304,0335,0336,0332,0337,",
    "0222:0330,0335,0335,0306,0350,0335,0210,0210,0362,0203,0334,0334,0334,0312,0336,0203,0334,0334,0203,0334,0334,0334,0337,0203,0363,0335,0335,0335,0335,0335,0335,0211,0211,0335,0330,0330,0334,0334,0334,0334,0334,0210,0210,0362,0203,0334,0334,0334,0312,0336,0203,0334,0334,0203,0334,0334,0334,0337,0203,0363,0335,0211,0211,0331,0334,0334,0334,0334,0312,0336,0335,0330,0334,0334,0334,0334,0313,0336,0362,0203,0334,0334,0334,0312,0337,0203,0334,0334,0334,0334,0203,0334,0334,0334,0336,0203,0363,0331,0335,0335,0335,0337,0331,0334,0334,0334,0334,0334,0334,0362,0203,0334,0334,0334,0336,0203,0334,0334,0203,0334,0334,0334,0337,0203,0363,0330,0330,0335,0335,0335,0335,0335,0335,0210,0210,0362,0203,0334,0334,0334,0312,0336,0203,0334,0334,0334,0334,0313,0337,0203,0363,0334,0334,0334,0334,0334,0335,0335,0335,0335,0335,0334,0334,0334,0334,0334,0313,0336,0312,0337,0211,0211,0330,0330,0330,0330,0335,0335,0335,0335,0335,0335,0210,0210,0362,0203,0334,0334,0334,0312,0336,0203,0334,0334,0334,0313,0334,0337,0203,0363,0334,0334,0334,0334,0334,0313,0336,0312,0337,0211,0211,0330,0334,0334,0334,0312,0336,0330,0313,0337,0330,0335,0335,0335,0335,0335,0313,0336,0312,0337,0210,0210,0362,0203,0335,0335,0335,0312,0336,0203,0335,0335,0335,0335,0313,0337,0203,0363,0335,0335,0335,0335,0335,0313,0336,0312,0337,0211,0211,0330,0330,0330,0330,0335,0335,0335,0335,0335,0335,0210,0210,0362,0203,0335,0335,0335,0312,0336,0203,0335,0335,0335,0335,0313,0337,0203,0363,0335,0335,0335,0335,0335,0313,0336,0312,0337,0211,0211,0330,0330,0335,0335,0337,0306,",
    "0231:0321,0342,0330,0320,0336,0230,0331,0331,0337,0350,0335,0304,",
    "0232:0231,0231,0231,0231,0231,0231,0231,0231,",
    "0233:0220,0336,0210,0232,",
    "0234:0220,0336,0335,0335,0331,0335,0331,0337,0321,0342,0332,0342,0336,0333,0337,0342,0330,0336,0336,0336,0330,0337,0366,0332,0332,0332,0367,0350,0335,0306,0350,0320,0335,0362,0203,0334,0334,0334,0334,0203,0334,0334,0334,0334,0203,0363,0335,0304,0350,0335,0304,0335,0335,0331,0331,0332,01015,0145,0154,0145,0155,0145,0156,0164,040,0144,0157,0167,0156,0365,0330,0330,0330,0330,0330,0333,0333,0333,0336,0332,0337,0333,0337,0337,",
    "0235:0220,0321,0336,0342,0335,0342,0335,0342,0335,0342,0335,0337,",
    "0236:0321,0220,0335,0336,0321,0342,0335,0335,0342,0335,0337,",
    "0237:0220,0336,0331,0332,0336,0321,0342,0335,0342,0335,0342,0335,0342,0335,0330,0330,0333,0333,0337,0337,",
    "01220:0333,0200,0336,0330,0332,0220,0313,0336,0313,0304,0331,0331,0333,0333,0337,0337,",
    "01221:0333,0200,0336,0330,0332,0336,0221,0331,0331,0333,0333,0337,0337,",
    "01222:0333,0200,0336,0330,0332,0336,0222,0337,0313,0304,0331,0333,0337,",
    "01223:0333,0200,0336,0330,0332,0336,0331,0330,0223,0333,0333,0331,0331,0337,0337,",
    "01224:0333,0200,0336,0330,0332,0336,0332,0337,0335,0224,0334,0336,0331,0333,0333,0337,0337,0336,0336,0331,0333,0337,0337,",
    "01225:0333,0200,0336,0330,0332,0336,0336,0225,0337,0337,0331,0333,0337,",
    "01226:0333,0200,0336,0336,0330,0332,0226,0331,0333,0337,0337,",
    "01227:0333,0200,0336,0330,0332,0336,0331,0333,0337,0227,0336,0331,0333,0337,0337,",
    "01230:0333,0200,0336,0330,0332,0336,0331,0330,0230,0331,0331,0333,0333,0337,0337,",
    "01231:0333,0200,",
    "01232:0333,0200,",
    "01233:0333,0200,",
    "01234:0333,0200,",
    "01235:0333,0200,",
    "01236:0333,0200,",
    "01237:0333,0200,",
    "0240:0220,0336,0331,0333,0336,0321,0335,0342,0335,0335,0342,0335,0330,0330,0332,0332,0337,0337,",
    "01240:0333,0200,0336,0330,0332,0210,0240,0211,0333,0331,0337,",
    "0241:0220,0336,0321,0343,0332,0350,0335,0336,0342,0334,0334,0342,0335,0304,0337,0333,0337,",
    "01241:0333,0200,0336,0332,0330,0210,0241,0211,0333,0331,0337,",
    "0242:0220,0321,0336,0343,0333,0336,0350,0335,0342,0334,0334,0342,0335,0337,0304,0332,0337,",
    "01242:0333,0200,0336,0330,0332,0210,0242,0211,0333,0331,0337,",
    "0243:0220,0336,0331,0332,0336,0321,0343,0332,0350,0334,0336,0342,0335,0335,0342,0337,0334,0334,0335,0304,0332,0330,0330,0337,0337,0333,",
    "01243:0333,0200,0336,0330,0332,0210,0243,0211,0333,0331,0337,",
    "0244:0220,0336,0331,0333,0336,0321,0343,0333,0350,0336,0335,0342,0334,0334,0342,0335,0337,0304,0333,0330,0330,0337,0337,0332,",
    "01244:0333,0200,0336,0330,0332,0210,0244,0211,0333,0331,0337,",
    "0245:0210,0332,0332,0362,0335,0203,0203,0203,0203,0334,0203,0363,0332,0332,0331,0211,",
    "01245:0333,0200,0336,0330,0332,0336,0245,0337,0333,0331,0337,",
    "0246:0210,0332,0332,0335,0306,0336,0330,0335,0335,0335,0321,0362,0203,0335,0335,0203,0364,0331,0350,0335,0337,0366,0333,0333,0333,0333,0334,0334,0334,0334,0367,0335,0336,0342,0334,0334,0342,0330,0330,0330,0330,0335,0335,0335,0304,0337,0211,",
    "01246:0333,0200,0336,0330,0332,0336,0246,",
    "0247:0330,0332,0336,0332,0336,0221,0333,0333,0333,0222,0333,0333,0333,0223,0333,0333,0333,0225,0333,0331,0331,0331,0332,0332,0332,0332,0332,0332,0332,0332,0332,0332,0332,0332,0333,0333,0226,0331,0331,0331,0333,0333,0333,0333,0333,0333,0333,0333,0333,0333,0333,0333,0333,0330,0333,0330,0330,0333,0330,0331,0332,0332,0332,0332,0332,0332,0332,0332,0332,0332,0332,0332,0227,0333,0333,0333,0230,0333,0331,0331,0331,0331,0332,0332,0332,0330,0332,0332,0332,0332,0332,0332,0333,0333,0231,0333,0333,0333,0232,0331,0333,0330,0333,0333,0233,0333,0333,0333,0234,0330,0330,0332,0330,0332,0332,0337,0337,",
    "01247:0333,0200,0336,0330,0332,0220,0336,0247,0337,0331,0333,0337,"
  ]
}</json>-->	<path d = "M127 499 L273 499 L200 552 L127 499 Z" stroke = "#000000" stroke-width = "1" fill = "rgba(0, 0, 0, 0.5)" />	<path d = "M302 520 L347 658 L274 606 L302 520 Z" stroke = "#000000" stroke-width = "1" fill = "rgba(0, 0, 0, 0.5)" />	<path d = "M335 693 L218 778 L246 693 L335 693 Z" stroke = "#000000" stroke-width = "1" fill = "rgba(0, 0, 0, 0.5)" />	<path d = "M182 778 L65 693 L154 693 L182 778 Z" stroke = "#000000" stroke-width = "1" fill = "rgba(0, 0, 0, 0.5)" />	<path d = "M53 658 L98 520 L126 606 L53 658 Z" stroke = "#000000" stroke-width = "1" fill = "rgba(0, 0, 0, 0.5)" />	<path d = "M148 606 L193 573 L182 606 L148 606 Z" stroke = "#000000" stroke-width = "1" fill = "rgba(0, 0, 0, 0.5)" />	<path d = "M207 573 L252 606 L218 606 L207 573 Z" stroke = "#000000" stroke-width = "1" fill = "rgba(0, 0, 0, 0.5)" />	<path d = "M256 619 L239 672 L228 639 L256 619 Z" stroke = "#000000" stroke-width = "1" fill = "rgba(0, 0, 0, 0.5)" />	<path d = "M228 680 L172 680 L200 660 L228 680 Z" stroke = "#000000" stroke-width = "1" fill = "rgba(0, 0, 0, 0.5)" />	<path d = "M161 672 L144 619 L172 639 L161 672 Z" stroke = "#000000" stroke-width = "1" fill = "rgba(0, 0, 0, 0.5)" />	<path d = "M200 404 L273 279 L200 237 L127 279 L200 404 Z" stroke = "#000000" stroke-width = "1" fill = "rgba(0, 0, 0, 0.5)" />	<path d = "M200 24 L127 150 L200 192 L273 150 L200 24 Z" stroke = "#000000" stroke-width = "1" fill = "rgba(0, 0, 0, 0.5)" />	<path d = "M90 214 L118 262 L200 214 L118 167 L90 214 Z" stroke = "#000000" stroke-width = "1" fill = "rgba(0, 0, 0, 0.5)" />	<path d = "M200 214 L282 262 L310 214 L282 167 L200 214 Z" stroke = "#000000" stroke-width = "1" fill = "rgba(0, 0, 0, 0.5)" />	<path d = "M36 309 L98 273 L77 237 L36 309 Z" stroke = "#000000" stroke-width = "1" fill = "rgba(0, 0, 0, 0.5)" />	<path d = "M364 119 L302 156 L323 192 L364 119 Z" stroke = "#000000" stroke-width = "1" fill = "rgba(0, 0, 0, 0.5)" />	<path d = "M364 309 L302 273 L323 237 L364 309 Z" stroke = "#000000" stroke-width = "1" fill = "rgba(0, 0, 0, 0.5)" />	<path d = "M36 119 L98 156 L77 192 L36 119 Z" stroke = "#000000" stroke-width = "1" fill = "rgba(0, 0, 0, 0.5)" />	<path d = "M16 463 L13 461 L13 458 L13 455 L13 453 L13 450 L13 447 L13 445 L13 442 L13 439 L16 439 L16 442 L16 445 L16 447 L16 450 L16 453 L16 455 L16 458 L16 461 L17 461 L17 463 L16 463 Z" stroke = "#000000" stroke-width = "1" fill = "none" />	<path d = "M20 463 L20 461 L20 458 L20 455 L22 455 L22 458 L22 461 L22 463 L20 463 Z" stroke = "#000000" stroke-width = "1" fill = "none" />	<path d = "M25 463 L25 461 L26 461 L26 458 L26 455 L26 453 L26 450 L26 447 L26 445 L26 442 L26 439 L29 439 L29 442 L29 445 L29 447 L29 450 L29 453 L29 455 L29 458 L29 461 L26 463 L25 463 Z" stroke = "#000000" stroke-width = "1" fill = "none" />	<path d = "M37 463 L34 461 L34 458 L34 455 L34 453 L34 450 L34 447 L34 445 L34 442 L34 439 L37 439 L37 442 L37 445 L37 447 L37 450 L37 453 L37 455 L37 458 L37 461 L38 461 L38 463 L37 463 Z" stroke = "#000000" stroke-width = "1" fill = "none" />	<path d = "M41 463 L41 461 L41 458 L41 455 L44 455 L44 458 L44 461 L44 463 L41 463 Z" stroke = "#000000" stroke-width = "1" fill = "none" />	<path d = "M46 463 L46 461 L48 461 L48 458 L48 455 L48 453 L48 450 L48 447 L48 445 L48 442 L48 439 L50 439 L50 442 L50 445 L50 447 L50 450 L50 453 L50 455 L50 458 L50 461 L48 463 L46 463 Z" stroke = "#000000" stroke-width = "1" fill = "none" />	<path d = "M59 463 L56 461 L56 458 L56 455 L56 453 L56 450 L56 447 L56 445 L56 442 L56 439 L59 439 L59 442 L59 445 L59 447 L59 450 L59 453 L59 455 L59 458 L59 461 L60 461 L60 463 L59 463 Z" stroke = "#000000" stroke-width = "1" fill = "none" />	<path d = "M63 463 L63 461 L63 458 L63 455 L65 455 L65 458 L65 461 L65 463 L63 463 Z" stroke = "#000000" stroke-width = "1" fill = "none" />	<path d = "M68 463 L68 461 L69 461 L69 458 L69 455 L69 453 L69 450 L69 447 L69 445 L69 442 L69 439 L72 439 L72 442 L72 445 L72 447 L72 450 L72 453 L72 455 L72 458 L72 461 L69 463 L68 463 Z" stroke = "#000000" stroke-width = "1" fill = "none" />	<path d = "M87 463 L87 461 L84 461 L84 463 L87 463 Z" stroke = "#000000" stroke-width = "1" fill = "none" />	<path d = "M107 463 L106 463 L106 461 L106 458 L106 455 L106 453 L106 450 L106 447 L106 445 L106 442 L103 442 L100 442 L99 442 L99 439 L102 439 L104 439 L107 439 L110 439 L112 439 L115 439 L115 442 L112 442 L110 442 L108 442 L108 445 L108 447 L108 450 L108 453 L108 455 L108 458 L108 461 L108 463 L107 463 Z" stroke = "#000000" stroke-width = "1" fill = "none" />	<path d = "M120 463 L120 461 L120 458 L120 455 L120 453 L120 450 L120 447 L120 445 L120 442 L120 439 L123 439 L123 442 L123 445 L123 447 L123 450 L123 453 L123 455 L123 458 L123 461 L123 463 L120 463 Z" stroke = "#000000" stroke-width = "1" fill = "none" />	<path d = "M126 453 L126 450 L128 450 L131 450 L134 447 L134 445 L131 442 L128 442 L126 442 L126 439 L128 439 L131 439 L134 439 L137 442 L137 445 L137 447 L137 450 L134 453 L131 453 L128 453 L126 453 Z" stroke = "#000000" stroke-width = "1" fill = "none" />	<path d = "M137 463 L137 461 L134 458 L131 455 L128 455 L128 458 L131 461 L134 463 L137 463 Z" stroke = "#000000" stroke-width = "1" fill = "none" />	<path d = "M142 463 L142 461 L142 458 L142 455 L142 453 L142 450 L142 447 L142 445 L145 442 L147 439 L149 439 L149 442 L147 442 L145 445 L145 447 L145 450 L147 450 L149 450 L149 453 L146 453 L145 453 L145 455 L145 458 L145 461 L145 463 L142 463 Z" stroke = "#000000" stroke-width = "1" fill = "none" />	<path d = "M158 463 L155 463 L155 461 L155 458 L155 455 L155 453 L153 453 L151 453 L151 450 L154 450 L155 450 L155 447 L155 445 L153 442 L151 442 L151 439 L153 439 L158 445 L158 447 L158 450 L158 453 L158 455 L158 458 L158 461 L158 463 Z" stroke = "#000000" stroke-width = "1" fill = "none" />	<path d = "M163 442 L166 439 L169 439 L170 439 L170 442 L168 442 L166 442 L166 445 L166 447 L166 450 L169 450 L170 450 L170 453 L168 453 L166 453 L163 450 L163 447 L163 445 L163 442 Z" stroke = "#000000" stroke-width = "1" fill = "none" />	<path d = "M173 442 L173 439 L176 439 L177 439 L180 442 L180 445 L177 445 L177 442 L174 442 L173 442 Z" stroke = "#000000" stroke-width = "1" fill = "none" />	<path d = "M173 453 L173 450 L176 450 L177 450 L180 453 L180 455 L180 458 L180 461 L177 463 L174 463 L173 463 L173 461 L176 461 L177 461 L177 458 L177 455 L177 453 L174 453 L173 453 Z" stroke = "#000000" stroke-width = "1" fill = "none" />	<path d = "M170 463 L170 461 L168 461 L166 461 L166 458 L163 458 L163 461 L166 463 L169 463 L170 463 Z" stroke = "#000000" stroke-width = "1" fill = "none" />	<path d = "M185 463 L185 461 L185 458 L185 455 L185 453 L185 450 L185 447 L185 445 L185 442 L185 439 L188 439 L188 442 L188 445 L188 447 L188 450 L190 450 L192 450 L192 453 L189 453 L188 453 L188 455 L188 458 L188 461 L188 463 L185 463 Z" stroke = "#000000" stroke-width = "1" fill = "none" />	<path d = "M198 463 L198 461 L198 458 L198 455 L198 453 L196 453 L194 453 L194 450 L197 450 L198 450 L198 447 L198 445 L198 442 L198 439 L201 439 L201 442 L201 445 L201 447 L201 450 L201 453 L201 455 L201 458 L201 461 L201 463 L198 463 Z" stroke = "#000000" stroke-width = "1" fill = "none" />	<path d = "M207 463 L207 461 L207 458 L207 455 L207 453 L207 450 L207 447 L207 445 L207 442 L207 439 L209 439 L209 442 L209 445 L209 447 L209 450 L209 453 L209 455 L209 458 L209 461 L209 463 L207 463 Z" stroke = "#000000" stroke-width = "1" fill = "none" />	<path d = "M212 453 L212 450 L215 450 L217 450 L220 447 L220 445 L217 442 L215 442 L212 442 L212 439 L215 439 L217 439 L220 439 L223 442 L223 445 L223 447 L223 450 L220 453 L217 453 L215 453 L212 453 Z" stroke = "#000000" stroke-width = "1" fill = "none" />	<path d = "M223 463 L223 461 L220 458 L217 455 L215 455 L215 458 L217 461 L220 463 L223 463 Z" stroke = "#000000" stroke-width = "1" fill = "none" />	<path d = "M235 463 L235 461 L233 461 L231 458 L231 455 L231 453 L231 450 L231 447 L231 445 L233 442 L235 442 L235 439 L232 439 L231 439 L228 442 L228 445 L228 447 L228 450 L228 453 L228 455 L228 458 L228 461 L231 463 L233 463 L235 463 Z" stroke = "#000000" stroke-width = "1" fill = "none" />	<path d = "M237 463 L237 461 L239 461 L241 458 L241 455 L241 453 L241 450 L241 447 L241 445 L239 442 L237 442 L237 439 L240 439 L241 439 L244 442 L244 445 L244 447 L244 450 L244 453 L244 455 L244 458 L244 461 L241 463 L239 463 L237 463 Z" stroke = "#000000" stroke-width = "1" fill = "none" />	<path d = "M255 463 L255 461 L252 461 L252 458 L252 455 L252 453 L255 453 L255 450 L252 450 L252 447 L252 445 L252 442 L255 442 L255 439 L252 439 L250 439 L250 442 L250 445 L250 447 L250 450 L250 453 L250 455 L250 458 L250 461 L250 463 L252 463 L255 463 Z" stroke = "#000000" stroke-width = "1" fill = "none" />	<path d = "M258 463 L258 461 L260 461 L263 458 L263 455 L263 454 L260 451 L263 449 L263 446 L263 445 L260 442 L258 442 L258 439 L260 439 L266 445 L266 447 L266 450 L264 451 L266 453 L266 455 L266 458 L260 463 L258 463 Z" stroke = "#000000" stroke-width = "1" fill = "none" />	<path d = "M278 463 L278 461 L276 461 L274 458 L274 455 L274 453 L274 450 L274 447 L274 445 L276 442 L278 442 L278 439 L275 439 L274 439 L271 442 L271 445 L271 447 L271 450 L271 453 L271 455 L271 458 L271 461 L274 463 L276 463 L278 463 Z" stroke = "#000000" stroke-width = "1" fill = "none" />	<path d = "M281 463 L281 461 L282 461 L285 458 L285 455 L285 453 L285 450 L285 447 L285 445 L282 442 L281 442 L281 439 L283 439 L285 439 L287 442 L287 445 L287 447 L287 450 L287 453 L287 455 L287 458 L287 461 L285 463 L282 463 L281 463 Z" stroke = "#000000" stroke-width = "1" fill = "none" />	<path d = "M301 463 L299 463 L299 461 L299 458 L299 455 L299 453 L299 450 L299 447 L299 445 L299 442 L297 442 L294 442 L293 442 L293 439 L295 439 L298 439 L301 439 L303 439 L306 439 L309 439 L309 442 L306 442 L303 442 L302 442 L302 445 L302 447 L302 450 L302 453 L302 455 L302 458 L302 461 L302 463 L301 463 Z" stroke = "#000000" stroke-width = "1" fill = "none" />	<path d = "M324 463 L324 461 L321 461 L321 463 L324 463 Z" stroke = "#000000" stroke-width = "1" fill = "none" />	<path d = "M342 463 L342 461 L341 461 L338 458 L338 455 L338 453 L338 450 L338 447 L338 445 L341 442 L342 442 L342 439 L340 439 L338 439 L336 442 L336 445 L336 447 L336 450 L336 453 L336 455 L336 458 L336 461 L338 463 L341 463 L342 463 Z" stroke = "#000000" stroke-width = "1" fill = "none" />	<path d = "M345 463 L345 461 L346 461 L349 458 L349 455 L349 453 L349 450 L349 447 L349 445 L346 442 L345 442 L345 439 L348 439 L349 439 L352 442 L352 445 L352 447 L352 450 L352 453 L352 455 L352 458 L352 461 L349 463 L346 463 L345 463 Z" stroke = "#000000" stroke-width = "1" fill = "none" />	<path d = "M357 463 L357 461 L357 458 L357 455 L357 453 L357 450 L357 447 L357 445 L357 442 L357 439 L360 439 L360 442 L360 445 L360 447 L360 450 L360 453 L360 455 L360 458 L360 461 L360 463 L357 463 Z" stroke = "#000000" stroke-width = "1" fill = "none" />	<path d = "M363 453 L363 450 L365 450 L368 450 L371 447 L371 445 L368 442 L365 442 L363 442 L363 439 L365 439 L368 439 L371 439 L373 442 L373 445 L373 447 L373 450 L371 453 L368 453 L365 453 L363 453 Z" stroke = "#000000" stroke-width = "1" fill = "none" />	<path d = "M373 463 L373 461 L371 458 L368 455 L365 455 L365 458 L368 461 L371 463 L373 463 Z" stroke = "#000000" stroke-width = "1" fill = "none" />	<path d = "M381 463 L379 461 L379 458 L379 455 L379 453 L379 450 L379 447 L379 445 L379 442 L381 439 L384 439 L385 439 L385 442 L383 442 L381 442 L381 445 L381 447 L381 450 L381 453 L381 455 L381 458 L381 461 L384 461 L387 461 L389 461 L389 463 L387 463 L384 463 L381 463 " stroke = "#000000" stroke-width = "1" fill = "none" />	<path d = "M392 463 L392 461 L392 458 L389 458 L388 458 L388 455 L391 455 L393 455 L395 455 L395 458 L395 461 L395 463 L392 463 " stroke = "#000000" stroke-width = "1" fill = "none" />	<path d = "M395 443 L392 443 L392 442 L389 442 L388 442 L388 439 L389 439 L392 439 L395 442 L395 443 " stroke = "#000000" stroke-width = "1" fill = "none" /></svg>