<svg width="400" height="400" viewbox = "0 0 400 400"  xmlns="http://www.w3.org/2000/svg">
<!--<json>{
  "glyph": "0322,0220,0333,0330,0220,0333,0330,0220,0333,0330,0220,0333,0330,0220,0333,0330,0220,0333,0330,0220,0333,0330,0220,0330,0332,0220,0330,0332,0220,0350,0334,0304,0330,0332,0220,0330,0332,0220,0330,0332,0220,0330,0332,0350,0335,0304,0220,0331,0332,0220,0331,0332,0220,0331,0332,0220,0331,0332,0220,0350,0334,0304,0331,0332,0220,0331,0332,0220,0331,0332,0220,0331,0332,0220,0350,0335,0304,0333,0331,0220,0333,0331,0220,0333,0330,0220,0333,0331,0331,0332,0220,0333,0331,0220,0350,0335,0304,0333,0330,0220,0333,0330,0220,0333,0330,0220,0333,0330,0220,0350,0334,0304,0333,0330,0220,0333,0330,0220,0333,0330,0220,0333,0330,0220,0350,0335,0304,0330,0332,0220,0330,0332,0220,0330,0332,0220,0330,0332,0220,0350,0334,0304,0330,0332,0220,0331,0332,0331,0332,0331,0332,0331,0332,0331,0332,0331,0332,0331,0332,0332,0332,0336,0336,0336,0330,0333,0337,0337,0337,0220,",
  "x0": 168.95393384704226,
  "y0": 231.04606615295774,
  "unit": 21.204880918624234,
  "width": 400,
  "height": 400,
  "style": {
    "color0": "black",
    "fill0": "black",
    "line0": 1,
    "color1": "black",
    "fill1": "black",
    "line1": 5,
    "color2": "red",
    "fill2": "red",
    "line2": 1,
    "color3": "#FF7900",
    "fill3": "#FF7900",
    "line3": 4,
    "color4": "yellow",
    "fill4": "yellow",
    "line4": 4,
    "color5": "green",
    "fill5": "green",
    "line5": 4,
    "color6": "blue",
    "fill6": "blue",
    "line6": 4,
    "color7": "purple",
    "fill7": "purple",
    "line7": 4
  },
  "shapes": [
    "0220:0210,0210,0304,0313,0336,0336,0331,0333,0337,0335,0310,0336,0330,0334,0337,0362,0203,0310,0336,0350,0334,0337,0203,0334,0203,0334,0203,0334,0203,0334,0203,0334,0203,0334,0203,0354,0335,0336,0331,0334,0334,0337,0313,0304,0336,0330,0332,0337,0337,0211,0211,",
    "0231:0321,0342,0330,0320,0336,0230,0331,0331,0337,0350,0335,0304,",
    "0232:0231,0231,0231,0231,0231,0231,0231,0231,",
    "0233:0220,0336,0210,0232,",
    "0234:0220,0336,0335,0335,0331,0335,0331,0337,0321,0342,0332,0342,0336,0333,0337,0342,0330,0336,0336,0336,0330,0337,0366,0332,0332,0332,0367,0350,0335,0306,0350,0320,0335,0362,0203,0334,0334,0334,0334,0203,0334,0334,0334,0334,0203,0363,0335,0304,0350,0335,0304,0335,0335,0331,0331,0332,01015,0145,0154,0145,0155,0145,0156,0164,040,0144,0157,0167,0156,0365,0330,0330,0330,0330,0330,0333,0333,0333,0336,0332,0337,0333,0337,0337,",
    "0235:0220,0321,0336,0342,0335,0342,0335,0342,0335,0342,0335,0337,",
    "0236:0321,0220,0335,0336,0321,0342,0335,0335,0342,0335,0337,",
    "0237:0220,0336,0331,0332,0336,0321,0342,0335,0342,0335,0342,0335,0342,0335,0330,0330,0333,0333,0337,0337,",
    "01220:0333,0200,0336,0330,0332,0220,0331,0333,0337,",
    "01221:0333,0200,",
    "01222:0333,0200,",
    "01223:0333,0200,0336,0330,0332,0336,0331,0330,0223,0333,0333,0331,0331,0337,0337,",
    "01224:0333,0200,0336,0330,0332,0336,0332,0337,0335,0224,0334,0336,0331,0333,0333,0337,0337,0336,0336,0331,0333,0337,0337,",
    "01225:0333,0200,0336,0330,0332,0336,0336,0225,0337,0337,0331,0333,0337,",
    "01226:0333,0200,0336,0336,0330,0332,0226,0331,0333,0337,0337,",
    "01227:0333,0200,0336,0330,0332,0336,0331,0333,0337,0227,0336,0331,0333,0337,0337,",
    "01230:0333,0200,0336,0330,0332,0336,0331,0330,0230,0331,0331,0333,0333,0337,0337,",
    "01231:0333,0200,",
    "01232:0333,0200,",
    "01233:0333,0200,",
    "01234:0333,0200,",
    "01235:0333,0200,",
    "01236:0333,0200,",
    "01237:0333,0200,",
    "0240:0220,0336,0331,0333,0336,0321,0335,0342,0335,0335,0342,0335,0330,0330,0332,0332,0337,0337,",
    "01240:0333,0200,0336,0330,0332,0210,0240,0211,0333,0331,0337,",
    "0241:0220,0336,0321,0343,0332,0350,0335,0336,0342,0334,0334,0342,0335,0304,0337,0333,0337,",
    "01241:0333,0200,0336,0332,0330,0210,0241,0211,0333,0331,0337,",
    "0242:0220,0321,0336,0343,0333,0336,0350,0335,0342,0334,0334,0342,0335,0337,0304,0332,0337,",
    "01242:0333,0200,0336,0330,0332,0210,0242,0211,0333,0331,0337,",
    "0243:0220,0336,0331,0332,0336,0321,0343,0332,0350,0334,0336,0342,0335,0335,0342,0337,0334,0334,0335,0304,0332,0330,0330,0337,0337,0333,",
    "01243:0333,0200,0336,0330,0332,0210,0243,0211,0333,0331,0337,",
    "0244:0220,0336,0331,0333,0336,0321,0343,0333,0350,0336,0335,0342,0334,0334,0342,0335,0337,0304,0333,0330,0330,0337,0337,0332,",
    "01244:0333,0200,0336,0330,0332,0210,0244,0211,0333,0331,0337,",
    "0245:0210,0332,0332,0362,0335,0203,0203,0203,0203,0334,0203,0363,0332,0332,0331,0211,",
    "01245:0333,0200,0336,0330,0332,0336,0245,0337,0333,0331,0337,",
    "0246:0210,0332,0332,0335,0306,0336,0330,0335,0335,0335,0321,0362,0203,0335,0335,0203,0364,0331,0350,0335,0337,0366,0333,0333,0333,0333,0334,0334,0334,0334,0367,0335,0336,0342,0334,0334,0342,0330,0330,0330,0330,0335,0335,0335,0304,0337,0211,",
    "01246:0333,0200,0336,0330,0332,0336,0246,",
    "0247:0330,0332,0336,0332,0336,0221,0333,0333,0333,0222,0333,0333,0333,0223,0333,0333,0333,0225,0333,0331,0331,0331,0332,0332,0332,0332,0332,0332,0332,0332,0332,0332,0332,0332,0333,0333,0226,0331,0331,0331,0333,0333,0333,0333,0333,0333,0333,0333,0333,0333,0333,0333,0333,0330,0333,0330,0330,0333,0330,0331,0332,0332,0332,0332,0332,0332,0332,0332,0332,0332,0332,0332,0227,0333,0333,0333,0230,0333,0331,0331,0331,0331,0332,0332,0332,0330,0332,0332,0332,0332,0332,0332,0333,0333,0231,0333,0333,0333,0232,0331,0333,0330,0333,0333,0233,0333,0333,0333,0234,0330,0330,0332,0330,0332,0332,0337,0337,",
    "01247:0333,0200,0336,0330,0332,0220,0336,0247,0337,0331,0333,0337,"
  ]
}</json>-->	<path d = "M179 235 L179 227 L173 221 L165 221 L159 227 L159 235 L165 241 L173 241 L179 235 Z" stroke = "#ff0000" stroke-width = "1" fill = "none" />	<path d = "M200 214 L200 206 L194 200 L186 200 L180 206 L180 214 L186 220 L194 220 L200 214 Z" stroke = "#ff0000" stroke-width = "1" fill = "none" />	<path d = "M221 193 L221 185 L215 179 L207 179 L202 185 L202 193 L207 198 L215 198 L221 193 Z" stroke = "#ff0000" stroke-width = "1" fill = "none" />	<path d = "M242 171 L242 163 L237 158 L229 158 L223 163 L223 171 L229 177 L237 177 L242 171 Z" stroke = "#ff0000" stroke-width = "1" fill = "none" />	<path d = "M264 150 L264 142 L258 136 L250 136 L244 142 L244 150 L250 156 L258 156 L264 150 Z" stroke = "#ff0000" stroke-width = "1" fill = "none" />	<path d = "M285 129 L285 121 L279 115 L271 115 L265 121 L265 129 L271 135 L279 135 L285 129 Z" stroke = "#ff0000" stroke-width = "1" fill = "none" />	<path d = "M306 108 L306 100 L300 94 L292 94 L286 100 L286 108 L292 114 L300 114 L306 108 Z" stroke = "#ff0000" stroke-width = "1" fill = "none" />	<path d = "M327 87 L327 79 L321 73 L313 73 L308 79 L308 87 L313 92 L321 92 L327 87 Z" stroke = "#ff0000" stroke-width = "1" fill = "none" />	<path d = "M306 65 L306 57 L300 52 L292 52 L286 57 L286 65 L292 71 L300 71 L306 65 Z" stroke = "#ff0000" stroke-width = "1" fill = "none" />	<path d = "M285 44 L285 36 L279 30 L271 30 L265 36 L265 44 L271 50 L279 50 L285 44 Z" stroke = "#ff0000" stroke-width = "1" fill = "none" />	<path d = "M255 36 L249 30 L241 30 L235 36 L235 44 L241 50 L249 50 L255 44 L255 36 Z" stroke = "#ff0000" stroke-width = "1" fill = "none" />	<path d = "M225 36 L219 30 L211 30 L205 36 L205 44 L211 50 L219 50 L225 44 L225 36 Z" stroke = "#ff0000" stroke-width = "1" fill = "none" />	<path d = "M195 36 L189 30 L181 30 L175 36 L175 44 L181 50 L189 50 L195 44 L195 36 Z" stroke = "#ff0000" stroke-width = "1" fill = "none" />	<path d = "M165 44 L165 36 L159 30 L151 30 L145 36 L145 44 L151 50 L159 50 L165 44 Z" stroke = "#ff0000" stroke-width = "1" fill = "none" />	<path d = "M144 65 L144 57 L138 52 L130 52 L124 57 L124 65 L130 71 L138 71 L144 65 Z" stroke = "#ff0000" stroke-width = "1" fill = "none" />	<path d = "M122 87 L122 79 L117 73 L109 73 L103 79 L103 87 L109 92 L117 92 L122 87 Z" stroke = "#ff0000" stroke-width = "1" fill = "none" />	<path d = "M101 108 L101 100 L95 94 L87 94 L82 100 L82 108 L87 114 L95 114 L101 108 Z" stroke = "#ff0000" stroke-width = "1" fill = "none" />	<path d = "M80 129 L80 121 L74 115 L66 115 L60 121 L60 129 L66 135 L74 135 L80 129 Z" stroke = "#ff0000" stroke-width = "1" fill = "none" />	<path d = "M80 151 L74 145 L66 145 L60 151 L60 159 L66 165 L74 165 L80 159 L80 151 Z" stroke = "#ff0000" stroke-width = "1" fill = "none" />	<path d = "M80 181 L74 175 L66 175 L60 181 L60 189 L66 195 L74 195 L80 189 L80 181 Z" stroke = "#ff0000" stroke-width = "1" fill = "none" />	<path d = "M80 211 L74 205 L66 205 L60 211 L60 219 L66 225 L74 225 L80 219 L80 211 Z" stroke = "#ff0000" stroke-width = "1" fill = "none" />	<path d = "M80 241 L74 235 L66 235 L60 241 L60 249 L66 255 L74 255 L80 249 L80 241 Z" stroke = "#ff0000" stroke-width = "1" fill = "none" />	<path d = "M101 270 L101 262 L95 256 L87 256 L82 262 L82 270 L87 276 L95 276 L101 270 Z" stroke = "#ff0000" stroke-width = "1" fill = "none" />	<path d = "M122 291 L122 283 L117 278 L109 278 L103 283 L103 291 L109 297 L117 297 L122 291 Z" stroke = "#ff0000" stroke-width = "1" fill = "none" />	<path d = "M144 270 L144 262 L138 256 L130 256 L124 262 L124 270 L130 276 L138 276 L144 270 Z" stroke = "#ff0000" stroke-width = "1" fill = "none" />	<path d = "M144 313 L144 305 L138 299 L130 299 L124 305 L124 313 L130 318 L138 318 L144 313 Z" stroke = "#ff0000" stroke-width = "1" fill = "none" />	<path d = "M165 334 L165 326 L159 320 L151 320 L145 326 L145 334 L151 340 L159 340 L165 334 Z" stroke = "#ff0000" stroke-width = "1" fill = "none" />	<path d = "M189 340 L195 334 L195 326 L189 320 L181 320 L175 326 L175 334 L181 340 L189 340 Z" stroke = "#ff0000" stroke-width = "1" fill = "none" />	<path d = "M219 340 L225 334 L225 326 L219 320 L211 320 L205 326 L205 334 L211 340 L219 340 Z" stroke = "#ff0000" stroke-width = "1" fill = "none" />	<path d = "M249 340 L255 334 L255 326 L249 320 L241 320 L235 326 L235 334 L241 340 L249 340 Z" stroke = "#ff0000" stroke-width = "1" fill = "none" />	<path d = "M279 340 L285 334 L285 326 L279 320 L271 320 L265 326 L265 334 L271 340 L279 340 Z" stroke = "#ff0000" stroke-width = "1" fill = "none" />	<path d = "M306 313 L306 305 L300 299 L292 299 L286 305 L286 313 L292 318 L300 318 L306 313 Z" stroke = "#ff0000" stroke-width = "1" fill = "none" />	<path d = "M327 291 L327 283 L321 278 L313 278 L308 283 L308 291 L313 297 L321 297 L327 291 Z" stroke = "#ff0000" stroke-width = "1" fill = "none" />	<path d = "M348 270 L348 262 L343 256 L335 256 L329 262 L329 270 L335 276 L343 276 L348 270 Z" stroke = "#ff0000" stroke-width = "1" fill = "none" />	<path d = "M370 249 L370 241 L364 235 L356 235 L350 241 L350 249 L356 255 L364 255 L370 249 Z" stroke = "#ff0000" stroke-width = "1" fill = "none" />	<path d = "M364 225 L370 219 L370 211 L364 205 L356 205 L350 211 L350 219 L356 225 L364 225 Z" stroke = "#ff0000" stroke-width = "1" fill = "none" />	<path d = "M364 195 L370 189 L370 181 L364 175 L356 175 L350 181 L350 189 L356 195 L364 195 Z" stroke = "#ff0000" stroke-width = "1" fill = "none" />	<path d = "M364 165 L370 159 L370 151 L364 145 L356 145 L350 151 L350 159 L356 165 L364 165 Z" stroke = "#ff0000" stroke-width = "1" fill = "none" />	<path d = "M364 135 L370 129 L370 121 L364 115 L356 115 L350 121 L350 129 L356 135 L364 135 Z" stroke = "#ff0000" stroke-width = "1" fill = "none" />	<path d = "M348 108 L348 100 L343 94 L335 94 L329 100 L329 108 L335 114 L343 114 L348 108 Z" stroke = "#ff0000" stroke-width = "1" fill = "none" />	<path d = "M160 254 L160 246 L154 240 L146 240 L141 246 L141 254 L146 259 L154 259 L160 254 Z" stroke = "#ff0000" stroke-width = "1" fill = "none" /></svg>