<svg width="400" height="400" viewbox = "0 0 400 400"  xmlns="http://www.w3.org/2000/svg">
<!--<json>{
  "glyph": "0223,",
  "x0": 200,
  "y0": 200,
  "unit": 305.7954522420732,
  "width": 400,
  "height": 400,
  "style": {
    "color0": "black",
    "fill0": "black",
    "line0": 1,
    "color1": "black",
    "fill1": "black",
    "line1": 5,
    "color2": "red",
    "fill2": "#ff000040",
    "line2": 4,
    "color3": "#FF7900",
    "fill3": "#FF7900",
    "line3": 4,
    "color4": "yellow",
    "fill4": "yellow",
    "line4": 4,
    "color5": "green",
    "fill5": "#00ff0040",
    "line5": 4,
    "color6": "blue",
    "fill6": "#0000ff40",
    "line6": 4,
    "color7": "purple",
    "fill7": "purple",
    "line7": 4
  },
  "shapes": [
    "0220:0336,0336,0331,0331,0336,0332,0362,0203,0335,0203,0203,0335,0203,0334,0203,0203,0203,0334,0203,0203,0203,0334,0203,0335,0203,0203,0335,0203,0334,0203,0203,0203,0334,0203,0203,0203,0334,0203,0335,0203,0203,0335,0203,0334,0203,0203,0203,0334,0203,0203,0203,0334,0203,0335,0203,0203,0335,0203,0334,0203,0203,0203,0334,0203,0203,0203,0354,0334,0330,0333,0330,0330,0330,0337,0337,0337,",
    "0221:0336,0336,0331,0331,0336,0334,0362,0203,0335,0203,0334,0203,0203,0335,0203,0203,0334,0203,0335,0203,0203,0335,0203,0334,0203,0203,0203,0335,0203,0203,0203,0203,0203,0203,0335,0203,0203,0203,0334,0203,0335,0203,0203,0335,0203,0334,0203,0203,0335,0203,0203,0334,0203,0335,0203,0354,0335,0330,0330,0330,0330,0337,0337,0337,",
    "0222:0336,0336,0331,0331,0336,0334,0362,0203,0335,0203,0334,0203,0203,0203,0335,0203,0203,0335,0203,0334,0203,0203,0334,0203,0335,0203,0203,0203,0335,0203,0203,0203,0203,0203,0203,0203,0203,0335,0203,0203,0203,0335,0203,0334,0203,0203,0334,0203,0335,0203,0203,0335,0203,0203,0203,0334,0203,0335,0203,0354,0335,0330,0330,0330,0330,0337,0337,0337,",
    "0223:0322,0220,0325,0221,0326,0222,",
    "0224:0220,0333,0220,0333,0220,0331,0220,0332,0220,0332,0220,",
    "0225:0221,0333,0221,0333,0221,0331,0221,0332,0221,0332,0221,",
    "0226:0222,0333,0222,0333,0222,0331,0222,0332,0222,0332,0222,",
    "01220:0333,0200,0336,0330,0332,0336,0220,0337,0331,0333,0337,",
    "01221:0333,0200,0336,0330,0332,0336,0221,0337,0331,0333,0337,",
    "01222:0333,0200,0336,0330,0332,0336,0222,0337,0331,0333,0337,",
    "01223:0333,0200,0336,0330,0332,0336,0223,0337,0331,0333,0337,0320,",
    "01224:0333,0200,0336,0330,0332,0336,0332,0332,0224,0331,0333,0333,0333,0333,0337,0337,",
    "01225:0333,0200,0336,0330,0332,0336,0332,0332,0226,0333,0333,0333,0331,0333,0337,0337,",
    "01226:0333,0200,0336,0330,0332,0336,0332,0332,0226,0333,0333,0333,0331,0333,0337,0337,",
    "01227:0333,0200,",
    "01230:0333,0200,",
    "01231:0333,0200,",
    "01232:0333,0200,",
    "01233:0333,0200,",
    "01234:0333,0200,0336,0330,0332,0336,0332,0336,0332,0332,0337,0234,0331,0331,0337,0337,",
    "01235:0333,0200,0336,0330,0332,0336,0331,0332,0330,0332,0235,0331,0331,0337,0337,",
    "01236:0333,0200,0336,0330,0332,0336,0336,0331,0332,0332,0331,0332,0236,0331,0331,0333,0333,0333,0333,0333,0333,0333,0337,0337,0337,",
    "01237:0333,0200,",
    "0240:0220,0336,0331,0333,0336,0321,0335,0342,0335,0335,0342,0335,0330,0330,0332,0332,0337,0337,",
    "01240:0333,0200,0336,0330,0332,0210,0240,0211,0333,0331,0337,",
    "0241:0220,0336,0321,0343,0332,0350,0335,0336,0342,0334,0334,0342,0335,0304,0337,0333,0337,",
    "01241:0333,0200,0336,0332,0330,0210,0241,0211,0333,0331,0337,",
    "0242:0220,0321,0336,0343,0333,0336,0350,0335,0342,0334,0334,0342,0335,0337,0304,0332,0337,",
    "01242:0333,0200,0336,0330,0332,0210,0242,0211,0333,0331,0337,",
    "0243:0220,0336,0331,0332,0336,0321,0343,0332,0350,0334,0336,0342,0335,0335,0342,0337,0334,0334,0335,0304,0332,0330,0330,0337,0337,0333,",
    "01243:0333,0200,0336,0330,0332,0210,0243,0211,0333,0331,0337,",
    "0244:0220,0336,0331,0333,0336,0321,0343,0333,0350,0336,0335,0342,0334,0334,0342,0335,0337,0304,0333,0330,0330,0337,0337,0332,",
    "01244:0333,0200,0336,0330,0332,0210,0244,0211,0333,0331,0337,",
    "0245:0210,0332,0332,0362,0335,0203,0203,0203,0203,0334,0203,0363,0332,0332,0331,0211,",
    "01245:0333,0200,0336,0330,0332,0336,0245,0337,0333,0331,0337,",
    "0246:0210,0332,0332,0335,0306,0336,0330,0335,0335,0335,0321,0362,0203,0335,0335,0203,0364,0331,0350,0335,0337,0366,0333,0333,0333,0333,0334,0334,0334,0334,0367,0335,0336,0342,0334,0334,0342,0330,0330,0330,0330,0335,0335,0335,0304,0337,0211,",
    "01246:0333,0200,0336,0330,0332,0336,0246,",
    "0247:0330,0332,0336,0332,0336,0221,0333,0333,0333,0222,0333,0333,0333,0223,0333,0333,0333,0225,0333,0331,0331,0331,0332,0332,0332,0332,0332,0332,0332,0332,0332,0332,0332,0332,0333,0333,0226,0331,0331,0331,0333,0333,0333,0333,0333,0333,0333,0333,0333,0333,0333,0333,0333,0330,0333,0330,0330,0333,0330,0331,0332,0332,0332,0332,0332,0332,0332,0332,0332,0332,0332,0332,0227,0333,0333,0333,0230,0333,0331,0331,0331,0331,0332,0332,0332,0330,0332,0332,0332,0332,0332,0332,0333,0333,0231,0333,0333,0333,0232,0331,0333,0330,0333,0333,0233,0333,0333,0333,0234,0330,0330,0332,0330,0332,0332,0337,0337,",
    "01247:0333,0200,0336,0330,0332,0220,0336,0247,0337,0331,0333,0337,"
  ]
}</json>-->	<path d = "M162 353 L162 315 L200 315 L238 315 L238 353 L276 353 L315 353 L353 353 L353 315 L353 276 L353 238 L315 238 L315 200 L315 162 L353 162 L353 124 L353 85 L353 47 L315 47 L276 47 L238 47 L238 85 L200 85 L162 85 L162 47 L124 47 L85 47 L47 47 L47 85 L47 124 L47 162 L85 162 L85 200 L85 238 L47 238 L47 276 L47 315 L47 353 L85 353 L124 353 L162 353 Z" stroke = "#ff0000" stroke-width = "4" fill = "none" />	<path d = "M200 353 L162 353 L162 315 L124 315 L85 315 L85 276 L85 238 L47 238 L47 200 L47 162 L85 162 L85 124 L85 85 L85 47 L124 47 L162 47 L200 47 L238 47 L276 47 L315 47 L315 85 L315 124 L315 162 L353 162 L353 200 L353 238 L315 238 L315 276 L315 315 L276 315 L238 315 L238 353 L200 353 Z" stroke = "#008000" stroke-width = "4" fill = "none" />	<path d = "M200 353 L162 353 L162 315 L124 315 L85 315 L47 315 L47 276 L47 238 L85 238 L85 200 L85 162 L47 162 L47 124 L47 85 L47 47 L85 47 L124 47 L162 47 L200 47 L238 47 L276 47 L315 47 L353 47 L353 85 L353 124 L353 162 L315 162 L315 200 L315 238 L353 238 L353 276 L353 315 L315 315 L276 315 L238 315 L238 353 L200 353 Z" stroke = "#0000ff" stroke-width = "4" fill = "none" /></svg>